<svg xmlns="http://www.w3.org/2000/svg" width="109" height="109" viewBox="0 0 109 109">
  <g id="Grupo_29097" data-name="Grupo 29097" transform="translate(-2951 -2357)">
    <rect id="Rectángulo_5356" data-name="Rectángulo 5356" width="109" height="109" transform="translate(2951 2357)" fill="none"/>
    <g id="Grupo_29091" data-name="Grupo 29091" transform="translate(2333.277 2799.131)">
      <path id="Trazado_58405" data-name="Trazado 58405" d="M679.354-381.463h29.123a1.006,1.006,0,0,1,1,1.006v9.25a41.627,41.627,0,0,0,2.756-14.921,41.755,41.755,0,0,0-41.755-41.755,41.755,41.755,0,0,0-41.756,41.755,41.564,41.564,0,0,0,4.7,19.231v-.884a.892.892,0,0,1,.888-.888H661a.888.888,0,0,1,.883.888v22.519a41.877,41.877,0,0,0,8.594.89,41.944,41.944,0,0,0,7.874-.752v-35.333A1,1,0,0,1,679.354-381.463Z" fill="#f2f2f2"/>
      <path id="Trazado_58406" data-name="Trazado 58406" d="M708.477-381.463h0a1.007,1.007,0,0,1,1,1.006v9.251h0v-9.25A1.006,1.006,0,0,0,708.477-381.463Z" fill="#f2f2f2"/>
      <path id="Trazado_58407" data-name="Trazado 58407" d="M661-368.669h0a.888.888,0,0,1,.883.888v22.519h0v-22.519A.888.888,0,0,0,661-368.669Z" fill="#f2f2f2"/>
      <g id="Grupo_29025" data-name="Grupo 29025">
        <g id="Grupo_29013" data-name="Grupo 29013">
          <path id="Trazado_58408" data-name="Trazado 58408" d="M636.851-368.669l11.814,9.777,10.885-9.777a13.484,13.484,0,0,0,2.956-6.148c1.986-11.259,6.019-13.908,2.535-15.247-3.3-1.268-7.277,1.894-7.277,6.579v-23.15a3.3,3.3,0,0,0-3.295-3.295,3.3,3.3,0,0,0-3.295,3.295V-410.8a3.306,3.306,0,0,0-3.294-3.3,3.306,3.306,0,0,0-3.295,3.3v2.417a3.305,3.305,0,0,0-3.3-3.295,3.307,3.307,0,0,0-3.3,3.295v7.559a2.753,2.753,0,0,0-2.745-2.751,2.869,2.869,0,0,0-2.874,2.751l.005,13.128C632.423-380.59,632.654-373.128,636.851-368.669Z" fill="#d19a6e" fill-rule="evenodd"/>
        </g>
        <g id="Grupo_29014" data-name="Grupo 29014">
          <path id="Trazado_58409" data-name="Trazado 58409" d="M637.991-400.821a2.754,2.754,0,0,0-2.746-2.751c-.046,0-.092.006-.143.006v11.311a1.445,1.445,0,0,0,2.889,0v-8.566Z" fill="#c38c66" fill-rule="evenodd"/>
        </g>
        <g id="Grupo_29015" data-name="Grupo 29015">
          <path id="Trazado_58410" data-name="Trazado 58410" d="M644.585-393.3V-408.38a3.307,3.307,0,0,0-2.889-3.269V-393.3a1.444,1.444,0,0,0,1.442,1.442A1.448,1.448,0,0,0,644.585-393.3Z" fill="#c38c66" fill-rule="evenodd"/>
        </g>
        <g id="Grupo_29016" data-name="Grupo 29016">
          <path id="Trazado_58411" data-name="Trazado 58411" d="M651.175-394.129v-16.689a3.311,3.311,0,0,0-2.89-3.254v19.943a1.453,1.453,0,0,0,1.447,1.448A1.452,1.452,0,0,0,651.175-394.129Z" fill="#c38c66" fill-rule="evenodd"/>
        </g>
        <g id="Grupo_29017" data-name="Grupo 29017">
          <path id="Trazado_58412" data-name="Trazado 58412" d="M665.041-390.064a4.411,4.411,0,0,0-3.238.051c3.248,1.355-.709,4.085-2.669,15.2a14.654,14.654,0,0,1-4.48,7.806h3.372a14.654,14.654,0,0,0,4.48-7.806c1.986-11.259,6.02-13.908,2.535-15.247Z" fill="#c38c66" fill-rule="evenodd"/>
        </g>
        <g id="Grupo_29018" data-name="Grupo 29018">
          <path id="Trazado_58413" data-name="Trazado 58413" d="M682.1-381.463l13.661,6.236,11.156-6.236a14.727,14.727,0,0,0,3.228-6.723c2.176-12.311,6.585-15.211,2.777-16.674-3.613-1.385-7.955,2.074-7.955,7.2v-25.312a3.613,3.613,0,0,0-3.6-3.6,3.614,3.614,0,0,0-3.6,3.6v-4.552a3.614,3.614,0,0,0-3.6-3.6,3.615,3.615,0,0,0-3.607,3.6v2.643a3.614,3.614,0,0,0-3.6-3.6,3.613,3.613,0,0,0-3.6,3.6v8.263a3.012,3.012,0,0,0-3-3,3.138,3.138,0,0,0-3.145,3l.01,14.354C677.26-394.5,677.517-386.338,682.1-381.463Z" fill="#fab991" fill-rule="evenodd"/>
        </g>
        <g id="Grupo_29019" data-name="Grupo 29019">
          <path id="Trazado_58414" data-name="Trazado 58414" d="M683.352-416.622a3.012,3.012,0,0,0-3-3c-.051,0-.1.005-.154.005v12.368a1.579,1.579,0,0,0,3.157,0v-9.371Z" fill="#f4a56d" fill-rule="evenodd"/>
        </g>
        <g id="Grupo_29020" data-name="Grupo 29020">
          <path id="Trazado_58415" data-name="Trazado 58415" d="M690.557-408.4v-16.484a3.614,3.614,0,0,0-3.156-3.577V-408.4a1.581,1.581,0,0,0,1.58,1.581A1.58,1.58,0,0,0,690.557-408.4Z" fill="#f4a56d" fill-rule="evenodd"/>
        </g>
        <g id="Grupo_29021" data-name="Grupo 29021">
          <path id="Trazado_58416" data-name="Trazado 58416" d="M697.767-409.3v-18.249a3.619,3.619,0,0,0-3.161-3.557V-409.3a1.588,1.588,0,0,0,1.58,1.581A1.588,1.588,0,0,0,697.767-409.3Z" fill="#f4a56d" fill-rule="evenodd"/>
        </g>
        <g id="Grupo_29022" data-name="Grupo 29022">
          <path id="Trazado_58417" data-name="Trazado 58417" d="M712.927-404.86a4.849,4.849,0,0,0-3.541.062c3.551,1.478-.775,4.46-2.92,16.612a16.011,16.011,0,0,1-4.9,8.535h3.69a16.03,16.03,0,0,0,4.89-8.535c2.176-12.311,6.585-15.211,2.777-16.674Z" fill="#f4a56d" fill-rule="evenodd"/>
        </g>
        <g id="Grupo_29023" data-name="Grupo 29023">
          <path id="Trazado_58418" data-name="Trazado 58418" d="M665.78-414.729l5.871-5.824.8-.791a5.4,5.4,0,0,0,0-7.436c-1.79-1.858-4.69-1.4-6.6.333-.354.319-.477.478-.575.478s-.221-.159-.575-.478c-1.914-1.729-4.809-2.191-6.605-.333a5.417,5.417,0,0,0,0,7.436l.8.791,5.876,5.824c.251.2.38.308.5.314s.256-.113.508-.314Z" fill="#e33e4e" fill-rule="evenodd"/>
        </g>
        <g id="Grupo_29024" data-name="Grupo 29024">
          <path id="Trazado_58419" data-name="Trazado 58419" d="M665.78-414.729l5.871-5.824.8-.791a5.4,5.4,0,0,0,0-7.436,3.653,3.653,0,0,0-.641-.539,4.286,4.286,0,0,0-3.618-.452,5.408,5.408,0,0,1,.318.452,5.427,5.427,0,0,1-.667,6.585l-.8.8-4.778,4.732,2.5,2.479c.251.2.38.308.5.313s.256-.113.508-.314Z" fill="#bf2e43" fill-rule="evenodd"/>
        </g>
        <path id="Trazado_58420" data-name="Trazado 58420" d="M704.972-399.022v-23.954a3.618,3.618,0,0,0-3.161-3.577v28.889a1.566,1.566,0,0,0,.023.257c-2.407,1.684-4.382,3.918-4.961,5.765a1.4,1.4,0,0,0,.828,1.746,1.375,1.375,0,0,0,.451.077,1.359,1.359,0,0,0,1.3-.978c.374-1.281,2.864-4.119,5.249-5.477a.537.537,0,0,0,.267-.468v-2.28Z" fill="#f4a56d"/>
        <path id="Trazado_58421" data-name="Trazado 58421" d="M657.764-384.842v-21.793a3.3,3.3,0,0,0-2.889-3.269v26.147a.545.545,0,0,1-.214.431c-1.38,1.068-3.955,3.745-4.436,5.393a1.359,1.359,0,0,0,.923,1.685,1.36,1.36,0,0,0,.381.054,1.359,1.359,0,0,0,1.3-.977,9.233,9.233,0,0,1,4.627-4.722.549.549,0,0,0,.3-.488v-2.461Z" fill="#c38c66"/>
      </g>
      <path id="Trazado_58422" data-name="Trazado 58422" d="M656.035-367.781v20.841a41.378,41.378,0,0,0,5.85,1.678v-22.519a.888.888,0,0,0-.883-.888h-5.85a.9.9,0,0,1,.718.37A.911.911,0,0,1,656.035-367.781Z" fill="#6161bc"/>
      <path id="Trazado_58423" data-name="Trazado 58423" d="M701.5-358.181v-22.276a1.007,1.007,0,0,0-1.006-1.006H679.354a1,1,0,0,0-1,1.006v35.333A41.691,41.691,0,0,0,701.5-358.181Z" fill="#62cca2"/>
      <path id="Trazado_58424" data-name="Trazado 58424" d="M708.477-381.463h-7.985a1.007,1.007,0,0,1,1.006,1.006v22.276a41.734,41.734,0,0,0,7.98-13.025v-9.251A1.007,1.007,0,0,0,708.477-381.463Z" fill="#56af89"/>
      <path id="Trazado_58425" data-name="Trazado 58425" d="M656.035-346.94v-20.841a.911.911,0,0,0-.165-.518.9.9,0,0,0-.718-.37H634.306a.892.892,0,0,0-.888.888v.884A41.887,41.887,0,0,0,656.035-346.94Z" fill="#6b6bd6"/>
      <g id="Grupo_29026" data-name="Grupo 29026">
        <path id="Trazado_58426" data-name="Trazado 58426" d="M703.715-347.1l8.232-8.16,1.123-1.108a7.583,7.583,0,0,0,0-10.423c-2.514-2.6-6.574-1.951-9.258.467-.5.446-.672.672-.8.667s-.308-.221-.806-.667c-2.684-2.417-6.743-3.069-9.253-.467a7.583,7.583,0,0,0,0,10.423l1.119,1.108,8.232,8.16c.354.283.533.436.708.442s.354-.159.708-.442Z" fill="#e33e4e" fill-rule="evenodd"/>
      </g>
      <g id="Grupo_29027" data-name="Grupo 29027">
        <path id="Trazado_58427" data-name="Trazado 58427" d="M713.07-356.367a7.583,7.583,0,0,0,0-10.423,5.426,5.426,0,0,0-3.592-1.658,6.907,6.907,0,0,0-2.32.257c.016.01.026.025.042.036a7.583,7.583,0,0,1,0,10.423l-7.816,7.744L702.3-347.1c.354.283.533.436.708.442s.354-.159.708-.442l8.232-8.16Z" fill="#bf2e43" fill-rule="evenodd"/>
      </g>
    </g>
  </g>
</svg>
