<svg xmlns="http://www.w3.org/2000/svg" width="109" height="109" viewBox="0 0 109 109">
  <g id="Grupo_29098" data-name="Grupo 29098" transform="translate(-2951 -2542)">
    <rect id="Rectángulo_5357" data-name="Rectángulo 5357" width="109" height="109" transform="translate(2951 2542)" fill="none"/>
    <g id="Grupo_29092" data-name="Grupo 29092" transform="translate(2437.686 2987.72)">
      <g id="Grupo_29038" data-name="Grupo 29038">
        <path id="Trazado_58435" data-name="Trazado 58435" d="M568.07-359.232H541.03a11.213,11.213,0,0,1-2.468-.282A41.624,41.624,0,0,0,568.07-347.3a41.624,41.624,0,0,0,29.508-12.213,11.215,11.215,0,0,1-2.469.282Z" fill="#f2f2f2"/>
        <path id="Trazado_58436" data-name="Trazado 58436" d="M604.929-408.68a41.742,41.742,0,0,0-36.859-22.132,41.741,41.741,0,0,0-36.859,22.132h73.718Z" fill="#f2f2f2"/>
        <path id="Trazado_58437" data-name="Trazado 58437" d="M609.825-389.057a41.608,41.608,0,0,0-3.511-16.762v33.525A41.609,41.609,0,0,0,609.825-389.057Z" fill="#f2f2f2"/>
        <path id="Trazado_58438" data-name="Trazado 58438" d="M526.314-389.057a41.593,41.593,0,0,0,3.512,16.763v-33.525A41.592,41.592,0,0,0,526.314-389.057Z" fill="#f2f2f2"/>
        <path id="Trazado_58439" data-name="Trazado 58439" d="M529.826-408.68v2.861q.641-1.459,1.385-2.861Z" fill="#e1e4fb"/>
        <path id="Trazado_58440" data-name="Trazado 58440" d="M568.07-359.232V-408.68H531.211q-.747,1.4-1.385,2.861v33.525a41.829,41.829,0,0,0,8.736,12.78,11.213,11.213,0,0,0,2.468.282Z" fill="#e1e4fb"/>
        <path id="Trazado_58441" data-name="Trazado 58441" d="M606.314-408.68h-1.385q.746,1.4,1.385,2.861Z" fill="#c5c9f7"/>
        <path id="Trazado_58442" data-name="Trazado 58442" d="M606.314-372.294v-33.525q-.642-1.459-1.385-2.861H568.07v49.448h27.039a11.215,11.215,0,0,0,2.469-.282A41.829,41.829,0,0,0,606.314-372.294Z" fill="#c5c9f7"/>
      </g>
      <path id="Trazado_58443" data-name="Trazado 58443" d="M563.439-368.2H541.03a2.231,2.231,0,0,1-1.816-.93,2.231,2.231,0,0,1-.311-2.02l2.355-7.068a11.555,11.555,0,0,1,10.976-7.908,11.555,11.555,0,0,1,10.977,7.908l2.5,7.068a2.231,2.231,0,0,1-.311,2.02A2.517,2.517,0,0,1,563.439-368.2Z" fill="#6161bc"/>
      <path id="Trazado_58444" data-name="Trazado 58444" d="M552.234-381.641a8.973,8.973,0,0,1-8.963-8.963,8.974,8.974,0,0,1,8.963-8.964A8.974,8.974,0,0,1,561.2-390.6,8.974,8.974,0,0,1,552.234-381.641Z" fill="#6b6bd6"/>
      <g id="Grupo_29039" data-name="Grupo 29039">
        <path id="Trazado_58445" data-name="Trazado 58445" d="M595.109-381.641H572.551a2.239,2.239,0,0,1-2.24-2.241,2.239,2.239,0,0,1,2.24-2.24h22.558a2.239,2.239,0,0,1,2.241,2.24A2.239,2.239,0,0,1,595.109-381.641Z" fill="#56af89"/>
        <path id="Trazado_58446" data-name="Trazado 58446" d="M595.109-390.6H572.551a2.239,2.239,0,0,1-2.24-2.241,2.239,2.239,0,0,1,2.24-2.241h22.558a2.239,2.239,0,0,1,2.241,2.241A2.239,2.239,0,0,1,595.109-390.6Z" fill="#56af89"/>
        <path id="Trazado_58447" data-name="Trazado 58447" d="M577.033-372.677h-4.482a2.239,2.239,0,0,1-2.24-2.241,2.239,2.239,0,0,1,2.24-2.241h4.482a2.239,2.239,0,0,1,2.241,2.241A2.239,2.239,0,0,1,577.033-372.677Z" fill="#56af89"/>
        <path id="Trazado_58448" data-name="Trazado 58448" d="M595.109-372.677H586a2.239,2.239,0,0,1-2.241-2.241A2.239,2.239,0,0,1,586-377.159h9.112a2.239,2.239,0,0,1,2.241,2.241A2.239,2.239,0,0,1,595.109-372.677Z" fill="#56af89"/>
      </g>
      <path id="Trazado_58449" data-name="Trazado 58449" d="M595.109-422.125H541.03a11.208,11.208,0,0,0-11.2,11.2v4.482a2.218,2.218,0,0,0,2.241,2.24h72.006a2.218,2.218,0,0,0,2.241-2.24v-4.482A11.208,11.208,0,0,0,595.109-422.125Z" fill="#e33e4e"/>
      <path id="Trazado_58450" data-name="Trazado 58450" d="M606.314-410.921v4.482a2.218,2.218,0,0,1-2.241,2.24h-36v-17.926h27.039A11.208,11.208,0,0,1,606.314-410.921Z" fill="#bf2e43"/>
      <path id="Trazado_58451" data-name="Trazado 58451" d="M568.07-435.72a11.465,11.465,0,0,0-11.354,11.354v8.963a2.219,2.219,0,0,0,2.241,2.241h18.076a2.219,2.219,0,0,0,2.241-2.241v-8.963A11.337,11.337,0,0,0,568.07-435.72Z" fill="#ffc800"/>
      <path id="Trazado_58452" data-name="Trazado 58452" d="M577.033-413.162H568.07V-435.72a11.337,11.337,0,0,1,11.2,11.354v8.963A2.219,2.219,0,0,1,577.033-413.162Z" fill="#f4ba00"/>
      <path id="Trazado_58453" data-name="Trazado 58453" d="M570.311-424.366a2.219,2.219,0,0,1-2.241,2.241,2.219,2.219,0,0,1-2.241-2.241,2.219,2.219,0,0,1,2.241-2.241A2.219,2.219,0,0,1,570.311-424.366Z" fill="#e1e4fb"/>
      <path id="Trazado_58454" data-name="Trazado 58454" d="M568.07-422.125v-4.482a2.219,2.219,0,0,1,2.241,2.241A2.219,2.219,0,0,1,568.07-422.125Z" fill="#c5c9f7"/>
    </g>
  </g>
</svg>
