<svg xmlns="http://www.w3.org/2000/svg" width="109" height="109" viewBox="0 0 109 109">
  <g id="Grupo_29099" data-name="Grupo 29099" transform="translate(-2951 -2739)">
    <rect id="Rectángulo_5358" data-name="Rectángulo 5358" width="109" height="109" transform="translate(2951 2739)" fill="none"/>
    <g id="Grupo_29093" data-name="Grupo 29093" transform="translate(2226.26 3179.878)">
      <circle id="Elipse_1362" data-name="Elipse 1362" cx="41.756" cy="41.756" r="41.756" transform="translate(737.899 -427.878)" fill="#f2f2f2"/>
      <g id="Grupo_29036" data-name="Grupo 29036">
        <g id="Grupo_29029" data-name="Grupo 29029">
          <path id="Trazado_58428" data-name="Trazado 58428" d="M751.549-362.43h15.5v2.556c.053,2.8,2.609,3.97,4.614,2.662l13.79-9.542c2.224-1.337,2.224-3.727,0-5.064l-13.79-9.543c-2.005-1.307-4.561-.142-4.614,2.662v2.243H752.957c-8.785,0-13.955-6.384-14.092-12.9-.142-6.8,5.194-13.737,17.629-13.737h-7.862c-12.754,0-19.841,8.448-20.782,17.647a20.4,20.4,0,0,0,0,4.236c.982,9.626,8.7,18.783,23.7,18.783Z" fill="#6b6bd6" fill-rule="evenodd"/>
        </g>
        <g id="Grupo_29030" data-name="Grupo 29030">
          <path id="Trazado_58429" data-name="Trazado 58429" d="M736.985-389.359h22.6a.626.626,0,0,0,.626-.626v-12.484a.626.626,0,0,0-.626-.626h-3.095C744.06-403.1,736.843-396.156,736.985-389.359Z" fill="#5555a5" fill-rule="evenodd"/>
        </g>
        <g id="Grupo_29031" data-name="Grupo 29031">
          <path id="Trazado_58430" data-name="Trazado 58430" d="M773.857-394.192l13.79,9.543c2.005,1.313,4.561.141,4.614-2.663v-2.236h14.085c8.791,0,13.961,6.378,14.1,12.9.142,6.8-5.194,13.737-17.629,13.737h7.863c27.981,0,28.685-40.66-2.923-40.66H792.261v-2.562c-.054-2.8-2.609-3.97-4.615-2.662l-13.789,9.542c-2.224,1.337-2.224,3.727,0,5.064Z" fill="#62cca2" fill-rule="evenodd"/>
        </g>
        <g id="Grupo_29032" data-name="Grupo 29032">
          <path id="Trazado_58431" data-name="Trazado 58431" d="M799.093-376.025v12.484a.627.627,0,0,0,.627.627h3.094c12.435,0,17.771-6.94,17.629-13.737H799.72A.627.627,0,0,0,799.093-376.025Z" fill="#7fdbae" fill-rule="evenodd"/>
        </g>
        <g id="Grupo_29033" data-name="Grupo 29033">
          <path id="Trazado_58432" data-name="Trazado 58432" d="M731.82-389.359c.136,6.52,5.306,12.9,14.091,12.9h7.046c-8.785,0-13.955-6.383-14.092-12.9-.142-6.8,5.194-13.736,17.629-13.736h-7.045c-12.435,0-17.771,6.939-17.629,13.736Z" fill="#6161bc" fill-rule="evenodd"/>
        </g>
        <g id="Grupo_29034" data-name="Grupo 29034">
          <path id="Trazado_58433" data-name="Trazado 58433" d="M791.385-399.35H802.7c23.261,0,29.017,22.018,19.291,33.649,16.068-9.181,12.317-37.873-14.233-37.873H792.261v-2.562c-.053-2.8-2.609-3.97-4.614-2.662l-5.336,3.691a2.982,2.982,0,0,1,2.8,3.2c0,3.384,2.573,2.556,6.27,2.556Z" fill="#56af89" fill-rule="evenodd"/>
        </g>
        <g id="Grupo_29035" data-name="Grupo 29035">
          <path id="Trazado_58434" data-name="Trazado 58434" d="M767.048-378.426l16.99,12.648,1.414-.976c2.224-1.337,2.224-3.727,0-5.064l-13.79-9.542c-2.005-1.308-4.561-.142-4.614,2.662v.272Z" fill="#6161bc" fill-rule="evenodd"/>
        </g>
      </g>
    </g>
  </g>
</svg>
