<svg xmlns="http://www.w3.org/2000/svg" xmlns:xlink="http://www.w3.org/1999/xlink" width="109" height="109" viewBox="0 0 109 109">
  <defs>
    <clipPath id="clip-path">
      <circle id="Elipse_1362" data-name="Elipse 1362" cx="43.241" cy="43.241" r="43.241" transform="translate(419.678 -333.096)" fill="none"/>
    </clipPath>
  </defs>
  <g id="Grupo_29100" data-name="Grupo 29100" transform="translate(-2950 -2937)">
    <rect id="Rectángulo_5359" data-name="Rectángulo 5359" width="109" height="109" transform="translate(2950 2937)" fill="none"/>
    <g id="Grupo_29094" data-name="Grupo 29094" transform="translate(2543.261 3286.112)">
      <g id="Grupo_29064" data-name="Grupo 29064">
        <g id="Grupo_29063" data-name="Grupo 29063" clip-path="url(#clip-path)">
          <rect id="Rectángulo_5346" data-name="Rectángulo 5346" width="95.834" height="89.935" transform="translate(413.961 -334.062)" fill="#f2f2f2"/>
        </g>
      </g>
      <g id="flat">
        <path id="Trazado_58539" data-name="Trazado 58539" d="M495.407-276.093l-.141-.141a13.577,13.577,0,0,0-19.2,0l-.141.141H462.006a4.175,4.175,0,0,0-4.175,4.175,4.124,4.124,0,0,0,.127,1.026l-14.012-4.671a4.254,4.254,0,0,0-5.381,2.691,4.246,4.246,0,0,0-.219,1.346v.091a4.263,4.263,0,0,0,1.97,3.611l24.158,15.374a12.18,12.18,0,0,0,9.638,1.5l21.3-5.6h6.959v-19.541Z" fill="#fab991"/>
        <path id="Trazado_58540" data-name="Trazado 58540" d="M462.006-267.743a4.178,4.178,0,0,1-4.048-3.147l-14.012-4.673a4.229,4.229,0,0,0-1.811-.2l18.479,10.379h15.309v-2.364Z" fill="#e7985b"/>
        <path id="Trazado_58541" data-name="Trazado 58541" d="M454.729-301.575l-3.253.554a3.489,3.489,0,0,1-4.024-2.855,3.472,3.472,0,0,1-.049-.636,3.487,3.487,0,0,1,2.9-3.388l4.528-.77Z" fill="#e7985b"/>
        <path id="Trazado_58542" data-name="Trazado 58542" d="M461.825-301.471l-5.386.916a3.08,3.08,0,0,1-3.1-1.366,3.081,3.081,0,0,1,.917-4.259,3.056,3.056,0,0,1,.625-.31l8.706-3.144Z" fill="#e7985b"/>
        <path id="Trazado_58543" data-name="Trazado 58543" d="M455.9-306.669l1.172-5.442,13.605,2.929,1.392-6.463a6.265,6.265,0,0,0-1.394-5.425L465.522-327a6.262,6.262,0,0,0-4.847-2.155l-21.374.407-17.655-8.8v20.876l11.126,5.026,2.3,2.819a15.037,15.037,0,0,0,8.489,5.2,12.738,12.738,0,0,0,8.365-1.053Z" fill="#fab991"/>
        <g id="Grupo_29065" data-name="Grupo 29065">
          <path id="Trazado_58544" data-name="Trazado 58544" d="M469.451-305.1l-.732,3.4a3.478,3.478,0,0,1-4.133,2.669h0a3.479,3.479,0,0,1-2.669-4.133h0l.733-3.4Z" fill="#f4a56d"/>
          <path id="Trazado_58545" data-name="Trazado 58545" d="M464.756-313.336a1.394,1.394,0,0,1-1.393-1.395,1.34,1.34,0,0,1,.031-.29l.586-2.721a1.391,1.391,0,0,1,1.653-1.068,1.392,1.392,0,0,1,1.068,1.654l-.586,2.721A1.393,1.393,0,0,1,464.756-313.336Z" fill="#f4a56d"/>
          <path id="Trazado_58546" data-name="Trazado 58546" d="M461.327-312.558a1.394,1.394,0,0,1-1.295-.881l-2.5-6.325a1.392,1.392,0,0,1,.784-1.8,1.391,1.391,0,0,1,1.8.783h0l2.5,6.325a1.39,1.39,0,0,1-.783,1.8A1.374,1.374,0,0,1,461.327-312.558Z" fill="#f4a56d"/>
        </g>
        <path id="Trazado_58547" data-name="Trazado 58547" d="M475.923-266.561a1.183,1.183,0,0,1-1.183,1.183h-8.4a21.888,21.888,0,0,1-10.72-2.805l-13.486-7.575a4.229,4.229,0,0,1,1.811.2l14.012,4.673a4.178,4.178,0,0,0,4.048,3.147H474.74a1.183,1.183,0,0,1,1.183,1.182Z" fill="#f4a56d"/>
        <g id="Grupo_29066" data-name="Grupo 29066">
          <path id="Trazado_53299" data-name="Trazado 53299" d="M474.9-302.2c-2.391-3.667-4.746-6.579-4.845-6.7a1.672,1.672,0,0,0-2.351-.245,1.627,1.627,0,0,0-.248.25c-.1.124-2.452,3.064-4.842,6.738-3.374,5.192-5.013,9.019-5.013,11.7a11.157,11.157,0,0,0,11.157,11.156,11.156,11.156,0,0,0,11.156-11.156C479.912-293.149,478.225-297.1,474.9-302.2Z" fill="#e33e4e"/>
          <path id="Trazado_53300" data-name="Trazado 53300" d="M479.912-290.461A11.169,11.169,0,0,1,468.8-279.3v-30.216a1.658,1.658,0,0,1,1.254.617c.1.122,2.454,3.033,4.846,6.7,3.326,5.1,5.013,9.054,5.013,11.744Z" fill="#bf2e43"/>
          <path id="Trazado_53305" data-name="Trazado 53305" d="M471.518-292.071h-1.051v-1.063a1.671,1.671,0,0,0-1.665-1.677,1.67,1.67,0,0,0-1.677,1.664v1.076h-1.052A1.671,1.671,0,0,0,464.4-290.4a1.671,1.671,0,0,0,1.671,1.671h1.052v1.063a1.67,1.67,0,0,0,1.665,1.677,1.671,1.671,0,0,0,1.677-1.665v-1.075h1.051a1.67,1.67,0,0,0,1.672-1.67,1.67,1.67,0,0,0-1.669-1.672Z" fill="#e4edef"/>
          <path id="Trazado_53306" data-name="Trazado 53306" d="M473.188-290.4a1.671,1.671,0,0,1-1.671,1.671h-1.052v1.062A1.671,1.671,0,0,1,468.794-286v-8.8a1.671,1.671,0,0,1,1.671,1.671v1.064h1.052A1.671,1.671,0,0,1,473.188-290.4Z" fill="#bfdfe7"/>
        </g>
        <path id="Trazado_58548" data-name="Trazado 58548" d="M443.845-303.57a11.9,11.9,0,0,0,7.818-.985l4.238-2.114,11.3,1.379A4.365,4.365,0,0,0,472-308.7a4.363,4.363,0,0,0-3.348-5.185h0l-10.7-2.3-10.885-2.343Z" fill="#fab991"/>
      </g>
      <rect id="Rectángulo_5347" data-name="Rectángulo 5347" width="15.897" height="27.491" rx="4.206" transform="translate(499.263 -280.211)" fill="#6b6bd6"/>
      <rect id="Rectángulo_5348" data-name="Rectángulo 5348" width="15.897" height="27.491" rx="4.206" transform="translate(420.244 -343.112) rotate(27.057)" fill="#ffc800"/>
      <path id="Rectángulo_5349" data-name="Rectángulo 5349" d="M0,0H15.9a0,0,0,0,1,0,0V3.611a3.72,3.72,0,0,1-3.72,3.72H3.72A3.72,3.72,0,0,1,0,3.611V0A0,0,0,0,1,0,0Z" transform="translate(499.263 -260.051)" fill="#6161bc"/>
      <path id="Rectángulo_5350" data-name="Rectángulo 5350" d="M0,0H15.9a0,0,0,0,1,0,0V3.611a3.72,3.72,0,0,1-3.72,3.72H3.72A3.72,3.72,0,0,1,0,3.611V0A0,0,0,0,1,0,0Z" transform="translate(411.095 -325.191) rotate(27.057)" fill="#f4ba00"/>
    </g>
  </g>
</svg>
