<svg xmlns="http://www.w3.org/2000/svg" width="109" height="109" viewBox="0 0 109 109">
  <g id="Grupo_29101" data-name="Grupo 29101" transform="translate(-2951 -3115)">
    <rect id="Rectángulo_5360" data-name="Rectángulo 5360" width="109" height="109" transform="translate(2951 3115)" fill="none"/>
    <g id="Grupo_29095" data-name="Grupo 29095" transform="translate(2545.354 3559.568)">
      <path id="Trazado_58455" data-name="Trazado 58455" d="M502.158-385.759A41.756,41.756,0,0,0,460.4-427.515a41.756,41.756,0,0,0-41.756,41.756,41.647,41.647,0,0,0,14.407,31.538l.2-.274-1.855-41.22-.248-1.119,18.825-10.633.376.809,10.26,14.226,10.259-14.226.6-.809,18.577,10.633-.224,1.119L488.4-354.781A41.646,41.646,0,0,0,502.158-385.759Z" fill="#f2f2f2"/>
      <path id="Trazado_58456" data-name="Trazado 58456" d="M450.349-406.658l-.376-.809-18.826,10.633.248,1.119,1.856,41.22,27.357-37.936Z" fill="#b6b6ff"/>
      <path id="Trazado_58457" data-name="Trazado 58457" d="M471.469-407.467l-.6.809-10.259,14.226-27.358,37.937-.2.274A41.581,41.581,0,0,0,460.4-344,41.6,41.6,0,0,0,488.4-354.781l1.425-40.934.224-1.119Z" fill="#aef0ff"/>
      <g id="Grupo_29048" data-name="Grupo 29048">
        <g id="Grupo_29046" data-name="Grupo 29046">
          <g id="Grupo_29045" data-name="Grupo 29045">
            <g id="Grupo_29041" data-name="Grupo 29041">
              <path id="Trazado_58458" data-name="Trazado 58458" d="M478.709-414.767,473.6-411.4l-.347.525,19.129,11.064.171-.646.367-6.107.335-.579-14.343-7.988Z" fill="#1c3173"/>
              <path id="Trazado_58459" data-name="Trazado 58459" d="M490.105-408.9l-.33,7.579,2.611,1.51.171-.646.367-6.107.335-.58Z" fill="#162664"/>
            </g>
            <g id="Grupo_29042" data-name="Grupo 29042">
              <path id="Trazado_58460" data-name="Trazado 58460" d="M483.863-423.694l-5.154,8.927,14.215,8.207,6.155-10.661a1.368,1.368,0,0,0-.5-1.869l-6.51-3.758Z" fill="#355b90"/>
            </g>
            <g id="Grupo_29043" data-name="Grupo 29043">
              <path id="Trazado_58461" data-name="Trazado 58461" d="M470.794-406.7l19.1,11.029a1.283,1.283,0,0,0,1.752-.47l1.453-2.517a1.283,1.283,0,0,0-.469-1.752l-19.1-11.028a1.283,1.283,0,0,0-1.752.469l-1.453,2.518A1.28,1.28,0,0,0,470.794-406.7Z" fill="#355b90"/>
            </g>
            <g id="Grupo_29044" data-name="Grupo 29044">
              <path id="Trazado_58462" data-name="Trazado 58462" d="M498.579-419.09l-6.51-3.758-4.647-.479,7.359,4.237a1.368,1.368,0,0,1,.5,1.869l-5.206,9.017,2.849,1.644,6.155-10.661a1.368,1.368,0,0,0-.5-1.869Z" fill="#2b4983"/>
              <path id="Trazado_58463" data-name="Trazado 58463" d="M492.6-400.43l-19.035-10.99a1.321,1.321,0,0,0-1.8.484l-.289.5L488.8-400.43a1.321,1.321,0,0,1,.483,1.8l-1.125,1.949,1.7.984a1.321,1.321,0,0,0,1.8-.483l1.415-2.45A1.322,1.322,0,0,0,492.6-400.43Z" fill="#2b4983"/>
            </g>
          </g>
        </g>
        <g id="Grupo_29047" data-name="Grupo 29047">
          <path id="Trazado_58464" data-name="Trazado 58464" d="M500.106-431.1a1.539,1.539,0,0,0,1.539-1.539v-2.393a1.539,1.539,0,0,0-1.539-1.539h-24.28a1.539,1.539,0,0,0-1.539,1.539v2.393a1.539,1.539,0,0,0,1.539,1.539Z" fill="#355b90"/>
          <path id="Trazado_58465" data-name="Trazado 58465" d="M500.106-431.1a1.539,1.539,0,0,0,1.539-1.539v-2.393a1.539,1.539,0,0,0-1.539-1.539h-24.28a1.539,1.539,0,0,0-1.539,1.539v2.393a1.539,1.539,0,0,0,1.539,1.539Z" fill="#355b90"/>
          <path id="Trazado_58466" data-name="Trazado 58466" d="M500.106-436.567h-3.8a1.539,1.539,0,0,1,1.539,1.539v2.393a1.539,1.539,0,0,1-1.539,1.539h3.8a1.539,1.539,0,0,0,1.539-1.539v-2.393A1.539,1.539,0,0,0,500.106-436.567Z" fill="#2b4983"/>
          <path id="Trazado_58467" data-name="Trazado 58467" d="M492.07-418.86v-17.708h-8.207v17.708a1.442,1.442,0,0,0,1.442,1.443h5.322A1.443,1.443,0,0,0,492.07-418.86Z" fill="#e9f5fc"/>
          <path id="Trazado_58468" data-name="Trazado 58468" d="M488.272-436.568V-418.9a1.487,1.487,0,0,1-1.487,1.487h3.8a1.487,1.487,0,0,0,1.487-1.487v-17.664Z" fill="#c5e0fa"/>
        </g>
      </g>
      <g id="Grupo_29055" data-name="Grupo 29055">
        <g id="Grupo_29053" data-name="Grupo 29053">
          <g id="Grupo_29052" data-name="Grupo 29052">
            <path id="Trazado_58469" data-name="Trazado 58469" d="M442.509-414.767l5.105,3.371.346.525-19.128,11.064-.172-.646-.367-6.107-.334-.579,14.342-7.988Z" fill="#1c3173"/>
            <path id="Trazado_58470" data-name="Trazado 58470" d="M438.706-412.572l5.105,3.37.346.526-.026.02,3.829-2.215-.346-.525-5.105-3.371-.208-.36-3.833,2.135Z" fill="#162664"/>
            <g id="Grupo_29049" data-name="Grupo 29049">
              <path id="Trazado_58471" data-name="Trazado 58471" d="M437.355-423.694l5.154,8.927-14.216,8.207-6.155-10.661a1.367,1.367,0,0,1,.5-1.869l6.51-3.758Z" fill="#355b90"/>
            </g>
            <g id="Grupo_29050" data-name="Grupo 29050">
              <path id="Trazado_58472" data-name="Trazado 58472" d="M450.423-406.7l-19.1,11.029a1.282,1.282,0,0,1-1.752-.47l-1.454-2.517a1.282,1.282,0,0,1,.47-1.752l19.1-11.028a1.282,1.282,0,0,1,1.751.469l1.454,2.518A1.281,1.281,0,0,1,450.423-406.7Z" fill="#355b90"/>
            </g>
            <g id="Grupo_29051" data-name="Grupo 29051">
              <path id="Trazado_58473" data-name="Trazado 58473" d="M450.873-408.486l-1.414-2.45a1.321,1.321,0,0,0-1.805-.484l-1.7.985,1.125,1.949a1.32,1.32,0,0,1-.484,1.8l-17.329,10.006.289.5a1.321,1.321,0,0,0,1.805.483l19.035-10.989a1.321,1.321,0,0,0,.483-1.8Z" fill="#2b4983"/>
              <path id="Trazado_58474" data-name="Trazado 58474" d="M438.71-412.574l3.8-2.193-5.154-8.927-4.781.493Z" fill="#2b4983"/>
            </g>
          </g>
        </g>
        <g id="Grupo_29054" data-name="Grupo 29054">
          <path id="Trazado_58475" data-name="Trazado 58475" d="M445.391-431.1a1.539,1.539,0,0,0,1.539-1.539v-2.393a1.539,1.539,0,0,0-1.539-1.539h-24.28a1.538,1.538,0,0,0-1.538,1.539v2.393a1.538,1.538,0,0,0,1.538,1.539Z" fill="#355b90"/>
          <path id="Trazado_58476" data-name="Trazado 58476" d="M445.391-431.1a1.539,1.539,0,0,0,1.539-1.539v-2.393a1.539,1.539,0,0,0-1.539-1.539h-24.28a1.538,1.538,0,0,0-1.538,1.539v2.393a1.538,1.538,0,0,0,1.538,1.539Z" fill="#355b90"/>
          <path id="Trazado_58477" data-name="Trazado 58477" d="M445.391-436.567h-3.8a1.539,1.539,0,0,1,1.539,1.539v2.393a1.539,1.539,0,0,1-1.539,1.539h3.8a1.539,1.539,0,0,0,1.539-1.539v-2.393A1.539,1.539,0,0,0,445.391-436.567Z" fill="#2b4983"/>
          <path id="Trazado_58478" data-name="Trazado 58478" d="M437.355-418.86v-17.708h-8.207v17.708a1.443,1.443,0,0,0,1.442,1.443h5.322A1.443,1.443,0,0,0,437.355-418.86Z" fill="#e9f5fc"/>
          <path id="Trazado_58479" data-name="Trazado 58479" d="M433.557-436.568V-418.9a1.487,1.487,0,0,1-1.487,1.487h3.8a1.487,1.487,0,0,0,1.486-1.487v-17.664Z" fill="#c5e0fa"/>
        </g>
      </g>
      <g id="Grupo_29056" data-name="Grupo 29056">
        <path id="Trazado_58480" data-name="Trazado 58480" d="M427.78-377.62h-1.5v-1.5a1.239,1.239,0,0,0-1.239-1.239,1.238,1.238,0,0,0-1.238,1.239v1.5h-1.5a1.238,1.238,0,0,0-1.238,1.239,1.238,1.238,0,0,0,1.238,1.238h1.5v1.5a1.238,1.238,0,0,0,1.238,1.239,1.239,1.239,0,0,0,1.239-1.239v-1.5h1.5a1.238,1.238,0,0,0,1.238-1.238A1.239,1.239,0,0,0,427.78-377.62Z" fill="#ffc800"/>
        <path id="Trazado_58481" data-name="Trazado 58481" d="M498.909-377.62h-1.5v-1.5a1.239,1.239,0,0,0-1.239-1.239,1.239,1.239,0,0,0-1.238,1.239v1.5h-1.5a1.239,1.239,0,0,0-1.239,1.239,1.238,1.238,0,0,0,1.239,1.238h1.5v1.5a1.238,1.238,0,0,0,1.238,1.239,1.239,1.239,0,0,0,1.239-1.239v-1.5h1.5a1.238,1.238,0,0,0,1.238-1.238A1.239,1.239,0,0,0,498.909-377.62Z" fill="#ffc800"/>
        <path id="Trazado_58482" data-name="Trazado 58482" d="M460.609-415.92a3.979,3.979,0,0,0-3.975,3.974,3.978,3.978,0,0,0,3.975,3.974,3.978,3.978,0,0,0,3.974-3.974A3.979,3.979,0,0,0,460.609-415.92Zm0,5.471a1.5,1.5,0,0,1-1.5-1.5,1.5,1.5,0,0,1,1.5-1.5,1.5,1.5,0,0,1,1.5,1.5A1.5,1.5,0,0,1,460.609-410.449Z" fill="#6b6bd6"/>
      </g>
      <g id="Grupo_29057" data-name="Grupo 29057">
        <path id="Trazado_53299" data-name="Trazado 53299" d="M466.953-375.048c-2.1-3.226-4.175-5.788-4.262-5.9a1.47,1.47,0,0,0-2.068-.215,1.47,1.47,0,0,0-.219.22c-.087.109-2.157,2.7-4.259,5.928-2.969,4.567-4.411,7.935-4.411,10.291a9.815,9.815,0,0,0,9.815,9.815,9.815,9.815,0,0,0,9.816-9.815C471.365-367.083,469.881-370.559,466.953-375.048Z" fill="#e33e4e"/>
        <path id="Trazado_53300" data-name="Trazado 53300" d="M471.365-364.718a9.827,9.827,0,0,1-9.778,9.815v-26.583a1.46,1.46,0,0,1,1.1.542c.087.108,2.158,2.669,4.263,5.9,2.927,4.488,4.411,7.965,4.411,10.332Z" fill="#bf2e43"/>
        <path id="Trazado_53305" data-name="Trazado 53305" d="M463.98-366.135h-.924v-.935a1.47,1.47,0,0,0-1.465-1.475,1.47,1.47,0,0,0-1.475,1.464v.946h-.926a1.471,1.471,0,0,0-1.47,1.471,1.47,1.47,0,0,0,1.47,1.47h.926v.935a1.469,1.469,0,0,0,1.464,1.475,1.47,1.47,0,0,0,1.476-1.464v-.946h.924a1.471,1.471,0,0,0,1.472-1.469,1.471,1.471,0,0,0-1.469-1.472Z" fill="#e4edef"/>
        <path id="Trazado_53306" data-name="Trazado 53306" d="M465.45-364.666a1.47,1.47,0,0,1-1.47,1.47h-.926v.934a1.471,1.471,0,0,1-1.47,1.471v-7.745a1.47,1.47,0,0,1,1.47,1.47v.936h.926A1.471,1.471,0,0,1,465.45-364.666Z" fill="#bfdfe7"/>
      </g>
    </g>
  </g>
</svg>
