<svg xmlns="http://www.w3.org/2000/svg" width="81.359" height="83.607" viewBox="0 0 81.359 83.607">
  <g id="Grupo_27349" data-name="Grupo 27349" transform="translate(-616.297 -169.872)">
    <circle id="Elipse_1362" data-name="Elipse 1362" cx="40.317" cy="40.317" r="40.317" transform="translate(616.297 172.845)" fill="#f2f2f2"/>
    <g id="Grupo_27348" data-name="Grupo 27348" transform="translate(627.683 169.872)">
      <path id="Trazado_56772" data-name="Trazado 56772" d="M657.667,226.03H643.538A3.03,3.03,0,0,1,640.511,223v-5.046H643.2V223a.336.336,0,0,0,.336.337h14.129A.338.338,0,0,0,658,223V199.118H660.7V223A3.032,3.032,0,0,1,657.667,226.03Z" transform="translate(-609.56 -147.982)" fill="#e33e4e"/>
      <g id="Grupo_27346" data-name="Grupo 27346">
        <path id="Trazado_56773" data-name="Trazado 56773" d="M657.124,177.946H653.76V176.6a6.728,6.728,0,0,0-6.728-6.728h-5.384a6.729,6.729,0,0,0-6.728,6.728v1.346h-3.364a8.757,8.757,0,0,0-8.748,8.746v37.4a10.417,10.417,0,0,0,7.132,9.895l.943.315v8.23h5.383V236.1l1.053.35a22.108,22.108,0,0,0,4.329.977V247.92h5.384V237.427a22.261,22.261,0,0,0,4.329-.976l1.053-.351v6.436H657.8v-8.23l.944-.315a10.416,10.416,0,0,0,7.13-9.895v-37.4a8.756,8.756,0,0,0-8.746-8.746Z" transform="translate(-622.809 -169.872)" fill="#bfdfe7"/>
        <path id="Trazado_56774" data-name="Trazado 56774" d="M654.732,223.124l-7.379,2.46a16.824,16.824,0,0,1-10.638,0l-7.378-2.46a5.044,5.044,0,0,1-3.45-4.787v-37.4a3.364,3.364,0,0,1,3.364-3.364H654.82a3.365,3.365,0,0,1,3.364,3.364v37.4A5.043,5.043,0,0,1,654.732,223.124Z" transform="translate(-620.505 -164.112)" fill="#e33e4e"/>
        <path id="Trazado_56775" data-name="Trazado 56775" d="M625.482,182.956H659.1v26.912H625.482Z" transform="translate(-620.808 -160.079)" fill="#fef8f7"/>
        <g id="Grupo_27345" data-name="Grupo 27345" transform="translate(10.765 2.691)">
          <path id="Trazado_56776" data-name="Trazado 56776" d="M633.584,171.411h5.384V174.1h-5.384Z" transform="translate(-625.51 -171.411)" fill="#e33e4e"/>
          <path id="Trazado_56777" data-name="Trazado 56777" d="M642.424,190.841h-4.037V186.8H633v4.037h-4.037v5.382H633v4.037h5.384v-4.037h4.037Z" transform="translate(-628.966 -159.89)" fill="#e33e4e"/>
          <path id="Trazado_56778" data-name="Trazado 56778" d="M637.432,194.5h8.074v2.691h-8.074Z" transform="translate(-622.63 -154.13)" fill="#e33e4e"/>
        </g>
      </g>
      <g id="Grupo_27347" data-name="Grupo 27347" transform="translate(29.603 18.839)">
        <path id="Trazado_56779" data-name="Trazado 56779" d="M677.421,183.478a8.865,8.865,0,0,0-12.989,0l-4.506,4.742-4.509-4.742a8.863,8.863,0,0,0-12.988,0,10.025,10.025,0,0,0,0,13.666l17.5,18.408,17.5-18.408a10.025,10.025,0,0,0,0-13.666Z" transform="translate(-639.74 -180.647)" fill="#fdbf44"/>
        <path id="Trazado_56780" data-name="Trazado 56780" d="M658.584,200.26a1.346,1.346,0,0,1-1.14-.633l-5.457-8.73-1.617,3.236a1.343,1.343,0,0,1-1.2.743h-4.037v-2.691h3.207l2.318-4.639a1.346,1.346,0,0,1,2.345-.112l5.322,8.517,1.706-4.266a1.346,1.346,0,0,1,1.25-.844H668v2.691h-5.817l-2.353,5.882a1.347,1.347,0,0,1-1.129.841q-.06.005-.121.005Z" transform="translate(-635.707 -176.039)" fill="#fffcf8"/>
      </g>
    </g>
  </g>
</svg>
