<svg xmlns="http://www.w3.org/2000/svg" width="32" height="47.353" viewBox="0 0 32 47.353">
  <g id="Grupo_29017" data-name="Grupo 29017" transform="translate(-886.89 -812.064)">
    <rect id="Line" width="16.157" height="1.838" transform="translate(886.89 812.064)" fill="#00223d"/>
    <g id="Grupo_27131" data-name="Grupo 27131" transform="translate(886.89 827.417)">
      <path id="Trazado_55253" data-name="Trazado 55253" d="M128.358,416.552a16,16,0,1,0,16,16,16.019,16.019,0,0,0-16-16Zm0,29.657a13.657,13.657,0,1,1,13.656-13.657A13.672,13.672,0,0,1,128.358,446.209Z" transform="translate(-112.358 -416.552)" fill="#00223d"/>
      <path id="Trazado_55254" data-name="Trazado 55254" d="M127.248,453.417a1.31,1.31,0,0,0,1.848-.141,7.861,7.861,0,0,1,11.939,0,1.311,1.311,0,0,0,1.99-1.707,10.483,10.483,0,0,0-15.919,0,1.31,1.31,0,0,0,.141,1.848Z" transform="translate(-119.065 -429.646)" fill="#00223d"/>
      <path id="Trazado_55255" data-name="Trazado 55255" d="M127.631,437.956a1.311,1.311,0,0,0,1.311-1.311.762.762,0,1,1,1.524,0,1.311,1.311,0,0,0,2.622,0,3.384,3.384,0,0,0-6.768,0A1.311,1.311,0,0,0,127.631,437.956Z" transform="translate(-118.227 -423.478)" fill="#00223d"/>
      <path id="Trazado_55256" data-name="Trazado 55256" d="M145.309,433.261a3.388,3.388,0,0,0-3.384,3.384,1.311,1.311,0,0,0,2.622,0,.762.762,0,1,1,1.524,0,1.311,1.311,0,0,0,2.622,0,3.388,3.388,0,0,0-3.385-3.384Z" transform="translate(-124.786 -423.478)" fill="#00223d"/>
    </g>
  </g>
</svg>
