<svg xmlns="http://www.w3.org/2000/svg" width="32.385" height="32.266" viewBox="0 0 32.385 32.266">
  <g id="Grupo_27135" data-name="Grupo 27135" transform="translate(-327.603 -530.87)">
    <path id="Trazado_55261" data-name="Trazado 55261" d="M355.13,553.293a.54.54,0,0,0-.54-.54h-3.778v-3.238a.54.54,0,0,0-.54-.54h-3.778v-3.238a.54.54,0,0,0-.54-.54h-3.779v-3.239a.54.54,0,0,0-.54-.54h-3.778V538.18a.54.54,0,0,0-.54-.54H333.54v-4.318a.54.54,0,0,0-.54-.54h-4.318a.54.54,0,0,0-.54.54h0V560.31h-.54v1.08h32.385v-1.08H355.13Zm-1.08.54v6.477h-3.238v-6.477Zm-4.318-3.778V560.31h-3.238V550.055Zm-4.318-3.778V560.31h-3.239V546.277ZM341.1,542.5V560.31h-3.238V542.5Zm-4.318-3.778v21.59H333.54V538.72Zm-7.556-4.858h3.238V560.31h-3.238Z" transform="translate(0 -0.412)" fill="#111e61"/>
    <path id="Trazado_55262" data-name="Trazado 55262" d="M341.361,570.618h2.159V571.7h-2.159Z" transform="translate(-2.963 -8.561)" fill="#111e61"/>
    <path id="Trazado_55263" data-name="Trazado 55263" d="M335.858,570.618h2.158V571.7h-2.158Z" transform="translate(-1.778 -8.561)" fill="#111e61"/>
    <path id="Trazado_55264" data-name="Trazado 55264" d="M330.354,570.618h2.159V571.7h-2.159Z" transform="translate(-0.593 -8.561)" fill="#111e61"/>
    <path id="Trazado_55265" data-name="Trazado 55265" d="M346.864,570.618h2.159V571.7h-2.159Z" transform="translate(-4.148 -8.561)" fill="#111e61"/>
    <path id="Trazado_55266" data-name="Trazado 55266" d="M352.367,570.618h2.159V571.7h-2.159Z" transform="translate(-5.334 -8.561)" fill="#111e61"/>
    <path id="Trazado_55267" data-name="Trazado 55267" d="M357.871,570.618h2.159V571.7h-2.159Z" transform="translate(-6.519 -8.561)" fill="#111e61"/>
    <path id="Trazado_55268" data-name="Trazado 55268" d="M361.578,548.563h-3.128L352.4,543.38v-2.913a.54.54,0,0,0-.54-.539h-3.151l-4.945-4.122v-2.9a.54.54,0,0,0-.539-.54h-3.185l-1.876-1.5-.674.843,1.956,1.565v2.871a.54.54,0,0,0,.54.54h3.151l4.945,4.121v2.9a.54.54,0,0,0,.539.54h3.129l6.047,5.183v2.913a.54.54,0,0,0,.54.54h1.08v3.779H360.5v-3.779h1.08a.54.54,0,0,0,.54-.54h0V549.1a.54.54,0,0,0-.54-.54Zm-21.05-15.113h2.159v2.159h-2.159Zm8.636,7.556h2.159v2.159h-2.159ZM361.038,551.8h-2.159v-2.158h2.159Z" transform="translate(-2.13)" fill="#111e61"/>
    <path id="Trazado_55269" data-name="Trazado 55269" d="M365.438,565.114h1.079v1.08h-1.079Z" transform="translate(-8.149 -7.375)" fill="#111e61"/>
  </g>
</svg>
