<svg xmlns="http://www.w3.org/2000/svg" width="32" height="47.352" viewBox="0 0 32 47.352">
  <g id="Grupo_29028" data-name="Grupo 29028" transform="translate(-259.25 -812.064)">
    <path id="Trazado_55250" data-name="Trazado 55250" d="M74.533,448.223a1.6,1.6,0,0,0-2.072.141,9.525,9.525,0,0,1-13.382,0,1.6,1.6,0,0,0-2.072-.142,1.216,1.216,0,0,0-.158,1.849,12.7,12.7,0,0,0,17.842,0,1.215,1.215,0,0,0-.159-1.848Z" transform="translate(209.48 397.771)" fill="#00223d"/>
    <path id="Trazado_55251" data-name="Trazado 55251" d="M57.337,437.956a1.311,1.311,0,0,0,1.311-1.311.762.762,0,1,1,1.525,0,1.311,1.311,0,0,0,2.621,0,3.384,3.384,0,1,0-6.768,0A1.311,1.311,0,0,0,57.337,437.956Z" transform="translate(211.318 403.938)" fill="#00223d"/>
    <path id="Trazado_55252" data-name="Trazado 55252" d="M75.015,433.261a3.388,3.388,0,0,0-3.385,3.384,1.311,1.311,0,0,0,2.622,0,.762.762,0,1,1,1.524,0,1.311,1.311,0,0,0,2.622,0,3.388,3.388,0,0,0-3.384-3.384Z" transform="translate(204.759 403.938)" fill="#00223d"/>
    <rect id="Line" width="16.157" height="1.838" transform="translate(259.25 812.064)" fill="#12263f"/>
    <path id="Trazado_55249" data-name="Trazado 55249" d="M58.063,416.552a16,16,0,1,0,16,16,16.018,16.018,0,0,0-16-16Zm0,29.657A13.657,13.657,0,1,1,71.72,432.552,13.672,13.672,0,0,1,58.063,446.209Z" transform="translate(217.187 410.864)" fill="#00223d"/>
  </g>
</svg>
