<svg xmlns="http://www.w3.org/2000/svg" width="93.023" height="86.451" viewBox="0 0 93.023 86.451">
  <g id="Grupo_26851" data-name="Grupo 26851" transform="translate(-1023.579 -510.111)">
    <path id="Trazado_54527" data-name="Trazado 54527" d="M1045.668,591.644a41.779,41.779,0,0,0,39.332,0h-39.332Z" fill="#f2f2f2"/>
    <path id="Trazado_54528" data-name="Trazado 54528" d="M1023.579,554.807a41.6,41.6,0,0,0,11.493,28.752V526.054A41.6,41.6,0,0,0,1023.579,554.807Z" fill="#f2f2f2"/>
    <path id="Trazado_54529" data-name="Trazado 54529" d="M1096.062,526.542v56.529a41.735,41.735,0,0,0,0-56.529Z" fill="#f2f2f2"/>
    <path id="Trazado_54530" data-name="Trazado 54530" d="M1042.238,510.111a7.175,7.175,0,0,0-7.166,7.166v66.282a41.861,41.861,0,0,0,10.6,8.085h19.978V510.111Z" fill="#bfdfe7"/>
    <path id="Trazado_54531" data-name="Trazado 54531" d="M1088.9,510.111h-23.25v81.533H1085a41.885,41.885,0,0,0,11.062-8.573V517.277A7.175,7.175,0,0,0,1088.9,510.111Z" fill="#93cbd8"/>
    <path id="Trazado_54532" data-name="Trazado 54532" d="M1085.87,527.946a2.389,2.389,0,0,1-2.388,2.389h-35.671a2.389,2.389,0,1,1,0-4.777h35.671A2.389,2.389,0,0,1,1085.87,527.946Z" fill="#425796"/>
    <path id="Trazado_54533" data-name="Trazado 54533" d="M1085.87,527.946a2.389,2.389,0,0,1-2.388,2.389h-17.995v-4.777h17.995A2.389,2.389,0,0,1,1085.87,527.946Z" fill="#283758"/>
    <path id="Trazado_54534" data-name="Trazado 54534" d="M1078.227,540.686a2.39,2.39,0,0,1-2.389,2.389h-28.027a2.389,2.389,0,1,1,0-4.778h28.027A2.39,2.39,0,0,1,1078.227,540.686Z" fill="#425796"/>
    <path id="Trazado_54535" data-name="Trazado 54535" d="M1078.227,540.686a2.39,2.39,0,0,1-2.389,2.389h-10.351V538.3h10.351A2.39,2.39,0,0,1,1078.227,540.686Z" fill="#283758"/>
    <path id="Trazado_54536" data-name="Trazado 54536" d="M1070.583,553.426a2.389,2.389,0,0,1-2.389,2.388h-20.383a2.389,2.389,0,1,1,0-4.777h20.383A2.39,2.39,0,0,1,1070.583,553.426Z" fill="#425796"/>
    <path id="Trazado_54537" data-name="Trazado 54537" d="M1070.583,553.426a2.389,2.389,0,0,1-2.389,2.388h-2.707v-4.777h2.707A2.39,2.39,0,0,1,1070.583,553.426Z" fill="#283758"/>
    <path id="Trazado_54538" data-name="Trazado 54538" d="M1115.942,545.669c-.3.5-1.293,1.525-7.962,8.107-3.865,3.814-9.636,9.5-18.28,18.03-.415.412.524-.091-14.18,6.771a2.391,2.391,0,0,1-3.176-3.176c6.873-14.725,6.357-13.77,6.782-14.19,8.616-8.615,14.339-14.342,18.143-18.146,7.394-7.4,7.539-7.537,7.556-7.518a4.782,4.782,0,0,1,6.392.328c4.316,4.316,4.107,4.091,4.316,4.351a4.79,4.79,0,0,1,.409,5.443Z" fill="#ffe278"/>
    <path id="Trazado_54539" data-name="Trazado 54539" d="M1115.942,545.669c-.47.794-2.683,2.884-26.242,26.137-.415.412.524-.091-14.18,6.771a2.389,2.389,0,0,1-1.01.224,2.353,2.353,0,0,1-1.658-.669l40.313-40.311c2.3,2.3,2.2,2.191,2.368,2.405a4.79,4.79,0,0,1,.409,5.443Z" fill="#ffb454"/>
    <path id="Trazado_54540" data-name="Trazado 54540" d="M1115.942,545.669c-.3.5-1.293,1.525-7.962,8.107l-.013-.011-5.373-5.373-5.325-5.324v0c7.394-7.4,7.539-7.537,7.556-7.518a4.782,4.782,0,0,1,6.392.328c.792.792,1.43,1.43,1.948,1.946,2.306,2.3,2.2,2.193,2.368,2.405a4.79,4.79,0,0,1,.409,5.443Z" fill="#e33e4e"/>
    <path id="Trazado_54541" data-name="Trazado 54541" d="M1115.942,545.669c-.3.5-1.293,1.525-7.962,8.107l-.013-.011-5.373-5.373,10.571-10.571c2.306,2.3,2.2,2.193,2.368,2.405a4.79,4.79,0,0,1,.409,5.443Z" fill="#bf2e43"/>
  </g>
</svg>
