<svg xmlns="http://www.w3.org/2000/svg" xmlns:xlink="http://www.w3.org/1999/xlink" width="107" height="107" viewBox="0 0 107 107">
  <defs>
    <clipPath id="clip-path">
      <circle id="Elipse_1362" data-name="Elipse 1362" cx="41.756" cy="41.756" r="41.756" transform="translate(335.143 462.026)" fill="none"/>
    </clipPath>
  </defs>
  <g id="Grupo_26836" data-name="Grupo 26836" transform="translate(-299 -5317)">
    <rect id="Rect치ngulo_5238" data-name="Rect치ngulo 5238" width="107" height="107" transform="translate(299 5317)" fill="none"/>
    <g id="Grupo_26829" data-name="Grupo 26829" transform="translate(-25.143 4866.974)">
      <g id="Grupo_26827" data-name="Grupo 26827">
        <g id="Grupo_26826" data-name="Grupo 26826" clip-path="url(#clip-path)">
          <rect id="Rect치ngulo_5237" data-name="Rect치ngulo 5237" width="85.367" height="88.614" transform="translate(333.332 459.082)" fill="#badfff"/>
          <g id="Flat">
            <path id="Trazado_54386" data-name="Trazado 54386" d="M388.628,496.022l-3,11.572,11,3.112a9.031,9.031,0,0,0,7.151-.982l11.515-6.957a11.588,11.588,0,0,0-2.517-20.836,10.382,10.382,0,0,0-8.217,1.128l-11.515,6.957a9.9,9.9,0,0,0-4.415,6.006Z" fill="#5f8c46"/>
            <path id="Trazado_54387" data-name="Trazado 54387" d="M389.409,495.4l-11.573,3-3.112-11a9.036,9.036,0,0,1,.982-7.151l6.957-11.515A11.589,11.589,0,0,1,403.5,471.25a10.379,10.379,0,0,1-1.129,8.217l-6.957,11.515A9.891,9.891,0,0,1,389.409,495.4Z" fill="#5f8c46"/>
            <g id="Grupo_26825" data-name="Grupo 26825">
              <path id="Trazado_54388" data-name="Trazado 54388" d="M414.4,496.29a4.867,4.867,0,0,1-5.146-1.331l6.143-3.711-1.454-2.4-6.073,3.669c-.526-2.71,2.154-4.946,2.286-5.054l-1.764-2.187c-1.806,1.457-4.417,4.946-3.021,8.751L384.9,506.391l1.453,2.406,20.459-12.361a7.77,7.77,0,0,0,6.082,2.908,7.176,7.176,0,0,0,2.509-.428Z" fill="#6a9c46"/>
              <path id="Trazado_54389" data-name="Trazado 54389" d="M392.65,480.14c3.828,0,7.677-2.947,7.887-3.11l-1.723-2.22c-1.17.9-4.226,2.757-6.593,2.5l4.367-7.227-2.4-1.453-4.389,7.264a7.777,7.777,0,0,1-1.373-5.392l-1.391-.2-1.39-.2c-.034.226-.708,5.169,2.647,8.287l-11.653,19.29,2.4,1.453,11.648-19.28A6.433,6.433,0,0,0,392.65,480.14Z" fill="#6a9c46"/>
              <path id="Trazado_54390" data-name="Trazado 54390" d="M413.76,502.686a13.135,13.135,0,0,1,5.524,17.64,13,13,0,0,1-7.6,6.439l-15.157,4.827a11.208,11.208,0,0,1-8.608-.755l-6.737-3.072a8.125,8.125,0,0,0-5.332-.492l-.058.015a58.172,58.172,0,0,0-20.267,10.951l-6.135,5.111a6.1,6.1,0,0,1-3.909,1.416h-.114a6.1,6.1,0,0,1-4.7-2.209l4.215-3.411s.175.644,7.2-4.976c5.242-4.193,13.543-9.661,22.7-12.575a6.167,6.167,0,0,0,3.468-2.755l3.851-6.592a11.312,11.312,0,0,1,6.616-5.6l15.157-4.827A12.875,12.875,0,0,1,413.76,502.686Z" fill="#6a9c46"/>
              <path id="Trazado_54391" data-name="Trazado 54391" d="M381.339,470.265a13.134,13.134,0,0,0-17.64-5.524,13,13,0,0,0-6.439,7.6L352.433,487.5a11.208,11.208,0,0,0,.755,8.608l3.072,6.737a8.125,8.125,0,0,1,.492,5.332l-.014.058A58.168,58.168,0,0,1,345.787,528.5l-5.112,6.134a6.106,6.106,0,0,0-1.415,3.91v.113a6.1,6.1,0,0,0,2.208,4.7l3.412-4.215s-.645-.176,4.975-7.2c4.194-5.241,9.661-13.542,12.575-22.7a6.166,6.166,0,0,1,2.755-3.469l6.592-3.85a11.314,11.314,0,0,0,5.6-6.617l4.827-15.156a12.873,12.873,0,0,0-.869-9.892Z" fill="#6a9c46"/>
            </g>
            <path id="Trazado_54392" data-name="Trazado 54392" d="M369.108,481.763c4.156,0,6.95-3.237,7.938-5.214l-2.513-1.257a8.342,8.342,0,0,1-1.777,2.205,5.389,5.389,0,0,1-3.851,1.45c.908-5.527,1.233-9.592,1.26-9.944l-2.8-.215c-.006.083-.32,4-1.2,9.4a6.135,6.135,0,0,1-3.022-5.081l-1.4.007h-1.4a8.8,8.8,0,0,0,5.333,7.945c-.489,2.646-1.1,5.513-1.865,8.386a6.006,6.006,0,0,1-2.228-2.241,11.064,11.064,0,0,1-1.268-3.129l-2.755.555c.449,2.245,2.115,6.08,5.476,7.552a60.414,60.414,0,0,1-2.572,7.057l2.568,1.141a64.3,64.3,0,0,0,2.767-7.6c.055,0,.108.005.164.005,6.557,0,8.287-4.965,8.358-5.176l-2.666-.889c-.01.031-1.034,2.95-5.06,3.231.746-2.824,1.349-5.625,1.831-8.217C368.651,481.75,368.882,481.763,369.108,481.763Z" fill="#79ad54"/>
            <path id="Trazado_54393" data-name="Trazado 54393" d="M388.164,482.945a12.915,12.915,0,0,0-9.132,3.783l-11.389,11.389a10.56,10.56,0,0,0-3.093,7.468v9.676l-12.509,12.508a62.148,62.148,0,0,1-9.472,7.765l-1.272.848a4.577,4.577,0,0,0,2.538,8.384h0a4.577,4.577,0,0,0,3.807-2.038l.848-1.271a62.11,62.11,0,0,1,7.765-9.473l12.509-12.508h9.675a10.561,10.561,0,0,0,7.468-3.094L397.3,504.993a12.915,12.915,0,0,0-9.133-22.048Z" fill="#79ad54"/>
            <path id="Trazado_54394" data-name="Trazado 54394" d="M393.8,500c-.056.034-5.224,3.056-8.681.887l8.522-8.522-1.987-1.987-8.377,8.377c-1.506-3.422,1.179-8.015,1.211-8.068l-1.207-.72-1.2-.723a16.9,16.9,0,0,0-1.745,4.446,9.231,9.231,0,0,0,.869,7.142l-6.354,6.354c-1.506-3.422,1.179-8.016,1.21-8.068l-1.206-.72-1.2-.723a16.9,16.9,0,0,0-1.745,4.446,9.236,9.236,0,0,0,.868,7.142l-3.6,3.6,1.987,1.987,3.508-3.509a8.049,8.049,0,0,0,4.969,1.579,12.116,12.116,0,0,0,2.729-.329,16.867,16.867,0,0,0,4.446-1.745l-1.443-2.41c-.056.033-5.224,3.055-8.682.886l6.411-6.41a8.049,8.049,0,0,0,4.969,1.579,12.118,12.118,0,0,0,2.729-.329,16.9,16.9,0,0,0,4.446-1.745Z" fill="#89ba66"/>
            <path id="Trazado_54395" data-name="Trazado 54395" d="M403.9,516.2a60.972,60.972,0,0,1,10-2.351l-.348-2.789a61.85,61.85,0,0,0-9.8,2.239,14.98,14.98,0,0,1,2.4-5.031l-2.241-1.7a19.3,19.3,0,0,0-1.826,3.08,12.682,12.682,0,0,0-1.3,4.59c-2.208.732-4.373,1.516-6.384,2.283a14.911,14.911,0,0,1,2.417-5.125l-2.24-1.7a19.3,19.3,0,0,0-1.826,3.08,12.3,12.3,0,0,0-1.318,4.9c-4.365,1.75-7.493,3.186-7.8,3.328l1.178,2.551c.072-.033,3-1.377,7.181-3.064.694,1.233,2.153,2.379,4.426,3.477a29.877,29.877,0,0,0,3.875,1.529l.815-2.689c-2.562-.777-5.484-2.224-6.453-3.37,2.039-.788,4.26-1.6,6.526-2.368.619,1.343,2.124,2.583,4.574,3.766a29.836,29.836,0,0,0,3.875,1.528l.815-2.689c-2.648-.8-5.683-2.322-6.544-3.485Z" fill="#79ad54"/>
          </g>
        </g>
      </g>
      <g id="Flat-2" data-name="Flat">
        <path id="Trazado_54396" data-name="Trazado 54396" d="M388.628,496.022l-3,11.572,11,3.112a9.031,9.031,0,0,0,7.151-.982l11.515-6.957a11.588,11.588,0,0,0-2.517-20.836,10.382,10.382,0,0,0-8.217,1.128l-11.515,6.957a9.9,9.9,0,0,0-4.415,6.006Z" fill="#5f8c46"/>
        <path id="Trazado_54397" data-name="Trazado 54397" d="M389.409,495.4l-11.573,3-3.112-11a9.036,9.036,0,0,1,.982-7.151l6.957-11.515A11.589,11.589,0,0,1,403.5,471.25a10.379,10.379,0,0,1-1.129,8.217l-6.957,11.515A9.891,9.891,0,0,1,389.409,495.4Z" fill="#5f8c46"/>
        <g id="Grupo_26828" data-name="Grupo 26828">
          <path id="Trazado_54398" data-name="Trazado 54398" d="M414.4,496.29a4.867,4.867,0,0,1-5.146-1.331l6.143-3.711-1.454-2.4-6.073,3.669c-.526-2.71,2.154-4.946,2.286-5.054l-1.764-2.187c-1.806,1.457-4.417,4.946-3.021,8.751L384.9,506.391l1.453,2.406,20.459-12.361a7.77,7.77,0,0,0,6.082,2.908,7.176,7.176,0,0,0,2.509-.428Z" fill="#6a9c46"/>
          <path id="Trazado_54399" data-name="Trazado 54399" d="M392.65,480.14c3.828,0,7.677-2.947,7.887-3.11l-1.723-2.22c-1.17.9-4.226,2.757-6.593,2.5l4.367-7.227-2.4-1.453-4.389,7.264a7.777,7.777,0,0,1-1.373-5.392l-1.391-.2-1.39-.2c-.034.226-.708,5.169,2.647,8.287l-11.653,19.29,2.4,1.453,11.648-19.28A6.433,6.433,0,0,0,392.65,480.14Z" fill="#6a9c46"/>
          <path id="Trazado_54400" data-name="Trazado 54400" d="M374.777,521.595a6.167,6.167,0,0,0,3.468-2.755l3.851-6.592a11.312,11.312,0,0,1,6.616-5.6l15.157-4.827a12.875,12.875,0,0,1,9.891.869,13.135,13.135,0,0,1,5.524,17.64,13,13,0,0,1-7.6,6.439l-15.157,4.827a11.208,11.208,0,0,1-8.608-.755l-6.737-3.072a8.125,8.125,0,0,0-5.332-.492l-.058.015a58.172,58.172,0,0,0-20.267,10.951" fill="#6a9c46"/>
          <path id="Trazado_54401" data-name="Trazado 54401" d="M349.005,530.222c4.193-5.241,10.511-11.819,13.425-20.973a6.166,6.166,0,0,1,2.755-3.469l6.592-3.85a11.314,11.314,0,0,0,5.6-6.617l4.827-15.156a12.873,12.873,0,0,0-.869-9.892h0a13.134,13.134,0,0,0-17.64-5.524,13,13,0,0,0-6.439,7.6L352.433,487.5a11.208,11.208,0,0,0,.755,8.608l3.072,6.737a8.125,8.125,0,0,1,.492,5.332l-.014.058A58.168,58.168,0,0,1,345.787,528.5" fill="#6a9c46"/>
        </g>
        <path id="Trazado_54402" data-name="Trazado 54402" d="M369.108,481.763c4.156,0,6.95-3.237,7.938-5.214l-2.513-1.257a8.342,8.342,0,0,1-1.777,2.205,5.389,5.389,0,0,1-3.851,1.45c.908-5.527,1.233-9.592,1.26-9.944l-2.8-.215c-.006.083-.32,4-1.2,9.4a6.135,6.135,0,0,1-3.022-5.081l-1.4.007h-1.4a8.8,8.8,0,0,0,5.333,7.945c-.489,2.646-1.1,5.513-1.865,8.386a6.006,6.006,0,0,1-2.228-2.241,11.064,11.064,0,0,1-1.268-3.129l-2.755.555c.449,2.245,2.115,6.08,5.476,7.552a60.414,60.414,0,0,1-2.572,7.057l2.568,1.141a64.3,64.3,0,0,0,2.767-7.6c.055,0,.108.005.164.005,6.557,0,8.287-4.965,8.358-5.176l-2.666-.889c-.01.031-1.034,2.95-5.06,3.231.746-2.824,1.349-5.625,1.831-8.217C368.651,481.75,368.882,481.763,369.108,481.763Z" fill="#79ad54"/>
        <path id="Trazado_54403" data-name="Trazado 54403" d="M356.256,531.984l12.509-12.508h9.675a10.561,10.561,0,0,0,7.468-3.094L397.3,504.993a12.915,12.915,0,0,0-9.133-22.048h0a12.915,12.915,0,0,0-9.132,3.783l-11.389,11.389a10.56,10.56,0,0,0-3.093,7.468v9.676l-12.509,12.508" fill="#79ad54"/>
        <path id="Trazado_54404" data-name="Trazado 54404" d="M393.8,500c-.056.034-5.224,3.056-8.681.887l8.522-8.522-1.987-1.987-8.377,8.377c-1.506-3.422,1.179-8.015,1.211-8.068l-1.207-.72-1.2-.723a16.9,16.9,0,0,0-1.745,4.446,9.231,9.231,0,0,0,.869,7.142l-6.354,6.354c-1.506-3.422,1.179-8.016,1.21-8.068l-1.206-.72-1.2-.723a16.9,16.9,0,0,0-1.745,4.446,9.236,9.236,0,0,0,.868,7.142l-3.6,3.6,1.987,1.987,3.508-3.509a8.049,8.049,0,0,0,4.969,1.579,12.116,12.116,0,0,0,2.729-.329,16.867,16.867,0,0,0,4.446-1.745l-1.443-2.41c-.056.033-5.224,3.055-8.682.886l6.411-6.41a8.049,8.049,0,0,0,4.969,1.579,12.118,12.118,0,0,0,2.729-.329,16.9,16.9,0,0,0,4.446-1.745Z" fill="#89ba66"/>
        <path id="Trazado_54405" data-name="Trazado 54405" d="M403.9,516.2a60.972,60.972,0,0,1,10-2.351l-.348-2.789a61.85,61.85,0,0,0-9.8,2.239,14.98,14.98,0,0,1,2.4-5.031l-2.241-1.7a19.3,19.3,0,0,0-1.826,3.08,12.682,12.682,0,0,0-1.3,4.59c-2.208.732-4.373,1.516-6.384,2.283a14.911,14.911,0,0,1,2.417-5.125l-2.24-1.7a19.3,19.3,0,0,0-1.826,3.08,12.3,12.3,0,0,0-1.318,4.9c-4.365,1.75-7.493,3.186-7.8,3.328l1.178,2.551c.072-.033,3-1.377,7.181-3.064.694,1.233,2.153,2.379,4.426,3.477a29.877,29.877,0,0,0,3.875,1.529l.815-2.689c-2.562-.777-5.484-2.224-6.453-3.37,2.039-.788,4.26-1.6,6.526-2.368.619,1.343,2.124,2.583,4.574,3.766a29.836,29.836,0,0,0,3.875,1.528l.815-2.689c-2.648-.8-5.683-2.322-6.544-3.485Z" fill="#79ad54"/>
      </g>
    </g>
  </g>
</svg>
