<svg xmlns="http://www.w3.org/2000/svg" width="221.981" height="233.353" viewBox="0 0 221.981 233.353">
  <g id="Grupo_27174" data-name="Grupo 27174" transform="translate(-471 -593.647)">
    <text id="Hacer" transform="translate(546 795)" fill="#00223d" font-size="24" font-family="Roboto-Black, Roboto" font-weight="800"><tspan x="0" y="25">Hacer</tspan></text>
    <rect id="Image_Place_Holder" data-name="Image Place Holder" width="221.981" height="150.264" rx="10" transform="translate(471 631.808)" fill="#d1eaff"/>
    <g id="Grupo_26783" data-name="Grupo 26783" transform="translate(69.559 120.332)">
      <g id="Grupo_26761" data-name="Grupo 26761" transform="translate(508.965 530.654)">
        <g id="Grupo_26757" data-name="Grupo 26757">
          <g id="Grupo_26756" data-name="Grupo 26756" transform="translate(27.413 63.003)">
            <path id="Trazado_54277" data-name="Trazado 54277" d="M510.385,552.444l-12.452-5.8,4.492-7,13.536,6.577-3.97,5.537Z" transform="translate(-497.933 -539.643)" fill="#eb9f86"/>
            <g id="Grupo_26755" data-name="Grupo 26755" transform="translate(5.837 3.861)">
              <path id="Trazado_54278" data-name="Trazado 54278" d="M510.256,541.771s-1.711,7.628-7.646,7.477L501.15,567.3,517.6,544.358Z" transform="translate(-501.15 -541.771)" fill="#202443"/>
              <rect id="Rectángulo_5232" data-name="Rectángulo 5232" width="28.223" height="2.666" transform="translate(18.611 4.141) rotate(125.637)" fill="#fff"/>
              <path id="Trazado_54279" data-name="Trazado 54279" d="M501.85,547.417a10.612,10.612,0,0,1,3.384-.5" transform="translate(-500.58 -537.58)" fill="none" stroke="#fff" stroke-linecap="round" stroke-linejoin="round" stroke-width="1.548"/>
              <path id="Trazado_54280" data-name="Trazado 54280" d="M501.637,548.877a10.629,10.629,0,0,1,3.386-.5" transform="translate(-500.753 -536.391)" fill="none" stroke="#fff" stroke-linecap="round" stroke-linejoin="round" stroke-width="1.548"/>
              <path id="Trazado_54281" data-name="Trazado 54281" d="M501.425,550.336a10.593,10.593,0,0,1,3.385-.5" transform="translate(-500.926 -535.201)" fill="none" stroke="#fff" stroke-linecap="round" stroke-linejoin="round" stroke-width="1.548"/>
            </g>
          </g>
          <path id="Trazado_54282" data-name="Trazado 54282" d="M493.788,504.918s-8.137,30.363-9.335,36.35-3.592,17.96,1.437,22.269,24.347,14.649,24.347,14.649l7.107-12.759-11.51-6.918Z" transform="translate(-482.824 -504.918)" fill="#12214a"/>
        </g>
        <g id="Grupo_26760" data-name="Grupo 26760" transform="translate(4.602)">
          <g id="Grupo_26759" data-name="Grupo 26759" transform="translate(0 82.629)">
            <path id="Trazado_54283" data-name="Trazado 54283" d="M496.053,564.388l-2.538-13.5,8.3-.426,2.541,14.833h-6.813Z" transform="translate(-478.719 -550.46)" fill="#eb9f86"/>
            <g id="Grupo_26758" data-name="Grupo 26758" transform="translate(0 8.886)">
              <path id="Trazado_54284" data-name="Trazado 54284" d="M511.41,557.216s-7.194,3.053-10.53-1.858l-15.52,9.329h28.224Z" transform="translate(-485.36 -555.358)" fill="#202443"/>
              <rect id="Rectángulo_5233" data-name="Rectángulo 5233" width="28.223" height="2.666" transform="translate(28.224 11.995) rotate(180)" fill="#fff"/>
              <path id="Trazado_54285" data-name="Trazado 54285" d="M492.8,556.03a10.61,10.61,0,0,1,2.379,2.46" transform="translate(-479.305 -554.811)" fill="none" stroke="#fff" stroke-linecap="round" stroke-linejoin="round" stroke-width="1.548"/>
              <path id="Trazado_54286" data-name="Trazado 54286" d="M491.485,556.708a10.615,10.615,0,0,1,2.377,2.462" transform="translate(-480.372 -554.259)" fill="none" stroke="#fff" stroke-linecap="round" stroke-linejoin="round" stroke-width="1.548"/>
              <path id="Trazado_54287" data-name="Trazado 54287" d="M490.174,557.386a10.641,10.641,0,0,1,2.379,2.462" transform="translate(-481.44 -553.706)" fill="none" stroke="#fff" stroke-linecap="round" stroke-linejoin="round" stroke-width="1.548"/>
            </g>
          </g>
          <path id="Trazado_54288" data-name="Trazado 54288" d="M489.232,504.918l-.809,45.8a25.513,25.513,0,0,0,.392,4.9l6.806,35.325h14.239l-3.973-39.839c.169-7.328,2.6-15.534,3.509-24.47,0,0,2.792-16.576-4.861-21.64Z" transform="translate(-482.869 -504.918)" fill="#172e60"/>
        </g>
      </g>
      <g id="Grupo_26773" data-name="Grupo 26773" transform="translate(450.722 491.284)">
        <g id="Grupo_26766" data-name="Grupo 26766">
          <g id="Grupo_26764" data-name="Grupo 26764">
            <g id="Grupo_26762" data-name="Grupo 26762" transform="translate(34.103 24.565)">
              <path id="Trazado_54289" data-name="Trazado 54289" d="M495.508,505.276l-23.282-8.518-2.707,4.534,22.7,12.029a5.191,5.191,0,0,0,6.956-5.781h0C498.841,505.712,497.259,505.9,495.508,505.276Z" transform="translate(-469.519 -496.758)" fill="#eb9f86"/>
            </g>
            <g id="Grupo_26763" data-name="Grupo 26763" transform="translate(22.711 19.819)">
              <path id="Trazado_54290" data-name="Trazado 54290" d="M474.478,495.432a1.736,1.736,0,0,0-1.628-.508,1.031,1.031,0,0,0-.655,1.607l.336.552c-.747.287-2.29.359-5.113-2.493a1.422,1.422,0,0,0-1.742-.252.876.876,0,0,0-.267,1.147.583.583,0,0,0,.034.056,1.3,1.3,0,0,0-1.132.12.876.876,0,0,0-.265,1.147,1.075,1.075,0,0,0,.1.163,1.124,1.124,0,0,0-.532.183.877.877,0,0,0-.267,1.147,1.272,1.272,0,0,0,.243.336c.036.038.074.071.111.109-.016.009-.036.016-.053.027a.878.878,0,0,0-.265,1.148,1.324,1.324,0,0,0,.241.336,16.579,16.579,0,0,0,2.31,1.965l0,0,.036.024a10.908,10.908,0,0,0,1.063.648c1.631.949,5.122.154,8.123.637l2.342-4.42Z" transform="translate(-463.24 -494.142)" fill="#eb9f86"/>
            </g>
            <rect id="Rectángulo_5234" data-name="Rectángulo 5234" width="28.069" height="28.069" transform="translate(36.968 11.254) rotate(113.638)" fill="#f1cb42"/>
            <path id="Trazado_54291" data-name="Trazado 54291" d="M471.4,496.45l-2.282-2.66a.928.928,0,0,0-1.408,0h0a.927.927,0,0,0-.125,1.027l1.148,2.266a6.309,6.309,0,0,0,1.359,5.753Z" transform="translate(-437.07 -474.874)" fill="#eb9f86"/>
          </g>
          <g id="Grupo_26765" data-name="Grupo 26765" transform="translate(52.816 17.054)">
            <path id="Trazado_54292" data-name="Trazado 54292" d="M497.429,505.251l-8.477,6.769a5.184,5.184,0,0,1-5.958.361h0c-2.624-1.618-4.226-3.113-2.337-5.548l9.311-9.442Z" transform="translate(-479.833 -488.731)" fill="#eb9f86"/>
            <path id="Trazado_54293" data-name="Trazado 54293" d="M501.282,501.035s-1.127,5.561-7.813,10.61l-10.307-9.734,8.341-9.293Z" transform="translate(-477.122 -492.618)" fill="#6543f7"/>
          </g>
        </g>
        <g id="Grupo_26771" data-name="Grupo 26771" transform="translate(76.559 13.893)">
          <g id="Grupo_26769" data-name="Grupo 26769" transform="translate(14.337 11.707)">
            <g id="Grupo_26767" data-name="Grupo 26767">
              <path id="Trazado_54294" data-name="Trazado 54294" d="M502.989,504.549l17.922,22.608,4.057-2.687s-10.286-19.147-15.063-25.187a5.188,5.188,0,0,0-8.928,1.457h0C500.337,502.484,501.8,503.124,502.989,504.549Z" transform="translate(-500.821 -497.329)" fill="#eb9f86"/>
            </g>
            <g id="Grupo_26768" data-name="Grupo 26768" transform="translate(20.091 27.142)">
              <path id="Trazado_54295" data-name="Trazado 54295" d="M512.761,519.522a1.686,1.686,0,0,0,1.154,1.19,1,1,0,0,0,1.306-1.069l-.029-.626c.771.1,2.123.758,3.208,4.507a1.388,1.388,0,0,0,1.372,1.027.855.855,0,0,0,.76-.856c0-.022,0-.044,0-.065a1.258,1.258,0,0,0,1.022.425.853.853,0,0,0,.76-.856,1.281,1.281,0,0,0-.007-.185,1.074,1.074,0,0,0,.539.091.851.851,0,0,0,.76-.856,1.248,1.248,0,0,0-.051-.4c-.015-.049-.029-.094-.045-.143.02,0,.04,0,.058,0a.85.85,0,0,0,.76-.856,1.29,1.29,0,0,0-.049-.4,16.238,16.238,0,0,0-1.06-2.754h0l-.02-.036a10.972,10.972,0,0,0-.608-1.049c-.953-1.569-4.3-2.513-6.642-4.322l-4.057,2.687Z" transform="translate(-511.894 -512.288)" fill="#eb9f86"/>
            </g>
          </g>
          <g id="Grupo_26770" data-name="Grupo 26770">
            <path id="Trazado_54296" data-name="Trazado 54296" d="M503.427,493.627l8.154,7.152a5.186,5.186,0,0,1,1.4,5.8h0c-1.132,2.867-2.32,4.708-5.051,3.277L497,502.352Z" transform="translate(-489.595 -488.636)" fill="#eb9f86"/>
            <path id="Trazado_54297" data-name="Trazado 54297" d="M496.254,490.876a21.729,21.729,0,0,1,13.136,5.8L503.836,507l-10.917-3.786Z" transform="translate(-492.919 -490.876)" fill="#7656fa"/>
          </g>
        </g>
        <g id="Grupo_26772" data-name="Grupo 26772" transform="translate(64.254 13.893)">
          <path id="Trazado_54298" data-name="Trazado 54298" d="M492.937,491.493s-6.778,1.872-6.8,10.96c-.013,4.96,4.953,13.9,4.953,13.9l15.3.083s2.246-6.234,3.592-11.868-2.963-10.99-8.208-13.693Z" transform="translate(-486.137 -490.876)" fill="#7656fa"/>
          <path id="Trazado_54299" data-name="Trazado 54299" d="M501.632,501.7l-6.005-4.307,4.632,8.968Z" transform="translate(-478.409 -485.57)" fill="#6543f7"/>
        </g>
      </g>
      <g id="Grupo_26782" data-name="Grupo 26782" transform="translate(511.404 473.315)">
        <g id="Grupo_26777" data-name="Grupo 26777" transform="translate(1.18 8.592)">
          <g id="Grupo_26775" data-name="Grupo 26775" transform="translate(6.849 10.772)">
            <g id="Grupo_26774" data-name="Grupo 26774">
              <path id="Trazado_54300" data-name="Trazado 54300" d="M494.8,500.013h0c2.123-.318,2.876-1.738,2.558-3.861L495,483.987l-6.4,1.025,1.785,11.732A3.886,3.886,0,0,0,494.8,500.013Z" transform="translate(-488.593 -483.987)" fill="#eb9f86"/>
            </g>
            <path id="Trazado_54301" data-name="Trazado 54301" d="M493.083,485.313s2.076,6.486-3.429,8.691l-.51-3.87,5.655-4.278" transform="translate(-488.144 -482.907)" fill="#fd5f44"/>
          </g>
          <g id="Grupo_26776" data-name="Grupo 26776">
            <path id="Trazado_54302" data-name="Trazado 54302" d="M491.806,496.881h0c4-.377,6.965-3.578,6.628-7.147l-1.107-11.684-6.74.018c-2.484.236-5.9,3.531-5.693,5.748l1.177,7.255C486.316,493.664,488.446,497.2,491.806,496.881Z" transform="translate(-484.765 -478.05)" fill="#eb9f86"/>
            <path id="Trazado_54303" data-name="Trazado 54303" d="M486.435,482.89,484.9,486.8a.57.57,0,0,0,.59.845l2.636-.245Z" transform="translate(-484.818 -474.109)" fill="#eb9f86"/>
          </g>
        </g>
        <g id="Grupo_26779" data-name="Grupo 26779" transform="translate(2.752 15.532)">
          <path id="Trazado_54304" data-name="Trazado 54304" d="M487.07,481.9s-1.437.04-1.384.64c0,0,.047.4,1.3.345s1.562-.19,1.633-.582S487.738,481.828,487.07,481.9Z" transform="translate(-485.684 -481.875)" fill="#322b2a"/>
          <path id="Trazado_54305" data-name="Trazado 54305" d="M487.027,483.69a.6.6,0,1,1-.684-.528A.614.614,0,0,1,487.027,483.69Z" transform="translate(-485.565 -480.833)" fill="#322b2a"/>
          <g id="Grupo_26778" data-name="Grupo 26778" transform="translate(0.46 5.696)">
            <path id="Trazado_54306" data-name="Trazado 54306" d="M486.481,487.272a.543.543,0,0,1-.009-1.085,1.161,1.161,0,0,0,.974-.831.541.541,0,1,1,1.005.4A2.224,2.224,0,0,1,486.481,487.272Z" transform="translate(-485.938 -485.015)" fill="#fd5f44"/>
          </g>
        </g>
        <path id="Trazado_54307" data-name="Trazado 54307" d="M495.344,490.494l4.338.693s-4.558,7.383-9.043,5.612c-5.171-2.041,1.685-5.924,1.685-5.924Z" transform="translate(-480.469 -459.325)" fill="#eb9f86"/>
        <path id="Trazado_54308" data-name="Trazado 54308" d="M497.221,489.038a5.578,5.578,0,0,1-4.03-4.041l-8.965,1.771s-1.388-8.93,9.342-10.614a10.4,10.4,0,0,1,10.63,4.358,8.748,8.748,0,0,1,.689,8.487,13.741,13.741,0,0,1-5.461,5.966L498.6,490.5S497.825,489.193,497.221,489.038Z" transform="translate(-484.168 -471.134)" fill="#401f43"/>
        <g id="Grupo_26781" data-name="Grupo 26781" transform="translate(11.77 14.365)">
          <path id="Trazado_54309" data-name="Trazado 54309" d="M496.24,484.128A2.854,2.854,0,0,1,493.42,487a2.823,2.823,0,0,1-2.765-2.9,2.854,2.854,0,0,1,2.82-2.869A2.824,2.824,0,0,1,496.24,484.128Z" transform="translate(-490.655 -481.232)" fill="#eb9f86"/>
          <g id="Grupo_26780" data-name="Grupo 26780" transform="translate(1.285 1.238)">
            <path id="Trazado_54310" data-name="Trazado 54310" d="M491.911,484.793h-.005a.55.55,0,0,1-.542-.553,2.679,2.679,0,0,1,.822-1.894,2.11,2.11,0,0,1,1.773-.388.546.546,0,1,1-.189,1.076,1.054,1.054,0,0,0-.885.154,1.632,1.632,0,0,0-.424,1.063A.55.55,0,0,1,491.911,484.793Z" transform="translate(-491.363 -481.914)" fill="#fd5f44"/>
          </g>
        </g>
        <path id="Trazado_54311" data-name="Trazado 54311" d="M507.813,479.125a6.971,6.971,0,1,1-8.034-5.712A6.973,6.973,0,0,1,507.813,479.125Z" transform="translate(-476.187 -473.315)" fill="#401f43"/>
      </g>
    </g>
  </g>
</svg>
