<svg id="Grupo_27109" data-name="Grupo 27109" xmlns="http://www.w3.org/2000/svg" width="126.996" height="120.971" viewBox="0 0 126.996 120.971">
  <circle id="Elipse_1535" data-name="Elipse 1535" cx="58.821" cy="58.821" r="58.821" fill="#badfff"/>
  <g id="Grupo_27104" data-name="Grupo 27104" transform="translate(21.792 2.286)">
    <path id="Trazado_55208" data-name="Trazado 55208" d="M44.545,385.145c9.509,7.834,35.9,12.232,67.634-6.694s33.9-54.478,13.222-65.234S71.493,320.8,55.428,332.358c-10.07,7.271-20.7,16.969-21.7,29.308C33.01,370.563,38.185,379.9,44.545,385.145Z" transform="translate(-33.664 -309.958)" fill="#e33e4e"/>
    <path id="Trazado_55209" data-name="Trazado 55209" d="M43.942,349.053s8.734,8.587,31.591,1.5c8.086-2.5,16-6.639,21.969-12.712,3.779-3.843,11.871-13.265,5.868-18.645-3.839-3.446-13.286-1.624-17.729-.679a85.563,85.563,0,0,0-21.218,6.891C46.168,333.443,35.472,342.664,43.942,349.053Z" transform="translate(-25.352 -301.764)" fill="#bf2e43" style="mix-blend-mode: multiply;isolation: isolate"/>
    <g id="Grupo_27101" data-name="Grupo 27101" transform="translate(15.665 15.664)">
      <path id="Trazado_55210" data-name="Trazado 55210" d="M93.883,322.415c-4.176,6.667-13.99,14.3-28.292,19.686-12.238,4.616-20.113,3.816-24.586,2.3a6.481,6.481,0,0,0,2.926,4.524s8.734,8.587,31.591,1.5c8.086-2.5,16-6.639,21.969-12.712,3.779-3.843,11.871-13.265,5.868-18.645a8.141,8.141,0,0,0-4.183-1.769A12.653,12.653,0,0,0,93.883,322.415Z" transform="translate(-41.005 -317.298)" fill="#bf2e43" style="mix-blend-mode: multiply;isolation: isolate"/>
    </g>
    <g id="Grupo_27102" data-name="Grupo 27102" transform="translate(20.385 26.54)">
      <path id="Trazado_55211" data-name="Trazado 55211" d="M98.451,322.611c-3.545-.719-3.028-.2-14.917,10.531C69.666,345,52.318,344.975,43.217,344.418c3.589,2.091,12.778,5.508,29.8.226,8.086-2.5,16-6.639,21.969-12.712.179-.173.363-.369.559-.565C98.767,327.25,100.209,322.963,98.451,322.611Z" transform="translate(-43.217 -322.395)" fill="#bf2e43" style="mix-blend-mode: multiply;isolation: isolate"/>
    </g>
    <g id="Grupo_27103" data-name="Grupo 27103" transform="translate(3.151 11.846)" opacity="0.3" style="mix-blend-mode: multiply;isolation: isolate">
      <path id="Trazado_55212" data-name="Trazado 55212" d="M90.767,378.086c-34.058,14.159-52.993-5.9-55.626-8.967a31.28,31.28,0,0,0,7.729,9.731c9.509,7.834,35.9,12.232,67.634-6.694,25.674-15.3,31.988-41.5,22.524-56.646C141.75,331.64,126.14,363.381,90.767,378.086Z" transform="translate(-35.141 -315.509)" fill="#585757" style="mix-blend-mode: multiply;isolation: isolate"/>
    </g>
  </g>
  <g id="Grupo_27108" data-name="Grupo 27108" transform="translate(2.462 86.352)">
    <path id="Trazado_55213" data-name="Trazado 55213" d="M24.975,366.526c1.37,5.807,10.254,15.234,28.03,17.238S82.033,372.7,77.215,362.5s-23-12.872-32.577-13.124c-6.011-.149-12.949.476-16.95,4.938C24.8,357.527,24.062,362.643,24.975,366.526Z" transform="translate(-24.606 -349.352)" fill="#e33e4e"/>
    <path id="Trazado_55214" data-name="Trazado 55214" d="M30.1,355.769s.851,5.871,11.737,9.836a25.434,25.434,0,0,0,12.191,1.539c2.584-.376,8.463-1.635,7.725-5.467-.469-2.454-4.644-4.52-6.635-5.456a41.475,41.475,0,0,0-10.2-3.562C35.531,350.4,28.706,350.825,30.1,355.769Z" transform="translate(-18.584 -347.088)" fill="#bf2e43" style="mix-blend-mode: multiply;isolation: isolate"/>
    <g id="Grupo_27105" data-name="Grupo 27105" transform="translate(11.333 6.08)">
      <path id="Trazado_55215" data-name="Trazado 55215" d="M57.119,359.222c-3.564,1.347-9.582,1.413-16.673-.7-6.069-1.807-8.869-4.422-10.149-6.319a3.136,3.136,0,0,0-.2,2.6s.851,5.871,11.737,9.836a25.434,25.434,0,0,0,12.191,1.539c2.584-.376,8.463-1.635,7.725-5.467a3.949,3.949,0,0,0-1.093-1.908A6.128,6.128,0,0,0,57.119,359.222Z" transform="translate(-29.917 -352.201)" fill="#bf2e43" style="mix-blend-mode: multiply;isolation: isolate"/>
    </g>
    <g id="Grupo_27106" data-name="Grupo 27106" transform="translate(11.834 9.699)">
      <path id="Trazado_55216" data-name="Trazado 55216" d="M57.83,361.675c-1.157-1.315-1.11-.962-8.835-.312-8.822.508-15.5-4.586-18.843-7.467.77,1.857,3.31,5.866,11.417,8.818a25.434,25.434,0,0,0,12.191,1.539c.122-.015.25-.038.382-.055C56.592,363.555,58.4,362.326,57.83,361.675Z" transform="translate(-30.152 -353.897)" fill="#bf2e43" style="mix-blend-mode: multiply;isolation: isolate"/>
    </g>
    <g id="Grupo_27107" data-name="Grupo 27107" transform="translate(0.001 11.161)" opacity="0.3" style="mix-blend-mode: multiply;isolation: isolate">
      <path id="Trazado_55217" data-name="Trazado 55217" d="M43.659,374.336c-17.275-4.522-18.7-17.8-18.813-19.754a15.166,15.166,0,0,0,.128,6.014C26.344,366.4,35.228,375.83,53,377.834c14.379,1.624,24.49-6.624,25.279-15.232C76.917,371.372,61.6,379.033,43.659,374.336Z" transform="translate(-24.607 -354.582)" fill="#585757" style="mix-blend-mode: multiply;isolation: isolate"/>
    </g>
  </g>
</svg>
