<svg xmlns="http://www.w3.org/2000/svg" width="221.981" height="231.354" viewBox="0 0 221.981 231.354">
  <g id="Grupo_27175" data-name="Grupo 27175" transform="translate(-706.417 -593.646)">
    <text id="Verificar" transform="translate(771.908 818)" fill="#00223d" font-size="24" font-family="Roboto-Black, Roboto" font-weight="800"><tspan x="0" y="0">Verificar</tspan></text>
    <rect id="Image_Place_Holder" data-name="Image Place Holder" width="221.981" height="150.264" rx="10" transform="translate(706.417 631.808)" fill="#d1eaff"/>
    <g id="Grupo_27170" data-name="Grupo 27170" transform="translate(777.279 593.646)">
      <g id="Grupo_27137" data-name="Grupo 27137" transform="translate(1.54 72.583)">
        <path id="Trazado_55277" data-name="Trazado 55277" d="M352.73,440.457a1.852,1.852,0,0,1,.086,1.816,1.1,1.1,0,0,1-1.836.243l-.477-.493c-.5.694-.986,2.265,1.193,5.945a1.518,1.518,0,0,1-.209,1.866.934.934,0,0,1-1.255-.034c-.018-.016-.032-.036-.05-.052a1.384,1.384,0,0,1-.428,1.136.932.932,0,0,1-1.255-.036.3.3,0,1,0-.473.356.936.936,0,0,1-1.255-.036,1.415,1.415,0,0,1-.282-.34c-.028-.048-.052-.1-.08-.143-.016.014-.028.032-.044.046a.932.932,0,0,1-1.255-.036,1.375,1.375,0,0,1-.282-.34,17.8,17.8,0,0,1-1.406-2.912v0l-.016-.044a12.129,12.129,0,0,1-.382-1.271c-.539-1.939,1.221-5.326,1.531-8.552l5.191-1.225Z" transform="translate(-342.922 -436.352)" fill="#eb9f86"/>
      </g>
      <g id="Grupo_27138" data-name="Grupo 27138" transform="translate(64.541 23.085)">
        <path id="Trazado_55278" data-name="Trazado 55278" d="M310.363,417.219a1.85,1.85,0,0,1,1.223-1.344A1.1,1.1,0,0,1,313.054,417l-.01.688c.841-.141,2.3-.9,3.359-5.048a1.518,1.518,0,0,1,1.468-1.173.936.936,0,0,1,.863.913c0,.022,0,.048,0,.07a1.387,1.387,0,0,1,1.106-.5.935.935,0,0,1,.863.913,1.357,1.357,0,0,1,0,.2,1.192,1.192,0,0,1,.587-.117.933.933,0,0,1,.863.913,1.357,1.357,0,0,1-.042.44c-.014.054-.03.1-.044.159.02,0,.042,0,.064,0a.931.931,0,0,1,.861.911,1.3,1.3,0,0,1-.042.44,17.635,17.635,0,0,1-1.064,3.053h0l-.02.042a12.168,12.168,0,0,1-.628,1.169c-.99,1.75-4.63,2.9-7.13,4.964l-4.537-2.8Z" transform="translate(-309.57 -411.464)" fill="#eb9f86"/>
      </g>
      <g id="Grupo_27169" data-name="Grupo 27169" transform="translate(0 0)">
        <g id="Grupo_27149" data-name="Grupo 27149" transform="translate(0 68.009)">
          <g id="Grupo_27142" data-name="Grupo 27142">
            <g id="Grupo_27139" data-name="Grupo 27139" transform="translate(23.583)">
              <path id="Trazado_55279" data-name="Trazado 55279" d="M342.515,435.04l8.142,35.907a9.684,9.684,0,0,1-3.441,8.952l-24.308,19.009.449-17.5L335.5,471.5l-12.589-37.444Z" transform="translate(-322.909 -434.052)" fill="#6543f7"/>
            </g>
            <g id="Grupo_27141" data-name="Grupo 27141" transform="translate(0 52.357)">
              <path id="Trazado_55280" data-name="Trazado 55280" d="M342.615,473.023l11.7-6.123-4.622-6.523-12.712,6.912,4.056,5.144Z" transform="translate(-330.882 -460.377)" fill="#eb9f86"/>
              <g id="Grupo_27140" data-name="Grupo 27140" transform="translate(0 4.168)">
                <path id="Trazado_55281" data-name="Trazado 55281" d="M346.245,462.473s1.977,7.249,7.671,6.846l2.2,17.271-16.8-21.308Z" transform="translate(-337.297 -462.473)" fill="#202443"/>
                <rect id="Rectángulo_5258" data-name="Rectángulo 5258" width="27.136" height="2.563" transform="matrix(0.619, 0.785, -0.785, 0.619, 2.013, 2.808)" fill="#fff"/>
                <path id="Trazado_55282" data-name="Trazado 55282" d="M343.543,467.22a10.231,10.231,0,0,0-3.274-.33" transform="translate(-326.635 -458.117)" fill="none" stroke="#fff" stroke-linecap="round" stroke-linejoin="round" stroke-width="1.504"/>
                <path id="Trazado_55283" data-name="Trazado 55283" d="M343.3,468.491a10.229,10.229,0,0,0-3.274-.33" transform="translate(-325.905 -456.861)" fill="none" stroke="#fff" stroke-linecap="round" stroke-linejoin="round" stroke-width="1.504"/>
                <path id="Trazado_55284" data-name="Trazado 55284" d="M343.054,469.762a10.23,10.23,0,0,0-3.274-.33" transform="translate(-325.173 -455.604)" fill="none" stroke="#fff" stroke-linecap="round" stroke-linejoin="round" stroke-width="1.504"/>
              </g>
            </g>
          </g>
          <g id="Grupo_27148" data-name="Grupo 27148" transform="translate(11.082 0.109)">
            <g id="Grupo_27144" data-name="Grupo 27144" transform="translate(0 72.655)">
              <path id="Trazado_55285" data-name="Trazado 55285" d="M345.01,484.03l1.184-12.982-7.984-.409L337.022,484.9h6.551Z" transform="translate(-333.911 -470.638)" fill="#eb9f86"/>
              <g id="Grupo_27143" data-name="Grupo 27143" transform="translate(0 8.544)">
                <path id="Trazado_55286" data-name="Trazado 55286" d="M331.642,476.72s6.917,2.936,10.125-1.786l14.922,8.97H329.554Z" transform="translate(-329.553 -474.934)" fill="#202443"/>
                <rect id="Rectángulo_5259" data-name="Rectángulo 5259" width="27.136" height="2.563" transform="translate(0 8.97)" fill="#fff"/>
                <path id="Trazado_55287" data-name="Trazado 55287" d="M338.362,475.524a10.179,10.179,0,0,0-2.287,2.367" transform="translate(-324.195 -474.351)" fill="none" stroke="#fff" stroke-linecap="round" stroke-linejoin="round" stroke-width="1.504"/>
                <path id="Trazado_55288" data-name="Trazado 55288" d="M337.211,476.119a10.163,10.163,0,0,0-2.285,2.365" transform="translate(-320.759 -473.762)" fill="none" stroke="#fff" stroke-linecap="round" stroke-linejoin="round" stroke-width="1.504"/>
                <path id="Trazado_55289" data-name="Trazado 55289" d="M336.063,476.714a10.193,10.193,0,0,0-2.287,2.365" transform="translate(-317.323 -473.174)" fill="none" stroke="#fff" stroke-linecap="round" stroke-linejoin="round" stroke-width="1.504"/>
              </g>
            </g>
            <g id="Grupo_27147" data-name="Grupo 27147" transform="translate(1.564)">
              <g id="Grupo_27146" data-name="Grupo 27146">
                <g id="Grupo_27145" data-name="Grupo 27145">
                  <path id="Trazado_55290" data-name="Trazado 55290" d="M334,434.107l-3.663,75.726h13.892l10.118-75.478Z" transform="translate(-330.34 -434.107)" fill="#6b6bd6"/>
                </g>
              </g>
              <path id="Trazado_55291" data-name="Trazado 55291" d="M337.233,434.715h0l-8.419,13.2-1.759-13.532Z" transform="translate(-306.69 -433.835)" fill="#6b6bd6"/>
            </g>
          </g>
        </g>
        <g id="Grupo_27157" data-name="Grupo 27157" transform="translate(0.982 0)">
          <g id="Grupo_27152" data-name="Grupo 27152" transform="translate(34.397 29.352)">
            <path id="Trazado_55292" data-name="Trazado 55292" d="M323.212,420.516l-4.852,6.761-5.415-6.508,6.145-6.154Z" transform="translate(-287.338 -414.615)" fill="#eb9f86"/>
            <g id="Grupo_27150" data-name="Grupo 27150" transform="translate(0 1.119)">
              <path id="Trazado_55293" data-name="Trazado 55293" d="M331.342,418.625,342.3,435.965a6.06,6.06,0,0,1-1.977,8.027h0a6.063,6.063,0,0,1-8.377-1.738l-12.08-16.661a6.718,6.718,0,0,1,.859-8.449h0A6.718,6.718,0,0,1,331.342,418.625Z" transform="translate(-318.757 -415.178)" fill="#62cca2"/>
              <path id="Trazado_55294" data-name="Trazado 55294" d="M324.87,430.752l.647-9.493,2.354,13.636Z" transform="translate(-315.714 -409.165)" fill="#1d8f62"/>
            </g>
            <g id="Grupo_27151" data-name="Grupo 27151" transform="translate(13.006 1.263)">
              <path id="Trazado_55295" data-name="Trazado 55295" d="M313.99,435.522l13.389-20.272,8.375,7.164L323.5,441.431a5.6,5.6,0,0,1-8.658,1.416h0A5.6,5.6,0,0,1,313.99,435.522Z" transform="translate(-313.003 -415.25)" fill="#62cca2"/>
            </g>
          </g>
          <g id="Grupo_27154" data-name="Grupo 27154">
            <rect id="Rectángulo_5260" data-name="Rectángulo 5260" width="27.085" height="27.085" transform="matrix(0.931, 0.364, -0.364, 0.931, 67.238, 0.456)" fill="#f1cb42"/>
            <rect id="Rectángulo_5261" data-name="Rectángulo 5261" width="27.085" height="27.085" transform="matrix(0.931, 0.364, -0.364, 0.931, 66.072, 0)" fill="#f1cb42"/>
            <path id="Trazado_55296" data-name="Trazado 55296" d="M353.846,428.38l-.265,24.294-10.642-.5-.284-23.608a5.6,5.6,0,0,1,6.51-5.883h0A5.6,5.6,0,0,1,353.846,428.38Z" transform="translate(-342.643 -377.361)" fill="#62cca2"/>
            <g id="Grupo_27153" data-name="Grupo 27153" transform="translate(0.139 29.072)">
              <path id="Trazado_55297" data-name="Trazado 55297" d="M359.35,426.251l-14.682,14.328a6.057,6.057,0,0,1-8.262-.265h0a6.058,6.058,0,0,1-.044-8.554l13.781-15.284a6.717,6.717,0,0,1,8.443-.917h0A6.719,6.719,0,0,1,359.35,426.251Z" transform="translate(-334.617 -414.475)" fill="#62cca2"/>
            </g>
          </g>
          <g id="Grupo_27156" data-name="Grupo 27156" transform="translate(15.326 29.074)">
            <g id="Grupo_27155" data-name="Grupo 27155">
              <path id="Trazado_55298" data-name="Trazado 55298" d="M351.607,415.851l-20.875-1.372c-1.883-.125-5.239,3.293-5.042,5.169l-.012,33.872,26.881.879,2.731-34.381A3.948,3.948,0,0,0,351.607,415.851Z" transform="translate(-325.679 -414.475)" fill="#62cca2"/>
            </g>
            <path id="Trazado_55299" data-name="Trazado 55299" d="M337.522,428.022l6.063-5.917-6.06,16.026Z" transform="translate(-337.522 -406.931)" fill="#1d8f62"/>
          </g>
        </g>
        <g id="Grupo_27168" data-name="Grupo 27168" transform="translate(23.574 0.016)">
          <path id="Trazado_55300" data-name="Trazado 55300" d="M326.48,409.417a2.825,2.825,0,0,0,2.512,3.091,2.8,2.8,0,0,0,3-2.6,2.826,2.826,0,0,0-2.512-3.093A2.8,2.8,0,0,0,326.48,409.417Z" transform="translate(-311.221 -392.999)" fill="#fd5f44"/>
          <path id="Trazado_55301" data-name="Trazado 55301" d="M337.905,413.216l-.127,6.82a3.333,3.333,0,0,1-3.773,3.58h0c-1.949-.056-4.071-1.04-3.948-3.15l.7-10.722Z" transform="translate(-324.251 -390.098)" fill="#eb9f86"/>
          <path id="Trazado_55302" data-name="Trazado 55302" d="M337.233,417.079s-5.563.364-7.172-5.923c-.505-1.981,7.269.688,7.269.688Z" transform="translate(-323.649 -389.424)" fill="#fd5f44"/>
          <path id="Trazado_55303" data-name="Trazado 55303" d="M335.226,423.022h0c3.894.082,7.166-3.029,7.341-6.311l.33-6.867a7.548,7.548,0,0,0-6.734-8.017h0c-4.069-.366-8.369,2.681-8.729,6.881l-.191,5.354A8.57,8.57,0,0,0,335.226,423.022Z" transform="translate(-323.654 -397.955)" fill="#eb9f86"/>
          <g id="Grupo_27164" data-name="Grupo 27164" transform="translate(8.955 11.194)">
            <g id="Grupo_27158" data-name="Grupo 27158" transform="translate(4.532 3.956)">
              <path id="Trazado_55304" data-name="Trazado 55304" d="M329.649,410.94a.595.595,0,0,1-.012-1.189l.332-.006-.131-1.615a.595.595,0,1,1,1.185-.1l.181,2.245a.6.6,0,0,1-.581.642l-.963.02Z" transform="translate(-329.054 -407.483)" fill="#fd5f44"/>
            </g>
            <g id="Grupo_27159" data-name="Grupo 27159">
              <path id="Trazado_55305" data-name="Trazado 55305" d="M332.447,405.5s1.6-.107,1.6.563c0,0-.01.456-1.4.519s-1.754-.046-1.874-.475S331.7,405.49,332.447,405.5Z" transform="translate(-330.763 -405.494)" fill="#322b2a"/>
            </g>
            <g id="Grupo_27160" data-name="Grupo 27160" transform="translate(6.916 1.562)">
              <path id="Trazado_55306" data-name="Trazado 55306" d="M328.993,406.3s-1.315-.165-1.432.463c0,0-.072.426,1.08.543s1.529-.028,1.645-.372C330.415,406.547,329.619,406.319,328.993,406.3Z" transform="translate(-327.56 -406.279)" fill="#322b2a"/>
            </g>
            <g id="Grupo_27161" data-name="Grupo 27161" transform="translate(7.343 3.476)">
              <path id="Trazado_55307" data-name="Trazado 55307" d="M328.049,407.9a.67.67,0,1,0,.7-.656A.681.681,0,0,0,328.049,407.9Z" transform="translate(-328.049 -407.242)" fill="#322b2a"/>
            </g>
            <g id="Grupo_27162" data-name="Grupo 27162" transform="translate(1.48 3.17)">
              <path id="Trazado_55308" data-name="Trazado 55308" d="M331,407.745a.67.67,0,1,0,.7-.656A.684.684,0,0,0,331,407.745Z" transform="translate(-330.997 -407.088)" fill="#322b2a"/>
            </g>
            <g id="Grupo_27163" data-name="Grupo 27163" transform="translate(2.501 7.193)">
              <path id="Trazado_55309" data-name="Trazado 55309" d="M331.727,411.1a2.608,2.608,0,0,1-2.263-1.213.594.594,0,0,1,1.076-.487,1.712,1.712,0,0,0,1.579.463.593.593,0,1,1,.294,1.15A2.618,2.618,0,0,1,331.727,411.1Z" transform="translate(-329.435 -409.111)" fill="#fd5f44"/>
            </g>
          </g>
          <path id="Trazado_55310" data-name="Trazado 55310" d="M342.689,400.4c-1.492-.642-5.3-1.346-6.14,2.019-3.789-.288-9.817-.219-10.422,3.067-.891,4.825,2.536,9.606,2.536,9.606l.963.491s2.448-1.275,1.816-7.048c0,0,8.755,2.112,12.862-.109S347.169,402.329,342.689,400.4Z" transform="translate(-325.051 -399.865)" fill="#401f43"/>
          <g id="Grupo_27167" data-name="Grupo 27167" transform="translate(0 13.322)">
            <g id="Grupo_27165" data-name="Grupo 27165">
              <path id="Trazado_55311" data-name="Trazado 55311" d="M334.174,409.146a2.8,2.8,0,0,0,2.488,3.061,2.767,2.767,0,0,0,2.967-2.572,2.74,2.74,0,1,0-5.455-.489Z" transform="translate(-334.164 -406.564)" fill="#eb9f86"/>
            </g>
            <g id="Grupo_27166" data-name="Grupo 27166" transform="translate(1.273 1.097)">
              <path id="Trazado_55312" data-name="Trazado 55312" d="M337.138,410.2l-.05,0a.6.6,0,0,1-.543-.641,1.5,1.5,0,0,0-.3-1.038.969.969,0,0,0-.8-.211.586.586,0,0,1-.638-.547.6.6,0,0,1,.547-.638,2.13,2.13,0,0,1,1.74.561,2.686,2.686,0,0,1,.642,1.971A.6.6,0,0,1,337.138,410.2Z" transform="translate(-334.8 -407.115)" fill="#fd5f44"/>
            </g>
          </g>
          <path id="Trazado_55313" data-name="Trazado 55313" d="M329.039,414.654l12.494.823s.4,4.306-5.161,4.01C330.119,419.153,329.039,414.654,329.039,414.654Z" transform="translate(-325.87 -385.241)" fill="#eb9f86"/>
        </g>
      </g>
      <path id="Trazado_55314" data-name="Trazado 55314" d="M317.255,415.974c-.527.376-.422.686.008,1.1,1.565,1.521,3.1,3.071,4.634,4.626.354.36.632.374.977.006.426-.453.877-.885,1.317-1.327.507-.507.513-.6.022-1.088q-2.19-2.2-4.385-4.381c-.732-.728-.736-.724-1.5-.008-.024.024-.068.028-.046.02l-1.436-1.352a5.716,5.716,0,0,0-8.148-7.967,5.7,5.7,0,0,0-1,7.426,5.5,5.5,0,0,0,3.24,2.351,5.694,5.694,0,0,0,5.022-.973l1.434,1.394A.726.726,0,0,1,317.255,415.974Zm-4.767-1.486a4.6,4.6,0,1,1,4.56-4.6A4.6,4.6,0,0,1,312.487,414.489Z" transform="translate(-240.999 -395.567)" fill="#ffe59c"/>
    </g>
  </g>
</svg>
