<svg xmlns="http://www.w3.org/2000/svg" width="35.818" height="35.818" viewBox="0 0 35.818 35.818">
  <g id="Grupo_27365" data-name="Grupo 27365" transform="translate(-1041.491 -223.488)">
    <path id="Trazado_56793" data-name="Trazado 56793" d="M1076.389,226.7a4.511,4.511,0,0,0-3.63-1.809h-.61v-.349a1.049,1.049,0,1,0-2.1,0v2.8a1.049,1.049,0,0,0,2.1,0v-.35h.61a2.448,2.448,0,0,1,2.354,3.121l-2.785,9.748a6.37,6.37,0,0,1-12.25,0l-2.785-9.748a2.449,2.449,0,0,1,2.354-3.121h.61v.35a1.049,1.049,0,0,0,2.1,0v-2.8a1.049,1.049,0,1,0-2.1,0v.349h-.61a4.547,4.547,0,0,0-4.372,5.8l2.785,9.748a8.407,8.407,0,0,0,3.043,4.434,8.812,8.812,0,0,0,.99.644l3.061,7.223v.757a3.717,3.717,0,1,1-7.433,0v-7.2a6.016,6.016,0,0,0-12.033,0v2.484a5.247,5.247,0,1,0,2.1,0v-2.484a3.917,3.917,0,1,1,7.835,0v7.2a5.816,5.816,0,1,0,11.631,0v-.757l3.06-7.223a8.638,8.638,0,0,0,.99-.644,8.407,8.407,0,0,0,3.043-4.434l2.785-9.748a4.511,4.511,0,0,0-.742-3.988Zm-26.5,27.223a3.148,3.148,0,1,1-3.148-3.148A3.152,3.152,0,0,1,1049.886,253.919Zm16.317-4.089-1.431-3.377a8.523,8.523,0,0,0,2.862,0Z" fill="#111e61"/>
    <circle id="Elipse_2144" data-name="Elipse 2144" cx="1.049" cy="1.049" r="1.049" transform="translate(1045.688 252.87)" fill="#111e61"/>
  </g>
</svg>
