<svg xmlns="http://www.w3.org/2000/svg" width="458" height="331.729" viewBox="0 0 458 331.729">
  <g id="Grupo_29021" data-name="Grupo 29021" transform="translate(-471 -2588.366)">
    <g id="Grupo_27335" data-name="Grupo 27335" transform="translate(-322.812 2366.698)">
      <g id="Grupo_27290" data-name="Grupo 27290" transform="translate(793.812 221.668)">
        <g id="Grupo_27277" data-name="Grupo 27277">
          <g id="Grupo_27271" data-name="Grupo 27271" transform="translate(91.632 66.19)">
            <rect id="Rectángulo_5288" data-name="Rectángulo 5288" width="3.697" height="18.443" transform="translate(7.373)" fill="#cce0fb"/>
            <rect id="Rectángulo_5289" data-name="Rectángulo 5289" width="3.697" height="18.443" transform="translate(18.443 7.373) rotate(90)" fill="#cce0fb"/>
          </g>
          <g id="Grupo_27272" data-name="Grupo 27272" transform="translate(0 94.46)">
            <rect id="Rectángulo_5290" data-name="Rectángulo 5290" width="6.16" height="30.726" transform="translate(12.283)" fill="#cce0fb"/>
            <rect id="Rectángulo_5291" data-name="Rectángulo 5291" width="6.16" height="30.726" transform="translate(30.726 12.283) rotate(90)" fill="#cce0fb"/>
          </g>
          <g id="Grupo_27273" data-name="Grupo 27273" transform="translate(302.907)">
            <rect id="Rectángulo_5292" data-name="Rectángulo 5292" width="6.16" height="30.726" transform="translate(12.283)" fill="#cce0fb"/>
            <rect id="Rectángulo_5293" data-name="Rectángulo 5293" width="6.16" height="30.726" transform="translate(30.726 12.283) rotate(90)" fill="#cce0fb"/>
          </g>
          <g id="Grupo_27274" data-name="Grupo 27274" transform="translate(425.218 213.193)">
            <rect id="Rectángulo_5294" data-name="Rectángulo 5294" width="6.16" height="30.726" transform="translate(12.283)" fill="#cce0fb"/>
            <rect id="Rectángulo_5295" data-name="Rectángulo 5295" width="6.16" height="30.726" transform="translate(30.726 12.283) rotate(90)" fill="#cce0fb"/>
          </g>
          <g id="Grupo_27275" data-name="Grupo 27275" transform="translate(15.363 252.812)">
            <rect id="Rectángulo_5296" data-name="Rectángulo 5296" width="3.269" height="16.307" transform="translate(6.519)" fill="#cce0fb"/>
            <rect id="Rectángulo_5297" data-name="Rectángulo 5297" width="3.269" height="16.307" transform="translate(16.307 6.519) rotate(90)" fill="#cce0fb"/>
          </g>
          <g id="Grupo_27276" data-name="Grupo 27276" transform="translate(291.472 49.079)">
            <rect id="Rectángulo_5298" data-name="Rectángulo 5298" width="3.269" height="16.307" transform="translate(6.519)" fill="#cce0fb"/>
            <rect id="Rectángulo_5299" data-name="Rectángulo 5299" width="3.269" height="16.307" transform="translate(16.307 6.519) rotate(90)" fill="#cce0fb"/>
          </g>
        </g>
        <g id="Grupo_27289" data-name="Grupo 27289" transform="translate(5.739 48.83)" opacity="0.54">
          <g id="Grupo_27284" data-name="Grupo 27284">
            <g id="Grupo_27283" data-name="Grupo 27283">
              <g id="Grupo_27279" data-name="Grupo 27279" transform="translate(2.416)" opacity="0.53">
                <g id="Grupo_27278" data-name="Grupo 27278" opacity="0.47">
                  <path id="Trazado_56631" data-name="Trazado 56631" d="M1245.731,355.363a88.447,88.447,0,0,0-31.145-58.391c-28.591-23.965-71.842-30.009-109.747-24.467-15.875,2.321-31.622,6.432-47.88,5.137-23.709-1.885-44.6-14.821-66.18-24.306-29.386-12.908-63.073-19.854-94.313-14.24-35.42,6.369-64.463,30.428-67.927,62.347-1.572,14.461,14.385,39.942,9.349,53.648-5.109,13.9-42.4,56.484-41.476,88.873.916,32.269,9.5,42.3,21.638,58.7h396.306c7.559-16.618,13.479-29.907,4.632-51.729-7.07-17.435,12.134-31.792,19.567-48.022C1245.166,388.473,1247.345,371.1,1245.731,355.363Z" transform="translate(-796.395 -237.133)" fill="#c5dbee"/>
                </g>
              </g>
              <g id="Grupo_27280" data-name="Grupo 27280" transform="translate(0 103.91)" opacity="0.41">
                <path id="Trazado_56632" data-name="Trazado 56632" d="M797.172,290.8a13.689,13.689,0,0,1,6.132-18.578c6.918-3.467,20.2-3.183,23.735,3.612s-7.12,12.592-11.471,18.907C809.5,303.557,800.7,297.6,797.172,290.8Z" transform="translate(-795.63 -270.043)" fill="#c5dbee"/>
              </g>
              <g id="Grupo_27281" data-name="Grupo 27281" transform="translate(434.841 191.762)" opacity="0.41">
                <path id="Trazado_56633" data-name="Trazado 56633" d="M946.988,299.972a8.231,8.231,0,0,1,1.73,11.657c-2.8,3.688-10.066,7.01-13.823,4.259s.432-8.677,1.07-13.233C936.855,296.3,943.23,297.221,946.988,299.972Z" transform="translate(-933.348 -297.866)" fill="#c5dbee"/>
              </g>
              <g id="Grupo_27282" data-name="Grupo 27282" transform="translate(254.228 5.446)" opacity="0.41">
                <path id="Trazado_56634" data-name="Trazado 56634" d="M878.753,244.26a12,12,0,0,1,16.413-3.539c5.412,3.508,10.6,13.214,6.949,18.673s-12.33.262-18.834-.17C874.213,258.621,875.1,249.723,878.753,244.26Z" transform="translate(-876.146 -238.858)" fill="#c5dbee"/>
              </g>
            </g>
          </g>
          <g id="Grupo_27285" data-name="Grupo 27285" transform="translate(40.303 35.708)">
            <path id="Trazado_56635" data-name="Trazado 56635" d="M1176.125,459.259c3.862-18.844-2.33-34.922-3.874-53.4-1.462-17.5,4.869-32.209,8.38-48.871,3.126-14.831,2.084-31.628-1.838-46.2-5.358-19.9-17.694-38.325-35.468-49.556-27.7-17.505-64.633-15.443-95.226-3.4-12.813,5.042-25.225,11.752-38.947,13.451-20.015,2.476-39.5-5.993-58.994-11.073-26.542-6.915-55.676-7.43-80.717,3.486C841.049,276.066,820.86,304,823.219,334.769c1.067,13.943,6.536,27.7,4.6,41.552-1.964,14.048-10.464,25.8-14.966,39.029-6.141,18.058-6.7,44.6,3.176,62.919h353.447A75.288,75.288,0,0,0,1176.125,459.259Z" transform="translate(-808.394 -248.442)" fill="#c5dbee"/>
          </g>
          <g id="Grupo_27288" data-name="Grupo 27288" transform="translate(90.866 101.208)">
            <g id="Grupo_27287" data-name="Grupo 27287">
              <g id="Grupo_27286" data-name="Grupo 27286" opacity="0.47">
                <path id="Trazado_56636" data-name="Trazado 56636" d="M1093.263,342.355a55.308,55.308,0,0,0-18.635-36.134c-17.107-14.834-42.986-18.572-65.666-15.143-9.5,1.437-18.919,3.982-28.648,3.18-14.187-1.168-26.684-9.173-39.6-15.042-17.584-7.988-37.738-12.289-56.43-8.812-21.193,3.944-38.572,18.831-40.643,38.584-.941,8.948,8.6,24.717,5.592,33.2-3.057,8.6-25.367,34.953-24.818,55,.549,19.971,5.687,26.182,12.949,36.33h237.122c4.521-10.284,8.064-18.509,2.772-32.01-4.231-10.792,7.262-19.677,11.708-29.721C1092.925,362.844,1094.226,352.1,1093.263,342.355Z" transform="translate(-824.408 -269.187)" fill="#edf4f9"/>
              </g>
            </g>
          </g>
        </g>
      </g>
      <g id="Grupo_27334" data-name="Grupo 27334" transform="translate(903.888 243.232)">
        <g id="Grupo_27317" data-name="Grupo 27317" transform="translate(0 28)">
          <g id="Grupo_27313" data-name="Grupo 27313" transform="translate(66.148)">
            <g id="Grupo_27312" data-name="Grupo 27312">
              <g id="Grupo_27306" data-name="Grupo 27306">
                <g id="Grupo_27292" data-name="Grupo 27292">
                  <path id="Trazado_56637" data-name="Trazado 56637" d="M919.392,349.491l-30.687-.224a39.368,39.368,0,0,1-39.08-39.655l.186-25.452a52.565,52.565,0,0,1,52.948-52.177h0a52.566,52.566,0,0,1,52.18,52.948l-.218,29.746A35.074,35.074,0,0,1,919.392,349.491Z" transform="translate(-849.624 -231.982)" fill="#62cca2"/>
                  <path id="Trazado_56638" data-name="Trazado 56638" d="M912.258,322.271l-30.687-.224a28.853,28.853,0,0,1-28.641-29.064L853,284.04A42.046,42.046,0,0,1,895.35,242.3h0a42.051,42.051,0,0,1,41.741,42.357l-.1,13.236A24.555,24.555,0,0,1,912.258,322.271Z" transform="translate(-842.493 -209.725)" fill="#53a581"/>
                  <g id="Grupo_27291" data-name="Grupo 27291" transform="translate(8.301 4.889)">
                    <path id="Trazado_56639" data-name="Trazado 56639" d="M867.081,238.443a.411.411,0,0,1-.414-.414V233.94a.414.414,0,0,1,.827,0v4.089A.413.413,0,0,1,867.081,238.443Z" transform="translate(-821.154 -233.53)" fill="#53a581" opacity="0.49"/>
                    <path id="Trazado_56640" data-name="Trazado 56640" d="M867.081,241.272a.413.413,0,0,1-.414-.414v-4.626a.414.414,0,0,1,.827,0v4.626A.415.415,0,0,1,867.081,241.272Z" transform="translate(-821.154 -228.592)" fill="#53a581" opacity="0.49"/>
                    <path id="Trazado_56641" data-name="Trazado 56641" d="M872.207,247.516a.45.45,0,0,1-.158-.028.416.416,0,0,1-.227-.54l.341-.837c2.046-5.027,3.663-9,9.024-11.758a.413.413,0,0,1,.375.736c-5.086,2.621-6.574,6.274-8.633,11.335l-.341.837A.413.413,0,0,1,872.207,247.516Z" transform="translate(-810.099 -231.855)" fill="#53a581" opacity="0.49"/>
                    <path id="Trazado_56642" data-name="Trazado 56642" d="M876.6,244.955a.426.426,0,0,1-.271-.1.417.417,0,0,1-.041-.584,20.283,20.283,0,0,1,4.8-4.449,7.186,7.186,0,0,1,6.542-.685.414.414,0,0,1-.341.755,6.371,6.371,0,0,0-5.781.641,19.653,19.653,0,0,0-4.594,4.281A.41.41,0,0,1,876.6,244.955Z" transform="translate(-800.606 -222.527)" fill="#53a581" opacity="0.49"/>
                    <path id="Trazado_56643" data-name="Trazado 56643" d="M879.489,246.08a.414.414,0,0,1-.246-.745,10.384,10.384,0,0,1,3.9-1.8.41.41,0,0,1,.493.313.415.415,0,0,1-.31.5,9.5,9.5,0,0,0-3.587,1.654A.41.41,0,0,1,879.489,246.08Z" transform="translate(-794.382 -211.973)" fill="#53a581" opacity="0.49"/>
                    <path id="Trazado_56644" data-name="Trazado 56644" d="M867.4,247.516a.406.406,0,0,1-.382-.256c-.363-.878-.654-1.778-.935-2.649a18.349,18.349,0,0,0-1.9-4.509,15.219,15.219,0,0,0-6.141-5.014.414.414,0,0,1,.379-.736,15.945,15.945,0,0,1,6.457,5.3,19.392,19.392,0,0,1,2,4.7c.275.856.559,1.74.909,2.586a.414.414,0,0,1-.382.571Z" transform="translate(-840.244 -231.855)" fill="#53a581" opacity="0.49"/>
                    <path id="Trazado_56645" data-name="Trazado 56645" d="M864.137,244.954a.41.41,0,0,1-.313-.142,21.77,21.77,0,0,0-4.142-3.959c-1.635-1.083-4.127-1.907-6.211-.963a.414.414,0,1,1-.341-.755c2.03-.919,4.651-.534,7.01,1.029a22.422,22.422,0,0,1,4.307,4.1.416.416,0,0,1-.31.688Z" transform="translate(-850.888 -222.498)" fill="#53a581" opacity="0.49"/>
                    <path id="Trazado_56646" data-name="Trazado 56646" d="M856.409,246.08a.418.418,0,0,1-.25-.085,9.481,9.481,0,0,0-3.584-1.654.414.414,0,0,1,.183-.808,10.385,10.385,0,0,1,3.9,1.8.416.416,0,0,1,.082.578A.41.41,0,0,1,856.409,246.08Z" transform="translate(-852.253 -211.973)" fill="#53a581" opacity="0.49"/>
                  </g>
                </g>
                <path id="Trazado_56647" data-name="Trazado 56647" d="M936.189,276.7l-2.854-.022.079-11.143c-3.246-1.838-11.023-7.433-11.837-7.325-35.951,4.727-40.472-12.942-40.472-12.942-.515,12.181-10.312,14.385-16.927,14.477.029-.527.07-1.055.123-1.576-.1,1-.164,2.018-.174,3.047l-.025,3.59h0l-.082,11.364-1.1-.006a11.519,11.519,0,1,0-.171,23.037l1.1.006-.022,3.192a32.954,32.954,0,0,0,12.674,26.09l-.164,22.415a21.609,21.609,0,0,0,43.216.316l.161-22.134a32.967,32.967,0,0,0,13.429-26.179l.022-3.192,2.858.019a11.517,11.517,0,0,0,.167-23.034Z" transform="translate(-845.967 -203.321)" fill="#eaa97b"/>
                <g id="Grupo_27304" data-name="Grupo 27304" transform="translate(10.411 24.708)">
                  <path id="Trazado_56648" data-name="Trazado 56648" d="M861.62,279.912a16.379,16.379,0,1,0,19.074-13.141A16.376,16.376,0,0,0,861.62,279.912Z" transform="translate(-834.747 -182.223)" fill="#e17848" opacity="0.55"/>
                  <g id="Grupo_27295" data-name="Grupo 27295" transform="translate(7.005)">
                    <path id="Trazado_56649" data-name="Trazado 56649" d="M861.011,241.424c.259-.139.518-.278.78-.411C861.529,241.146,861.27,241.285,861.011,241.424Z" transform="translate(-842.473 -237.205)" fill="#eaa97b"/>
                    <path id="Trazado_56650" data-name="Trazado 56650" d="M861.958,240.912c.262-.111.524-.221.789-.325C862.482,240.691,862.22,240.8,861.958,240.912Z" transform="translate(-840.43 -238.124)" fill="#eaa97b"/>
                    <path id="Trazado_56651" data-name="Trazado 56651" d="M861.478,241.158c.259-.123.521-.249.783-.369C862,240.909,861.737,241.035,861.478,241.158Z" transform="translate(-841.465 -237.688)" fill="#eaa97b"/>
                    <path id="Trazado_56652" data-name="Trazado 56652" d="M860.119,242.02c.252-.167.505-.338.764-.5C860.624,241.682,860.371,241.853,860.119,242.02Z" transform="translate(-844.397 -236.109)" fill="#eaa97b"/>
                    <path id="Trazado_56653" data-name="Trazado 56653" d="M860.558,241.712c.256-.155.511-.306.77-.455C861.069,241.405,860.814,241.557,860.558,241.712Z" transform="translate(-843.45 -236.678)" fill="#eaa97b"/>
                    <path id="Trazado_56654" data-name="Trazado 56654" d="M858.52,243.447c.237-.234.473-.461.717-.688C858.994,242.986,858.757,243.214,858.52,243.447Z" transform="translate(-847.847 -233.438)" fill="#eaa97b"/>
                    <path id="Trazado_56655" data-name="Trazado 56655" d="M859.7,242.347c.249-.183.5-.366.755-.543C860.194,241.981,859.944,242.164,859.7,242.347Z" transform="translate(-845.312 -235.498)" fill="#eaa97b"/>
                    <path id="Trazado_56656" data-name="Trazado 56656" d="M858.895,243.062c.24-.218.483-.429.733-.638C859.378,242.632,859.135,242.844,858.895,243.062Z" transform="translate(-847.038 -234.16)" fill="#eaa97b"/>
                    <path id="Trazado_56657" data-name="Trazado 56657" d="M859.286,242.7c.246-.2.5-.4.748-.591C859.782,242.3,859.532,242.5,859.286,242.7Z" transform="translate(-846.194 -234.849)" fill="#eaa97b"/>
                    <path id="Trazado_56658" data-name="Trazado 56658" d="M865.1,239.929c.234-.025.464-.057.7-.076C865.564,239.872,865.334,239.9,865.1,239.929Z" transform="translate(-833.651 -239.707)" fill="#eaa97b"/>
                    <path id="Trazado_56659" data-name="Trazado 56659" d="M865.684,239.855c.2-.013.395-.032.594-.038C866.079,239.823,865.883,239.842,865.684,239.855Z" transform="translate(-832.391 -239.785)" fill="#eaa97b"/>
                    <path id="Trazado_56660" data-name="Trazado 56660" d="M858.163,243.847c.23-.246.464-.493.7-.736C858.627,243.354,858.394,243.6,858.163,243.847Z" transform="translate(-848.617 -232.678)" fill="#eaa97b"/>
                    <g id="Grupo_27294" data-name="Grupo 27294" transform="translate(0 62.891)">
                      <path id="Trazado_56661" data-name="Trazado 56661" d="M882.329,262.2c-6.978,3.972-18.07,8.178-27.1,5.715,0,0-3.637,39.13,34.682,39.519,37.788.385,34.994-39.228,34.994-39.228a73.071,73.071,0,0,1-24.328-6.492A19.781,19.781,0,0,0,882.329,262.2Z" transform="translate(-855.14 -259.725)" fill="#fff"/>
                      <g id="Grupo_27293" data-name="Grupo 27293" transform="translate(23.051 3.661)" opacity="0.39">
                        <path id="Trazado_56662" data-name="Trazado 56662" d="M862.853,266.244a.416.416,0,0,1-.354-.2.412.412,0,0,1,.139-.565c.332-.2,8.194-4.907,14-4.575s12.734,4.4,13.025,4.572a.413.413,0,0,1-.42.71c-.07-.041-7.054-4.139-12.652-4.455s-13.444,4.408-13.523,4.455A.41.41,0,0,1,862.853,266.244Z" transform="translate(-862.44 -260.885)" fill="#b8c9d9"/>
                        <path id="Trazado_56663" data-name="Trazado 56663" d="M867.178,275.126a.415.415,0,0,1-.414-.414V261.442a.414.414,0,0,1,.827,0v13.271A.413.413,0,0,1,867.178,275.126Z" transform="translate(-853.112 -260.576)" fill="#b8c9d9"/>
                      </g>
                      <path id="Trazado_56664" data-name="Trazado 56664" d="M884.668,268.566h-.016L863.7,267.71a.413.413,0,0,1-.395-.429.417.417,0,0,1,.429-.4l20.953.856a.414.414,0,0,1-.016.827Z" transform="translate(-837.532 -244.282)" fill="#b8c9d9" opacity="0.13"/>
                      <path id="Trazado_56665" data-name="Trazado 56665" d="M884.411,270.609H884.4l-20.953-.856a.414.414,0,1,1,.032-.827l20.956.856a.414.414,0,0,1-.019.827Z" transform="translate(-838.087 -239.877)" fill="#b8c9d9" opacity="0.13"/>
                    </g>
                    <path id="Trazado_56666" data-name="Trazado 56666" d="M864.544,240.034c.246-.041.492-.085.742-.12C865.036,239.949,864.79,239.993,864.544,240.034Z" transform="translate(-834.85 -239.576)" fill="#eaa97b"/>
                    <path id="Trazado_56667" data-name="Trazado 56667" d="M864,240.162c.256-.054.508-.111.767-.161C864.51,240.051,864.258,240.108,864,240.162Z" transform="translate(-836.02 -239.388)" fill="#eaa97b"/>
                    <path id="Trazado_56668" data-name="Trazado 56668" d="M862.452,240.69c.259-.095.521-.193.786-.284C862.973,240.5,862.711,240.6,862.452,240.69Z" transform="translate(-839.364 -238.514)" fill="#eaa97b"/>
                    <path id="Trazado_56669" data-name="Trazado 56669" d="M862.957,240.488c.262-.079.521-.164.783-.24C863.478,240.324,863.219,240.409,862.957,240.488Z" transform="translate(-838.274 -238.855)" fill="#eaa97b"/>
                    <path id="Trazado_56670" data-name="Trazado 56670" d="M863.474,240.312c.259-.066.515-.139.777-.2C863.989,240.173,863.733,240.246,863.474,240.312Z" transform="translate(-837.159 -239.146)" fill="#eaa97b"/>
                    <path id="Trazado_56671" data-name="Trazado 56671" d="M855.5,249.754c.076-.47.161-.935.256-1.4C855.661,248.819,855.576,249.283,855.5,249.754Z" transform="translate(-854.362 -221.358)" fill="#eaa97b"/>
                    <path id="Trazado_56672" data-name="Trazado 56672" d="M855.432,250.334c.054-.5.12-.991.193-1.481C855.552,249.342,855.486,249.835,855.432,250.334Z" transform="translate(-854.509 -220.29)" fill="#eaa97b"/>
                    <path id="Trazado_56673" data-name="Trazado 56673" d="M855.714,248.643c.111-.423.234-.846.363-1.263C855.948,247.8,855.825,248.22,855.714,248.643Z" transform="translate(-853.901 -223.468)" fill="#eaa97b"/>
                    <path id="Trazado_56674" data-name="Trazado 56674" d="M855.595,249.191c.092-.445.2-.887.31-1.326Q855.734,248.523,855.595,249.191Z" transform="translate(-854.157 -222.422)" fill="#eaa97b"/>
                    <path id="Trazado_56675" data-name="Trazado 56675" d="M872.318,257.044s4.521,17.669,40.472,12.942c.814-.107,8.591,5.488,11.837,7.325h0l.029-3.811c.135-18.468-15.273-33.554-34.413-33.693h0c-.59,0-1.175.006-1.759.032-.2.006-.395.025-.594.038-.382.022-.767.041-1.146.076-.233.019-.464.051-.7.076-.338.038-.679.073-1.013.117-.25.035-.5.079-.742.12-.316.051-.632.1-.944.155-.259.05-.511.107-.767.161-.3.063-.6.12-.891.193-.262.06-.518.133-.777.2-.284.076-.568.145-.849.227-.262.076-.521.161-.783.24s-.543.167-.808.259-.527.189-.786.284-.518.186-.771.287-.527.215-.789.325c-.243.1-.49.205-.732.313-.262.12-.524.246-.783.369-.234.114-.464.221-.695.338-.262.133-.521.272-.78.411-.221.12-.442.237-.66.36-.259.148-.515.3-.77.455-.208.126-.417.249-.622.379-.259.161-.512.332-.764.5-.2.129-.392.259-.584.395-.256.177-.505.36-.755.543-.183.136-.366.268-.543.407-.253.193-.5.392-.748.591-.167.139-.338.275-.5.417-.25.208-.493.42-.733.638-.158.139-.312.278-.467.42-.243.227-.48.455-.717.688-.146.139-.287.281-.426.423-.237.243-.47.49-.7.736-.13.142-.259.284-.389.429-.23.256-.458.518-.679.783-.12.139-.237.281-.351.423-.224.275-.445.553-.66.834-.1.139-.208.281-.312.42-.215.29-.426.587-.632.884-.094.139-.186.275-.278.414-.208.306-.41.619-.6.935-.085.133-.164.268-.246.4-.2.325-.385.654-.571.985l-.208.388c-.186.344-.366.688-.537,1.039-.063.126-.12.253-.18.376-.17.36-.338.723-.5,1.092-.05.117-.1.237-.148.354-.158.379-.313.761-.455,1.146-.041.11-.079.221-.12.331-.142.4-.284.8-.411,1.2-.031.1-.06.2-.092.3-.129.417-.252.84-.363,1.263-.025.088-.044.18-.066.268-.111.439-.218.881-.31,1.326-.019.076-.031.155-.044.23-.094.461-.18.925-.256,1.4l-.022.167c-.073.489-.139.982-.193,1.481l-.006.095c-.053.521-.094,1.048-.123,1.576C862.006,271.429,871.8,269.225,872.318,257.044Z" transform="translate(-854.598 -239.807)" fill="#401f43"/>
                  </g>
                  <path id="Trazado_56676" data-name="Trazado 56676" d="M881.649,266.1a.838.838,0,0,1-.552-.208l-3.363-3.006,4.468-5.033a.827.827,0,0,1,1.238,1.1l-3.372,3.8,2.131,1.907a.826.826,0,0,1-.55,1.443Z" transform="translate(-799.388 -201.482)" fill="#e17460"/>
                  <path id="Trazado_56677" data-name="Trazado 56677" d="M855.009,265.994a.827.827,0,0,1-.543-1.452l2.163-1.872-3.318-3.852a.827.827,0,0,1,1.253-1.08l4.4,5.1-3.407,2.955A.829.829,0,0,1,855.009,265.994Z" transform="translate(-852.512 -201.742)" fill="#e17460"/>
                  <g id="Grupo_27299" data-name="Grupo 27299" transform="translate(17.643 36.15)">
                    <g id="Grupo_27298" data-name="Grupo 27298">
                      <g id="Grupo_27297" data-name="Grupo 27297">
                        <g id="Grupo_27296" data-name="Grupo 27296">
                          <path id="Trazado_56678" data-name="Trazado 56678" d="M874.5,255.762a8.9,8.9,0,0,1-3.527,1.272c-1.307.281-2.611.594-3.735.909s-2.409.72-3.672,1.156a8.892,8.892,0,0,1-3.672.736c-1.086-.145-1.816-1.222-1.089-3,.669-1.721,3.041-4.051,6.763-5.1,3.726-1.026,6.931-.253,8.367.878C875.446,253.769,875.358,255.073,874.5,255.762Z" transform="translate(-858.509 -251.256)" fill="#1b3031"/>
                        </g>
                      </g>
                    </g>
                  </g>
                  <g id="Grupo_27300" data-name="Grupo 27300" transform="translate(16.981 49.601)">
                    <path id="Trazado_56679" data-name="Trazado 56679" d="M878.361,262.109c-1.68-2.734-4.5-5.936-8.677-6.5a10.086,10.086,0,0,0-2.889.019c-6.258.947-7.963,5.6-8.393,8.746-.044.3-.076.594-.1.862a2.221,2.221,0,0,0,1.951,2.359,58.632,58.632,0,0,0,6.305.423,5.877,5.877,0,0,1-2.318-4.626c.012-3.372,3.028-6.094,6.735-6.081s6.707,2.757,6.694,6.129a5.748,5.748,0,0,1-1.481,3.8A3.424,3.424,0,0,0,878.361,262.109Z" transform="translate(-858.299 -255.516)" fill="#fff"/>
                    <path id="Trazado_56680" data-name="Trazado 56680" d="M866.917,256.085c-3.707-.013-6.722,2.709-6.735,6.081a5.877,5.877,0,0,0,2.318,4.626,47.841,47.841,0,0,0,9.545-.761l.085-.022a5.748,5.748,0,0,0,1.481-3.8C873.623,258.842,870.627,256.1,866.917,256.085Z" transform="translate(-854.237 -254.288)" fill="#1b3031"/>
                  </g>
                  <g id="Grupo_27301" data-name="Grupo 27301" transform="translate(48.253 49.762)">
                    <path id="Trazado_56681" data-name="Trazado 56681" d="M888.666,264.427c-.429-3.142-2.135-7.8-8.393-8.746a10.085,10.085,0,0,0-2.889-.019c-4.177.562-7,3.764-8.677,6.5a3.429,3.429,0,0,0,2.255,5.15,42.585,42.585,0,0,0,5.077.641,5.841,5.841,0,0,1-2.166-4.458c-.013-3.372,2.984-6.116,6.694-6.129s6.722,2.709,6.735,6.081a5.826,5.826,0,0,1-2.005,4.367c.562-.054,1.073-.111,1.516-.164a2.221,2.221,0,0,0,1.951-2.359C888.742,265.021,888.71,264.727,888.666,264.427Z" transform="translate(-868.203 -255.567)" fill="#fff"/>
                    <path id="Trazado_56682" data-name="Trazado 56682" d="M883.428,262.217c-.013-3.372-3.028-6.094-6.735-6.081s-6.707,2.757-6.694,6.129a5.841,5.841,0,0,0,2.166,4.458,57.473,57.473,0,0,0,9.258-.139A5.826,5.826,0,0,0,883.428,262.217Z" transform="translate(-864.329 -254.339)" fill="#1b3031"/>
                  </g>
                  <path id="Trazado_56683" data-name="Trazado 56683" d="M867.338,273.758a.826.826,0,0,1-.827-.827V254.283a.827.827,0,1,1,1.654,0v18.648A.826.826,0,0,1,867.338,273.758Z" transform="translate(-823.601 -210.359)" fill="#e17460"/>
                  <g id="Grupo_27302" data-name="Grupo 27302" transform="translate(50.739 43.199)">
                    <path id="Trazado_56684" data-name="Trazado 56684" d="M870,259.821a8.748,8.748,0,0,0,3.688.2c1.31-.1,2.627-.177,3.776-.2s2.472-.006,3.786.047a8.717,8.717,0,0,0,3.669-.347c.979-.445,1.358-1.667.161-3.138-1.124-1.434-4.026-2.955-7.831-2.889-3.8.085-6.6,1.724-7.622,3.2C868.527,258.211,868.988,259.417,870,259.821Z" transform="translate(-868.991 -253.488)" fill="#1b3031"/>
                  </g>
                  <g id="Grupo_27303" data-name="Grupo 27303" transform="translate(0 37.464)">
                    <path id="Trazado_56685" data-name="Trazado 56685" d="M853.314,254.569v18.945c0,3.688,3.457,6.678,7.72,6.678H880.26c5.99,0,10.846-4.2,10.846-9.381h0a1.918,1.918,0,0,1,2.04-1.765H896.1a1.919,1.919,0,0,1,2.043,1.765h0c0,5.295,4.96,9.586,11.086,9.586h13.8c5.535,0,10.06-3.811,10.205-8.595l.505-16.608a3.3,3.3,0,0,0-3.527-3.129l-74.074.057A2.659,2.659,0,0,0,853.314,254.569Z" transform="translate(-852.073 -250.824)" fill="#dbf4f5" opacity="0.53"/>
                    <path id="Trazado_56686" data-name="Trazado 56686" d="M857.09,280.4a.827.827,0,0,1-.7-1.273l17.11-26.886a.827.827,0,1,1,1.4.887l-17.11,26.889A.83.83,0,0,1,857.09,280.4Z" transform="translate(-845.713 -251.263)" fill="#fff" opacity="0.42"/>
                    <path id="Trazado_56687" data-name="Trazado 56687" d="M855.121,280.4a.81.81,0,0,1-.442-.13.826.826,0,0,1-.256-1.143l17.11-26.886a.827.827,0,1,1,1.4.887l-17.11,26.889A.83.83,0,0,1,855.121,280.4Z" transform="translate(-849.962 -251.263)" fill="#fff" opacity="0.42"/>
                    <path id="Trazado_56688" data-name="Trazado 56688" d="M874.633,276.96a.827.827,0,0,1-.7-1.273l13.9-21.846a.827.827,0,1,1,1.4.887l-13.9,21.85A.831.831,0,0,1,874.633,276.96Z" transform="translate(-807.865 -247.82)" fill="#fff" opacity="0.42"/>
                    <path id="Trazado_56689" data-name="Trazado 56689" d="M871.456,280.3a.815.815,0,0,1-.442-.13.828.828,0,0,1-.253-1.143l17.015-26.74a.827.827,0,1,1,1.4.887l-17.016,26.744A.831.831,0,0,1,871.456,280.3Z" transform="translate(-814.713 -251.164)" fill="#fff" opacity="0.42"/>
                    <path id="Trazado_56690" data-name="Trazado 56690" d="M923.882,282.486h-13.8c-6.8,0-12.327-4.856-12.327-10.827,0-.246-.344-.524-.8-.524h-2.955c-.458,0-.8.278-.8.524,0,5.857-5.421,10.622-12.087,10.622H861.882c-4.941,0-8.961-3.552-8.961-7.919V255.417a3.9,3.9,0,0,1,4.07-3.688l74.074-.057h0a5.015,5.015,0,0,1,3.593,1.465,4.054,4.054,0,0,1,1.171,2.943l-.505,16.608C935.16,278.182,930.133,282.486,923.882,282.486Zm-29.888-13.833h2.955a3.159,3.159,0,0,1,3.284,3.006c0,4.6,4.414,8.345,9.845,8.345h13.8c4.818,0,8.841-3.315,8.964-7.392L933.351,256a1.551,1.551,0,0,0-.474-1.137,2.508,2.508,0,0,0-1.809-.714h0l-74.074.054c-.859,0-1.588.556-1.588,1.209v18.945c0,3,2.908,5.437,6.479,5.437h19.226c5.295,0,9.6-3.653,9.6-8.14A3.155,3.155,0,0,1,893.993,268.653Z" transform="translate(-852.921 -251.672)" fill="#dbf4f5"/>
                  </g>
                </g>
                <g id="Grupo_27305" data-name="Grupo 27305" transform="translate(87.396 68.883)">
                  <path id="Trazado_56691" data-name="Trazado 56691" d="M877.333,254.36l-.031.055,0-.618Z" transform="translate(-877.303 -253.797)" fill="#984747"/>
                </g>
              </g>
              <g id="Grupo_27311" data-name="Grupo 27311" transform="translate(12.516 142.74)">
                <g id="Grupo_27310" data-name="Grupo 27310">
                  <g id="Grupo_27308" data-name="Grupo 27308">
                    <g id="Grupo_27307" data-name="Grupo 27307">
                      <path id="Trazado_56692" data-name="Trazado 56692" d="M892.171,372.091h3.5l23.375-56.682,15.2-38.206-19.083,0-21.394,23.157-22.744-23.165-17.441,0,15.208,38.22Z" transform="translate(-853.588 -277.189)" fill="#62cca2"/>
                      <path id="Trazado_56693" data-name="Trazado 56693" d="M919.046,305l-23.375,56.682h-3.5L868.8,305,857.729,277.19h-4.142l15.208,38.22,23.375,56.682h3.5l23.375-56.682,15.2-38.206h-4.141Z" transform="translate(-853.588 -277.189)" fill="#53a581" opacity="0.16"/>
                    </g>
                  </g>
                  <g id="Grupo_27309" data-name="Grupo 27309" transform="translate(9.89 3.07)">
                    <path id="Trazado_56694" data-name="Trazado 56694" d="M886.7,310.8a.617.617,0,0,1-.433-.18l-29.431-30a.416.416,0,0,1,.006-.584.411.411,0,0,1,.584.006l29.27,29.832,29.81-31.584a.412.412,0,1,1,.6.565l-29.97,31.755a.591.591,0,0,1-.433.189Z" transform="translate(-856.72 -278.161)" fill="#fff"/>
                  </g>
                </g>
              </g>
            </g>
          </g>
          <g id="Grupo_27316" data-name="Grupo 27316" transform="translate(0 142.741)">
            <path id="Trazado_56695" data-name="Trazado 56695" d="M854.639,303.925,842.849,317.7h9.428a21.692,21.692,0,0,1,.473-4.957Z" transform="translate(-798.092 -219.507)" fill="none"/>
            <g id="Grupo_27314" data-name="Grupo 27314">
              <path id="Trazado_56696" data-name="Trazado 56696" d="M853.451,277.189v0c.142,0,.281,0,.423,0Z" transform="translate(-775.219 -277.189)" fill="#62cca2"/>
              <path id="Trazado_56697" data-name="Trazado 56697" d="M1025.258,291.357c-11.717-13.347-19.491-13.905-37.252-14.168L988,277.2l-15.2,38.205L949.422,372.09h-3.5l-23.375-56.683-15.206-38.218h-.01c-.142,0-.281,0-.423,0-1.917.022-3.817.019-5.7.009a47.761,47.761,0,0,0-46.367,35.083L828.674,416.253l38.483.12v.057h6.362l21,.183-.095-.183H1020V375.386h15.045l31.944-18.9Z" transform="translate(-828.674 -277.189)" fill="#fff"/>
            </g>
            <path id="Trazado_56698" data-name="Trazado 56698" d="M887.441,304.342l-2.554,56.088,13.834.538-.294-58.071Z" transform="translate(-707.397 -221.727)" fill="#c4e0e0" opacity="0.2"/>
            <path id="Trazado_56699" data-name="Trazado 56699" d="M844.115,373.916l-.063-.006a.413.413,0,0,1-.347-.47l11.582-76.366a.418.418,0,0,1,.47-.347.413.413,0,0,1,.344.471l-11.578,76.366A.417.417,0,0,1,844.115,373.916Z" transform="translate(-796.257 -235.048)" fill="#53a581" opacity="0.16"/>
            <path id="Trazado_56700" data-name="Trazado 56700" d="M846.6,303.537" transform="translate(-790.004 -220.344)" fill="none" stroke="#53a581" stroke-linecap="round" stroke-miterlimit="10" stroke-width="1"/>
            <g id="Grupo_27315" data-name="Grupo 27315" transform="translate(59.444 8.188)">
              <path id="Trazado_56701" data-name="Trazado 56701" d="M891.116,356.069a.419.419,0,0,1-.316-.145l-35.9-41.836a1.336,1.336,0,0,1-.287-1.171,1.317,1.317,0,0,1,.773-.925l12.3-5.308a.493.493,0,0,0,.3-.379.5.5,0,0,0-.155-.461l-19.9-18.594a1.337,1.337,0,0,1,.388-2.207l12.282-5.226a.414.414,0,1,1,.325.761L848.639,285.8a.509.509,0,0,0-.3.382.5.5,0,0,0,.155.461l19.9,18.594a1.337,1.337,0,0,1-.382,2.2l-12.3,5.3a.492.492,0,0,0-.294.354.506.506,0,0,0,.108.445l35.9,41.839a.414.414,0,0,1-.313.682Z" transform="translate(-847.5 -279.782)" fill="#53a581" opacity="0.16"/>
              <path id="Trazado_56702" data-name="Trazado 56702" d="M870.9,356.069a.418.418,0,0,1-.269-.1.411.411,0,0,1-.044-.581l35.9-41.839a.507.507,0,0,0,.111-.445.5.5,0,0,0-.3-.354l-12.3-5.3a1.337,1.337,0,0,1-.382-2.2l19.9-18.594a.5.5,0,0,0,.155-.461.5.5,0,0,0-.3-.382l-12.286-5.226a.414.414,0,1,1,.325-.761l12.282,5.226a1.337,1.337,0,0,1,.388,2.207l-19.9,18.594a.509.509,0,0,0,.145.84l12.3,5.308a1.335,1.335,0,0,1,.486,2.1l-35.9,41.836A.419.419,0,0,1,870.9,356.069Z" transform="translate(-797.916 -279.782)" fill="#53a581" opacity="0.16"/>
            </g>
            <path id="Trazado_56703" data-name="Trazado 56703" d="M866.6,349.116a.413.413,0,0,1-.414-.414v-40.09a.412.412,0,1,1,.824,0V348.7A.412.412,0,0,1,866.6,349.116Z" transform="translate(-747.748 -210.288)" fill="#53a581" opacity="0.16"/>
          </g>
        </g>
        <path id="Trazado_56704" data-name="Trazado 56704" d="M898.47,283.907a3.088,3.088,0,1,1-3.088-3.088A3.087,3.087,0,0,1,898.47,283.907Z" transform="translate(-691.416 -98.616)" fill="#dbf4f5" opacity="0.53"/>
        <g id="Grupo_27333" data-name="Grupo 27333" transform="translate(163.395)">
          <g id="Grupo_27318" data-name="Grupo 27318" transform="translate(0 147.692)">
            <path id="Trazado_56705" data-name="Trazado 56705" d="M893.265,269.889q-3.287,21.668-6.567,43.333c-2.207,14.609-6.106,29.374-6.271,44.2-.082,7.6,1.13,15.348,4.638,22.09,5.128,9.851,14.739,16.741,25.016,20.953,7.723,3.167,16.207,5.027,24.445,3.688,12.551-2.037,20.669-11.642,23.69-23.6,4.02-15.882.61-32.7-2.087-48.486q-2.737-16.018-5.472-32.033l-.012-.076Z" transform="translate(-880.423 -269.889)" fill="#fff"/>
            <path id="Trazado_56706" data-name="Trazado 56706" d="M957.769,307.263c-3.025,11.951-11.139,21.556-23.69,23.6-8.238,1.336-16.722-.524-24.445-3.688-10.278-4.212-19.889-11.1-25.017-20.956a39.91,39.91,0,0,1-3.751-11.193c-.25,2.725-.407,5.453-.439,8.181-.082,7.6,1.13,15.348,4.638,22.09,5.128,9.851,14.742,16.741,25.016,20.953,7.723,3.167,16.207,5.027,24.445,3.688,12.551-2.037,20.669-11.642,23.69-23.6,2.327-9.195,2.157-18.7,1.086-28.136A59.318,59.318,0,0,1,957.769,307.263Z" transform="translate(-880.423 -215.668)" fill="#c4e0e0" opacity="0.2"/>
            <path id="Trazado_56707" data-name="Trazado 56707" d="M898.655,317.177a.393.393,0,0,1-.186-.044c-5.38-2.725-13.192-7.995-13.271-8.048a.414.414,0,0,1,.464-.685c.076.054,7.846,5.3,13.179,8a.412.412,0,0,1-.186.78Z" transform="translate(-870.515 -186.96)" fill="#53a581" opacity="0.16"/>
          </g>
          <g id="Grupo_27331" data-name="Grupo 27331" transform="translate(7.162)">
            <g id="Grupo_27321" data-name="Grupo 27321" transform="translate(0 64.512)">
              <g id="Grupo_27319" data-name="Grupo 27319" transform="translate(6.419)">
                <path id="Trazado_56708" data-name="Trazado 56708" d="M941.366,356.8l7.616-12.87c12.633-7.654,20.681-26.624,25.077-40.776h0l-9.965-3.053s-30.852-65.546-49.449-55.511c-8.434,4.553-30.962,63.405-29.882,83.237Z" transform="translate(-884.724 -243.545)" fill="#62cca2"/>
              </g>
              <path id="Trazado_56709" data-name="Trazado 56709" d="M913.63,251.783s-23.154,13.11-22.5,35.9,34.912,33.744,45.976,15.563S959.533,258.338,913.63,251.783Z" transform="translate(-864.521 -225.772)" fill="#53a581" opacity="0.61"/>
              <g id="Grupo_27320" data-name="Grupo 27320" transform="translate(0 82.4)">
                <path id="Trazado_56710" data-name="Trazado 56710" d="M884.784,273.621l-2.005,10.5a4.893,4.893,0,0,0,3.028,5.478l58.985,23.012a4.894,4.894,0,0,0,6.659-4.206l.54-7.43a4.9,4.9,0,0,0-2.857-4.812l-57.523-26.084A4.894,4.894,0,0,0,884.784,273.621Z" transform="translate(-882.691 -269.642)" fill="#dbf4f5"/>
                <path id="Trazado_56711" data-name="Trazado 56711" d="M946.927,296.164,889.4,270.08a4.889,4.889,0,0,0-5.69,1.228,4.885,4.885,0,0,0,3.1,4.4L945.8,298.718a4.841,4.841,0,0,0,3.6-.025A4.9,4.9,0,0,0,946.927,296.164Z" transform="translate(-880.484 -269.641)" fill="#57b28b" opacity="0.26"/>
                <path id="Trazado_56712" data-name="Trazado 56712" d="M886.185,281.316a.479.479,0,0,1-.095-.009.415.415,0,0,1-.31-.5l1.882-8.184a.413.413,0,1,1,.805.183L886.59,281A.415.415,0,0,1,886.185,281.316Z" transform="translate(-876.047 -263.899)" fill="#53a581" opacity="0.16"/>
                <path id="Trazado_56713" data-name="Trazado 56713" d="M889.409,282.5a.475.475,0,0,1-.092-.009.418.418,0,0,1-.31-.5l1.879-8.181a.413.413,0,1,1,.805.183l-1.879,8.184A.414.414,0,0,1,889.409,282.5Z" transform="translate(-869.085 -261.338)" fill="#53a581" opacity="0.16"/>
                <path id="Trazado_56714" data-name="Trazado 56714" d="M892.829,283.577a.482.482,0,0,1-.095-.009.414.414,0,0,1-.309-.5l1.879-8.184a.415.415,0,0,1,.808.186l-1.882,8.184A.405.405,0,0,1,892.829,283.577Z" transform="translate(-861.712 -259.015)" fill="#53a581" opacity="0.16"/>
                <path id="Trazado_56715" data-name="Trazado 56715" d="M896.048,284.887a.478.478,0,0,1-.095-.01.413.413,0,0,1-.309-.5l1.878-8.184a.415.415,0,0,1,.808.186l-1.882,8.184A.415.415,0,0,1,896.048,284.887Z" transform="translate(-854.768 -256.191)" fill="#53a581" opacity="0.16"/>
                <path id="Trazado_56716" data-name="Trazado 56716" d="M899.27,286.136a.451.451,0,0,1-.092-.009.415.415,0,0,1-.313-.5l1.882-8.184a.413.413,0,1,1,.805.183l-1.879,8.184A.414.414,0,0,1,899.27,286.136Z" transform="translate(-847.816 -253.5)" fill="#53a581" opacity="0.16"/>
              </g>
            </g>
            <g id="Grupo_27329" data-name="Grupo 27329" transform="translate(11.986)">
              <g id="Grupo_27323" data-name="Grupo 27323" transform="translate(0 11.756)">
                <g id="Grupo_27322" data-name="Grupo 27322">
                  <path id="Trazado_56717" data-name="Trazado 56717" d="M895.965,383.561h0c9.82,6.189,23.131,2.719,29.727-7.748l79.767-126.561-35.566-22.415L890.13,353.4C883.531,363.865,886.146,377.369,895.965,383.561Z" transform="translate(-886.487 -226.837)" fill="#f7ece4" opacity="0.76"/>
                  <path id="Trazado_56718" data-name="Trazado 56718" d="M895.965,383.561h0c9.82,6.189,23.131,2.719,29.727-7.748l79.767-126.561-35.566-22.415L890.13,353.4C883.531,363.865,886.146,377.369,895.965,383.561Z" transform="translate(-886.487 -226.837)" fill="#fff" opacity="0.43"/>
                  <path id="Trazado_56719" data-name="Trazado 56719" d="M896.712,373.351h0c8.588,5.412,20.561,1.85,26.743-7.954l74.718-118.553-31.1-19.6L892.352,345.792C886.173,355.6,888.124,367.939,896.712,373.351Z" transform="translate(-881.62 -225.97)" fill="#fff" opacity="0.43"/>
                  <rect id="Rectángulo_5300" data-name="Rectángulo 5300" width="42.043" height="7.038" transform="matrix(0.841, 0.54, -0.54, 0.841, 68.893, 22.759)" fill="#b8c9d9" opacity="0.54"/>
                  <path id="Trazado_56720" data-name="Trazado 56720" d="M896.655,350.651h0c7.84,4.941,18.01,2.9,22.708-4.553l56.819-90.152-28.4-17.9L890.962,328.2C886.264,335.656,888.812,345.706,896.655,350.651Z" transform="translate(-881.917 -202.654)" fill="#bf2e43"/>
                  <path id="Trazado_56721" data-name="Trazado 56721" d="M976.182,255.946,964,248.27,976,255.826l-56.557,89.738c-4.679,7.423-14.2,9.832-21.259,5.38h0c-7.063-4.452-9-14.076-4.319-21.5l56.557-89.738-2.637-1.661L890.962,328.2c-4.7,7.458-2.15,17.508,5.693,22.453h0c7.84,4.941,18.01,2.9,22.708-4.553Z" transform="translate(-881.917 -202.654)" fill="#e33e4e"/>
                  <path id="Trazado_56722" data-name="Trazado 56722" d="M899.476,330.268h0c6.384,4.026,14.667,2.365,18.493-3.707l46.266-73.414L941.11,238.572l-46.269,73.411C891.014,318.058,893.088,326.242,899.476,330.268Z" transform="translate(-872.607 -201.519)" fill="#e33e4e"/>
                </g>
                <path id="Trazado_56723" data-name="Trazado 56723" d="M907.106,246.038a2.043,2.043,0,1,0,2.816-.638A2.044,2.044,0,0,0,907.106,246.038Z" transform="translate(-842.682 -187.468)" fill="#fff" opacity="0.43"/>
                <path id="Trazado_56724" data-name="Trazado 56724" d="M905.534,254.9a2.043,2.043,0,1,0,2.82-.638A2.044,2.044,0,0,0,905.534,254.9Z" transform="translate(-846.07 -168.348)" fill="#fff" opacity="0.43"/>
                <path id="Trazado_56725" data-name="Trazado 56725" d="M899.1,255.236a2.042,2.042,0,1,0,2.816-.638A2.04,2.04,0,0,0,899.1,255.236Z" transform="translate(-859.951 -167.625)" fill="#fff" opacity="0.43"/>
                <path id="Trazado_56726" data-name="Trazado 56726" d="M901.73,277.871c-3.659,0-7.31-1.733-10.855-5.162a.827.827,0,0,1,1.149-1.19c3.382,3.268,6.789,4.853,10.177,4.686a11.682,11.682,0,0,0,7.594-3.669.828.828,0,0,1,1.26,1.073,13.2,13.2,0,0,1-8.753,4.247C902.112,277.865,901.92,277.871,901.73,277.871Z" transform="translate(-877.567 -130.936)" fill="#fff"/>
              </g>
              <rect id="Rectángulo_5301" data-name="Rectángulo 5301" width="49.451" height="40.006" rx="2.74" transform="translate(87.295 0) rotate(32.702)" fill="#e33e4e"/>
              <path id="Trazado_56727" data-name="Trazado 56727" d="M926.714,267.82a4.661,4.661,0,0,1-2.516-.739l-10.357-6.65a4.674,4.674,0,0,1-1.408-6.46l16.457-25.632a4.68,4.68,0,0,1,6.457-1.408l10.36,6.653a4.677,4.677,0,0,1,1.408,6.457l-16.457,25.632A4.68,4.68,0,0,1,926.714,267.82Zm6.113-39.974a3.017,3.017,0,0,0-2.545,1.386l-16.457,25.632a3.019,3.019,0,0,0,.909,4.174l10.356,6.65a3.019,3.019,0,0,0,4.174-.909l16.457-25.632a3.023,3.023,0,0,0-.909-4.171l-10.36-6.653A3.013,3.013,0,0,0,932.827,227.847Z" transform="translate(-832.114 -216.472)" fill="#bf2e43"/>
              <g id="Grupo_27328" data-name="Grupo 27328" transform="translate(18.186 61.115)">
                <rect id="Rectángulo_5302" data-name="Rectángulo 5302" width="26.3" height="80.752" transform="matrix(0.841, 0.54, -0.54, 0.841, 43.628, 0)" fill="#fff"/>
                <g id="Grupo_27327" data-name="Grupo 27327" transform="translate(27.155 11.802)">
                  <g id="Grupo_27325" data-name="Grupo 27325" transform="translate(12.234)">
                    <path id="Trazado_56728" data-name="Trazado 56728" d="M914.008,260.855a.769.769,0,0,1-.414-.12l-8.519-5.469a.774.774,0,0,1-.234-1.064l4.5-7.013a.772.772,0,0,1,1.064-.23l8.519,5.469a.777.777,0,0,1,.335.483.769.769,0,0,1-.1.581l-4.5,7.01a.778.778,0,0,1-.483.338A1.035,1.035,0,0,1,914.008,260.855Zm-4-13.17-4.471,6.962,8.5,5.39,4.424-6.994Z" transform="translate(-904.722 -244.847)" fill="#62cca2"/>
                    <g id="Grupo_27324" data-name="Grupo 27324" transform="translate(10.493)">
                      <path id="Trazado_56729" data-name="Trazado 56729" d="M908.638,249.083a.409.409,0,0,1-.221-.066.413.413,0,0,1-.126-.571l1.317-2.049a.413.413,0,1,1,.694.448l-1.313,2.049A.416.416,0,0,1,908.638,249.083Z" transform="translate(-907.656 -246.207)" fill="#62cca2"/>
                      <path id="Trazado_56730" data-name="Trazado 56730" d="M910.915,248.685a.388.388,0,0,1-.224-.066l-2.457-1.576a.413.413,0,0,1,.448-.695l2.453,1.576a.412.412,0,0,1-.221.761Z" transform="translate(-908.045 -246.045)" fill="#62cca2"/>
                    </g>
                  </g>
                  <g id="Grupo_27326" data-name="Grupo 27326" transform="translate(0 17.066)">
                    <path id="Trazado_56731" data-name="Trazado 56731" d="M910.132,267.918a.766.766,0,0,1-.414-.12l-8.516-5.469a.77.77,0,0,1-.234-1.064l5.469-8.519a.773.773,0,0,1,1.064-.231h0l8.519,5.469a.766.766,0,0,1,.23,1.061l-5.469,8.519A.763.763,0,0,1,910.132,267.918ZM907.1,253.242l-5.437,8.468,8.5,5.39,5.39-8.5Z" transform="translate(-900.847 -249.924)" fill="#62cca2"/>
                    <path id="Trazado_56732" data-name="Trazado 56732" d="M905.088,254.892a.409.409,0,0,1-.224-.063.414.414,0,0,1-.126-.571l1.576-2.457a.415.415,0,0,1,.7.448l-1.575,2.453A.411.411,0,0,1,905.088,254.892Z" transform="translate(-892.595 -251.612)" fill="#62cca2"/>
                  </g>
                </g>
              </g>
            </g>
            <path id="Trazado_56733" data-name="Trazado 56733" d="M893.811,253.045S918.657,232.569,937.4,243c0,0,8.352,6.059-.887,11.619s-26.479,12.624-29.794,19.021-2.109,2.226-2.109,2.226Z" transform="translate(-858.7 -186.601)" fill="#62cca2"/>
            <path id="Trazado_56734" data-name="Trazado 56734" d="M932.21,243.237c-.442,1.443-1.645,2.977-4.136,4.477-9.242,5.56-26.479,12.624-29.794,19.021-.2.388-.385.736-.556,1.048,4.411-6.015,21.035-12.03,30.179-16.984C932.541,248.286,932.974,245.463,932.21,243.237Z" transform="translate(-850.258 -179.698)" fill="#53a581" opacity="0.41"/>
            <g id="Grupo_27330" data-name="Grupo 27330" transform="translate(54.479 81.916)">
              <path id="Trazado_56735" data-name="Trazado 56735" d="M911.03,273.86h0a8.558,8.558,0,0,1,2.16-11.651l-1.721,1.14a8.562,8.562,0,0,0-2.406,11.831h0a8.561,8.561,0,0,0,11.831,2.406l7.714-5.106c.085-.057.161-.12.246-.18l-5.993,3.966A8.562,8.562,0,0,1,911.03,273.86Z" transform="translate(-883.318 -220.683)" fill="#53a581" opacity="0.63"/>
              <path id="Trazado_56736" data-name="Trazado 56736" d="M940.312,252.874h0a8.562,8.562,0,0,1-2.406,11.831L913.77,280.682a8.562,8.562,0,0,1-11.831-2.406h0a8.566,8.566,0,0,1,2.406-11.834l24.136-15.974A8.562,8.562,0,0,1,940.312,252.874Z" transform="translate(-898.687 -249.057)" fill="#62cca2"/>
              <path id="Trazado_56737" data-name="Trazado 56737" d="M934.6,258.7h0a8.561,8.561,0,0,1-2.406,11.831l-14.521,9.611a8.562,8.562,0,0,1-11.831-2.406h0a8.562,8.562,0,0,1,2.406-11.831l14.521-9.611A8.562,8.562,0,0,1,934.6,258.7Z" transform="translate(-890.273 -236.477)" fill="#62cca2"/>
              <path id="Trazado_56738" data-name="Trazado 56738" d="M916.076,267.161l.082-.057c.088-.1.18-.2.271-.3l-1.4.928a8.532,8.532,0,0,1-11.184-12.674l-.082.054a8.538,8.538,0,0,0,9.425,14.24l1.4-.928A8.34,8.34,0,0,1,916.076,267.161Z" transform="translate(-899.945 -236.109)" fill="#53a581" opacity="0.41"/>
              <path id="Trazado_56739" data-name="Trazado 56739" d="M907.1,269.142h0a8.571,8.571,0,0,1,.647-10.268l-.082.057a8.34,8.34,0,0,0-1.487,1.263,8.532,8.532,0,0,0,10.912,12.974l14.518-9.611a8.448,8.448,0,0,0,1.759-1.563l-14.436,9.555A8.562,8.562,0,0,1,907.1,269.142Z" transform="translate(-891.53 -227.878)" fill="#53a581" opacity="0.41"/>
              <path id="Trazado_56740" data-name="Trazado 56740" d="M931.64,263.9h0a8.569,8.569,0,0,1-2.409,11.834l-7.714,5.106a8.562,8.562,0,0,1-11.831-2.406h0a8.561,8.561,0,0,1,2.406-11.831l7.714-5.109A8.566,8.566,0,0,1,931.64,263.9Z" transform="translate(-881.974 -225.26)" fill="#62cca2"/>
              <path id="Trazado_56741" data-name="Trazado 56741" d="M936.249,255.438h0a8.557,8.557,0,0,1-.265,9.779l.777-.511a8.537,8.537,0,1,0-9.425-14.237L903.2,266.442a8.505,8.505,0,0,0-2.141,2.052l23.359-15.462A8.562,8.562,0,0,1,936.249,255.438Z" transform="translate(-897.542 -249.057)" fill="#57b28b" opacity="0.09"/>
              <path id="Trazado_56742" data-name="Trazado 56742" d="M919.952,261.264h0a8.563,8.563,0,0,1-.265,9.782l.777-.515A8.53,8.53,0,0,0,914.37,255l-4.506,2.984A8.561,8.561,0,0,1,919.952,261.264Z" transform="translate(-878.546 -236.472)" fill="#57b28b" opacity="0.09"/>
              <path id="Trazado_56743" data-name="Trazado 56743" d="M924.065,263.9h0a8.574,8.574,0,0,0-8.863-3.634,8.5,8.5,0,0,1-1.8,1.614l-1.614,1.067a8.567,8.567,0,0,1,9.359,3.517h0a8.562,8.562,0,0,1-.262,9.782l.773-.511A8.569,8.569,0,0,0,924.065,263.9Z" transform="translate(-874.399 -225.255)" fill="#57b28b" opacity="0.09"/>
              <path id="Trazado_56744" data-name="Trazado 56744" d="M905.256,268.029a.412.412,0,0,1-.227-.758l19.052-12.39a.414.414,0,0,1,.452.695l-19.052,12.387A.394.394,0,0,1,905.256,268.029Z" transform="translate(-889.378 -236.635)" fill="#53a581" opacity="0.49"/>
              <path id="Trazado_56745" data-name="Trazado 56745" d="M908.514,270.373a.415.415,0,0,1-.221-.764l15.105-9.6a.414.414,0,1,1,.445.7l-15.105,9.6A.42.42,0,0,1,908.514,270.373Z" transform="translate(-882.349 -225.566)" fill="#53a581" opacity="0.49"/>
            </g>
          </g>
          <g id="Grupo_27332" data-name="Grupo 27332" transform="translate(3.288 172.714)">
            <line id="Línea_331" data-name="Línea 331" x1="4.958" y2="35.109" transform="translate(0.423 0.057)" fill="#dbf4f5"/>
            <rect id="Rectángulo_5303" data-name="Rectángulo 5303" width="35.457" height="0.827" transform="translate(0 35.105) rotate(-81.919)" fill="#c4e0e0"/>
          </g>
        </g>
      </g>
    </g>
  </g>
</svg>
