<svg xmlns="http://www.w3.org/2000/svg" width="32" height="47.352" viewBox="0 0 32 47.352">
  <g id="Grupo_29032" data-name="Grupo 29032" transform="translate(-572.5 -812.064)">
    <path id="Trazado_55260" data-name="Trazado 55260" d="M214.225,452.942H197.744a1.334,1.334,0,1,1,0-2.668h16.481a1.334,1.334,0,0,1,0,2.668Z" transform="translate(382.247 397.054)" fill="#fff"/>
    <rect id="Line" width="16.157" height="1.838" transform="translate(572.5 812.064)" fill="#fff"/>
    <path id="Trazado_55257" data-name="Trazado 55257" d="M200.448,416.552a16,16,0,1,0,16,16,16.019,16.019,0,0,0-16-16Zm0,29.657a13.657,13.657,0,1,1,13.657-13.657A13.672,13.672,0,0,1,200.448,446.209Z" transform="translate(388.052 410.864)" fill="#fff"/>
    <path id="Trazado_55258" data-name="Trazado 55258" d="M199.722,437.956a1.311,1.311,0,0,0,1.311-1.311.762.762,0,1,1,1.525,0,1.311,1.311,0,0,0,2.621,0,3.384,3.384,0,1,0-6.768,0A1.311,1.311,0,0,0,199.722,437.956Z" transform="translate(382.183 403.938)" fill="#fff"/>
    <path id="Trazado_55259" data-name="Trazado 55259" d="M217.4,433.261a3.388,3.388,0,0,0-3.385,3.384,1.311,1.311,0,0,0,2.622,0,.762.762,0,1,1,1.524,0,1.311,1.311,0,0,0,2.622,0,3.388,3.388,0,0,0-3.384-3.384Z" transform="translate(375.624 403.938)" fill="#fff"/>
  </g>
</svg>
