<svg xmlns="http://www.w3.org/2000/svg" width="95.181" height="98.593" viewBox="0 0 95.181 98.593">
  <g id="Grupo_25839" data-name="Grupo 25839" transform="translate(-767.309 -6862.168)">
    <circle id="Elipse_1362" data-name="Elipse 1362" cx="47.59" cy="47.59" r="47.59" transform="translate(767.309 6865.58)" fill="#aacce9"/>
    <g id="Grupo_25833" data-name="Grupo 25833" transform="translate(780.804 6862.168)">
      <path id="Trazado_54030" data-name="Trazado 54030" d="M391.856,359.223a34.134,34.134,0,0,0,34.1,34.1l1.721-43.778-1.721-43.778C414.905,317.127,391.856,343.3,391.856,359.223Z" transform="translate(-391.856 -305.764)" fill="#e33e4e"/>
      <path id="Trazado_54031" data-name="Trazado 54031" d="M449.087,359.223c0-15.9-22.98-42.025-34.094-53.459v87.555a34.134,34.134,0,0,0,34.094-34.1Z" transform="translate(-380.897 -305.764)" fill="#bf2e43"/>
      <path id="Trazado_54032" data-name="Trazado 54032" d="M410.011,331.878a9.049,9.049,0,0,0-9.039,9.039v16.788h5.165v-7.748h7.748v7.748h5.165V340.917a9.05,9.05,0,0,0-9.039-9.039Zm-3.874,12.914v-3.874a3.874,3.874,0,0,1,7.748,0v3.874Z" transform="translate(-387.538 -293.395)" fill="#fff5f5"/>
      <path id="Trazado_54033" data-name="Trazado 54033" d="M427.077,331.878H416.745v25.827h10.332a7.758,7.758,0,0,0,5.769-12.914,7.748,7.748,0,0,0-5.769-12.914Zm-2.583,20.662H421.91v-5.165h5.167a2.584,2.584,0,0,1,1.824,4.408C427.74,352.945,426.417,352.4,424.493,352.54Zm-2.583-10.332v-5.165h5.167a2.585,2.585,0,0,1,1.824,4.409C427.65,342.7,426.194,342.018,421.91,342.208Z" transform="translate(-380.067 -293.395)" fill="#ece6f2"/>
    </g>
  </g>
</svg>
