<svg xmlns="http://www.w3.org/2000/svg" width="24.807" height="32.266" viewBox="0 0 24.807 32.266">
  <g id="Grupo_29019" data-name="Grupo 29019" transform="translate(-805 -504.107)">
    <path id="Trazado_55270" data-name="Trazado 55270" d="M310.755,541.544l-1.011-.82-.47,1.214c-.009.024-.912,2.308-2.3,1.892a.984.984,0,0,1-.649-.56,4.68,4.68,0,0,1,.374-3.4,5.247,5.247,0,0,0-1-5.571,10.174,10.174,0,0,0-2.289-2.072l-1.48-.923.033,1.744c0,.031.032,3.128-2.261,4.264a5.37,5.37,0,0,0-2.833,3.241,4.973,4.973,0,0,0,.454,3.913,1.507,1.507,0,0,1,.252,1.22,1.471,1.471,0,0,1-.834.767c-1.64.658-2.713-1.54-2.756-1.631l-.748-1.6-.917,1.506a12.4,12.4,0,0,0,10.455,18.836l.149,0h0a12.4,12.4,0,0,0,7.832-22.021Zm-11.71,16.25v-.011a7.137,7.137,0,0,1,.427-2.409l2.331.682.024-1.238a4.6,4.6,0,0,1,1.958-3.687,8.536,8.536,0,0,0,1.033,2.573c.537.878,1.047,1.621,1.516,2.293a3.192,3.192,0,0,1,.469,1.793v.005a3.877,3.877,0,0,1-3.88,3.877h0a3.884,3.884,0,0,1-3.879-3.879Zm9.085,2.5a5.752,5.752,0,0,0,.566-2.493,5.034,5.034,0,0,0-.811-2.882c-.524-.75-.972-1.411-1.454-2.2a7.383,7.383,0,0,1-.989-3.17l-.125-1.224-1.151.435a7.15,7.15,0,0,0-2.083,1.333,6.371,6.371,0,0,0-2.016,3.487l-1.691-.495-.334.762a9.623,9.623,0,0,0-.889,3.956,5.739,5.739,0,0,0,.569,2.494,10.513,10.513,0,0,1-4.476-13.24c.084.093.173.186.268.277a3.537,3.537,0,0,0,3.931.873,3.068,3.068,0,0,0,1.516-4.688,3.038,3.038,0,0,1-.282-2.419A3.5,3.5,0,0,1,300.541,539a6.019,6.019,0,0,0,3.089-4.177,7.264,7.264,0,0,1,.618.685,3.41,3.41,0,0,1,.712,3.609,6.352,6.352,0,0,0-.35,4.951,2.867,2.867,0,0,0,1.82,1.571,3.286,3.286,0,0,0,3.575-1.277,6.208,6.208,0,0,0,.418-.569,10.509,10.509,0,0,1-2.294,16.494Z" transform="translate(514.48 -27.192)" fill="#111e61"/>
  </g>
</svg>
