<svg xmlns="http://www.w3.org/2000/svg" xmlns:xlink="http://www.w3.org/1999/xlink" width="107" height="107" viewBox="0 0 107 107">
  <defs>
    <clipPath id="clip-path">
      <ellipse id="Elipse_1362" data-name="Elipse 1362" cx="41.284" cy="41.284" rx="41.284" ry="41.284" fill="none"/>
    </clipPath>
  </defs>
  <g id="Grupo_27442" data-name="Grupo 27442" transform="translate(-660 -6731)">
    <rect id="Rect치ngulo_5320" data-name="Rect치ngulo 5320" width="107" height="107" transform="translate(660 6731)" fill="none"/>
    <g id="Grupo_27431" data-name="Grupo 27431" transform="translate(671 6743)">
      <g id="Grupo_27429" data-name="Grupo 27429">
        <g id="Grupo_27428" data-name="Grupo 27428" clip-path="url(#clip-path)">
          <rect id="Rect치ngulo_5317" data-name="Rect치ngulo 5317" width="83.262" height="83.262" fill="#aacce9"/>
        </g>
      </g>
      <g id="Grupo_27430" data-name="Grupo 27430" transform="translate(13.849 0.296)">
        <path id="Trazado_56915" data-name="Trazado 56915" d="M529.849,177.254l-13.612,13.612a10.707,10.707,0,0,0,15.125,0l6.049-6.051Z" transform="translate(-513.11 -123.565)" fill="#ffbe8f"/>
        <path id="Trazado_56916" data-name="Trazado 56916" d="M523.025,171.478l-6.049,6.051a10.707,10.707,0,0,0,0,15.125c2.5,2.5,7.93,1.144,12.1-3.025Z" transform="translate(-513.849 -125.352)" fill="#ffe4ad"/>
        <path id="Trazado_56917" data-name="Trazado 56917" d="M534.551,192.6a10.684,10.684,0,0,1-9.069,3.021l25.389-43.54,12.1,12.1Z" transform="translate(-510.249 -131.352)" fill="#adf2f5"/>
        <path id="Trazado_56918" data-name="Trazado 56918" d="M562.116,161.873l-6.049,6.051-26.908,17.831,4.538,4.538-6.045,6.045a10.689,10.689,0,0,1-6.056-18.145l28.42-28.42Z" transform="translate(-512.419 -132.067)" fill="#e0feff"/>
        <path id="Trazado_56919" data-name="Trazado 56919" d="M548.562,163.635,523.168,186a6.417,6.417,0,0,0,9.075,0l22.369-22.369Z" transform="translate(-510.965 -127.779)" fill="#bf2e43"/>
        <path id="Trazado_56920" data-name="Trazado 56920" d="M529.661,182.98l19.345-19.345h-12.1l-13.294,13.294a6.417,6.417,0,0,0,0,9.075c.835.835,3.543-.52,6.049-3.025Z" transform="translate(-511.41 -127.779)" fill="#e33e4e"/>
        <path id="Trazado_56921" data-name="Trazado 56921" d="M551.005,153.239l-1.512,10.588h6.049Z" transform="translate(-502.821 -130.995)" fill="#93aec1"/>
        <path id="Trazado_56922" data-name="Trazado 56922" d="M553.15,154.311l-10.588-4.538v6.051l9.075,9.075,3.025-3.026Z" transform="translate(-504.965 -132.067)" fill="#aacce9"/>
        <path id="Trazado_56923" data-name="Trazado 56923" d="M562.748,158.408l-12.1-12.1,1.512,16.637,3.025,3.026Z" transform="translate(-502.464 -133.139)" fill="#728ea0"/>
        <path id="Trazado_56924" data-name="Trazado 56924" d="M550.123,143.993l12.1,12.1-7.56,7.562-12.1-12.1Z" transform="translate(-504.966 -133.855)" fill="#93aec1"/>
        <path id="Trazado_56925" data-name="Trazado 56925" d="M568.523,147.463h-12.1v12.1l2.268,2.269a1.069,1.069,0,0,0,1.512,0l10.588-10.588a1.069,1.069,0,0,0,0-1.512Z" transform="translate(-500.677 -132.782)" fill="#56af89"/>
        <path id="Trazado_56926" data-name="Trazado 56926" d="M556.112,136.564,545.524,147.15a1.069,1.069,0,0,0,0,1.512l14.369,14.369,12.1-12.1-14.369-14.368A1.069,1.069,0,0,0,556.112,136.564Z" transform="translate(-504.146 -136.251)" fill="#62cca2"/>
      </g>
    </g>
  </g>
</svg>
