<svg xmlns="http://www.w3.org/2000/svg" width="256" height="256.426" viewBox="0 0 256 256.426">
  <g id="Grupo_29083" data-name="Grupo 29083" transform="translate(1458 5017)">
    <rect id="Rect치ngulo_5354" data-name="Rect치ngulo 5354" width="256" height="256" transform="translate(-1458 -5017)" fill="none"/>
    <g id="Grupo_29081" data-name="Grupo 29081" transform="translate(-32.019 814.594)">
      <g id="Image_Place_Holder" data-name="Image Place Holder" transform="translate(-1408.981 -5725.433)" opacity="0.3">
        <rect id="Image_Place_Holder-2" data-name="Image Place Holder" width="221.981" height="150.264" rx="10" fill="#d1eaff"/>
      </g>
      <g id="Grupo_29077" data-name="Grupo 29077" transform="translate(-1862.967 -6236.806)">
        <g id="Grupo_26784" data-name="Grupo 26784" transform="translate(554.18 473.212)">
          <path id="Trazado_54312" data-name="Trazado 54312" d="M570.222,495.119a2.818,2.818,0,0,1,.432,3.149,3.281,3.281,0,0,1-3.707,1.429,3.547,3.547,0,0,1-2.727,3,7.291,7.291,0,0,1-5.366-.479c-2,2.656-7.117,2.29-7.848-1.112a2.584,2.584,0,0,1-3.432-.537,2.749,2.749,0,0,1-.08-3.5,2.5,2.5,0,0,1-2.483-1.753c-.6-1.833.556-3.465,1.91-4.575a12.35,12.35,0,0,1-.908-7.924,13.161,13.161,0,0,1,2.951-6.635,10.046,10.046,0,0,1,12.384-1.459c4.191,2.869,6.692,14.143,6.612,14.08s3.008-.326,3.878,2.22C572.641,493.371,570.222,495.119,570.222,495.119Z" transform="translate(-544.455 -473.212)" fill="#12214a"/>
          <path id="Trazado_54313" data-name="Trazado 54313" d="M562.549,484.668c-.382-2.407-2.456-3.027-4.627-2.5a.055.055,0,0,0,.016.108c1.975-.066,3.927.017,4.329,2.417a3.143,3.143,0,0,1-2.891,3.831.057.057,0,0,0,0,.113C561.564,488.8,562.867,486.67,562.549,484.668Z" transform="translate(-534.773 -466.69)" fill="#12214a"/>
          <path id="Trazado_54314" data-name="Trazado 54314" d="M548.3,488.947c-1.117.41-2.436.608-3.146-.627a3.25,3.25,0,0,1-.115-2.47,4.471,4.471,0,0,1,2.618-2.68c.049-.021.012-.094-.035-.082a4.08,4.08,0,0,0-2.994,4.153c.136,2.166,2,2.675,3.754,1.9C548.494,489.093,548.416,488.9,548.3,488.947Z" transform="translate(-544.623 -465.877)" fill="#12214a"/>
          <path id="Trazado_54315" data-name="Trazado 54315" d="M556.664,488.814a5.555,5.555,0,0,1-3.641,3.553c-2.18.523-4.929-1.051-4.469-3.564a.033.033,0,0,0-.064-.018c-.776,2.086,1.3,3.768,3.221,3.944a5.023,5.023,0,0,0,5.082-3.862C556.814,488.793,556.7,488.738,556.664,488.814Z" transform="translate(-541.874 -461.661)" fill="#12214a"/>
        </g>
        <g id="Grupo_26785" data-name="Grupo 26785" transform="translate(531.756 499.887)">
          <path id="Trazado_54316" data-name="Trazado 54316" d="M557.441,493.978c-1.8,5.059-2.438,13.209-3.583,14.765-1.182,1.607-10.985,6.727-14.272,8.036-4,1.591-6.969,4.526-7.694,6.166-.7,1.586,1.445,1.347,3.5.73,1.792-.54,3.747-.763,4.82-1.879,0,0,17.489-2.114,21.778-7.647,1.854-2.395,3.69-14.5,2.443-21.567-.368-2.083-1.058-3.494-2.292-3.649S558.874,489.942,557.441,493.978Z" transform="translate(-531.756 -488.22)" fill="#ca906a"/>
          <path id="Trazado_54317" data-name="Trazado 54317" d="M549.349,503.038a.7.7,0,0,0-.9-.437.534.534,0,0,0-.157.88.332.332,0,0,0,.561-.308c-.016-.054-.1-.023-.094.037.01.209-.263.2-.34.061a.3.3,0,0,1,.04-.345.354.354,0,0,1,.472-.024.52.52,0,0,1,.221.464.706.706,0,0,1-.315.465c-.033.028-.005.094.033.084A.707.707,0,0,0,549.349,503.038Z" transform="translate(-519.602 -478.095)" fill="#8c635a"/>
          <path id="Trazado_54318" data-name="Trazado 54318" d="M553.873,491.481c-2.154,4.012-3.778,15.769-4.338,16.952s-11.577,6.689-11.928,7.233.436,6.1,3.254,6.293c.751.051,14.347-2.7,17.349-7.206s2.9-16.515,2.339-21.074S556.876,485.893,553.873,491.481Z" transform="translate(-527.467 -488.518)" fill="#59b58d"/>
        </g>
        <path id="Trazado_54319" data-name="Trazado 54319" d="M553.76,488.942c-1.964,1.091-5.124,6.856-6.518,25.136s-4.9,50.311-4.4,50.867a40.527,40.527,0,0,0,12.846,6.785c6.338,1.835,17.85,1.335,19.517,0S564.14,489.874,562.96,489.1,557.195,487.035,553.76,488.942Z" transform="translate(8.201 10.945)" fill="#59b58d"/>
        <g id="Grupo_26799" data-name="Grupo 26799" transform="translate(534.841 531.228)">
          <g id="Grupo_26792" data-name="Grupo 26792" transform="translate(19.586 0.023)">
            <path id="Trazado_54320" data-name="Trazado 54320" d="M576.782,585.412l-.011.005-8.482,5.857s-.943-.87-2.452-2.489a.63.63,0,0,0-.058-.061c-4.7-5.068-14.788-17.315-19.336-33.423-6.032-21.387,6.159-48.643,6.159-48.643l15.049-.145s-2.184,36.121-1.563,42.4c.776,7.876,7.553,27.611,9.9,34.263C576.484,584.588,576.782,585.412,576.782,585.412Z" transform="translate(-544.762 -506.514)" fill="#ca906a"/>
            <g id="Grupo_26789" data-name="Grupo 26789" transform="translate(16.003 67.821)">
              <g id="Grupo_26786" data-name="Grupo 26786">
                <path id="Trazado_54321" data-name="Trazado 54321" d="M573.125,566.24c-.962.624-16.781,10.99-17.254,10.1-.268-.5,2.3-3.132,4.564-5.4a.077.077,0,0,0,.021-.028,26.855,26.855,0,0,0,3.212-3.426,41.943,41.943,0,0,0-2.177-3.611c-.756-1.19-1.621-2.581-2.49-3.987a.411.411,0,0,1-.04-.061c-2.494-4.043-5.014-8.2-5.014-8.2l11.847-6.185,3.331,8.887.828,2.2L571,559.305l1.19,3.44S574.092,565.614,573.125,566.24Z" transform="translate(-553.947 -545.429)" fill="#ca906a"/>
              </g>
              <g id="Grupo_26788" data-name="Grupo 26788" transform="translate(1.586 17.121)">
                <path id="Trazado_54322" data-name="Trazado 54322" d="M562.624,560.047c-.6.089-8.087,7.78-7.539,8.852s17.344-9.631,17.71-10.342-1.265-3.212-1.349-3.3S569.319,559.05,562.624,560.047Z" transform="translate(-554.709 -555.253)" fill="#7656fa"/>
                <path id="Trazado_54323" data-name="Trazado 54323" d="M573.031,557.043c-2.951,2-5.877,4.05-8.864,6a34.21,34.21,0,0,1-9.008,4.57c-.336.092-.446.657-.038.746a5.453,5.453,0,0,0,3.254-.732,39.088,39.088,0,0,0,5.181-2.717c3.43-2.114,6.724-4.469,10.063-6.724C574.292,557.724,573.71,556.582,573.031,557.043Z" transform="translate(-554.857 -554.003)" fill="#fff"/>
                <g id="Grupo_26787" data-name="Grupo 26787" transform="translate(4.47 5.65)">
                  <path id="Trazado_54324" data-name="Trazado 54324" d="M560.153,559.95a2.516,2.516,0,0,0-2.585-.387.247.247,0,0,0,.054.469c.38.068.769.122,1.143.214s.735.249,1.114.34C560.236,560.672,560.425,560.156,560.153,559.95Z" transform="translate(-557.422 -557.86)" fill="#fff"/>
                  <path id="Trazado_54325" data-name="Trazado 54325" d="M560.5,559.523a2.516,2.516,0,0,0-2.585-.387.247.247,0,0,0,.054.469c.38.066.768.122,1.141.214s.737.247,1.115.34C560.578,560.245,560.768,559.729,560.5,559.523Z" transform="translate(-557.167 -558.178)" fill="#fff"/>
                  <path id="Trazado_54326" data-name="Trazado 54326" d="M560.839,559.1a2.517,2.517,0,0,0-2.584-.387.246.246,0,0,0,.054.467c.38.068.767.122,1.141.216s.735.247,1.114.338C560.921,559.818,561.111,559.3,560.839,559.1Z" transform="translate(-556.913 -558.495)" fill="#fff"/>
                </g>
              </g>
            </g>
            <g id="Grupo_26791" data-name="Grupo 26791" transform="translate(0 0.003)">
              <g id="Grupo_26790" data-name="Grupo 26790">
                <path id="Trazado_54327" data-name="Trazado 54327" d="M584.14,583.875c-1.675,5.7-11.617,11.21-16.863,12.5,0,0-16.288-24.964-20.839-41.078-6.026-21.388,6.159-48.632,6.159-48.632l15.054-.146s-.915,16.281-1.349,28.766c-.227,6.546-.328,12.051-.1,13.627a13.633,13.633,0,0,0,.861,2.027C570.641,558.491,584.14,583.875,584.14,583.875Z" transform="translate(-544.765 -506.516)" fill="#6543f7"/>
              </g>
            </g>
            <path id="Trazado_54328" data-name="Trazado 54328" d="M564.192,546.465a28.2,28.2,0,0,1-3.5-1.814c-.146-.087-.286-.174-.427-.267-6.786-4.324-14.26-13.379-10.73-31.85,0,0,1.7,7.053,10.431,9.4.127.04.26.073.394.106l3.069,8.775c-.227,6.546-.328,12.051-.1,13.627A13.629,13.629,0,0,0,564.192,546.465Z" transform="translate(-541.892 -502.042)" fill="#a1acbe" opacity="0.2" style="mix-blend-mode: multiply;isolation: isolate"/>
          </g>
          <g id="Grupo_26798" data-name="Grupo 26798">
            <g id="Grupo_26796" data-name="Grupo 26796" transform="translate(0 78.324)">
              <g id="Grupo_26793" data-name="Grupo 26793" transform="translate(0.494)">
                <path id="Trazado_54329" data-name="Trazado 54329" d="M561.611,551.443l-7.491,17.5s.535,2.79-.225,3.449a.65.65,0,0,1-.166.1l-.1.024c-.136.023-.537.1-1.126.207-.455.08-1.03.185-1.7.3H550.8c-.568.1-1.2.208-1.875.328q-.682.11-1.408.242c-.614.1-1.241.209-1.877.314-.256.047-.514.087-.77.127-.387.058-.781.122-1.166.186-.136.024-.265.04-.4.065l-.772.12c-.129.017-.258.042-.394.058l-1.135.171c-1.385.2-2.694.382-3.8.505-.2.017-.394.042-.584.059-1.68.167-2.787.18-2.811-.063-.051-.568,3.337-2,6.3-3.214.007-.009.023-.009.03-.016A27.66,27.66,0,0,0,544.438,570c.023-.068,3.437-18.463,3.437-18.463h.009Z" transform="translate(-533.81 -551.443)" fill="#ca906a"/>
              </g>
              <g id="Grupo_26795" data-name="Grupo 26795" transform="translate(0 17.433)">
                <path id="Trazado_54330" data-name="Trazado 54330" d="M544.316,562.243c-.582-.162-10.551,3.824-10.486,5.024s19.761-1.75,20.385-2.252.148-3.449.11-3.566S550.838,564.053,544.316,562.243Z" transform="translate(-533.301 -561.446)" fill="#7656fa"/>
                <path id="Trazado_54331" data-name="Trazado 54331" d="M554.627,563.381c-3.51.629-7.015,1.312-10.535,1.875a34.238,34.238,0,0,1-10.087.514c-.345-.052-.674.42-.338.666a5.443,5.443,0,0,0,3.269.654,39.208,39.208,0,0,0,5.838-.376c3.993-.539,7.959-1.352,11.926-2.055C555.5,564.515,555.436,563.236,554.627,563.381Z" transform="translate(-533.526 -560.017)" fill="#fff"/>
                <g id="Grupo_26794" data-name="Grupo 26794" transform="translate(6.709 0.914)">
                  <path id="Trazado_54332" data-name="Trazado 54332" d="M539.833,563.882a2.517,2.517,0,0,0-2.2-1.4.246.246,0,0,0-.141.45c.319.216.652.423.957.66s.572.526.88.763C539.616,564.576,540,564.182,539.833,563.882Z" transform="translate(-537.376 -561.597)" fill="#fff"/>
                  <path id="Trazado_54333" data-name="Trazado 54333" d="M540.319,563.631a2.512,2.512,0,0,0-2.2-1.4.246.246,0,0,0-.141.45c.319.216.652.424.955.661s.573.526.88.763C540.1,564.324,540.484,563.931,540.319,563.631Z" transform="translate(-537.014 -561.784)" fill="#fff"/>
                  <path id="Trazado_54334" data-name="Trazado 54334" d="M540.806,563.38a2.512,2.512,0,0,0-2.2-1.4.246.246,0,0,0-.141.45c.319.216.652.423.955.661s.572.526.88.763C540.588,564.073,540.972,563.68,540.806,563.38Z" transform="translate(-536.653 -561.97)" fill="#fff"/>
                </g>
              </g>
            </g>
            <path id="Trazado_54335" data-name="Trazado 54335" d="M569.993,549.985c-1.494,3.745-7.478,13.967-8.069,15.973-1.006,3.421-4.721,15.178-6.311,18.967,0,0-13.728.021-13.728,0,.3-1.494,1.971-10.406,4.212-21.884,2.409-12.332,8.778-28.17,12.675-39.856a18.1,18.1,0,0,1-4.787-16.513l17-.169s7.067,4.207,10.37,15.777C585.075,535.276,570.542,548.608,569.993,549.985Z" transform="translate(-527.318 -506.501)" fill="#ca906a"/>
            <g id="Grupo_26797" data-name="Grupo 26797" transform="translate(10.709)">
              <path id="Trazado_54336" data-name="Trazado 54336" d="M574.131,548.5c-1.718,2.2-9.563,17.458-10.675,22.165-1.657,7.006-4.061,30.483-4.061,30.483-4.686.326-16.555-.471-19.725-5.021.782-3.576,3.137-21.943,5.335-30.706,3.226-12.862,8.58-27.513,14.995-42.233a18.217,18.217,0,0,1-4.655-16.513l17.36-.169s7.067,4.207,10.37,15.777C586.792,535.276,575.954,546.163,574.131,548.5Z" transform="translate(-539.671 -506.501)" fill="#6b6bd6"/>
            </g>
          </g>
        </g>
        <g id="Grupo_26802" data-name="Grupo 26802" transform="translate(553.651 499.28)">
          <path id="Trazado_54337" data-name="Trazado 54337" d="M544.324,507.264a.688.688,0,0,0,.009.12,6.008,6.008,0,0,0,1.413,3.1,11.883,11.883,0,0,0,.854.972,17.557,17.557,0,0,0,2.571,2.172s.139.612.383,1.534c.045.178.1.368.145.565.228.821.521,1.8.856,2.78.065.19.129.385.2.575a17.741,17.741,0,0,0,1.314,2.954,6.124,6.124,0,0,0,.422.624,3.08,3.08,0,0,0,.455.486c2.013,1.692,11.595,2.883,16.311-3.038a2.238,2.238,0,0,0,.2-.783c.026-.162.051-.354.077-.565.1-.929.19-2.283.235-3.893,0-.162.005-.322.012-.49.026-1.185.038-2.491.017-3.859l-.012-.455c-.017-1.244-.059-2.529-.131-3.813,0-.138-.014-.275-.023-.406-.071-1.262-.173-2.52-.3-3.726-.014-.12-.03-.239-.044-.352-.136-1.216-.3-2.379-.507-3.451l-.061-.322a19.527,19.527,0,0,0-.805-2.959l-.1-.256c-.033-.082-.07-.166-.1-.242a8.05,8.05,0,0,0-1.194-1.915c-.049-.064-.1-.129-.153-.193a11.5,11.5,0,0,0-1.732-1.629c-.078-.058-.151-.115-.23-.173a13.219,13.219,0,0,0-2.24-1.311c-.115-.052-.235-.1-.355-.153a12.556,12.556,0,0,0-3.324-.9c-.24-.035-.481-.054-.725-.066a11.708,11.708,0,0,0-3.719.34,6.137,6.137,0,0,0-2.825,1.718,6.041,6.041,0,0,0-.425.465h-.007a15.222,15.222,0,0,0-1.835,2.789c-.075.134-.143.267-.213.406-.131.254-.256.509-.376.768-.234.5-.518,1.082-.831,1.736-.063.134-.125.274-.188.411-.336.7-.688,1.476-1.028,2.287-.063.138-.119.284-.181.429-.282.694-.559,1.419-.805,2.149-.049.15-.1.3-.15.451-.218.694-.41,1.393-.554,2.083-.038.157-.071.319-.1.476a11.5,11.5,0,0,0-.211,2.165C544.317,507,544.321,507.134,544.324,507.264Z" transform="translate(-544.319 -488.169)" fill="#fff8eb"/>
          <g id="Grupo_26801" data-name="Grupo 26801" transform="translate(5.436 22.578)">
            <g id="Grupo_26800" data-name="Grupo 26800">
              <path id="Trazado_54338" data-name="Trazado 54338" d="M548.076,502.187c3.744.708,8.27,1.921,11.417-1.037a.086.086,0,0,1,.126.119c-3.064,3.376-7.745,2.527-11.588,1.1A.1.1,0,0,1,548.076,502.187Z" transform="translate(-547.05 -501.124)" fill="#efe0c2"/>
              <path id="Trazado_54339" data-name="Trazado 54339" d="M547.556,502.309a8.745,8.745,0,0,1,3.825.647.032.032,0,0,1-.016.063,29.731,29.731,0,0,0-3.8-.458A.126.126,0,0,1,547.556,502.309Z" transform="translate(-547.438 -500.262)" fill="#efe0c2"/>
            </g>
          </g>
        </g>
        <g id="Grupo_26817" data-name="Grupo 26817" transform="translate(552.465 473.616)">
          <g id="Grupo_26816" data-name="Grupo 26816">
            <g id="Grupo_26803" data-name="Grupo 26803" transform="translate(7.978 15.801)">
              <path id="Trazado_54340" data-name="Trazado 54340" d="M550.128,495.471s.5,1.652,2,1.485a5.979,5.979,0,0,0,4.4-3.559,35.35,35.35,0,0,0-.249-4.828c-.028-.225-.054-.448-.08-.671s-.054-.437-.087-.65c-.04-.284-.082-.561-.125-.84-.319-2.1-.607-3.9-.607-3.9l-.9.537-6.267,4.062,1.209,5.293.072.324.026.106.371,1.595,0,.014Z" transform="translate(-548.216 -482.51)" fill="#ca906a"/>
              <path id="Trazado_54341" data-name="Trazado 54341" d="M549.5,492.726a5.635,5.635,0,0,0,2.707-.206,7.068,7.068,0,0,0,4.083-3.951c-.028-.225-.054-.448-.08-.671s-.054-.437-.087-.65c-.04-.284-.082-.561-.125-.84-.319-2.1-.607-3.9-.607-3.9l-.9.537-6.267,4.062,1.209,5.293Z" transform="translate(-548.216 -482.51)" fill="#8c635a"/>
            </g>
            <g id="Grupo_26815" data-name="Grupo 26815">
              <path id="Trazado_54342" data-name="Trazado 54342" d="M544.116,486.9c.929,9.577,6.342,9.584,8,9.7,1.879.131,9.069-.851,9.134-10.471s-4.683-12.215-8.991-12.02S543.185,477.326,544.116,486.9Z" transform="translate(-543.371 -472.956)" fill="#ca906a"/>
              <g id="Grupo_26804" data-name="Grupo 26804">
                <path id="Trazado_54343" data-name="Trazado 54343" d="M561.632,487.164c-2.21.931-4.756-1.323-4.859-4.793a3.53,3.53,0,0,1-1.514-.052,1.767,1.767,0,0,1-1.14-1.525c-.3.674-1,1.568-1.819,1.521-1.241-.073-1.417-1.621-1.429-1.649-.263.849-1.3,1.966-2.321,1.431-.842-.437-.629-1.711-.568-2.7-.673,1.088-2.83,3.409-3.867,3.027-1.084-.4-.049-3.249.5-4.127,2.363-3.764,7.508-6.324,11.509-3.916a.178.178,0,0,1,.139-.045,7.967,7.967,0,0,1,7.043,5.113C564.18,481.747,564.321,486.024,561.632,487.164Z" transform="translate(-543.638 -473.444)" fill="#12214a"/>
                <path id="Trazado_54344" data-name="Trazado 54344" d="M555.913,483.767a3.055,3.055,0,0,1-3.965-1.5,6.912,6.912,0,0,1-.472-4.071c.009-.077-.12-.094-.134-.019a5.928,5.928,0,0,0,.849,4.946,2.954,2.954,0,0,0,3.789.8C556.059,483.877,556.007,483.728,555.913,483.767Z" transform="translate(-538.046 -469.961)" fill="#12214a"/>
              </g>
              <g id="Grupo_26811" data-name="Grupo 26811" transform="translate(2.082 11.465)">
                <g id="Grupo_26805" data-name="Grupo 26805" transform="translate(1.697 2.734)">
                  <path id="Trazado_54345" data-name="Trazado 54345" d="M547.041,484.707a.521.521,0,0,0,.227-1.016l-.284-.066.4-1.361a.521.521,0,0,0-1-.3l-.561,1.893a.525.525,0,0,0,.049.41.515.515,0,0,0,.333.246l.823.192Z" transform="translate(-545.807 -481.591)" fill="#8c635a"/>
                </g>
                <g id="Grupo_26806" data-name="Grupo 26806" transform="translate(5.749)">
                  <path id="Trazado_54346" data-name="Trazado 54346" d="M549.607,480.146s-1.351-.38-1.474.193c0,0-.075.392,1.108.7s1.511.279,1.692-.068S550.25,480.273,549.607,480.146Z" transform="translate(-548.131 -480.022)" fill="#322b2a"/>
                </g>
                <g id="Grupo_26807" data-name="Grupo 26807" transform="translate(0 0.225)">
                  <path id="Trazado_54347" data-name="Trazado 54347" d="M546.056,480.194s1.157.1,1.145.657c0,0-.016.377-1.025.268s-1.305-.3-1.342-.615C544.793,480.149,545.516,480.1,546.056,480.194Z" transform="translate(-544.833 -480.152)" fill="#322b2a"/>
                </g>
                <g id="Grupo_26808" data-name="Grupo 26808" transform="translate(0.456 1.941)">
                  <path id="Trazado_54348" data-name="Trazado 54348" d="M546.263,481.833a.588.588,0,1,1-.484-.69A.6.6,0,0,1,546.263,481.833Z" transform="translate(-545.094 -481.136)" fill="#322b2a"/>
                </g>
                <g id="Grupo_26809" data-name="Grupo 26809" transform="translate(5.539 2.739)">
                  <path id="Trazado_54349" data-name="Trazado 54349" d="M549.178,482.291a.587.587,0,1,1-.485-.69A.6.6,0,0,1,549.178,482.291Z" transform="translate(-548.011 -481.594)" fill="#322b2a"/>
                </g>
                <g id="Grupo_26810" data-name="Grupo 26810" transform="translate(2.034 6.019)">
                  <path id="Trazado_54350" data-name="Trazado 54350" d="M546.862,484.886a2.282,2.282,0,0,0,2.161-.631.521.521,0,0,0-.835-.612,1.507,1.507,0,0,1-1.438.112.52.52,0,1,0-.46.932A2.379,2.379,0,0,0,546.862,484.886Z" transform="translate(-546 -483.476)" fill="#8c635a"/>
                </g>
              </g>
              <g id="Grupo_26814" data-name="Grupo 26814" transform="translate(16.815 12.419)">
                <g id="Grupo_26812" data-name="Grupo 26812">
                  <path id="Trazado_54351" data-name="Trazado 54351" d="M558.077,482.832a2.452,2.452,0,0,1-2.18,2.682,2.427,2.427,0,0,1-2.6-2.253,2.451,2.451,0,0,1,2.18-2.682A2.427,2.427,0,0,1,558.077,482.832Z" transform="translate(-553.287 -480.57)" fill="#ca906a"/>
                </g>
                <g id="Grupo_26813" data-name="Grupo 26813" transform="translate(1.109 0.961)">
                  <path id="Trazado_54352" data-name="Trazado 54352" d="M554.448,483.824l.045,0a.522.522,0,0,0,.474-.561,1.318,1.318,0,0,1,.267-.91.85.85,0,0,1,.7-.185.513.513,0,0,0,.559-.479.521.521,0,0,0-.478-.559,1.867,1.867,0,0,0-1.525.491,2.351,2.351,0,0,0-.565,1.727A.523.523,0,0,0,554.448,483.824Z" transform="translate(-553.923 -481.121)" fill="#8c635a"/>
                </g>
              </g>
            </g>
          </g>
        </g>
        <g id="Grupo_26820" data-name="Grupo 26820" transform="translate(531.771 507.505)">
          <g id="Grupo_26818" data-name="Grupo 26818" transform="translate(0 3.412)">
            <path id="Trazado_54353" data-name="Trazado 54353" d="M559.49,516.24H538.1l-6.011-21.393h19.178a2.922,2.922,0,0,1,2.813,2.133Z" transform="translate(-531.526 -494.847)" fill="#efe0c2"/>
            <path id="Trazado_54354" data-name="Trazado 54354" d="M540.74,516.24h-4.209s-6.711-21.393-4.207-21.393S540.74,516.24,540.74,516.24Z" transform="translate(-531.765 -494.847)" fill="#dbccb2"/>
            <path id="Trazado_54355" data-name="Trazado 54355" d="M542.73,495.934a62.4,62.4,0,0,0-8.466-.03.122.122,0,0,0,0,.244,62.685,62.685,0,0,0,8.466-.031A.092.092,0,0,0,542.73,495.934Z" transform="translate(-529.996 -494.167)" fill="#dbccb2"/>
            <path id="Trazado_54356" data-name="Trazado 54356" d="M542.368,496.73A48.063,48.063,0,0,0,535,496.8a.037.037,0,0,0,0,.075,48.084,48.084,0,0,0,7.363.07A.108.108,0,0,0,542.368,496.73Z" transform="translate(-529.385 -493.527)" fill="#dbccb2"/>
            <path id="Trazado_54357" data-name="Trazado 54357" d="M540.2,497.749a28.522,28.522,0,0,0-4.909.082.028.028,0,0,0,0,.056,28.522,28.522,0,0,0,4.909.082A.11.11,0,0,0,540.2,497.749Z" transform="translate(-529.168 -492.744)" fill="#dbccb2"/>
            <path id="Trazado_54358" data-name="Trazado 54358" d="M551,498.664c-2.55-.084-5.1-.084-7.649-.091a57.993,57.993,0,0,0-7.647.106.05.05,0,0,0,0,.1,58,58,0,0,0,7.647.106c2.55-.005,5.1-.005,7.649-.091A.065.065,0,0,0,551,498.664Z" transform="translate(-528.872 -492.135)" fill="#dbccb2"/>
            <path id="Trazado_54359" data-name="Trazado 54359" d="M550.784,499.58c-2.429-.049-4.862-.012-7.294-.012a66.97,66.97,0,0,0-7.294.073.066.066,0,0,0,0,.133,67.859,67.859,0,0,0,7.294.073c2.431,0,4.864.037,7.294-.012A.127.127,0,0,0,550.784,499.58Z" transform="translate(-528.519 -491.39)" fill="#dbccb2"/>
            <path id="Trazado_54360" data-name="Trazado 54360" d="M545.421,500.738a63.415,63.415,0,0,0-8.914-.005.066.066,0,0,0,0,.133,63.684,63.684,0,0,0,8.914-.005A.061.061,0,0,0,545.421,500.738Z" transform="translate(-528.289 -490.591)" fill="#dbccb2"/>
            <path id="Trazado_54361" data-name="Trazado 54361" d="M549.066,501.815c-1.7-.1-3.426-.038-5.131-.035a30.925,30.925,0,0,0-4.566.117c-.018,0-.018.035,0,.037a30.931,30.931,0,0,0,4.566.118c1.7,0,3.428.07,5.131-.035A.1.1,0,0,0,549.066,501.815Z" transform="translate(-526.126 -489.716)" fill="#dbccb2"/>
            <path id="Trazado_54362" data-name="Trazado 54362" d="M549.013,502.73c-1.61-.08-3.229-.047-4.843-.051a23.988,23.988,0,0,0-4.277.139.018.018,0,0,0,0,.033,24,24,0,0,0,4.277.139c1.614,0,3.233.03,4.843-.051A.105.105,0,0,0,549.013,502.73Z" transform="translate(-525.736 -489.049)" fill="#dbccb2"/>
            <path id="Trazado_54363" data-name="Trazado 54363" d="M549.372,503.757c-1.619-.056-3.243-.026-4.862-.03a26.054,26.054,0,0,0-4.3.11.05.05,0,0,0,0,.1,26.061,26.061,0,0,0,4.3.11c1.619,0,3.243.026,4.862-.028A.129.129,0,0,0,549.372,503.757Z" transform="translate(-525.52 -488.276)" fill="#dbccb2"/>
            <path id="Trazado_54364" data-name="Trazado 54364" d="M551.979,504.975c-2.454-.059-4.913-.017-7.369-.019a43.248,43.248,0,0,0-6.788.112.036.036,0,0,0,0,.068,43.233,43.233,0,0,0,6.788.113c2.456,0,4.915.04,7.369-.019A.127.127,0,0,0,551.979,504.975Z" transform="translate(-527.284 -487.399)" fill="#dbccb2"/>
            <path id="Trazado_54365" data-name="Trazado 54365" d="M537.023,501.754l1.35,4.517h3.276l-1.116-4.517Z" transform="translate(-527.859 -489.716)" fill="#dbccb2"/>
            <path id="Trazado_54366" data-name="Trazado 54366" d="M539.677,495.744l1.133,3.927h6.668l-1.219-3.927Z" transform="translate(-525.887 -494.181)" fill="#dbccb2"/>
          </g>
          <g id="Grupo_26819" data-name="Grupo 26819" transform="translate(2.107)">
            <path id="Trazado_54367" data-name="Trazado 54367" d="M560.7,514.282H539.306l-6.011-21.393h19.178a2.922,2.922,0,0,1,2.813,2.131Z" transform="translate(-532.735 -492.889)" fill="#efe0c2"/>
            <path id="Trazado_54368" data-name="Trazado 54368" d="M541.95,514.282h-4.209s-6.712-21.393-4.207-21.393S541.95,514.282,541.95,514.282Z" transform="translate(-532.974 -492.889)" fill="#dbccb2"/>
            <path id="Trazado_54369" data-name="Trazado 54369" d="M543.937,493.977a62.352,62.352,0,0,0-8.465-.031.122.122,0,0,0,0,.244,62.67,62.67,0,0,0,8.465-.03A.092.092,0,0,0,543.937,493.977Z" transform="translate(-531.205 -492.209)" fill="#dbccb2"/>
            <path id="Trazado_54370" data-name="Trazado 54370" d="M543.577,494.773a48.078,48.078,0,0,0-7.363.07.037.037,0,0,0,0,.075,48.084,48.084,0,0,0,7.363.072A.108.108,0,0,0,543.577,494.773Z" transform="translate(-530.594 -491.57)" fill="#dbccb2"/>
            <path id="Trazado_54371" data-name="Trazado 54371" d="M541.405,495.79a28.7,28.7,0,0,0-4.909.082.029.029,0,0,0,0,.058,28.7,28.7,0,0,0,4.909.082A.111.111,0,0,0,541.405,495.79Z" transform="translate(-530.377 -490.786)" fill="#dbccb2"/>
            <path id="Trazado_54372" data-name="Trazado 54372" d="M552.21,496.706c-2.548-.085-5.1-.084-7.647-.091a57.989,57.989,0,0,0-7.647.106.05.05,0,0,0,0,.1,57.979,57.979,0,0,0,7.647.106c2.55-.007,5.1-.005,7.647-.091A.065.065,0,0,0,552.21,496.706Z" transform="translate(-530.081 -490.177)" fill="#dbccb2"/>
            <path id="Trazado_54373" data-name="Trazado 54373" d="M551.993,497.622c-2.43-.051-4.863-.014-7.294-.014a67.4,67.4,0,0,0-7.294.075.065.065,0,0,0,0,.131,67.4,67.4,0,0,0,7.294.075c2.431,0,4.864.035,7.294-.014A.126.126,0,0,0,551.993,497.622Z" transform="translate(-529.728 -489.432)" fill="#dbccb2"/>
            <path id="Trazado_54374" data-name="Trazado 54374" d="M546.63,498.778a63.677,63.677,0,0,0-8.914,0,.065.065,0,0,0,0,.131,63.4,63.4,0,0,0,8.914-.005A.061.061,0,0,0,546.63,498.778Z" transform="translate(-529.498 -488.633)" fill="#dbccb2"/>
            <path id="Trazado_54375" data-name="Trazado 54375" d="M550.274,499.857c-1.7-.106-3.424-.04-5.129-.037a30.952,30.952,0,0,0-4.566.118.019.019,0,0,0,0,.037,30.943,30.943,0,0,0,4.566.119c1.7,0,3.428.07,5.129-.037A.1.1,0,0,0,550.274,499.857Z" transform="translate(-527.335 -487.759)" fill="#dbccb2"/>
            <path id="Trazado_54376" data-name="Trazado 54376" d="M550.222,500.77c-1.612-.078-3.229-.045-4.843-.049a23.822,23.822,0,0,0-4.277.139c-.016,0-.016.03,0,.031a23.834,23.834,0,0,0,4.277.139c1.614,0,3.231.03,4.843-.049A.106.106,0,0,0,550.222,500.77Z" transform="translate(-526.945 -487.091)" fill="#dbccb2"/>
            <path id="Trazado_54377" data-name="Trazado 54377" d="M550.581,501.8c-1.619-.054-3.243-.024-4.862-.028a26.049,26.049,0,0,0-4.3.11.05.05,0,0,0,0,.1,26.047,26.047,0,0,0,4.3.11c1.619,0,3.243.026,4.862-.03A.129.129,0,0,0,550.581,501.8Z" transform="translate(-526.728 -486.318)" fill="#dbccb2"/>
            <path id="Trazado_54378" data-name="Trazado 54378" d="M553.188,503.017c-2.454-.059-4.915-.017-7.368-.019a43.029,43.029,0,0,0-6.788.112.036.036,0,0,0,0,.068,43.242,43.242,0,0,0,6.788.111c2.454,0,4.915.04,7.368-.019A.126.126,0,0,0,553.188,503.017Z" transform="translate(-528.493 -485.441)" fill="#dbccb2"/>
            <path id="Trazado_54379" data-name="Trazado 54379" d="M538.232,499.8l1.35,4.517h3.276l-1.116-4.517Z" transform="translate(-529.068 -487.759)" fill="#dbccb2"/>
            <path id="Trazado_54380" data-name="Trazado 54380" d="M540.886,493.786l1.133,3.927h6.668l-1.219-3.927Z" transform="translate(-527.097 -492.223)" fill="#dbccb2"/>
          </g>
          <path id="Trazado_54381" data-name="Trazado 54381" d="M531.965,498.008v20.786H554.8V498.008Zm15.061,4.711a.952.952,0,0,1-.953.948h-5.385a.951.951,0,0,1-.948-.948v-1.182a.952.952,0,0,1,.948-.953h5.385a.954.954,0,0,1,.953.953Z" transform="translate(-531.616 -489.087)" fill="#eadedd"/>
          <rect id="Rect치ngulo_5235" data-name="Rect치ngulo 5235" width="9.519" height="20.788" transform="translate(23.183 8.919)" fill="#f1cb42"/>
        </g>
        <path id="Trazado_54382" data-name="Trazado 54382" d="M555.741,488.4c-.77,1.262-4.394,13.125-4.428,22.175-.1,26.053,8.353,61.648,10.065,62.319,6.386,2.51,23.355-2.891,22.242-6.833-.68-2.41-7.375-15.854-7.562-24.7-.249-11.928-8.886-20.415-10.176-21.771s-.586-21.227-3.228-25.882C560.57,490.04,555.741,488.4,555.741,488.4Z" transform="translate(14.526 11.282)" fill="#62cca2"/>
        <g id="Grupo_26821" data-name="Grupo 26821" transform="translate(542.861 500.621)">
          <path id="Trazado_54383" data-name="Trazado 54383" d="M565.427,492.836c-.837,4.209,3.852,20.138,2.065,20.971-1.4.654-15.723,2.848-19.333,2.816-4.388-.04-8.327,1.582-9.646,2.851-1.276,1.229.844,1.832,3.022,2.041,1.9.181,3.832.727,5.277.087,0,0,22.236,3.52,29.491-.88,2.642-1.6.669-17.576-2.016-23.338C571.7,491.848,566.95,485.169,565.427,492.836Z" transform="translate(-538.128 -488.615)" fill="#ca906a"/>
          <path id="Trazado_54384" data-name="Trazado 54384" d="M559.786,506.829a.715.715,0,0,0-.687-.763.546.546,0,0,0-.486.772.338.338,0,0,0,.648-.075c.007-.057-.082-.059-.1,0-.071.2-.326.089-.345-.075a.312.312,0,0,1,.171-.31.365.365,0,0,1,.457.159.541.541,0,0,1,.03.525.721.721,0,0,1-.478.317c-.042.014-.04.087,0,.092A.723.723,0,0,0,559.786,506.829Z" transform="translate(-522.95 -476.217)" fill="#8c635a"/>
          <path id="Trazado_54385" data-name="Trazado 54385" d="M561.81,489.028c-1.793,1.014-2.834,3.88-2.083,8.676s2.776,15.039,2.083,15.847-15.472,2.558-15.845,2.879-.593,4.432,1.042,6.83c.376.551,20.673,2.048,24.563-2.076,2.741-2.905-.817-19.978-3.709-26.206C565.764,490.466,562.784,488.479,561.81,489.028Z" transform="translate(-532.504 -488.939)" fill="#7ae2b6"/>
        </g>
      </g>
    </g>
  </g>
</svg>
