<svg xmlns="http://www.w3.org/2000/svg" width="221.981" height="233.354" viewBox="0 0 221.981 233.354">
  <g id="Grupo_27174" data-name="Grupo 27174" transform="translate(-237 -593.646)">
    <text id="Planear" transform="translate(305.495 820)" fill="#00223d" font-size="24" font-family="Roboto-Black, Roboto" font-weight="800"><tspan x="0" y="0">Planear</tspan></text>
    <rect id="Image_Place_Holder" data-name="Image Place Holder" width="221.981" height="150.264" rx="10" transform="translate(237 633.808)" fill="#d1eaff"/>
    <g id="Grupo_26754" data-name="Grupo 26754" transform="translate(-81.52 119.383)">
      <g id="Grupo_26717" data-name="Grupo 26717" transform="translate(391.912 474.263)">
        <g id="Grupo_26700" data-name="Grupo 26700">
          <g id="Grupo_26688" data-name="Grupo 26688" transform="translate(0 34.431)">
            <rect id="Rectángulo_5224" data-name="Rectángulo 5224" width="125.38" height="125.78" transform="translate(0.5 2)" fill="#fff"/>
          </g>
          <g id="Grupo_26689" data-name="Grupo 26689" transform="translate(0 7.529)">
            <path id="Trazado_54225" data-name="Trazado 54225" d="M494.065,485.682v19.784H368.686V485.682a7.116,7.116,0,0,1,7.116-7.118H486.949A7.116,7.116,0,0,1,494.065,485.682Z" transform="translate(-368.186 -476.564)" fill="#6b6bd6"/>
          </g>
          <g id="Grupo_26699" data-name="Grupo 26699" transform="translate(16.795)">
            <g id="Grupo_26692" data-name="Grupo 26692" transform="translate(83.255)">
              <g id="Grupo_26690" data-name="Grupo 26690" transform="translate(0 13.916)">
                <circle id="Elipse_1508" data-name="Elipse 1508" cx="5.898" cy="5.898" r="5.898" fill="#364380"/>
              </g>
              <g id="Grupo_26691" data-name="Grupo 26691" transform="translate(2.518)">
                <path id="Trazado_54226" data-name="Trazado 54226" d="M430.658,496.291h0a3.379,3.379,0,0,0,3.38-3.38V477.643a3.379,3.379,0,0,0-3.38-3.38h0a3.379,3.379,0,0,0-3.379,3.38v15.268A3.379,3.379,0,0,0,430.658,496.291Z" transform="translate(-427.279 -474.263)" fill="#f0c941"/>
              </g>
            </g>
            <g id="Grupo_26695" data-name="Grupo 26695" transform="translate(41.627)">
              <g id="Grupo_26693" data-name="Grupo 26693" transform="translate(0 13.916)">
                <circle id="Elipse_1509" data-name="Elipse 1509" cx="5.898" cy="5.898" r="5.898" fill="#364380"/>
              </g>
              <g id="Grupo_26694" data-name="Grupo 26694" transform="translate(2.517)">
                <path id="Trazado_54227" data-name="Trazado 54227" d="M406.878,496.291h0a3.379,3.379,0,0,0,3.38-3.38V477.643a3.379,3.379,0,0,0-3.38-3.38h0a3.38,3.38,0,0,0-3.38,3.38v15.268A3.38,3.38,0,0,0,406.878,496.291Z" transform="translate(-403.498 -474.263)" fill="#f0c941"/>
              </g>
            </g>
            <g id="Grupo_26698" data-name="Grupo 26698">
              <g id="Grupo_26696" data-name="Grupo 26696" transform="translate(0 13.916)">
                <circle id="Elipse_1510" data-name="Elipse 1510" cx="5.898" cy="5.898" r="5.898" fill="#364380"/>
              </g>
              <g id="Grupo_26697" data-name="Grupo 26697" transform="translate(2.517)">
                <path id="Trazado_54228" data-name="Trazado 54228" d="M383.1,496.291h0a3.379,3.379,0,0,0,3.38-3.38V477.643a3.379,3.379,0,0,0-3.38-3.38h0a3.38,3.38,0,0,0-3.38,3.38v15.268A3.38,3.38,0,0,0,383.1,496.291Z" transform="translate(-379.718 -474.263)" fill="#f0c941"/>
              </g>
            </g>
          </g>
        </g>
        <g id="Grupo_26716" data-name="Grupo 26716" transform="translate(17.64 52.708)">
          <g id="Grupo_26704" data-name="Grupo 26704">
            <g id="Grupo_26701" data-name="Grupo 26701" transform="translate(63.435)">
              <path id="Trazado_54229" data-name="Trazado 54229" d="M442.713,532.085H415V504.373h27.712Zm-23.839-3.874h19.965V508.247H418.875Z" transform="translate(-414.501 -502.373)" fill="#eadedd"/>
            </g>
            <g id="Grupo_26702" data-name="Grupo 26702" transform="translate(31.718)">
              <path id="Trazado_54230" data-name="Trazado 54230" d="M424.594,532.085H396.882V504.373h27.712Zm-23.839-3.874H420.72V508.247H400.756Z" transform="translate(-396.382 -502.373)" fill="#eadedd"/>
            </g>
            <g id="Grupo_26703" data-name="Grupo 26703">
              <path id="Trazado_54231" data-name="Trazado 54231" d="M406.477,532.085H378.763V504.373h27.714Zm-23.84-3.874H402.6V508.247H382.637Z" transform="translate(-378.263 -502.373)" fill="#eadedd"/>
            </g>
          </g>
          <g id="Grupo_26711" data-name="Grupo 26711" transform="translate(1.937 30.259)">
            <g id="Grupo_26705" data-name="Grupo 26705" transform="translate(61.498)">
              <path id="Trazado_54232" data-name="Trazado 54232" d="M442.713,549.373H415V521.659h27.712ZM418.875,545.5h19.965V525.533H418.875Z" transform="translate(-414.501 -519.659)" fill="#eadedd"/>
            </g>
            <g id="Grupo_26706" data-name="Grupo 26706" transform="translate(29.78)">
              <path id="Trazado_54233" data-name="Trazado 54233" d="M424.594,549.373H396.882V521.659h27.712ZM400.756,545.5H420.72V525.533H400.756Z" transform="translate(-396.382 -519.659)" fill="#eadedd"/>
            </g>
            <g id="Grupo_26707" data-name="Grupo 26707" transform="translate(0 1.938)">
              <rect id="Rectángulo_5225" data-name="Rectángulo 5225" width="23.84" height="23.839" transform="translate(24.34 25.839) rotate(180)" fill="#e33e4e"/>
            </g>
            <g id="Grupo_26710" data-name="Grupo 26710" transform="translate(7.348 9.222)">
              <g id="Grupo_26708" data-name="Grupo 26708" transform="translate(0 0.001)">
                <rect id="Rectángulo_5226" data-name="Rectángulo 5226" width="3.531" height="9.492" transform="matrix(0.718, -0.696, 0.696, 0.718, 0, 2.459)" fill="#fff"/>
              </g>
              <g id="Grupo_26709" data-name="Grupo 26709" transform="translate(0.001 0)">
                <rect id="Rectángulo_5227" data-name="Rectángulo 5227" width="9.492" height="3.531" transform="matrix(0.696, -0.718, 0.718, 0.696, 0.5, 8.814)" fill="#fff"/>
              </g>
            </g>
          </g>
          <g id="Grupo_26715" data-name="Grupo 26715" transform="translate(0 60.521)">
            <g id="Grupo_26712" data-name="Grupo 26712" transform="translate(63.435)">
              <path id="Trazado_54234" data-name="Trazado 54234" d="M442.713,566.66H415V538.946h27.712Zm-23.839-3.874h19.965V542.82H418.875Z" transform="translate(-414.501 -536.946)" fill="#eadedd"/>
            </g>
            <g id="Grupo_26713" data-name="Grupo 26713" transform="translate(31.718)">
              <path id="Trazado_54235" data-name="Trazado 54235" d="M424.594,566.66H396.882V538.946h27.712Zm-23.839-3.874H420.72V542.82H400.756Z" transform="translate(-396.882 -538.946)" fill="#eadedd"/>
            </g>
            <g id="Grupo_26714" data-name="Grupo 26714">
              <path id="Trazado_54236" data-name="Trazado 54236" d="M406.477,566.66H378.763V538.946h27.714Zm-23.84-3.874H402.6V542.82H382.637Z" transform="translate(-378.263 -536.946)" fill="#eadedd"/>
            </g>
          </g>
        </g>
      </g>
      <g id="Grupo_26753" data-name="Grupo 26753" transform="translate(337.738 493.553)">
        <g id="Grupo_26728" data-name="Grupo 26728" transform="translate(7.037 59.845)">
          <g id="Grupo_26721" data-name="Grupo 26721" transform="translate(0)">
            <g id="Grupo_26718" data-name="Grupo 26718" transform="translate(20.755)">
              <path id="Trazado_54237" data-name="Trazado 54237" d="M370.873,520.34l7.167,31.6a8.527,8.527,0,0,1-3.028,7.881l-21.4,16.732.4-15.406,10.687-8.721L353.615,519.47Z" transform="translate(-353.115 -517.47)" fill="#6543f7"/>
            </g>
            <g id="Grupo_26720" data-name="Grupo 26720" transform="translate(0 46.082)">
              <path id="Trazado_54238" data-name="Trazado 54238" d="M349.782,556.925l10.3-5.389-4.068-5.741-11.189,6.084,3.57,4.527Z" transform="translate(-339.455 -545.795)" fill="#eb9f86"/>
              <g id="Grupo_26719" data-name="Grupo 26719" transform="translate(0 3.67)">
                <path id="Trazado_54239" data-name="Trazado 54239" d="M348.876,547.891s1.74,6.381,6.752,6.023l1.933,15.2-14.79-18.755Z" transform="translate(-340.999 -547.891)" fill="#202443"/>
                <rect id="Rectángulo_5228" data-name="Rectángulo 5228" width="23.885" height="2.256" transform="matrix(0.619, 0.785, -0.785, 0.619, 1.771, 2.471)" fill="#fff"/>
                <path id="Trazado_54240" data-name="Trazado 54240" d="M351.5,552.6a8.945,8.945,0,0,0-2.881-.291" transform="translate(-336.613 -544.585)" fill="none" stroke="#fff" stroke-linecap="round" stroke-linejoin="round" stroke-width="1.504"/>
                <path id="Trazado_54241" data-name="Trazado 54241" d="M351.739,553.868a8.943,8.943,0,0,0-2.881-.291" transform="translate(-336.43 -543.631)" fill="none" stroke="#fff" stroke-linecap="round" stroke-linejoin="round" stroke-width="1.504"/>
                <path id="Trazado_54242" data-name="Trazado 54242" d="M351.984,555.139a8.945,8.945,0,0,0-2.881-.291" transform="translate(-336.246 -542.677)" fill="none" stroke="#fff" stroke-linecap="round" stroke-linejoin="round" stroke-width="1.504"/>
              </g>
            </g>
          </g>
          <g id="Grupo_26727" data-name="Grupo 26727" transform="translate(9.753 0.095)">
            <g id="Grupo_26723" data-name="Grupo 26723" transform="translate(0 63.948)">
              <path id="Trazado_54243" data-name="Trazado 54243" d="M355.925,567.843l1.042-11.427-7.027-.36-1.046,12.553h5.766Z" transform="translate(-346.156 -556.056)" fill="#eb9f86"/>
              <g id="Grupo_26722" data-name="Grupo 26722" transform="translate(0 7.519)">
                <path id="Trazado_54244" data-name="Trazado 54244" d="M349.17,561.923s6.088,2.585,8.912-1.572l13.134,7.9H347.33Z" transform="translate(-347.33 -560.351)" fill="#202443"/>
                <rect id="Rectángulo_5229" data-name="Rectángulo 5229" width="23.885" height="2.256" transform="translate(0.501 9.896)" fill="#fff"/>
                <path id="Trazado_54245" data-name="Trazado 54245" d="M355.315,560.941a8.976,8.976,0,0,0-2.011,2.083" transform="translate(-342.846 -559.908)" fill="none" stroke="#fff" stroke-linecap="round" stroke-linejoin="round" stroke-width="1.504"/>
                <path id="Trazado_54246" data-name="Trazado 54246" d="M356.466,561.536a8.958,8.958,0,0,0-2.013,2.083" transform="translate(-341.484 -557.462)" fill="none" stroke="#fff" stroke-linecap="round" stroke-linejoin="round" stroke-width="1.504"/>
                <path id="Trazado_54247" data-name="Trazado 54247" d="M357.616,562.131a8.96,8.96,0,0,0-2.013,2.083" transform="translate(-341.121 -559.015)" fill="none" stroke="#fff" stroke-linecap="round" stroke-linejoin="round" stroke-width="1.504"/>
              </g>
            </g>
            <g id="Grupo_26726" data-name="Grupo 26726" transform="translate(1.377)">
              <g id="Grupo_26725" data-name="Grupo 26725">
                <g id="Grupo_26724" data-name="Grupo 26724">
                  <path id="Trazado_54248" data-name="Trazado 54248" d="M351.34,519.524l-3.224,66.651h12.227l8.905-66.433Z" transform="translate(-347.617 -517.524)" fill="#6b6bd6"/>
                </g>
              </g>
              <path id="Trazado_54249" data-name="Trazado 54249" d="M367.315,520.093h0L359.9,531.709l-1.548-11.91Z" transform="translate(-340.431 -519.318)" fill="#6b6bd6"/>
            </g>
          </g>
        </g>
        <g id="Grupo_26741" data-name="Grupo 26741" transform="translate(0 25.574)">
          <g id="Grupo_26735" data-name="Grupo 26735" transform="translate(38.176 1.231)">
            <path id="Trazado_54250" data-name="Trazado 54250" d="M384.757,516.416l-7.3.572,1.306-7.336,7.628.642Z" transform="translate(-346.106 -493.799)" fill="#eb9f86"/>
            <g id="Grupo_26732" data-name="Grupo 26732" transform="translate(36.006 11.711)">
              <g id="Grupo_26731" data-name="Grupo 26731" transform="translate(0 0.414)">
                <g id="Grupo_26730" data-name="Grupo 26730">
                  <g id="Grupo_26729" data-name="Grupo 26729">
                    <path id="Trazado_54251" data-name="Trazado 54251" d="M388.761,517.174a5.119,5.119,0,1,1,.555-7.217A5.119,5.119,0,0,1,388.761,517.174Z" transform="translate(-379.97 -507.038)" fill="#eb9f86"/>
                    <path id="Trazado_54252" data-name="Trazado 54252" d="M385.84,508.663s-.929-2.143-3.1-.555-4.091,4.833-1.054,8.994Z" transform="translate(-380.116 -507.522)" fill="#eb9f86"/>
                  </g>
                </g>
              </g>
              <path id="Trazado_54253" data-name="Trazado 54253" d="M383.386,508.811l5.88-1.479a.964.964,0,0,1,1.2.583h0a.83.83,0,0,1-.441,1.038l-5.973,2.673Z" transform="translate(-377.661 -507.286)" fill="#eb9f86"/>
            </g>
            <g id="Grupo_26733" data-name="Grupo 26733">
              <path id="Trazado_54254" data-name="Trazado 54254" d="M370.624,503.628l9.645,15.263a5.334,5.334,0,0,1-1.74,7.065h0a5.335,5.335,0,0,1-7.373-1.53l-10.633-14.662a5.911,5.911,0,0,1,.756-7.436h0A5.913,5.913,0,0,1,370.624,503.628Z" transform="translate(-359.547 -500.596)" fill="#62cca2"/>
              <path id="Trazado_54255" data-name="Trazado 54255" d="M364.151,515.032l.569-8.356,2.072,12Z" transform="translate(-356.092 -496.032)" fill="#1d8f62"/>
            </g>
            <g id="Grupo_26734" data-name="Grupo 26734" transform="translate(11.266 14.273)">
              <path id="Trazado_54256" data-name="Trazado 54256" d="M370.433,511.243l21.237-2.495-.067,9.7-19.751,2.545a4.931,4.931,0,0,1-5.866-5.022h0A4.932,4.932,0,0,1,370.433,511.243Z" transform="translate(-365.983 -508.749)" fill="#62cca2"/>
            </g>
          </g>
          <g id="Grupo_26738" data-name="Grupo 26738" transform="translate(0 0)">
            <g id="Grupo_26736" data-name="Grupo 26736" transform="translate(0 38.856)">
              <path id="Trazado_54257" data-name="Trazado 54257" d="M349.928,529.98s2.368.189,1.982-2.517-2.384-5.992-7.578-5.257Z" transform="translate(-332.79 -522.08)" fill="#eb9f86"/>
              <rect id="Rectángulo_5230" data-name="Rectángulo 5230" width="23.839" height="23.839" transform="translate(23.839 29.604) rotate(180)" fill="#f1cb42"/>
              <rect id="Rectángulo_5231" data-name="Rectángulo 5231" width="23.839" height="23.839" transform="translate(25.442 31.604) rotate(180)" fill="#f1cb42"/>
              <path id="Trazado_54258" data-name="Trazado 54258" d="M342.126,528.434a5.212,5.212,0,1,1,6.22,3.958A5.213,5.213,0,0,1,342.126,528.434Z" transform="translate(-334.54 -522.089)" fill="#eb9f86"/>
            </g>
            <path id="Trazado_54259" data-name="Trazado 54259" d="M352.113,513.107l-.233,21.383-9.367-.441-.25-20.777a4.931,4.931,0,0,1,5.729-5.178h0A4.929,4.929,0,0,1,352.113,513.107Z" transform="translate(-333.851 -491.789)" fill="#62cca2"/>
            <g id="Grupo_26737" data-name="Grupo 26737" transform="translate(8.024)">
              <path id="Trazado_54260" data-name="Trazado 54260" d="M364.091,510.256l-12.922,12.611a5.333,5.333,0,0,1-7.272-.231h0a5.335,5.335,0,0,1-.038-7.531l12.129-13.451a5.915,5.915,0,0,1,7.431-.809h0A5.914,5.914,0,0,1,364.091,510.256Z" transform="translate(-341.822 -497.892)" fill="#62cca2"/>
            </g>
          </g>
          <g id="Grupo_26740" data-name="Grupo 26740" transform="translate(21.391)">
            <g id="Grupo_26739" data-name="Grupo 26739">
              <path id="Trazado_54261" data-name="Trazado 54261" d="M372.779,501.1,354.406,499.9c-1.658-.109-4.611,2.9-4.438,4.551l-.01,29.811,23.66.775,2.4-30.261A3.476,3.476,0,0,0,372.779,501.1Z" transform="translate(-349.458 -497.892)" fill="#62cca2"/>
            </g>
            <path id="Trazado_54262" data-name="Trazado 54262" d="M349.958,512.73l5.336-5.208-5.334,14.105Z" transform="translate(-349.958 -494.166)" fill="#1d8f62"/>
          </g>
        </g>
        <g id="Grupo_26752" data-name="Grupo 26752" transform="translate(27.786)">
          <path id="Trazado_54263" data-name="Trazado 54263" d="M361.288,494.521a2.489,2.489,0,0,0,2.211,2.722,2.46,2.46,0,0,0,2.638-2.286,2.488,2.488,0,0,0-2.211-2.722A2.463,2.463,0,0,0,361.288,494.521Z" transform="translate(-347.858 -480.072)" fill="#fd5f44"/>
          <path id="Trazado_54264" data-name="Trazado 54264" d="M363.44,498.217l-.112,6a2.933,2.933,0,0,1-3.321,3.151h0c-1.715-.051-3.583-.917-3.475-2.775l.618-9.435Z" transform="translate(-351.423 -477.869)" fill="#eb9f86"/>
          <path id="Trazado_54265" data-name="Trazado 54265" d="M363.157,501.7s-4.9.32-6.312-5.213c-.445-1.744,6.4.606,6.4.606Z" transform="translate(-351.201 -477.358)" fill="#fd5f44"/>
          <path id="Trazado_54266" data-name="Trazado 54266" d="M362.445,505.9h0a6.336,6.336,0,0,0,6.461-5.553l.289-6.044a6.644,6.644,0,0,0-5.926-7.058h0c-3.582-.32-7.368,2.36-7.683,6.057l-.168,4.714A7.541,7.541,0,0,0,362.445,505.9Z" transform="translate(-351.76 -481.833)" fill="#eb9f86"/>
          <g id="Grupo_26748" data-name="Grupo 26748" transform="translate(7.882 9.852)">
            <g id="Grupo_26742" data-name="Grupo 26742" transform="translate(3.989 3.483)">
              <path id="Trazado_54267" data-name="Trazado 54267" d="M360.916,495.942a.523.523,0,0,1-.01-1.047l.292-.005-.116-1.421a.523.523,0,0,1,1.042-.086l.161,1.976a.521.521,0,0,1-.511.565l-.849.018Z" transform="translate(-360.393 -492.901)" fill="#fd5f44"/>
            </g>
            <g id="Grupo_26743" data-name="Grupo 26743">
              <path id="Trazado_54268" data-name="Trazado 54268" d="M359.6,490.916s1.406-.095,1.409.5c0,0-.009.4-1.234.457s-1.544-.042-1.649-.418S358.937,490.909,359.6,490.916Z" transform="translate(-358.114 -490.911)" fill="#322b2a"/>
            </g>
            <g id="Grupo_26744" data-name="Grupo 26744" transform="translate(6.087 1.375)">
              <path id="Trazado_54269" data-name="Trazado 54269" d="M362.853,491.713s-1.157-.143-1.26.408c0,0-.063.375.951.478s1.346-.024,1.448-.326C364.1,491.932,363.4,491.732,362.853,491.713Z" transform="translate(-361.592 -491.696)" fill="#322b2a"/>
            </g>
            <g id="Grupo_26745" data-name="Grupo 26745" transform="translate(6.463 3.06)">
              <path id="Trazado_54270" data-name="Trazado 54270" d="M361.807,493.237a.59.59,0,1,0,.62-.578A.6.6,0,0,0,361.807,493.237Z" transform="translate(-361.806 -492.659)" fill="#322b2a"/>
            </g>
            <g id="Grupo_26746" data-name="Grupo 26746" transform="translate(1.303 2.79)">
              <path id="Trazado_54271" data-name="Trazado 54271" d="M358.859,493.083a.59.59,0,1,0,.618-.578A.6.6,0,0,0,358.859,493.083Z" transform="translate(-358.859 -492.505)" fill="#322b2a"/>
            </g>
            <g id="Grupo_26747" data-name="Grupo 26747" transform="translate(2.201 6.331)">
              <path id="Trazado_54272" data-name="Trazado 54272" d="M361.389,496.28a2.292,2.292,0,0,1-1.992-1.07.523.523,0,0,1,.947-.429,1.511,1.511,0,0,0,1.39.41.522.522,0,1,1,.259,1.012A2.389,2.389,0,0,1,361.389,496.28Z" transform="translate(-359.372 -494.528)" fill="#fd5f44"/>
            </g>
          </g>
          <path id="Trazado_54273" data-name="Trazado 54273" d="M368.785,485.754c-1.313-.564-4.663-1.185-5.4,1.779-3.335-.256-8.641-.193-9.173,2.7-.784,4.247,2.232,8.457,2.232,8.457l.847.432s2.155-1.124,1.6-6.2c0,0,7.708,1.857,11.322-.1S372.729,487.45,368.785,485.754Z" transform="translate(-352.761 -483.283)" fill="#401f43"/>
          <g id="Grupo_26751" data-name="Grupo 26751" transform="translate(0 11.725)">
            <g id="Grupo_26749" data-name="Grupo 26749">
              <path id="Trazado_54274" data-name="Trazado 54274" d="M353.621,494.253a2.465,2.465,0,0,0,2.19,2.7,2.436,2.436,0,0,0,2.612-2.263,2.463,2.463,0,0,0-2.188-2.7A2.438,2.438,0,0,0,353.621,494.253Z" transform="translate(-353.612 -491.98)" fill="#eb9f86"/>
            </g>
            <g id="Grupo_26750" data-name="Grupo 26750" transform="translate(1.121 0.966)">
              <path id="Trazado_54275" data-name="Trazado 54275" d="M356.311,495.247l-.046,0a.523.523,0,0,1-.476-.564,1.316,1.316,0,0,0-.268-.912.86.86,0,0,0-.705-.187.513.513,0,0,1-.562-.48.525.525,0,0,1,.48-.564,1.867,1.867,0,0,1,1.532.5,2.359,2.359,0,0,1,.567,1.735A.523.523,0,0,1,356.311,495.247Z" transform="translate(-354.252 -492.532)" fill="#fd5f44"/>
            </g>
          </g>
          <path id="Trazado_54276" data-name="Trazado 54276" d="M355.2,500.072l11,.723s.348,3.79-4.543,3.529C356.155,504.03,355.2,500.072,355.2,500.072Z" transform="translate(-352.416 -474.183)" fill="#eb9f86"/>
        </g>
      </g>
    </g>
  </g>
</svg>
