<svg id="Grupo_27120" data-name="Grupo 27120" xmlns="http://www.w3.org/2000/svg" width="119.854" height="143.109" viewBox="0 0 119.854 143.109">
  <circle id="Elipse_1536" data-name="Elipse 1536" cx="58.821" cy="58.821" r="58.821" transform="translate(2.212 11.884)" fill="#badfff"/>
  <g id="Grupo_27114" data-name="Grupo 27114" transform="translate(64.511)">
    <g id="Grupo_27113" data-name="Grupo 27113">
      <path id="Trazado_55218" data-name="Trazado 55218" d="M219.472,322.315a2.423,2.423,0,0,0,1.453-1.711c.341-1.483-.337-3.506-2.185-3.184a4.7,4.7,0,0,0,1.607-1.6c.032-.064-.073-.062-.1-.021-1.438,2.166-3.113,1.914-5.58,2.232-.839.113-2.71.715-3.188,1.4a.752.752,0,0,0,.478,1.261,7.353,7.353,0,0,0,1.906-.152,4.359,4.359,0,0,1,2.9.862C217.515,321.888,218.483,322.737,219.472,322.315Z" transform="translate(-211.286 -299.924)" fill="#dd5864"/>
      <path id="Trazado_55219" data-name="Trazado 55219" d="M234.65,353.265c.937.427,1.972-.48,2.4-1.214a4.479,4.479,0,0,0,.393-2.405c-.051-1.142,4.571-2.544,5.378-2.9,3.807-1.709,5.412-4.253,7.185-7.968.337-.7.679-1.4.943-2.121a6.443,6.443,0,0,1,.589-1.707,2.706,2.706,0,0,1,1.364-.661c1.163-.378,2.373-.606,3.519-1.052,1.1-.427,2.629-1.02,3.1-2.162.634-1.53-.576-1.714-1.865-1.566-1.088.132-4.819.915-4.893-.809-.053-.849.038-1.705-.026-2.557a15.875,15.875,0,0,0-.67-3.485,15.473,15.473,0,0,0-2.868-5.346c-.61-.738-1.393-1.33-2-2.068a2.413,2.413,0,0,1-.149-2.539,7.855,7.855,0,0,0,.57-1.788,2.452,2.452,0,0,0-.8-2.4c-.664-.5-1.319.2-1.656.674-.634.869-.954,2.224-1.872,2.892-.96.687-1.948-.011-2.881-.252a19,19,0,0,0-3.929-.5,22.628,22.628,0,0,0-4.042.254,19.985,19.985,0,0,0-6.628,2.211c-1.364.764-2.87,2.128-4.191.557a4.554,4.554,0,0,0-2.074-1.735c-.922-.275-2.586-.706-3.2.369-.557,1,1.679,3.032,2.036,3.845.591,1.361,1.105,2.345.19,3.7-.627.92-1.184,1.861-1.716,2.83-2,3.683-2.192,8.719-1.261,12.6a13.419,13.419,0,0,0,.58,2.055c.237.578.706,1.2.527,1.844-.418,1.387-1.976,2.367-3.131,3.205-.7.5-1.923,1.492-1.9,2.435.03,1.364,1.609.928,2.435.662,1.7-.538,5.164-2.318,6.98-1.105,1.108.721,1.912,1.763,3.167,2.266a20.218,20.218,0,0,0,5.352,1.2c1.174.12,2.595-.292,3.417.747a3.7,3.7,0,0,1,.627,1.579C233.828,351.6,233.792,352.879,234.65,353.265Z" transform="translate(-210.833 -308.341)" fill="#e79e7c"/>
      <g id="Grupo_27110" data-name="Grupo 27110" transform="translate(20.802 3.801)">
        <path id="Trazado_55220" data-name="Trazado 55220" d="M223.791,320.083c-.933-.23-2.973-.89-2.738-2.038.117-.553.828-.839,1.248-1.144a5.662,5.662,0,0,0,1.594-1.534,14.972,14.972,0,0,0,1.438-3.212c.243-.691.811-2.5,1.955-1.921a1.847,1.847,0,0,1,.9,2.049c-.32,2.093-1.417,4.18-.662,6.312a1.445,1.445,0,0,1,.041,1.08c-.907.858-2.452.687-3.579.452C223.942,320.113,223.874,320.1,223.791,320.083Z" transform="translate(-221.034 -310.123)" fill="#e79e7c"/>
        <path id="Trazado_55221" data-name="Trazado 55221" d="M226.971,315.1c.132-1.242,1.338-3.323,0-4.3-1.041-.747-1.729,1.867-1.882,2.3-.632,1.793-1.946,4-3.939,4.524a6.429,6.429,0,0,1,1.016-.726,5.662,5.662,0,0,0,1.594-1.534,14.972,14.972,0,0,0,1.438-3.212c.243-.691.811-2.5,1.955-1.921a1.847,1.847,0,0,1,.9,2.049c-.32,2.093-1.417,4.18-.662,6.312a1.573,1.573,0,0,1,.115.7C226.378,318.565,226.863,316.188,226.971,315.1Z" transform="translate(-220.901 -310.123)" fill="#d0664b"/>
      </g>
      <g id="Grupo_27111" data-name="Grupo 27111" transform="translate(33.798 29.583)">
        <path id="Trazado_55222" data-name="Trazado 55222" d="M229.347,322.212a1.093,1.093,0,0,1,1.184.608,15.194,15.194,0,0,0,.875,2.113c.7,1.035,1.8,1.184,2.832,1.707.493.241,1.039.634.546,1.144a2.446,2.446,0,0,1-1.261.576,7.692,7.692,0,0,1-2.9-.361,11.3,11.3,0,0,1-2.623-.856c-1.236-.666-.975-2.012-.386-3.054A4.235,4.235,0,0,1,229.347,322.212Z" transform="translate(-227.124 -322.204)" fill="#e79e7c"/>
        <path id="Trazado_55223" data-name="Trazado 55223" d="M233.292,328.033a7.692,7.692,0,0,1-2.9-.361,11.3,11.3,0,0,1-2.623-.856,2.5,2.5,0,0,1-.444-.348,10.547,10.547,0,0,0,3.513.984c.638.109,2.84.734,3.252-.075.51-.982-1.24-1.212-1.822-1.571a4.416,4.416,0,0,1-1.912-2.3,6.392,6.392,0,0,1-.058-1.009h0a15.194,15.194,0,0,0,.875,2.113c.7,1.035,1.8,1.184,2.832,1.707.493.241,1.039.634.546,1.144A2.446,2.446,0,0,1,233.292,328.033Z" transform="translate(-226.894 -321.877)" fill="#d0664b"/>
      </g>
      <g id="Grupo_27112" data-name="Grupo 27112" transform="translate(13.28 28.413)">
        <path id="Trazado_55224" data-name="Trazado 55224" d="M218.761,324.808c.224-.832-.209-2.166-.023-3.152a7.38,7.38,0,0,1,.384,2.67,4.879,4.879,0,0,1-.8,2.123,2.6,2.6,0,0,0-.333.728c-.162.6-.239,2.117.851,1.854,1.033-.26,1.53-1.515,2.1-2.3a9.35,9.35,0,0,1,1.921-2.125,7.4,7.4,0,0,1-.506.557,20.079,20.079,0,0,0-2.136,2.936.431.431,0,0,0-.045.058,2.6,2.6,0,0,1-1.6,1.161,1.239,1.239,0,0,1-.267-.028c-1.082-.248-.847-1.372-.514-2.123A13.636,13.636,0,0,0,218.761,324.808Z" transform="translate(-217.509 -321.656)" fill="#d0664b"/>
      </g>
    </g>
    <path id="Trazado_55225" data-name="Trazado 55225" d="M237.508,352.051a4.479,4.479,0,0,0,.393-2.405c-.051-1.142,4.571-2.544,5.378-2.9a11.719,11.719,0,0,0,4.381-3.263c.32.077.623.162.926.237a7.692,7.692,0,0,0,2.9.361,2.446,2.446,0,0,0,1.261-.576.745.745,0,0,0,.179-.305,4.523,4.523,0,0,1-1.761.006c-1.522-.156-3.747-.625-4.757-1.914-.689-.877.446-2.446,1.477-2.253.527.094.74.638.982,1.056a2.348,2.348,0,0,0,.657.747.126.126,0,0,0-.06-.073c.335-.629.67-1.285,1-1.991s.679-1.4.943-2.121a6.443,6.443,0,0,1,.589-1.707,2.706,2.706,0,0,1,1.364-.661c1.163-.378,2.373-.606,3.519-1.052,1.1-.427,2.629-1.02,3.1-2.162a1.3,1.3,0,0,0,.077-1.144,2.979,2.979,0,0,1-.169.442,2.833,2.833,0,0,1-1.714,1.169,29.047,29.047,0,0,1-2.945.749c-1.223.256-2.4.079-2.5-1.332a5.405,5.405,0,0,1,.489-2.388c-.032-.809.045-1.62-.019-2.428a15.875,15.875,0,0,0-.67-3.485,15.473,15.473,0,0,0-2.868-5.346c-.61-.738-1.393-1.33-2-2.068a2.413,2.413,0,0,1-.149-2.539,7.855,7.855,0,0,0,.57-1.788,2.452,2.452,0,0,0-.8-2.4c-.664-.5-1.319.2-1.656.674-.634.869-.954,2.224-1.872,2.892-.96.687-1.948-.011-2.881-.252a19,19,0,0,0-3.929-.5,22.628,22.628,0,0,0-4.042.254,19.985,19.985,0,0,0-6.628,2.211c-1.364.764-2.87,2.128-4.191.557a4.554,4.554,0,0,0-2.074-1.735c-.922-.275-2.586-.706-3.2.369-.557,1,1.679,3.032,2.036,3.845.591,1.361,1.105,2.345.19,3.7-.627.92-1.184,1.861-1.716,2.83a13.226,13.226,0,0,0-1.159,2.93c-.461.043-.967.09-1.5.156-.839.113-2.71.715-3.188,1.4a.752.752,0,0,0,.478,1.261,7.353,7.353,0,0,0,1.906-.152,4.038,4.038,0,0,1,1.773.258,20.731,20.731,0,0,0,.429,6.75,13.419,13.419,0,0,0,.58,2.055c.237.578.706,1.2.527,1.844-.418,1.387-1.976,2.367-3.131,3.205-.7.5-1.923,1.492-1.9,2.435.03,1.364,1.609.928,2.435.662,1.7-.538,5.164-2.318,6.98-1.105,1.108.721,1.912,1.763,3.167,2.266a20.218,20.218,0,0,0,5.352,1.2c1.174.12,2.595-.292,3.417.747a3.7,3.7,0,0,1,.627,1.579c.164.755.128,2.032.986,2.418C236.04,353.692,237.075,352.785,237.508,352.051Zm-19.592-11.479a1.836,1.836,0,0,1,.115,1.889,4.01,4.01,0,0,1-1.882,1.711c-.777.412-1.618.7-2.416,1.063-.4.177-1,.384-1.178-.156-.179-.578.73-1.129,1.09-1.374.8-.563,1.673-1.02,2.514-1.534a4.79,4.79,0,0,0,.493-.525C216.86,341.37,217.414,340.028,217.916,340.572Zm-4.473-13.514a5.767,5.767,0,0,1,1.556-.384c.23-.013.687.028.653.376-.045.619-.7.928-1.2,1.15-.514.22-2.712,1.067-2.887.079C211.45,327.606,212.589,327.254,213.443,327.058Zm31.075-14.287c-.913-.28.158-1.2.516-1.573a11.52,11.52,0,0,1,1.231-2.042.412.412,0,0,1,.653-.036,1.6,1.6,0,0,1,.041,1.492,4.024,4.024,0,0,1-1.159,1.566C245.5,312.436,244.941,312.894,244.518,312.771Zm-18.305,29.88c-.589-.474.117-1.916.29-2.422a4.214,4.214,0,0,0-.636-4.208c-.467,1.82-.521,4.81-2.985,4.976-1.916.126-3.205-2-3.941-3.478a16.685,16.685,0,0,1-.612-13.158c.177-2.2,2.341-4.206,1.807-6.536a7.215,7.215,0,0,0-1.8-2.815,4.786,4.786,0,0,1-1.152-1.6.962.962,0,0,1,.036-.555,1.3,1.3,0,0,1,.356-.25,1.825,1.825,0,0,1,1.058-.066,5.552,5.552,0,0,1,3.355,2.23,2.816,2.816,0,0,0,1.918.715,4.441,4.441,0,0,0,1.743-.531,42.4,42.4,0,0,1,7.369-3.026,3.379,3.379,0,0,1,2.55.066c.926.647.128,2.232-.2,2.968a24.459,24.459,0,0,1-2.5,4.249,5.123,5.123,0,0,0,2.589-2.557c.395-.745.738-1.539,1.122-2.3.013-.03.036-.07.047-.092.245-.913.685-2.068,1.522-1.645,1.315.661.659,2.992.1,4.415-.233,1.5-.487,3.229.542,4.332-.728-2.505,1.063-6.807,4.069-6.161,1.848.393,3.346,2.174,4.238,3.726a13.1,13.1,0,0,1,1.545,6.039,15.537,15.537,0,0,1-4.306,10.952,13.993,13.993,0,0,1-5.471,3.338,22.668,22.668,0,0,1-4.554,1.144,14.623,14.623,0,0,1-2.52-.011,8.072,8.072,0,0,0-2.07-.1,1.188,1.188,0,0,0-.557.292,8.029,8.029,0,0,0-.96,1.1C227.76,342.183,226.968,343.265,226.213,342.651Zm9.543,10.322c-.762-.088-.83-1.182-.924-1.729a12.852,12.852,0,0,0-.391-2.017,2.141,2.141,0,0,0-1.09-1.434c-.228-.1-.476-.126-.7-.23-.506-.254-.847-.734-.326-1.165a3.769,3.769,0,0,1,2.409-.48,3.126,3.126,0,0,1,2.732,3.041,4.4,4.4,0,0,1-.079,2.576C237.162,352.243,236.577,353.077,235.756,352.973Z" transform="translate(-211.286 -308.341)" fill="#d0664b" opacity="0.4" style="mix-blend-mode: multiply;isolation: isolate"/>
    <path id="Trazado_55226" data-name="Trazado 55226" d="M222.084,316.131c1.361-1.344,2-3.476,2.725-5.2.009-.049.09-.073.064,0-.482,2.017-.977,4-2.768,5.275C222.037,316.251,222.063,316.14,222.084,316.131Z" transform="translate(-199.068 -305.454)" fill="#f8ebe0" style="mix-blend-mode: overlay;isolation: isolate"/>
    <path id="Trazado_55227" data-name="Trazado 55227" d="M218.129,312.643c-.619-.373-1.146-.854-1.773-1.206a5.078,5.078,0,0,0-2.057-.787c-.053-.008-.006-.1.043-.119a2.672,2.672,0,0,1,1.921.188,2.727,2.727,0,0,1,.847.672,8.253,8.253,0,0,1,1.129,1.09C218.278,312.528,218.2,312.671,218.129,312.643Z" transform="translate(-207.897 -305.982)" fill="#f8ebe0" style="mix-blend-mode: overlay;isolation: isolate"/>
    <path id="Trazado_55228" data-name="Trazado 55228" d="M211.591,318.086a2.433,2.433,0,0,1,.685-.63,3.167,3.167,0,0,1,1.231-.258c.053-.013.021.075,0,.081a4.514,4.514,0,0,1-.994.448c-.316.1-.593.3-.886.423C211.57,318.182,211.574,318.1,211.591,318.086Z" transform="translate(-210.954 -298.299)" fill="#f8ebe0" style="mix-blend-mode: overlay;isolation: isolate"/>
    <path id="Trazado_55229" data-name="Trazado 55229" d="M218.392,325.843c-.423-.962.61-2.029.627-2.979,0-.028.06-.107.068-.047a2.417,2.417,0,0,1-.03,1.091c-.1.659-.506,1.227-.576,1.88C218.482,325.83,218.418,325.915,218.392,325.843Z" transform="translate(-203.344 -291.952)" fill="#f8ebe0" style="mix-blend-mode: overlay;isolation: isolate"/>
    <path id="Trazado_55230" data-name="Trazado 55230" d="M229.6,324.824c-.433-.35-.521-.873-.851-1.285-.034-.043.041-.162.081-.126a1.461,1.461,0,0,1,.344.38,4.038,4.038,0,0,0,.542.572,6.546,6.546,0,0,0,1.359.881c.053.043,0,.179-.064.169A2.991,2.991,0,0,1,229.6,324.824Z" transform="translate(-191.499 -291.258)" fill="#f8ebe0" style="mix-blend-mode: overlay;isolation: isolate"/>
  </g>
  <g id="Grupo_27119" data-name="Grupo 27119" transform="translate(0 46.065)">
    <g id="Grupo_27118" data-name="Grupo 27118">
      <path id="Trazado_55231" data-name="Trazado 55231" d="M198.7,360.039a5.216,5.216,0,0,0,3.131-3.685c.736-3.2-.728-7.559-4.708-6.863a10.212,10.212,0,0,0,3.463-3.459c.07-.137-.156-.132-.211-.045-3.1,4.669-6.711,4.123-12.027,4.81-1.805.243-5.841,1.541-6.871,3.007a1.623,1.623,0,0,0,1.031,2.719c1.206.275,2.915-.245,4.106-.326a9.353,9.353,0,0,1,6.253,1.859C194.479,359.122,196.566,360.951,198.7,360.039Z" transform="translate(-181.056 -311.788)" fill="#dd5864"/>
      <path id="Trazado_55232" data-name="Trazado 55232" d="M231.4,426.736c2.019.92,4.249-1.033,5.181-2.618a9.6,9.6,0,0,0,.847-5.183c-.109-2.458,9.848-5.478,11.59-6.244,8.205-3.687,11.664-9.168,15.482-17.172.726-1.511,1.464-3.022,2.034-4.573.42-1.184.514-2.64,1.27-3.681.61-.824,1.927-1.095,2.936-1.425,2.51-.811,5.115-1.3,7.582-2.264,2.379-.922,5.668-2.2,6.694-4.658,1.366-3.3-1.24-3.694-4.02-3.374-2.343.284-10.382,1.97-10.546-1.748-.113-1.827.083-3.673-.053-5.506a34.217,34.217,0,0,0-1.443-7.512,33.316,33.316,0,0,0-6.182-11.517c-1.317-1.592-3-2.866-4.3-4.456-1.351-1.7-1.041-3.5-.322-5.471a16.887,16.887,0,0,0,1.231-3.856,5.284,5.284,0,0,0-1.729-5.171c-1.426-1.091-2.84.425-3.566,1.449-1.366,1.872-2.055,4.793-4.033,6.231-2.072,1.483-4.2-.021-6.21-.54a40.784,40.784,0,0,0-8.463-1.082,48.705,48.705,0,0,0-8.711.546,43.116,43.116,0,0,0-14.283,4.763c-2.941,1.647-6.186,4.588-9.033,1.2-1.216-1.468-2.458-3.143-4.469-3.743-1.989-.591-5.574-1.519-6.891.8-1.2,2.162,3.617,6.536,4.385,8.288,1.276,2.936,2.386,5.053.414,7.97a70.485,70.485,0,0,0-3.7,6.1c-4.3,7.936-4.727,18.79-2.717,27.148a28.71,28.71,0,0,0,1.251,4.43c.506,1.244,1.519,2.595,1.131,3.971-.9,2.99-4.257,5.1-6.746,6.908-1.5,1.082-4.14,3.216-4.1,5.245.066,2.938,3.468,2,5.245,1.428,3.666-1.157,11.133-4.993,15.047-2.381,2.386,1.554,4.119,3.8,6.824,4.885a43.489,43.489,0,0,0,11.532,2.593c2.527.256,5.589-.632,7.362,1.609a7.97,7.97,0,0,1,1.353,3.406C229.633,423.155,229.556,425.9,231.4,426.736Z" transform="translate(-180.08 -329.928)" fill="#e79e7c"/>
      <g id="Grupo_27115" data-name="Grupo 27115" transform="translate(44.826 8.191)">
        <path id="Trazado_55233" data-name="Trazado 55233" d="M208,355.229c-2.008-.5-6.406-1.918-5.9-4.394.254-1.191,1.786-1.805,2.691-2.463a12.218,12.218,0,0,0,3.434-3.305,32.205,32.205,0,0,0,3.1-6.92c.525-1.492,1.746-5.384,4.212-4.138a3.98,3.98,0,0,1,1.946,4.413c-.689,4.511-3.054,9.008-1.425,13.6a3.124,3.124,0,0,1,.083,2.33c-1.955,1.846-5.284,1.479-7.712.969C208.329,355.293,208.182,355.265,208,355.229Z" transform="translate(-202.062 -333.766)" fill="#e79e7c"/>
        <path id="Trazado_55234" data-name="Trazado 55234" d="M214.855,344.487c.286-2.676,2.885-7.159.006-9.259-2.243-1.609-3.724,4.025-4.055,4.961-1.364,3.86-4.2,8.619-8.491,9.75a13.785,13.785,0,0,1,2.189-1.566,12.218,12.218,0,0,0,3.434-3.305,32.205,32.205,0,0,0,3.1-6.92c.525-1.492,1.746-5.384,4.212-4.138a3.98,3.98,0,0,1,1.946,4.413c-.689,4.511-3.054,9.008-1.425,13.6a3.429,3.429,0,0,1,.245,1.515C213.579,351.96,214.621,346.836,214.855,344.487Z" transform="translate(-201.774 -333.766)" fill="#d0664b"/>
      </g>
      <g id="Grupo_27116" data-name="Grupo 27116" transform="translate(72.835 63.751)">
        <path id="Trazado_55235" data-name="Trazado 55235" d="M219.973,359.819a2.357,2.357,0,0,1,2.554,1.31c.713,1.517.943,3.126,1.889,4.552,1.5,2.232,3.882,2.554,6.1,3.679,1.058.521,2.239,1.364,1.174,2.467a5.269,5.269,0,0,1-2.719,1.24c-2.078.329-4.208-.3-6.244-.777a24.149,24.149,0,0,1-5.651-1.846c-2.663-1.432-2.1-4.334-.83-6.579A9.122,9.122,0,0,1,219.973,359.819Z" transform="translate(-215.187 -359.802)" fill="#e79e7c"/>
        <path id="Trazado_55236" data-name="Trazado 55236" d="M228.476,372.361c-2.078.329-4.208-.3-6.244-.777a24.149,24.149,0,0,1-5.651-1.846,4.943,4.943,0,0,1-.954-.749c2.315,1.3,4.919,1.673,7.565,2.123,1.379.233,6.122,1.579,7.012-.164,1.1-2.113-2.674-2.612-3.931-3.384-1.65-1.084-3.653-2.958-4.119-4.966a13.982,13.982,0,0,1-.126-2.174h0c.713,1.517.943,3.126,1.889,4.552,1.5,2.232,3.882,2.554,6.1,3.679,1.058.521,2.239,1.364,1.174,2.467A5.269,5.269,0,0,1,228.476,372.361Z" transform="translate(-214.688 -359.097)" fill="#d0664b"/>
      </g>
      <g id="Grupo_27117" data-name="Grupo 27117" transform="translate(28.618 61.23)">
        <path id="Trazado_55237" data-name="Trazado 55237" d="M197.163,365.411c.484-1.795-.448-4.669-.049-6.79a15.985,15.985,0,0,1,.83,5.749,10.537,10.537,0,0,1-1.735,4.577,5.575,5.575,0,0,0-.717,1.569c-.35,1.3-.516,4.56,1.831,3.995,2.23-.559,3.3-3.261,4.52-4.966a20.112,20.112,0,0,1,4.138-4.58,15.328,15.328,0,0,1-1.09,1.2,43.164,43.164,0,0,0-4.605,6.325,1.248,1.248,0,0,0-.1.128c-.965,1.221-2,2.311-3.438,2.5a2.85,2.85,0,0,1-.574-.062c-2.332-.531-1.827-2.958-1.11-4.575A28.956,28.956,0,0,0,197.163,365.411Z" transform="translate(-194.467 -358.621)" fill="#d0664b"/>
      </g>
    </g>
    <path id="Trazado_55238" data-name="Trazado 55238" d="M237.561,424.118a9.6,9.6,0,0,0,.847-5.183c-.109-2.458,9.848-5.478,11.59-6.244a25.257,25.257,0,0,0,9.441-7.036c.689.169,1.342.354,2,.512,2.036.48,4.166,1.105,6.244.777a5.269,5.269,0,0,0,2.719-1.24,1.606,1.606,0,0,0,.388-.657,9.781,9.781,0,0,1-3.794.013c-3.278-.335-8.075-1.351-10.254-4.127-1.485-1.889.965-5.267,3.186-4.855,1.133.2,1.6,1.376,2.113,2.275a5.083,5.083,0,0,0,1.417,1.611.258.258,0,0,0-.128-.156c.723-1.357,1.445-2.77,2.155-4.289.726-1.511,1.464-3.022,2.034-4.573.42-1.184.514-2.64,1.27-3.681.61-.824,1.927-1.095,2.936-1.425,2.51-.811,5.115-1.3,7.582-2.264,2.379-.922,5.668-2.2,6.694-4.658a2.784,2.784,0,0,0,.164-2.465,6.821,6.821,0,0,1-.361.954,6.116,6.116,0,0,1-3.694,2.518,62.205,62.205,0,0,1-6.344,1.613c-2.64.553-5.164.171-5.4-2.87a11.644,11.644,0,0,1,1.052-5.143c-.066-1.743.1-3.491-.041-5.235a34.213,34.213,0,0,0-1.443-7.512,33.315,33.315,0,0,0-6.182-11.517c-1.317-1.592-3-2.866-4.3-4.456-1.351-1.7-1.041-3.5-.322-5.471a16.885,16.885,0,0,0,1.231-3.856,5.284,5.284,0,0,0-1.729-5.171c-1.426-1.091-2.84.425-3.566,1.449-1.366,1.872-2.055,4.793-4.033,6.231-2.072,1.483-4.2-.021-6.21-.54a40.784,40.784,0,0,0-8.463-1.082,48.705,48.705,0,0,0-8.711.546,43.116,43.116,0,0,0-14.283,4.763c-2.941,1.647-6.186,4.588-9.033,1.2-1.216-1.468-2.458-3.143-4.469-3.743-1.989-.591-5.574-1.519-6.891.8-1.2,2.162,3.617,6.536,4.385,8.288,1.276,2.936,2.386,5.053.414,7.97a70.485,70.485,0,0,0-3.7,6.1,28.513,28.513,0,0,0-2.5,6.31c-1,.092-2.087.2-3.235.339-1.805.243-5.841,1.541-6.871,3.007a1.623,1.623,0,0,0,1.031,2.719c1.206.275,2.915-.245,4.106-.326a8.62,8.62,0,0,1,3.822.555,44.646,44.646,0,0,0,.928,14.545,28.71,28.71,0,0,0,1.251,4.43c.506,1.244,1.519,2.595,1.131,3.971-.9,2.99-4.257,5.1-6.746,6.908-1.5,1.082-4.14,3.216-4.1,5.245.066,2.938,3.468,2,5.245,1.428,3.666-1.157,11.133-4.993,15.047-2.381,2.386,1.554,4.119,3.8,6.824,4.885a43.489,43.489,0,0,0,11.532,2.593c2.527.256,5.589-.632,7.362,1.609a7.97,7.97,0,0,1,1.353,3.406c.352,1.626.275,4.375,2.123,5.207C234.4,427.656,236.629,425.7,237.561,424.118Zm-42.221-24.735c.954.948.8,2.941.25,4.069a8.593,8.593,0,0,1-4.055,3.688c-1.673.89-3.487,1.509-5.207,2.292-.868.382-2.157.83-2.539-.335-.382-1.248,1.575-2.433,2.35-2.962,1.737-1.212,3.606-2.2,5.418-3.308a9.889,9.889,0,0,0,1.063-1.131C193.066,401.1,194.263,398.213,195.341,399.383Zm-9.635-29.12a12.253,12.253,0,0,1,3.35-.828c.5-.03,1.479.06,1.406.807-.1,1.336-1.5,2-2.574,2.48-1.11.476-5.847,2.3-6.225.171C181.41,371.442,183.864,370.683,185.706,370.262Zm66.964-30.787c-1.97-.6.339-2.578,1.114-3.391a24.426,24.426,0,0,1,2.653-4.4.888.888,0,0,1,1.406-.079c.734.834.42,2.281.085,3.214a8.606,8.606,0,0,1-2.495,3.378C254.776,338.75,253.579,339.738,252.67,339.475Zm-39.449,64.386c-1.268-1.022.254-4.129.627-5.218a9.085,9.085,0,0,0-1.372-9.069c-1.007,3.92-1.118,10.363-6.432,10.723-4.129.273-6.908-4.313-8.493-7.495a35.952,35.952,0,0,1-1.321-28.354c.384-4.746,5.043-9.067,3.892-14.089-.566-2.377-2.339-4.264-3.882-6.067-.834-.98-2.143-2.151-2.482-3.451a2.115,2.115,0,0,1,.079-1.2,2.877,2.877,0,0,1,.77-.538,3.905,3.905,0,0,1,2.277-.141c3.184.459,5.262,2.542,7.23,4.806a6.074,6.074,0,0,0,4.133,1.539,9.538,9.538,0,0,0,3.758-1.144c5.16-2.424,10.326-5.1,15.881-6.521,1.641-.393,3.935-.9,5.5.141,1.993,1.4.273,4.81-.446,6.4a52.631,52.631,0,0,1-5.39,9.157c2.439-.943,4.159-2.887,5.576-5.51.851-1.6,1.594-3.316,2.422-4.966.026-.066.075-.151.1-.2.534-1.968,1.477-4.454,3.284-3.545,2.83,1.43,1.419,6.451.22,9.518-.5,3.239-1.052,6.955,1.165,9.334-1.568-5.4,2.29-14.671,8.771-13.276,3.984.847,7.213,4.686,9.131,8.03a28.116,28.116,0,0,1,3.329,13.013,33.482,33.482,0,0,1-9.276,23.6,30.133,30.133,0,0,1-11.792,7.194A48.962,48.962,0,0,1,230.662,399a31.459,31.459,0,0,1-5.435-.021c-1.411-.077-3.088-.531-4.458-.22a2.537,2.537,0,0,0-1.2.627,17.2,17.2,0,0,0-2.072,2.364C216.555,402.857,214.852,405.189,213.221,403.862ZM233.789,426.1c-1.643-.188-1.79-2.544-1.991-3.724a28.012,28.012,0,0,0-.845-4.345,4.594,4.594,0,0,0-2.347-3.09c-.491-.207-1.026-.269-1.5-.5-1.09-.549-1.822-1.583-.7-2.514,1.3-1.041,3.634-1.144,5.192-1.031,3.434.262,5.676,3.335,5.883,6.551a9.48,9.48,0,0,1-.166,5.548C236.819,424.536,235.56,426.331,233.789,426.1Z" transform="translate(-181.056 -329.928)" fill="#d0664b" opacity="0.4" style="mix-blend-mode: multiply;isolation: isolate"/>
    <path id="Trazado_55239" data-name="Trazado 55239" d="M204.325,346.712c2.934-2.894,4.311-7.486,5.871-11.2.021-.1.194-.154.139.011-1.039,4.345-2.106,8.626-5.964,11.37C204.227,346.974,204.278,346.731,204.325,346.712Z" transform="translate(-154.725 -323.705)" fill="#f8ebe0" style="mix-blend-mode: overlay;isolation: isolate"/>
    <path id="Trazado_55240" data-name="Trazado 55240" d="M195.8,339.2c-1.332-.8-2.469-1.842-3.822-2.6-1.219-.668-2.99-1.686-4.432-1.7-.113-.017-.013-.226.092-.26a5.778,5.778,0,0,1,4.142.408A5.914,5.914,0,0,1,193.6,336.5a17.961,17.961,0,0,1,2.433,2.352C196.125,338.947,195.957,339.258,195.8,339.2Z" transform="translate(-173.753 -324.843)" fill="#f8ebe0" style="mix-blend-mode: overlay;isolation: isolate"/>
    <path id="Trazado_55241" data-name="Trazado 55241" d="M181.713,350.928a5.359,5.359,0,0,1,1.477-1.359,6.8,6.8,0,0,1,2.65-.553c.115-.03.049.16,0,.175a10.005,10.005,0,0,1-2.143.967c-.681.218-1.278.651-1.908.909C181.664,351.133,181.677,350.958,181.713,350.928Z" transform="translate(-180.339 -308.286)" fill="#f8ebe0" style="mix-blend-mode: overlay;isolation: isolate"/>
    <path id="Trazado_55242" data-name="Trazado 55242" d="M196.367,367.641c-.907-2.072,1.317-4.373,1.353-6.417-.006-.06.128-.233.149-.1a5.269,5.269,0,0,1-.068,2.349c-.2,1.421-1.088,2.646-1.242,4.055C196.56,367.617,196.423,367.8,196.367,367.641Z" transform="translate(-163.94 -294.609)" fill="#f8ebe0" style="mix-blend-mode: overlay;isolation: isolate"/>
    <path id="Trazado_55243" data-name="Trazado 55243" d="M220.515,365.445c-.935-.753-1.125-1.882-1.835-2.766-.077-.092.087-.35.173-.271a3.15,3.15,0,0,1,.743.815,8.385,8.385,0,0,0,1.167,1.231,13.938,13.938,0,0,0,2.928,1.9c.117.094.006.388-.139.363A6.464,6.464,0,0,1,220.515,365.445Z" transform="translate(-138.415 -293.112)" fill="#f8ebe0" style="mix-blend-mode: overlay;isolation: isolate"/>
  </g>
</svg>
