<svg id="Grupo_27100" data-name="Grupo 27100" xmlns="http://www.w3.org/2000/svg" width="147.409" height="117.642" viewBox="0 0 147.409 117.642">
  <circle id="Elipse_1534" data-name="Elipse 1534" cx="58.821" cy="58.821" r="58.821" transform="translate(17.05)" fill="#badfff"/>
  <g id="Grupo_27096" data-name="Grupo 27096" transform="translate(98.169 17.865)">
    <g id="Grupo_27094" data-name="Grupo 27094">
      <path id="Trazado_55158" data-name="Trazado 55158" d="M190.626,329.437a3.9,3.9,0,0,0-2.706-4.279c-1.093-.2-1.191-.233-1.878-1.477s-1.827-2.352-2.83-2.362a3.08,3.08,0,0,1-2.341-1.073,3.266,3.266,0,0,0-2.83-1.116c-1.229.16-1.775.171-2.354-.335a4.205,4.205,0,0,0-3.116-1.362c-1.571.077-3.02,1.122-4.279.408a3.112,3.112,0,0,0-3.7.053,3.21,3.21,0,0,1-3.252.6,3.2,3.2,0,0,0-3.052,1.159c-.555.751-1.323,1.692-1.976,1.769a1.872,1.872,0,0,0-1.918,1.833,3.44,3.44,0,0,1-2.113,3.043,3.2,3.2,0,0,0-2.017,2.749,3.42,3.42,0,0,1-.937,2.627c-.8.924-1.389,1.268-1.261,2.339a2.028,2.028,0,0,1-1.312,2.578,2.29,2.29,0,0,0-1.176,2.341c.241,1.323,1.6,1.317.307,3.154-1.033,1.46,0,2.452.826,3.171s-1.159,2.61,1.413,5.642c1.421,1.782-.2,4.447,3.131,6.526,1.769,1.093,1.189,2.781,2.51,3.688,1.338.892,3.3.563,3.92,2.172s3,2.347,4.648,1.652c1.65-.666,2.209,0,3.591.856,1.379.83,2.181.211,3.419-.3a5.846,5.846,0,0,1,4.609.051c2.181.755,2.828-.1,4.065-1.835,1.259-1.729.96-1.191,2.33-1.334s1.321-1.129,2.279-1.62-.036-2.492,1.66-3.045a2.8,2.8,0,0,0,2.307-2.309c.271-1.009.181-.542,1.451-.77a3.728,3.728,0,0,0,2.548-3.941c-.226-1.961-.087-2.633,1.058-3.128s2.945-1.863,1.566-4.018c-.644-1.272-.28-1.3.354-1.628s.606-.886.216-1.671.346-.589.751-1.368c.423-.781-.07-1.827-.926-2.578s-.561-.76-.591-1.573c0-.787-2.053-1.161-1.223-2.2s-.011-1.509-.694-1.835C190.413,330.344,190.5,330.021,190.626,329.437Z" transform="translate(-145.452 -317.258)" fill="#ebecec"/>
      <path id="Trazado_55159" data-name="Trazado 55159" d="M179.566,327.775a2.778,2.778,0,0,0-1.936-3.069c-.8-.158-.871-.184-1.355-1.071-.5-.9-1.334-1.7-2.04-1.7a2.277,2.277,0,0,1-1.7-.777,2.388,2.388,0,0,0-2.044-.815c-.879.13-1.268.13-1.688-.237a3,3,0,0,0-2.234-.975c-1.146.053-2.187.8-3.084.294a2.272,2.272,0,0,0-2.678.026,2.294,2.294,0,0,1-2.352.435,2.3,2.3,0,0,0-2.192.847c-.4.536-.962,1.206-1.419,1.268a1.334,1.334,0,0,0-1.385,1.312,2.515,2.515,0,0,1-1.519,2.2,2.32,2.32,0,0,0-1.468,1.98,2.367,2.367,0,0,1-.676,1.893c-.572.662-1,.913-.881,1.7a1.471,1.471,0,0,1-.965,1.837,1.661,1.661,0,0,0-.847,1.688c.175.958,1.154.954.22,2.271-.738,1.065,0,1.78.587,2.292s-.824,1.884,1.02,4.067c1.044,1.276-.149,3.192,2.273,4.7,1.268.8.843,2.008,1.805,2.65s2.373.418,2.808,1.564a2.673,2.673,0,0,0,3.348,1.193c1.2-.478,1.609.006,2.6.619s1.577.164,2.458-.222a4.3,4.3,0,0,1,3.338.058c1.566.538,2.025-.081,2.924-1.325s.691-.849,1.675-.965.958-.807,1.647-1.178c.689-.337-.023-1.778,1.2-2.166a2.058,2.058,0,0,0,1.652-1.686c.19-.723.145-.384,1.046-.542a2.726,2.726,0,0,0,1.842-2.851c-.162-1.4-.06-1.889.766-2.26s2.113-1.334,1.125-2.891c-.465-.92-.2-.948.248-1.176s.44-.649.158-1.2.248-.427.548-.988a1.63,1.63,0,0,0-.674-1.852c-.617-.538-.414-.561-.418-1.131s-1.492-.851-.89-1.6-.006-1.078-.5-1.334C179.414,328.426,179.491,328.193,179.566,327.775Z" transform="translate(-143.683 -315.281)" fill="#fff"/>
      <path id="Trazado_55160" data-name="Trazado 55160" d="M185.748,324.179c-1.093-.2-1.191-.233-1.878-1.477s-1.827-2.352-2.83-2.362a3.08,3.08,0,0,1-2.341-1.073,3.266,3.266,0,0,0-2.83-1.116c-.16.019-.3.032-.427.051a2.975,2.975,0,0,1,.235.482c.463,1.212.6,2.486,1.874,3.167a13.117,13.117,0,0,1,2.717,1.468,3.481,3.481,0,0,1,1.1,1.453,15.983,15.983,0,0,0,.647,2.548c.676,1.312,1.912,2.341,2.332,3.777a4,4,0,0,1,.079,2.068,7.789,7.789,0,0,0-.437,2.1c.043,1.575,1.517,2.736,1.7,4.3a3.37,3.37,0,0,1-.4,2.091,22.532,22.532,0,0,1-2.253,2.588c-.726.937-.58,2.1-.937,3.188a7.028,7.028,0,0,1-1.438,2.576,7.439,7.439,0,0,1-2.364,1.857,13.71,13.71,0,0,1-2.958.9,3.421,3.421,0,0,0-1.822.881c-.442.508-.779,1.076-1.161,1.613a6.466,6.466,0,0,1-4.989,2.6,11.653,11.653,0,0,1-3.118-.348,8,8,0,0,0-2.074-.258c-1.458.107-2.435,1.308-3.709,1.831a4.765,4.765,0,0,1-4.752-.647,16.566,16.566,0,0,0-2.475-1.79c-.871-.45-1.767-.845-2.674-1.242a6.464,6.464,0,0,1-1.191-.653,5,5,0,0,0,1.714,1.686c1.769,1.093,1.189,2.781,2.51,3.688,1.338.892,3.3.563,3.92,2.172s3,2.347,4.648,1.652c1.65-.666,2.209,0,3.591.856,1.379.83,2.181.211,3.419-.3a5.846,5.846,0,0,1,4.609.051c2.181.755,2.828-.1,4.065-1.835,1.259-1.729.96-1.191,2.33-1.334s1.321-1.129,2.279-1.62-.036-2.492,1.66-3.045a2.8,2.8,0,0,0,2.307-2.309c.271-1.009.181-.542,1.451-.77a3.728,3.728,0,0,0,2.548-3.941c-.226-1.961-.087-2.633,1.058-3.128s2.945-1.863,1.566-4.018c-.644-1.272-.28-1.3.354-1.628s.606-.886.216-1.671.346-.589.751-1.368c.423-.781-.07-1.827-.926-2.578s-.561-.76-.591-1.573c0-.787-2.053-1.161-1.223-2.2s-.011-1.509-.694-1.835c-.691-.344-.6-.666-.478-1.25A3.9,3.9,0,0,0,185.748,324.179Z" transform="translate(-143.279 -316.279)" fill="#7f7f7f" opacity="0.2" style="mix-blend-mode: multiply;isolation: isolate"/>
      <path id="Trazado_55161" data-name="Trazado 55161" d="M179.559,321.276a5.707,5.707,0,0,0-1.613-1.9,15.507,15.507,0,0,1,.826,1.886,4.232,4.232,0,0,0,1.11,2.021c.346.3.706.553,1.067.828a3.047,3.047,0,0,1,1.182,3.192c-.211,2.089,1.773,3.229,2.078,5.134.156.9.083,1.788.286,2.687.179.734.359,1.453.5,2.2a4.163,4.163,0,0,1-.869,3.824,5.78,5.78,0,0,0-1.867,2.842c-.156.937-.124,1.861-.341,2.793-.5,2.119-2.021,3.357-3.884,4.287-1.105.538-2.294.979-2.71,2.273a7.383,7.383,0,0,1-1.067,2.518c-1.088,1.3-2.554.967-4.052,1.182a4.277,4.277,0,0,0-2.281,1.033,13.3,13.3,0,0,1-1.7,1.413c-1.472.879-2.851.2-4.215-.521-1.632-.871-2.951.043-4.294,1.031-1.366,1-2.81,1.935-4.6,1.515a16.818,16.818,0,0,1-1.946-.713.264.264,0,0,1,.032.075c.636,1.607,3,2.347,4.648,1.652,1.65-.666,2.209,0,3.591.856,1.379.83,2.181.211,3.419-.3a5.846,5.846,0,0,1,4.609.051c2.181.755,2.828-.1,4.065-1.835,1.259-1.729.96-1.191,2.33-1.334s1.321-1.129,2.279-1.62-.036-2.492,1.66-3.045A2.8,2.8,0,0,0,180.11,353c.271-1.009.181-.542,1.451-.77a3.728,3.728,0,0,0,2.548-3.941c-.226-1.961-.087-2.633,1.058-3.128s2.945-1.863,1.566-4.018c-.644-1.272-.28-1.3.354-1.628s.606-.886.216-1.671.346-.589.751-1.368c.423-.781-.07-1.827-.926-2.578s-.561-.76-.591-1.573c0-.787-2.053-1.161-1.223-2.2s-.011-1.509-.694-1.835c-.691-.344-.6-.666-.478-1.25a3.9,3.9,0,0,0-2.706-4.279C180.345,322.55,180.247,322.52,179.559,321.276Z" transform="translate(-138.969 -314.853)" fill="#7f7f7f" opacity="0.2" style="mix-blend-mode: multiply;isolation: isolate"/>
    </g>
    <g id="Grupo_27095" data-name="Grupo 27095" transform="translate(4.938 5.728)">
      <path id="Trazado_55162" data-name="Trazado 55162" d="M147.885,329.443a.959.959,0,0,0-.013.171c0,.117.023.286.038.459.021.1.041.2.066.3s.066.2.1.316a1.142,1.142,0,0,0,.162.3,1.4,1.4,0,0,0,.2.288c.087.085.179.164.271.243a2.563,2.563,0,0,0,.3.2,1.942,1.942,0,0,1,.294.152,2.124,2.124,0,0,1,.286.094,2.947,2.947,0,0,0,.431.13l.181.06a.781.781,0,0,0-.179,0,1.407,1.407,0,0,0-.2-.011.383.383,0,0,1-.13,0l-.132-.021a2.111,2.111,0,0,1-.318-.075,1.944,1.944,0,0,1-.344-.132c-.113-.047-.22-.12-.344-.186-.1-.083-.209-.169-.3-.265a2.3,2.3,0,0,1-.23-.35,1.263,1.263,0,0,1-.166-.356c-.028-.126-.06-.241-.073-.346a1.581,1.581,0,0,1-.011-.329,2.725,2.725,0,0,1,.013-.277c.017-.073.034-.137.045-.194A.953.953,0,0,1,147.885,329.443Z" transform="translate(-147.766 -309.168)" fill="#7f7f7f"/>
      <path id="Trazado_55163" data-name="Trazado 55163" d="M153.079,331.013a3.556,3.556,0,0,1-.516-.376c-.07-.066-.137-.124-.2-.2a1.733,1.733,0,0,1-.226-.288,1.444,1.444,0,0,1-.19-.32,1.9,1.9,0,0,1-.141-.361,2.207,2.207,0,0,1-.06-.393,1.284,1.284,0,0,1,0-.2,1.633,1.633,0,0,1,.038-.181,1.408,1.408,0,0,1,.1-.337.862.862,0,0,1,.166-.275.942.942,0,0,1,.164-.2c.049-.058.1-.1.141-.147a1.085,1.085,0,0,1,.128-.1s-.023.043-.083.134c-.032.051-.07.1-.113.167a2.335,2.335,0,0,0-.111.22,1.147,1.147,0,0,0-.09.282,1.052,1.052,0,0,0-.077.292c-.013.051-.011.111-.026.164a.573.573,0,0,1,.013.169,3.112,3.112,0,0,0,.062.346,2.664,2.664,0,0,0,.113.316,2.28,2.28,0,0,0,.171.318,3.251,3.251,0,0,0,.346.5C152.917,330.832,153.079,331.013,153.079,331.013Z" transform="translate(-143.263 -311.223)" fill="#7f7f7f"/>
      <path id="Trazado_55164" data-name="Trazado 55164" d="M150.352,326.341a2.339,2.339,0,0,1-.216-.568,2.843,2.843,0,0,1-.064-.309c.006-.1,0-.216,0-.335a1.467,1.467,0,0,1,.047-.373.634.634,0,0,1,.051-.181.7.7,0,0,1,.062-.2l.107-.16c.047-.049.094-.109.137-.147a1.142,1.142,0,0,1,.3-.241c.107-.066.226-.088.314-.143a1.765,1.765,0,0,1,.307-.051.743.743,0,0,1,.25-.028,1.38,1.38,0,0,0,.2.006,1.044,1.044,0,0,0,.164.013l-.166.047a1.32,1.32,0,0,1-.171.036,1.731,1.731,0,0,0-.243.066c-.077.04-.175.06-.265.111a1.7,1.7,0,0,0-.262.137.987.987,0,0,0-.243.226c-.028.03-.07.073-.1.109l-.07.154a1.427,1.427,0,0,0-.075.151c-.017.049-.038.111-.047.149a.86.86,0,0,0-.055.337,2.562,2.562,0,0,0-.03.587C150.307,326.1,150.352,326.341,150.352,326.341Z" transform="translate(-145.151 -315.791)" fill="#7f7f7f"/>
      <path id="Trazado_55165" data-name="Trazado 55165" d="M148.805,332.272s-.038.158-.087.429a2.073,2.073,0,0,0-.045.489,1.937,1.937,0,0,0,.126.623,1.506,1.506,0,0,0,.5.529c.117.045.228.107.363.149a2.009,2.009,0,0,1,.2.053,2.02,2.02,0,0,0,.22.032c.29.051.6.064.911.126a4.735,4.735,0,0,1,.954.279,1.326,1.326,0,0,1,.738.7,1.65,1.65,0,0,1,.013.994,3.27,3.27,0,0,0-.151.815.836.836,0,0,0,.271.623,1.831,1.831,0,0,0,.544.318,4,4,0,0,0,.474.139c.284.073.44.1.44.1a.615.615,0,0,0-.117-.013,3.049,3.049,0,0,1-.318-.036c-.139-.023-.307-.049-.51-.1a1.618,1.618,0,0,1-.61-.3,1.038,1.038,0,0,1-.376-.721,1.519,1.519,0,0,1,.047-.452,1.9,1.9,0,0,1,.043-.228,1,1,0,0,1,.047-.2,1.512,1.512,0,0,0-.026-.845,1.092,1.092,0,0,0-.625-.557,4.54,4.54,0,0,0-.871-.271c-.3-.045-.61-.073-.924-.139l-.22-.045c-.083-.03-.143-.047-.22-.073a2.345,2.345,0,0,1-.4-.2,1.435,1.435,0,0,1-.516-.636,1.707,1.707,0,0,1-.087-.662,2.426,2.426,0,0,1,.085-.512A1.683,1.683,0,0,1,148.805,332.272Z" transform="translate(-146.844 -305.96)" fill="#7f7f7f"/>
      <path id="Trazado_55166" data-name="Trazado 55166" d="M151.608,336.013s-.015.077-.032.2-.019.312-.019.531a2.5,2.5,0,0,0,.038.341,3.157,3.157,0,0,0,.077.38,2.744,2.744,0,0,0,.152.369,1.453,1.453,0,0,0,.1.164l.139.16a.43.43,0,0,0,.143.147,1.272,1.272,0,0,0,.149.128c.128.064.23.156.354.2s.245.1.365.145c.107.023.228.055.331.075a3.859,3.859,0,0,0,.529.1c.122.026.2.041.2.041s-.092,0-.207.013c-.066,0-.16.006-.239.006a.931.931,0,0,1-.307,0c-.115-.019-.237-.024-.367-.051a2.539,2.539,0,0,1-.391-.107,3.43,3.43,0,0,1-.408-.2,1.457,1.457,0,0,1-.19-.145,1.212,1.212,0,0,1-.166-.162l-.149-.2c-.043-.064-.07-.139-.12-.2a1.787,1.787,0,0,1-.094-.213,1.831,1.831,0,0,0-.051-.213,2.208,2.208,0,0,1-.047-.422c-.006-.117.009-.25,0-.369A2.63,2.63,0,0,1,151.608,336.013Z" transform="translate(-143.651 -301.718)" fill="#7f7f7f"/>
      <path id="Trazado_55167" data-name="Trazado 55167" d="M154.013,332.87a.881.881,0,0,1-.028.173,2.044,2.044,0,0,0-.049.429,1.153,1.153,0,0,0-.021.28,2.014,2.014,0,0,0,.034.314,1.181,1.181,0,0,0,.083.32,2.2,2.2,0,0,0,.141.3,1.586,1.586,0,0,0,.2.267,3.17,3.17,0,0,0,.241.235,2.118,2.118,0,0,1,.248.181,1.984,1.984,0,0,1,.258.147c.062.032.141.068.216.1a1.78,1.78,0,0,1,.164.088,1.309,1.309,0,0,0,.145.06.5.5,0,0,1-.154-.017c-.06-.017-.113-.017-.184-.036a.641.641,0,0,1-.256-.066c-.085-.028-.181-.062-.275-.1-.1-.062-.211-.113-.3-.181a3.6,3.6,0,0,1-.294-.239,1.909,1.909,0,0,1-.23-.31,1.668,1.668,0,0,1-.16-.35,1.238,1.238,0,0,1-.068-.373c.011-.12-.009-.239.009-.35a1.458,1.458,0,0,1,.043-.3,1.581,1.581,0,0,1,.16-.416Z" transform="translate(-141.014 -305.282)" fill="#7f7f7f"/>
      <path id="Trazado_55168" data-name="Trazado 55168" d="M154.681,328.627s-.009.06-.019.156a2.31,2.31,0,0,0,0,.388c.019.092.032.169.058.263a1.225,1.225,0,0,0,.111.258.946.946,0,0,0,.173.215.837.837,0,0,0,.243.173c.047.021.083.055.137.079l.141.047a2.217,2.217,0,0,0,.3.081,2.764,2.764,0,0,0,.29.049,1.343,1.343,0,0,1,.256.03c.094.021.173.015.237.028a1.088,1.088,0,0,1,.179.011.955.955,0,0,0,.169.015,1.253,1.253,0,0,1-.162.045.923.923,0,0,0-.188.021.967.967,0,0,1-.222.038c-.094,0-.175.009-.286.006a1.578,1.578,0,0,1-.314-.011,1.42,1.42,0,0,1-.335-.075l-.158-.051c-.062-.017-.113-.051-.177-.075a1.555,1.555,0,0,1-.3-.233,1.209,1.209,0,0,1-.115-.154c-.017-.043-.055-.09-.079-.141a1.335,1.335,0,0,1-.092-.322,1.406,1.406,0,0,1-.006-.3,1.481,1.481,0,0,1,.094-.4Z" transform="translate(-140.119 -310.094)" fill="#7f7f7f"/>
      <path id="Trazado_55169" data-name="Trazado 55169" d="M156.324,327.769a.46.46,0,0,1,.192-.2.713.713,0,0,1,.286-.079.745.745,0,0,1,.339.064,1.12,1.12,0,0,1,.267.2c.06.07.115.143.169.218a1.417,1.417,0,0,1,.058.181.424.424,0,0,0,.028.073l-.068-.047c-.043-.032-.079-.064-.143-.113a.368.368,0,0,1-.1-.058c-.043-.036-.07-.053-.109-.081s-.068-.047-.1-.079a.926.926,0,0,0-.107-.047c-.058-.03-.081-.034-.126-.058-.032.006-.081-.023-.122-.015a.954.954,0,0,0-.224-.017A1.227,1.227,0,0,0,156.324,327.769Z" transform="translate(-138.062 -311.382)" fill="#7f7f7f"/>
      <path id="Trazado_55170" data-name="Trazado 55170" d="M155.116,335.985a1.884,1.884,0,0,0,.026.38,1.818,1.818,0,0,0,.371.886,1.908,1.908,0,0,0,.5.418,2.569,2.569,0,0,0,.674.213,2.852,2.852,0,0,0,.378.058c.149.011.277.023.431.043a2.2,2.2,0,0,1,.834.314,1.664,1.664,0,0,1,.576.666,5.362,5.362,0,0,0,.376.681.7.7,0,0,0,.587.26c.226.017.463-.009.662-.013a1.906,1.906,0,0,0,.292-.021,1.242,1.242,0,0,0,.275-.021c.173-.021.324-.026.455-.047a1.04,1.04,0,0,0,.258-.047.371.371,0,0,1,.1-.023.6.6,0,0,0-.094.036c-.053.017-.154.047-.271.085a2.717,2.717,0,0,1-.431.1c-.087.021-.171.036-.275.053s-.175.026-.288.041c-.22,0-.433.041-.689.051a.492.492,0,0,1-.186-.006c-.07-.015-.145-.034-.211-.047-.064-.03-.134-.055-.192-.09a.828.828,0,0,1-.166-.156,4.4,4.4,0,0,1-.431-.713,1.449,1.449,0,0,0-.5-.574,2.068,2.068,0,0,0-.73-.275c-.134-.021-.267-.03-.395-.053a2.051,2.051,0,0,1-.4-.064,2.255,2.255,0,0,1-.738-.29,1.694,1.694,0,0,1-.5-.467,1.749,1.749,0,0,1-.254-.557,1.847,1.847,0,0,1-.066-.433,2.011,2.011,0,0,1,0-.292A.523.523,0,0,0,155.116,335.985Z" transform="translate(-139.468 -301.75)" fill="#7f7f7f"/>
      <path id="Trazado_55171" data-name="Trazado 55171" d="M157.489,334.4a.71.71,0,0,0,.083.156c.034.034.066.088.111.143a1.518,1.518,0,0,0,.147.179,2.046,2.046,0,0,0,.194.19,2.286,2.286,0,0,0,.248.179.937.937,0,0,1,.137.07,1.208,1.208,0,0,1,.145.058.872.872,0,0,0,.147.036,1.029,1.029,0,0,0,.16.021,1.2,1.2,0,0,0,.327-.013,1.34,1.34,0,0,0,.32-.049c.087-.032.188-.049.284-.083s.181-.073.258-.109a.933.933,0,0,0,.216-.1,1.524,1.524,0,0,0,.175-.077,1.2,1.2,0,0,0,.137-.077,1.681,1.681,0,0,1-.113.13c-.034.019-.083.073-.141.107a.739.739,0,0,1-.2.152c-.081.045-.162.1-.254.141a1.328,1.328,0,0,1-.309.139,1.067,1.067,0,0,1-.35.09,3.054,3.054,0,0,1-.373.013,1.241,1.241,0,0,1-.181-.045.675.675,0,0,1-.181-.038,1.045,1.045,0,0,1-.179-.075,1.072,1.072,0,0,0-.158-.1,2.358,2.358,0,0,1-.252-.226.947.947,0,0,1-.171-.25,1.107,1.107,0,0,1-.119-.222,1.5,1.5,0,0,1-.07-.164A.433.433,0,0,1,157.489,334.4Z" transform="translate(-136.741 -303.548)" fill="#7f7f7f"/>
      <path id="Trazado_55172" data-name="Trazado 55172" d="M158.756,330.562a1.3,1.3,0,0,0,.154.111c.09.073.216.173.376.282a2.149,2.149,0,0,0,.551.312.671.671,0,0,0,.312.087.35.35,0,0,0,.271-.077.309.309,0,0,0,.1-.113.543.543,0,0,0,.1-.151,1.611,1.611,0,0,1,.184-.327,3.426,3.426,0,0,1,.365-.559c.075-.085.137-.154.2-.216.064-.034.124-.075.173-.1a.642.642,0,0,1,.141-.038c.043.006.049,0,.049,0a.915.915,0,0,0-.158.077.718.718,0,0,0-.13.143c-.047.068-.092.145-.143.222-.087.171-.2.352-.3.57-.056.12-.1.228-.158.346a1.184,1.184,0,0,1-.111.166.52.52,0,0,1-.145.186.691.691,0,0,1-.45.137,1.56,1.56,0,0,1-.395-.126,1.313,1.313,0,0,1-.305-.207,1.516,1.516,0,0,1-.245-.213A3.3,3.3,0,0,1,158.756,330.562Z" transform="translate(-135.304 -308.8)" fill="#7f7f7f"/>
      <path id="Trazado_55173" data-name="Trazado 55173" d="M157.906,325.586a1.893,1.893,0,0,1,.534-.322c.092-.023.192-.066.288-.094s.233-.038.341-.058a1.885,1.885,0,0,1,.19.011,1.171,1.171,0,0,1,.194,0l.184.051.184.079a.6.6,0,0,1,.181.109l.156.1a3.034,3.034,0,0,1,.243.294c.062.107.12.2.173.305a2.512,2.512,0,0,1,.1.286,1.066,1.066,0,0,1,.066.254.555.555,0,0,1,.026.192,1.636,1.636,0,0,0,.021.164s-.028-.064-.07-.156a1.786,1.786,0,0,1-.075-.175.827.827,0,0,0-.107-.222,2.046,2.046,0,0,1-.126-.256c-.068-.088-.124-.162-.2-.248a2.32,2.32,0,0,0-.224-.239l-.124-.092a.614.614,0,0,0-.147-.077l-.149-.073-.158-.036a1.84,1.84,0,0,0-.644-.023,1.1,1.1,0,0,0-.265.055A3.419,3.419,0,0,0,157.906,325.586Z" transform="translate(-136.268 -314.08)" fill="#7f7f7f"/>
      <path id="Trazado_55174" data-name="Trazado 55174" d="M154.43,325.065a2.136,2.136,0,0,1-.036-.574,1.24,1.24,0,0,1,.021-.284c.019-.094.043-.188.077-.3a1.661,1.661,0,0,1,.128-.316,3.288,3.288,0,0,1,.2-.3l.126-.139a1.7,1.7,0,0,0,.13-.117,1.167,1.167,0,0,1,.32-.164,1.263,1.263,0,0,1,.294-.094,1.081,1.081,0,0,1,.294-.021.849.849,0,0,1,.237.011c.058.013.122.017.175.03a.836.836,0,0,0,.154.032.526.526,0,0,1-.156.017c-.049.013-.115.011-.181.026a1.67,1.67,0,0,0-.211.03.972.972,0,0,0-.25.081.908.908,0,0,0-.26.1,1.247,1.247,0,0,0-.258.156c-.028.032-.075.068-.1.107l-.1.111a1.185,1.185,0,0,0-.19.258,2.614,2.614,0,0,0-.13.269,3.666,3.666,0,0,0-.173.534A4.116,4.116,0,0,0,154.43,325.065Z" transform="translate(-140.255 -316.755)" fill="#7f7f7f"/>
      <path id="Trazado_55175" data-name="Trazado 55175" d="M156.464,321.135a2.7,2.7,0,0,1,.175-.213c.058-.062.128-.137.216-.216a2.154,2.154,0,0,1,.305-.262c.058-.03.117-.081.186-.126a.851.851,0,0,0,.22-.111,1.221,1.221,0,0,1,.243-.1,2.683,2.683,0,0,1,.26-.088,2.053,2.053,0,0,0,.29-.055,1.608,1.608,0,0,1,.286-.006.388.388,0,0,1,.166-.006l.137.03c.113.019.211.023.3.045l.29.111.132.049a.521.521,0,0,1,.137.083,2.194,2.194,0,0,1,.474.312,4.074,4.074,0,0,1,.393.363c.1.137.2.254.294.369a1.886,1.886,0,0,1,.233.333c.051.1.117.184.158.254a1.459,1.459,0,0,1,.124.233s-.058-.077-.162-.194c-.062-.07-.126-.152-.2-.241a2.3,2.3,0,0,0-.265-.288c-.1-.1-.216-.209-.326-.326s-.265-.2-.391-.312a2.585,2.585,0,0,0-.455-.277,1.372,1.372,0,0,0-.124-.066l-.122-.041-.262-.1a2.374,2.374,0,0,0-.262-.041l-.137-.026c-.036-.006-.092,0-.141-.009-.075.006-.177,0-.258,0s-.171.036-.241.047a1.4,1.4,0,0,0-.256.055.979.979,0,0,0-.235.085c-.066.028-.154.055-.224.09-.049.036-.124.064-.186.107-.128.06-.235.128-.344.188-.09.07-.169.139-.224.181A2.654,2.654,0,0,0,156.464,321.135Z" transform="translate(-137.903 -319.942)" fill="#7f7f7f"/>
      <path id="Trazado_55176" data-name="Trazado 55176" d="M161.1,321.295a1.061,1.061,0,0,1,.465-.087,1.311,1.311,0,0,1,.478.045,2.231,2.231,0,0,1,.25.092c.092.038.16.087.26.137a2.485,2.485,0,0,1,.216.171,1.11,1.11,0,0,1,.181.194c.051.062.111.137.162.2.032.049.077.13.109.188a1.33,1.33,0,0,1,.124.309,1.125,1.125,0,0,1,.038.115.458.458,0,0,1-.081-.1c-.058-.049-.117-.139-.209-.228-.045-.049-.09-.107-.141-.162s-.1-.1-.173-.16c-.051-.053-.12-.1-.186-.162a.827.827,0,0,0-.188-.134c-.083-.055-.139-.09-.218-.134s-.154-.077-.222-.111a4.053,4.053,0,0,0-.412-.12A2.983,2.983,0,0,0,161.1,321.295Z" transform="translate(-132.651 -318.515)" fill="#7f7f7f"/>
      <path id="Trazado_55177" data-name="Trazado 55177" d="M163.347,322.309a1.44,1.44,0,0,1,.4.216,1.527,1.527,0,0,1,.35.312,2.382,2.382,0,0,1,.171.207c.049.081.107.162.154.237a1.273,1.273,0,0,1,.111.256,1.163,1.163,0,0,1,.085.256.76.76,0,0,1,.053.243,1.453,1.453,0,0,1,.011.224,1.394,1.394,0,0,1-.036.335.529.529,0,0,1-.019.122,1,1,0,0,0-.032-.12,1.941,1.941,0,0,0-.062-.316c-.013-.064-.034-.134-.051-.2a2.306,2.306,0,0,0-.087-.216,2.046,2.046,0,0,0-.2-.444,3.7,3.7,0,0,0-.271-.437c-.047-.06-.085-.126-.139-.188s-.09-.109-.134-.156C163.475,322.433,163.347,322.309,163.347,322.309Z" transform="translate(-130.098 -317.258)" fill="#7f7f7f"/>
      <path id="Trazado_55178" data-name="Trazado 55178" d="M163.135,327.742a.861.861,0,0,1,.158.064,1.273,1.273,0,0,1,.169.1,1.1,1.1,0,0,1,.222.156,1.275,1.275,0,0,1,.22.222.733.733,0,0,1,.107.139c.034.062.064.107.1.169.011.053.06.128.051.169a1.441,1.441,0,0,1,.047.209c.015.064-.006.137.009.2a.642.642,0,0,1-.038.2l-.058.2c0,.064-.051.124-.064.173a.644.644,0,0,1-.1.171.8.8,0,0,0-.094.162c-.081.09-.147.184-.23.267s-.166.134-.23.2-.147.109-.2.16c-.068.038-.122.083-.169.1-.092.064-.141.107-.141.107a1.6,1.6,0,0,0,.1-.139,1.056,1.056,0,0,1,.139-.141c.043-.064.111-.117.166-.19s.12-.151.186-.233a1.741,1.741,0,0,0,.173-.282c.023-.04.064-.094.087-.141s.047-.092.075-.149.038-.113.055-.162l.049-.158a.713.713,0,0,0,.023-.171.525.525,0,0,0,0-.164,1.088,1.088,0,0,0-.021-.164,1.443,1.443,0,0,0-.049-.16.3.3,0,0,0-.064-.132.929.929,0,0,0-.064-.13,1.472,1.472,0,0,0-.171-.241,1.141,1.141,0,0,0-.179-.19c-.045-.041-.092-.09-.137-.126A1.369,1.369,0,0,0,163.135,327.742Z" transform="translate(-130.612 -311.097)" fill="#7f7f7f"/>
      <path id="Trazado_55179" data-name="Trazado 55179" d="M161.547,334.814s.092.019.23.053a5.948,5.948,0,0,0,.617.1,2.435,2.435,0,0,0,.395,0,3.567,3.567,0,0,0,.457-.009,4.405,4.405,0,0,0,.467-.1,2.183,2.183,0,0,1,.241-.07l.23-.109.115-.045.087-.07a1.73,1.73,0,0,0,.2-.12c.134-.107.265-.209.376-.307.1-.12.209-.23.312-.333s.158-.228.239-.335a3.148,3.148,0,0,0,.179-.294c.053-.088.1-.158.139-.235.068-.141.109-.209.109-.209a1.115,1.115,0,0,1-.066.228c-.03.075-.049.162-.09.262a.923.923,0,0,1-.147.329,2.2,2.2,0,0,1-.209.367c-.09.122-.184.254-.288.382-.124.115-.254.245-.386.348a1.435,1.435,0,0,0-.226.156l-.109.064-.141.055-.243.111c-.077.019-.166.043-.252.066a.675.675,0,0,1-.267.045,1.571,1.571,0,0,1-.248.036,2.032,2.032,0,0,1-.484-.013c-.169-.015-.3-.032-.41-.053a6.244,6.244,0,0,1-.615-.2C161.622,334.85,161.547,334.814,161.547,334.814Z" transform="translate(-132.139 -305.427)" fill="#7f7f7f"/>
      <path id="Trazado_55180" data-name="Trazado 55180" d="M166.595,328.412a1.329,1.329,0,0,1,.2.467.86.86,0,0,1,.047.239c.006.085.011.181.015.292a1.372,1.372,0,0,1-.066.294,1.166,1.166,0,0,1-.12.3c-.038.092-.115.173-.162.263-.087.073-.16.151-.23.218s-.162.092-.241.139-.158.073-.226.111a1.565,1.565,0,0,1-.361.1,1.081,1.081,0,0,1-.128.026,1.381,1.381,0,0,1,.115-.077c.075-.047.188-.1.305-.179a1.391,1.391,0,0,1,.2-.139c.053-.051.117-.111.179-.175s.12-.128.179-.184a1.611,1.611,0,0,0,.149-.228.889.889,0,0,0,.094-.247.758.758,0,0,0,.073-.256.949.949,0,0,0,.026-.258,1.525,1.525,0,0,0,.009-.224A2.362,2.362,0,0,0,166.595,328.412Z" transform="translate(-127.853 -310.338)" fill="#7f7f7f"/>
      <path id="Trazado_55181" data-name="Trazado 55181" d="M165.632,326.086a.407.407,0,0,1,.034-.181.342.342,0,0,1,.1-.164.132.132,0,0,1,.1-.06.823.823,0,0,1,.109-.047.512.512,0,0,1,.241.026.685.685,0,0,1,.16.124.276.276,0,0,1,.06.1c.03.034.021.058.021.058a.181.181,0,0,1-.053-.006.768.768,0,0,0-.109-.026l-.068-.006c-.023-.006-.049,0-.07-.008-.045,0-.092-.015-.122.006a1.484,1.484,0,0,0-.258.1A.9.9,0,0,1,165.632,326.086Z" transform="translate(-127.507 -313.494)" fill="#7f7f7f"/>
      <path id="Trazado_55182" data-name="Trazado 55182" d="M162.987,326.226a.1.1,0,0,0,.053,0,.8.8,0,0,1,.12.062.394.394,0,0,1,.12.149.528.528,0,0,1,.032.092l.032.107a.586.586,0,0,1-.081.365.907.907,0,0,1-.12.139.551.551,0,0,1-.034-.16,1.351,1.351,0,0,0-.013-.152.086.086,0,0,1-.006-.081.219.219,0,0,0-.006-.081c-.006-.045-.019-.1-.026-.147a.942.942,0,0,0-.028-.139A.683.683,0,0,0,162.987,326.226Z" transform="translate(-130.506 -312.821)" fill="#7f7f7f"/>
    </g>
  </g>
  <g id="Grupo_27099" data-name="Grupo 27099" transform="translate(0 24.862)">
    <g id="Grupo_27097" data-name="Grupo 27097">
      <path id="Trazado_55183" data-name="Trazado 55183" d="M192.923,372.188c3.256-3.895,2.074-8.094.574-9.688-1.477-1.543-1.6-1.7-1.276-4.4s-.211-5.708-1.763-6.844a5.907,5.907,0,0,1-2.443-4.294,6.27,6.27,0,0,0-3.16-4.9c-2.093-1.127-2.956-1.722-3.291-3.154s-.781-3.976-3.329-5.608-5.962-1.633-7.121-4.155-3.167-4.283-5.828-4.059a6.151,6.151,0,0,1-5.736-2.706c-1.3-1.69-4.345-2.175-6.052-1.611s-3.954,1.159-5.058.546-2.855-1.573-5.038.708c-2.164,2.266-3.946,2.834-6.7,2.375s-5.1.4-6.216,2.025a6.555,6.555,0,0,1-4.4,3.043c-2.281.546-3.579.42-4.582,2.234-1.005,1.88-1.987,3.141-4.927,2.548-2.921-.585-4.451,2.33-4.451,2.33-1.105,2.33,1.022,3.841-3.049,5.256-3.244,1.116-2.746,3.818-2.264,5.862.478,2.01-4.725,2.77-4.11,10.371.218,4.366-5.3,6.7-2.426,13.67,1.532,3.679-1.261,5.659-.22,8.549,1.088,2.889,4.507,4.569,3.677,7.77-.807,3.216,2.038,7.01,5.395,7.774,3.31.809,3.436,2.478,4.633,5.354,1.219,2.834,3.163,2.77,5.659,3.361,2.473.58,4.571,1.667,7.121,5.241,2.552,3.615,4.518,3,8.384,1.688,3.9-1.285,2.832-.781,5.122.529,2.264,1.3,3.325-.28,5.367.028s2.732-3.924,5.992-2.885c3.267,1.11,4.641.241,6.176-1.018,1.551-1.268.89-.638,3.124.427,2.2,1.052,6.545.034,8.38-3.291,1.84-3.308,2.81-4.2,5.147-3.688,2.358.491,6.673.393,6.935-4.5.418-2.7,1.02-2.337,2.375-2.14,1.374.194,1.936-.7,2.2-2.36.273-1.628,1.2-.534,2.7-1.293,1.532-.743,1.936-2.924,1.438-5.051-.5-2.108-.023-1.812.843-3.109.879-1.229-1.9-4.108.561-4.8s1.671-2.364.971-3.636C191.577,373.362,192.081,372.965,192.923,372.188Z" transform="translate(-99.449 -320.537)" fill="#ebecec"/>
      <path id="Trazado_55184" data-name="Trazado 55184" d="M172.1,359.878c2.347-2.845,1.5-5.847.418-6.95-1.069-1.14-1.15-1.257-.909-3.182.226-1.968-.177-4.142-1.274-4.932a4.355,4.355,0,0,1-1.782-3.113,4.586,4.586,0,0,0-2.273-3.557c-1.517-.781-2.119-1.216-2.367-2.258a5.751,5.751,0,0,0-2.388-4.02c-1.846-1.2-4.306-1.2-5.134-2.992-.856-1.833-2.292-3.107-4.2-2.956a4.4,4.4,0,0,1-4.151-1.953,4.407,4.407,0,0,0-4.36-1.133c-1.219.388-2.849.8-3.63.386a2.552,2.552,0,0,0-3.624.5,4.827,4.827,0,0,1-4.831,1.726,4.46,4.46,0,0,0-4.5,1.443,4.537,4.537,0,0,1-3.175,2.192c-1.63.391-2.571.309-3.276,1.667-.73,1.308-1.445,2.217-3.559,1.784a3.186,3.186,0,0,0-3.21,1.682c-.8,1.688.732,2.774-2.2,3.781-2.339.832-1.982,2.776-1.647,4.225s-3.4,2.014-2.964,7.475c.2,3.158-3.8,4.808-1.716,9.863,1.08,2.665-.935,4.072-.152,6.148.76,2.078,3.227,3.306,2.625,5.58-.576,2.33,1.485,5.055,3.877,5.6,2.4.593,2.5,1.812,3.357,3.871s2.273,2.019,4.076,2.4c1.786.457,3.308,1.238,5.134,3.824s3.246,2.14,6.041,1.208,2.025-.548,3.685.373c1.63.92,2.394-.184,3.886.006,1.449.245,1.953-2.793,4.3-2.027,2.343.741,3.344.16,4.458-.777,1.108-.913.659-.435,2.236.329a5.232,5.232,0,0,0,6.058-2.384c1.317-2.367,2.021-3.007,3.724-2.661s4.78.286,4.987-3.246c.3-1.955.741-1.707,1.7-1.556.982.16,1.411-.519,1.583-1.684.2-1.18.862-.388,1.959-.926s1.383-2.125,1.022-3.641-.017-1.338.612-2.228-1.368-3,.408-3.493c1.773-.519,1.2-1.684.708-2.642C171.132,360.72,171.514,360.445,172.1,359.878Z" transform="translate(-93.449 -318.128)" fill="#fff"/>
      <path id="Trazado_55185" data-name="Trazado 55185" d="M193.49,351.278c-1.477-1.543-1.6-1.7-1.276-4.4s-.211-5.708-1.763-6.844a5.907,5.907,0,0,1-2.443-4.294,6.27,6.27,0,0,0-3.16-4.9c-.269-.149-.5-.284-.723-.4a5.609,5.609,0,0,1-.175,1.014c-.634,2.407-1.837,4.55-.623,7.027.841,1.763,2.183,3.4,2.589,5.329A6.7,6.7,0,0,1,186,347.3c-.514,1.63-1.588,2.953-1.844,4.69-.416,2.8.359,5.787-.593,8.5a7.663,7.663,0,0,1-2.192,3.308,14.873,14.873,0,0,0-3.032,2.781c-1.692,2.5-.7,5.958-2.168,8.606a6.5,6.5,0,0,1-2.964,2.81c-2.049.986-4.264.843-6.406,1.511-2.177.644-3.254,2.623-5.028,3.916a13.491,13.491,0,0,1-5.122,2.4,14.224,14.224,0,0,1-5.76.243,26.537,26.537,0,0,1-5.612-1.908,6.545,6.545,0,0,0-3.826-.668c-1.255.3-2.416.8-3.613,1.214a12.4,12.4,0,0,1-10.685-1.528,22.315,22.315,0,0,1-4.466-4.029,15.5,15.5,0,0,0-2.941-2.725c-2.39-1.462-5.256-.687-7.827-1.3a9.133,9.133,0,0,1-6.679-6.325,31.84,31.84,0,0,0-1.852-5.555c-.851-1.677-1.805-3.295-2.776-4.925a12.389,12.389,0,0,1-1.122-2.352,9.6,9.6,0,0,0,.783,4.545c1.532,3.679-1.261,5.659-.22,8.549,1.088,2.889,4.507,4.569,3.677,7.77-.807,3.216,2.038,7.01,5.395,7.774,3.31.809,3.436,2.478,4.633,5.354,1.219,2.834,3.163,2.77,5.659,3.361,2.473.58,4.571,1.667,7.121,5.241,2.552,3.615,4.518,3,8.384,1.688,3.9-1.285,2.832-.781,5.122.529,2.264,1.3,3.325-.28,5.367.028s2.732-3.924,5.992-2.885c3.267,1.11,4.641.241,6.176-1.018,1.551-1.268.89-.638,3.124.427,2.2,1.052,6.545.034,8.38-3.291,1.84-3.308,2.81-4.2,5.147-3.688,2.358.491,6.673.393,6.935-4.5.418-2.7,1.02-2.337,2.375-2.14,1.374.194,1.936-.7,2.2-2.36.273-1.628,1.2-.534,2.7-1.293,1.532-.743,1.936-2.924,1.438-5.051-.5-2.108-.023-1.812.843-3.109.879-1.229-1.9-4.108.561-4.8s1.671-2.364.971-3.636c-.689-1.31-.186-1.707.657-2.484C196.173,357.071,194.99,352.872,193.49,351.278Z" transform="translate(-99.442 -309.315)" fill="#7f7f7f" opacity="0.2" style="mix-blend-mode: multiply;isolation: isolate"/>
      <path id="Trazado_55186" data-name="Trazado 55186" d="M190.017,340.666a10.955,10.955,0,0,0-.388-4.759,29.9,29.9,0,0,1-.824,3.86,8.119,8.119,0,0,0-.536,4.392c.209.849.484,1.652.741,2.482.743,2.774.073,4.274-1.733,6.3-2.667,3.02-.851,7.012-2.51,10.326-.764,1.575-1.869,2.877-2.559,4.5-.544,1.344-1.069,2.665-1.675,3.988-1.112,2.386-2.887,4.5-5.634,4.987-2.172.414-4.447.721-6.088,2.332-1.293,1.289-2.277,2.763-3.658,3.971-3.15,2.742-6.9,2.968-10.847,2.332-2.324-.4-4.669-1.039-6.765.508-1.445,1.026-2.714,2.271-4.479,2.732-3.15.8-5.062-1.355-7.635-2.7a8.18,8.18,0,0,0-4.712-.943,25.891,25.891,0,0,1-4.227.3c-3.278-.277-4.671-2.872-5.984-5.529-1.568-3.182-4.641-3.235-7.842-3.2-3.242.03-6.545-.128-8.865-2.789a31.809,31.809,0,0,1-2.232-3.289.486.486,0,0,1-.034.152c-.807,3.216,2.038,7.01,5.395,7.774,3.31.809,3.436,2.478,4.633,5.354,1.219,2.834,3.163,2.77,5.659,3.361,2.473.58,4.571,1.667,7.121,5.241,2.552,3.615,4.518,3,8.384,1.688,3.9-1.285,2.832-.781,5.122.529,2.264,1.3,3.325-.28,5.367.028s2.732-3.924,5.992-2.885c3.267,1.11,4.641.241,6.176-1.018,1.551-1.268.89-.638,3.124.427,2.2,1.052,6.545.034,8.38-3.291,1.84-3.308,2.81-4.2,5.147-3.688,2.358.491,6.673.393,6.935-4.5.418-2.7,1.02-2.337,2.375-2.14,1.374.194,1.936-.7,2.2-2.36.273-1.628,1.2-.534,2.7-1.293,1.532-.743,1.936-2.924,1.438-5.051-.5-2.108-.023-1.812.843-3.109.879-1.229-1.9-4.108.561-4.8s1.671-2.364.971-3.636c-.689-1.31-.186-1.707.657-2.484,3.256-3.895,2.074-8.094.574-9.688C189.816,343.527,189.7,343.374,190.017,340.666Z" transform="translate(-97.245 -303.108)" fill="#7f7f7f" opacity="0.2" style="mix-blend-mode: multiply;isolation: isolate"/>
    </g>
    <g id="Grupo_27098" data-name="Grupo 27098" transform="translate(9.566 15.382)">
      <path id="Trazado_55187" data-name="Trazado 55187" d="M107.622,333.8a1.849,1.849,0,0,0-.207.252c-.128.188-.286.472-.457.758-.083.188-.156.35-.235.544s-.122.386-.19.61a2.175,2.175,0,0,0-.085.647,2.84,2.84,0,0,0-.011.67c.043.23.094.461.149.683a4.368,4.368,0,0,0,.237.647,4.015,4.015,0,0,1,.288.568,4.275,4.275,0,0,1,.341.465,5.463,5.463,0,0,0,.525.687c.134.184.216.292.216.292a1.417,1.417,0,0,0-.282-.2,2.33,2.33,0,0,0-.305-.243.773.773,0,0,1-.2-.147c-.047-.051-.126-.126-.184-.184a4.251,4.251,0,0,1-.41-.472,3.836,3.836,0,0,1-.391-.591c-.124-.2-.209-.431-.329-.674-.053-.237-.132-.5-.171-.749a4.181,4.181,0,0,1,.034-.8,2.371,2.371,0,0,1,.139-.738c.1-.228.175-.446.273-.623a3.289,3.289,0,0,1,.35-.521c.107-.164.235-.3.329-.42.111-.094.211-.173.288-.252A2.07,2.07,0,0,1,107.622,333.8Z" transform="translate(-101.672 -320.883)" fill="#7f7f7f"/>
      <path id="Trazado_55188" data-name="Trazado 55188" d="M114.329,341.689a6.654,6.654,0,0,1-.384-1.163,5.449,5.449,0,0,1-.1-.544,3.444,3.444,0,0,1-.026-.7,2.716,2.716,0,0,1,.062-.713,3.3,3.3,0,0,1,.184-.715,4,4,0,0,1,.346-.681,2.42,2.42,0,0,1,.226-.316,2.874,2.874,0,0,1,.262-.237,2.539,2.539,0,0,1,.533-.416,1.681,1.681,0,0,1,.568-.243,1.936,1.936,0,0,1,.484-.137c.139-.032.269-.038.384-.07a1.89,1.89,0,0,1,.309-.006s-.087.043-.282.115c-.107.045-.222.081-.361.137a4.345,4.345,0,0,0-.418.216,2.222,2.222,0,0,0-.459.339,2.115,2.115,0,0,0-.446.369c-.077.066-.139.162-.224.228a.917.917,0,0,1-.169.275,5.548,5.548,0,0,0-.29.608,4.963,4.963,0,0,0-.177.619,4.359,4.359,0,0,0-.087.685,6.267,6.267,0,0,0-.028,1.172C114.278,341.224,114.329,341.689,114.329,341.689Z" transform="translate(-92.73 -318.677)" fill="#7f7f7f"/>
      <path id="Trazado_55189" data-name="Trazado 55189" d="M115.529,331.2a4.4,4.4,0,0,1,.3-1.125,4.856,4.856,0,0,1,.248-.555c.124-.151.245-.335.378-.521a2.753,2.753,0,0,1,.491-.529,1.152,1.152,0,0,1,.284-.224,1.211,1.211,0,0,1,.316-.239l.348-.13c.128-.026.267-.064.376-.077a2.262,2.262,0,0,1,.734-.043c.241.017.452.12.649.13a3.243,3.243,0,0,1,.538.262,1.573,1.573,0,0,1,.42.237,2,2,0,0,0,.305.233,2.367,2.367,0,0,0,.241.207l-.316-.113a3,3,0,0,1-.305-.134,3,3,0,0,0-.452-.171c-.164-.026-.339-.1-.533-.124a3.636,3.636,0,0,0-.561-.079,1.947,1.947,0,0,0-.634.077c-.077.015-.192.036-.282.058l-.282.158a3.228,3.228,0,0,0-.286.154c-.083.06-.186.13-.239.179a1.592,1.592,0,0,0-.461.465,4.948,4.948,0,0,0-.708.881C115.734,330.767,115.529,331.2,115.529,331.2Z" transform="translate(-90.78 -327.745)" fill="#7f7f7f"/>
      <path id="Trazado_55190" data-name="Trazado 55190" d="M106,339.169s-.237.2-.617.572a4.053,4.053,0,0,0-.617.708,3.724,3.724,0,0,0-.5,1.114,2.913,2.913,0,0,0,.177,1.379c.134.2.237.423.4.638.1.1.166.2.245.3a3.961,3.961,0,0,0,.305.3c.4.405.862.768,1.28,1.216a8.995,8.995,0,0,1,1.172,1.5,2.531,2.531,0,0,1,.369,1.918,3.2,3.2,0,0,1-1.095,1.562,6.3,6.3,0,0,0-1.148,1.1,1.6,1.6,0,0,0-.273,1.274,3.477,3.477,0,0,0,.491,1.1,8.182,8.182,0,0,0,.58.747c.363.433.572.655.572.655a1.017,1.017,0,0,0-.169-.154c-.1-.092-.256-.211-.452-.412a9.86,9.86,0,0,1-.683-.73,3.194,3.194,0,0,1-.617-1.144,2,2,0,0,1,.222-1.547,2.979,2.979,0,0,1,.578-.653,3.054,3.054,0,0,1,.324-.305,1.75,1.75,0,0,1,.294-.256,2.946,2.946,0,0,0,.907-1.346,2.1,2.1,0,0,0-.352-1.566,8.546,8.546,0,0,0-1.056-1.4c-.418-.41-.869-.8-1.28-1.253-.09-.094-.19-.2-.292-.316-.1-.139-.169-.233-.265-.361a4.437,4.437,0,0,1-.4-.76,2.769,2.769,0,0,1-.094-1.566,3.328,3.328,0,0,1,.606-1.129,4.629,4.629,0,0,1,.7-.7A3.177,3.177,0,0,1,106,339.169Z" transform="translate(-103.932 -314.791)" fill="#7f7f7f"/>
      <path id="Trazado_55191" data-name="Trazado 55191" d="M106.281,348.141s-.109.1-.275.275-.38.463-.625.807a4.895,4.895,0,0,0-.322.576,6.368,6.368,0,0,0-.307.676,5.869,5.869,0,0,0-.177.747,2.506,2.506,0,0,0-.032.361l.034.408a.852.852,0,0,0,.062.386,1.973,1.973,0,0,0,.087.367c.126.241.186.5.322.713s.28.425.412.634c.139.156.29.341.429.487a7.378,7.378,0,0,0,.715.747c.158.175.271.288.271.288s-.145-.1-.337-.211c-.1-.079-.258-.169-.38-.258a1.692,1.692,0,0,1-.476-.348c-.162-.158-.344-.3-.514-.487a5.389,5.389,0,0,1-.491-.6,6.38,6.38,0,0,1-.408-.77,3.278,3.278,0,0,1-.137-.437,2.55,2.55,0,0,1-.077-.44l-.013-.472c0-.151.045-.3.043-.452a3.039,3.039,0,0,1,.09-.435,3.286,3.286,0,0,0,.16-.393,4.4,4.4,0,0,1,.4-.708c.124-.192.292-.382.42-.57A4.981,4.981,0,0,1,106.281,348.141Z" transform="translate(-103.806 -304.617)" fill="#7f7f7f"/>
      <path id="Trazado_55192" data-name="Trazado 55192" d="M113.505,345.888a1.548,1.548,0,0,1-.237.241,4.155,4.155,0,0,0-.555.61,2.227,2.227,0,0,0-.346.416,3.455,3.455,0,0,0-.3.525,2.142,2.142,0,0,0-.228.591,4.047,4.047,0,0,0-.115.623,2.925,2.925,0,0,0,.011.64c.049.19.043.423.115.634a3.818,3.818,0,0,1,.181.561,3.489,3.489,0,0,1,.237.518c.064.12.143.265.222.4s.124.237.156.32a2.678,2.678,0,0,0,.16.258,1.066,1.066,0,0,1-.22-.2c-.075-.094-.16-.154-.245-.26a1.251,1.251,0,0,1-.324-.391c-.1-.139-.213-.3-.32-.461-.087-.211-.2-.414-.269-.621a7.035,7.035,0,0,1-.192-.7,3.884,3.884,0,0,1-.011-.738,3.015,3.015,0,0,1,.143-.726,2.263,2.263,0,0,1,.312-.657c.147-.173.254-.382.4-.534a2.658,2.658,0,0,1,.408-.427,3.018,3.018,0,0,1,.713-.469C113.384,345.952,113.505,345.888,113.505,345.888Z" transform="translate(-95.675 -307.172)" fill="#7f7f7f"/>
      <path id="Trazado_55193" data-name="Trazado 55193" d="M118.945,340.1s-.081.083-.2.224a4.127,4.127,0,0,0-.44.6c-.075.162-.137.3-.2.472a2.506,2.506,0,0,0-.119.527,1.788,1.788,0,0,0,.03.527,1.734,1.734,0,0,0,.184.542c.049.085.07.179.126.275l.166.23a4.04,4.04,0,0,0,.376.461,5.066,5.066,0,0,0,.4.4,2.834,2.834,0,0,1,.367.335c.122.139.25.216.335.307a2.194,2.194,0,0,1,.269.22,1.991,1.991,0,0,0,.243.211,2.811,2.811,0,0,1-.3-.115,2.044,2.044,0,0,0-.318-.175,1.82,1.82,0,0,1-.388-.188c-.152-.1-.282-.184-.455-.309a3.481,3.481,0,0,1-.478-.369,2.781,2.781,0,0,1-.433-.493l-.192-.254c-.075-.1-.117-.207-.19-.316a2.933,2.933,0,0,1-.211-.7,2.563,2.563,0,0,1-.011-.369c.019-.087.017-.2.034-.309a2.822,2.822,0,0,1,.22-.606,3.047,3.047,0,0,1,.32-.469,2.915,2.915,0,0,1,.6-.523C118.847,340.153,118.945,340.1,118.945,340.1Z" transform="translate(-88.548 -313.737)" fill="#7f7f7f"/>
      <path id="Trazado_55194" data-name="Trazado 55194" d="M122,340.527a.872.872,0,0,1,.523-.1,1.353,1.353,0,0,1,.531.2,1.467,1.467,0,0,1,.457.48,2.194,2.194,0,0,1,.192.61c.011.177.017.352.017.531a2.812,2.812,0,0,1-.111.348,1.191,1.191,0,0,0-.043.141s-.019-.051-.051-.149-.051-.19-.1-.337a.721.721,0,0,1-.083-.2c-.028-.1-.051-.16-.079-.245-.011-.073-.055-.149-.077-.239a1.647,1.647,0,0,0-.113-.2c-.056-.109-.085-.143-.132-.23-.055-.023-.1-.124-.171-.158a2.057,2.057,0,0,0-.331-.28A2.235,2.235,0,0,0,122,340.527Z" transform="translate(-83.439 -313.366)" fill="#7f7f7f"/>
      <path id="Trazado_55195" data-name="Trazado 55195" d="M111.315,352.13a3.31,3.31,0,0,0-.386.619,3.467,3.467,0,0,0-.412,1.8,3.571,3.571,0,0,0,.3,1.2,4.751,4.751,0,0,0,.811,1.088,4.9,4.9,0,0,0,.525.512c.22.184.405.348.621.548a4.154,4.154,0,0,1,.95,1.423,3.185,3.185,0,0,1,.152,1.682,9.786,9.786,0,0,0-.175,1.483,1.368,1.368,0,0,0,.623,1.063c.333.275.73.5,1.046.717a3.643,3.643,0,0,0,.478.294,2.28,2.28,0,0,0,.452.273c.294.162.533.324.76.435a2.1,2.1,0,0,0,.455.218.722.722,0,0,1,.181.075,1.894,1.894,0,0,0-.184-.047c-.1-.032-.292-.1-.521-.173a5.45,5.45,0,0,1-.781-.329c-.16-.064-.3-.132-.489-.226-.149-.079-.3-.154-.491-.256-.348-.241-.723-.422-1.133-.691a.992.992,0,0,1-.282-.22c-.094-.1-.186-.216-.275-.307-.068-.12-.147-.239-.2-.354a1.711,1.711,0,0,1-.083-.431,8.522,8.522,0,0,1,.124-1.592,2.746,2.746,0,0,0-.137-1.453,3.922,3.922,0,0,0-.826-1.244c-.184-.184-.382-.344-.555-.527a3.794,3.794,0,0,1-.551-.544,4.365,4.365,0,0,1-.828-1.278,3.427,3.427,0,0,1-.262-1.291,3.5,3.5,0,0,1,.228-1.152,3.635,3.635,0,0,1,.386-.749,3.493,3.493,0,0,1,.331-.452A.953.953,0,0,0,111.315,352.13Z" transform="translate(-96.795 -300.093)" fill="#7f7f7f"/>
      <path id="Trazado_55196" data-name="Trazado 55196" d="M116.4,352.334a1.508,1.508,0,0,0-.043.335c.017.092,0,.211.013.346a3.383,3.383,0,0,0,.028.448,4.489,4.489,0,0,0,.092.512,4.132,4.132,0,0,0,.186.555,2.01,2.01,0,0,1,.13.262,2.152,2.152,0,0,1,.164.254,2.03,2.03,0,0,0,.186.22,1.873,1.873,0,0,0,.228.209c.177.109.316.29.523.348a2.417,2.417,0,0,0,.555.282c.173.049.346.132.536.19s.361.087.523.12a1.79,1.79,0,0,0,.442.09,2.4,2.4,0,0,0,.359.075,1.674,1.674,0,0,0,.3.034,3.252,3.252,0,0,1-.32.075c-.079,0-.213.021-.339.011a1.457,1.457,0,0,1-.484.013,5.158,5.158,0,0,1-.551-.066,2.641,2.641,0,0,1-.64-.128,2.13,2.13,0,0,1-.642-.252,6.8,6.8,0,0,1-.6-.4,1.846,1.846,0,0,1-.226-.275,1.279,1.279,0,0,1-.243-.26,1.867,1.867,0,0,1-.194-.318,2.143,2.143,0,0,0-.132-.337,4.479,4.479,0,0,1-.137-.632,1.749,1.749,0,0,1,.009-.58,2.081,2.081,0,0,1,.066-.48,2.99,2.99,0,0,1,.073-.337A.867.867,0,0,1,116.4,352.334Z" transform="translate(-90.148 -299.862)" fill="#7f7f7f"/>
      <path id="Trazado_55197" data-name="Trazado 55197" d="M122.973,347.118a2.721,2.721,0,0,0,.115.346,8.819,8.819,0,0,0,.271.856,4.149,4.149,0,0,0,.506,1.1,1.3,1.3,0,0,0,.391.487.679.679,0,0,0,.508.184.628.628,0,0,0,.28-.068,1.137,1.137,0,0,0,.32-.13,3.361,3.361,0,0,1,.649-.3,6.671,6.671,0,0,1,1.2-.463c.209-.049.384-.083.553-.111.141.019.277.021.386.03a1.136,1.136,0,0,1,.262.1c.062.055.073.055.073.055a1.615,1.615,0,0,0-.331-.06,1.587,1.587,0,0,0-.365.081c-.145.053-.3.124-.467.183-.329.169-.7.329-1.1.555l-.634.365a2.961,2.961,0,0,1-.359.137,1.066,1.066,0,0,1-.435.126,1.336,1.336,0,0,1-.856-.292,2.95,2.95,0,0,1-.472-.638,2.605,2.605,0,0,1-.245-.666,3.02,3.02,0,0,1-.141-.606A6.167,6.167,0,0,1,122.973,347.118Z" transform="translate(-82.342 -305.777)" fill="#7f7f7f"/>
      <path id="Trazado_55198" data-name="Trazado 55198" d="M127.026,338.686a3.694,3.694,0,0,1,1.191.1c.169.064.373.111.555.175.188.083.4.2.6.292a2.85,2.85,0,0,1,.284.23,2.234,2.234,0,0,1,.3.218l.228.286.2.324a1.275,1.275,0,0,1,.162.373l.122.339a5.782,5.782,0,0,1,.053.728c-.023.239-.045.452-.075.672a4.417,4.417,0,0,1-.173.553,1.979,1.979,0,0,1-.177.469,1.027,1.027,0,0,1-.175.329,2.712,2.712,0,0,0-.151.28s.028-.13.064-.322a3.384,3.384,0,0,1,.077-.356,1.562,1.562,0,0,0,.085-.467,3.531,3.531,0,0,1,.09-.538c-.009-.213-.011-.391-.028-.606a4.8,4.8,0,0,0-.083-.625l-.09-.282a1.136,1.136,0,0,0-.141-.28l-.156-.282-.2-.235a2.462,2.462,0,0,0-.476-.435,2.329,2.329,0,0,0-.5-.32,1.927,1.927,0,0,0-.474-.211A6.966,6.966,0,0,0,127.026,338.686Z" transform="translate(-77.743 -315.353)" fill="#7f7f7f"/>
      <path id="Trazado_55199" data-name="Trazado 55199" d="M123.255,333.731a4.1,4.1,0,0,1,.587-.935,2.357,2.357,0,0,1,.348-.418c.137-.126.28-.247.461-.388a3,3,0,0,1,.551-.346,5.44,5.44,0,0,1,.647-.237l.352-.079a3.189,3.189,0,0,0,.331-.034,2.219,2.219,0,0,1,.685.1,2.411,2.411,0,0,1,.566.186,2.2,2.2,0,0,1,.48.292c.134.111.273.162.356.284.075.083.173.162.239.241a1.9,1.9,0,0,0,.2.224,1.039,1.039,0,0,1-.262-.147c-.09-.036-.19-.113-.307-.164a3.653,3.653,0,0,0-.367-.19,1.868,1.868,0,0,0-.48-.154,1.747,1.747,0,0,0-.519-.132,2.335,2.335,0,0,0-.576-.045c-.081.019-.194.019-.282.047l-.277.064a2.169,2.169,0,0,0-.583.19,4.485,4.485,0,0,0-.508.273,7.3,7.3,0,0,0-.866.638A7.946,7.946,0,0,0,123.255,333.731Z" transform="translate(-82.019 -323.725)" fill="#7f7f7f"/>
      <path id="Trazado_55200" data-name="Trazado 55200" d="M130.188,329.7a4.682,4.682,0,0,1,.51-.137c.16-.032.352-.07.576-.094a4.182,4.182,0,0,1,.77-.068c.126.019.273.006.429.013a1.671,1.671,0,0,0,.467.075,2.161,2.161,0,0,1,.5.111,4.847,4.847,0,0,1,.5.156,4.386,4.386,0,0,0,.512.237,2.9,2.9,0,0,1,.455.312.758.758,0,0,1,.265.175l.179.2c.158.158.3.273.423.412l.329.5.147.226a.9.9,0,0,1,.122.28,4.142,4.142,0,0,1,.391,1.018,8.211,8.211,0,0,1,.2,1c0,.326.034.625.047.9a3.612,3.612,0,0,1-.013.779c-.028.213-.021.418-.036.574a2.614,2.614,0,0,1-.068.5s0-.186-.036-.484c-.015-.181-.026-.378-.036-.6a4.382,4.382,0,0,0-.092-.749c-.041-.256-.1-.565-.141-.873-.045-.288-.192-.6-.26-.92a5.136,5.136,0,0,0-.4-.943c-.036-.07-.079-.173-.12-.241l-.147-.2-.29-.459c-.109-.139-.248-.235-.361-.356l-.188-.192c-.047-.049-.139-.1-.209-.169-.122-.075-.271-.2-.4-.292-.16-.085-.3-.137-.427-.2a2.68,2.68,0,0,0-.459-.2,1.978,1.978,0,0,0-.465-.128c-.13-.03-.3-.085-.446-.113-.12,0-.265-.038-.408-.041-.267-.049-.512-.062-.747-.09-.218.011-.418.026-.553.032A4.588,4.588,0,0,0,130.188,329.7Z" transform="translate(-74.158 -325.873)" fill="#7f7f7f"/>
      <path id="Trazado_55201" data-name="Trazado 55201" d="M136.57,335.881a1.981,1.981,0,0,1,.822.382,2.4,2.4,0,0,1,.7.608,3.9,3.9,0,0,1,.286.42c.1.162.154.314.254.5a4.776,4.776,0,0,1,.145.51,2.145,2.145,0,0,1,.066.5c.009.156.019.337.019.5,0,.113-.026.288-.036.414a2.585,2.585,0,0,1-.156.621,1.611,1.611,0,0,1-.07.222,1.043,1.043,0,0,1-.011-.25c-.034-.143-.028-.348-.073-.589-.011-.13-.015-.269-.036-.41-.034-.171-.053-.271-.092-.444-.015-.141-.07-.29-.1-.459a1.551,1.551,0,0,0-.145-.42,4.678,4.678,0,0,0-.188-.455c-.081-.134-.152-.29-.22-.42a7.736,7.736,0,0,0-.508-.649A5.446,5.446,0,0,0,136.57,335.881Z" transform="translate(-66.92 -318.519)" fill="#7f7f7f"/>
      <path id="Trazado_55202" data-name="Trazado 55202" d="M139.258,340.057a2.625,2.625,0,0,1,.384.783,3.039,3.039,0,0,1,.2.875c0,.151.047.356.032.516-.015.181-.013.371-.023.54a2.472,2.472,0,0,1-.115.525,2.276,2.276,0,0,1-.154.493,1.449,1.449,0,0,1-.19.44,2.526,2.526,0,0,1-.235.361,2.822,2.822,0,0,1-.429.482,1.2,1.2,0,0,1-.169.166,1.85,1.85,0,0,0,.087-.222,4.23,4.23,0,0,0,.256-.559c.051-.117.1-.25.145-.376a4.308,4.308,0,0,0,.107-.433,4.165,4.165,0,0,0,.177-.922,6.753,6.753,0,0,0,.066-.986c-.009-.145.009-.29-.006-.446-.019-.128-.017-.269-.036-.393A7.469,7.469,0,0,0,139.258,340.057Z" transform="translate(-64.666 -313.784)" fill="#7f7f7f"/>
      <path id="Trazado_55203" data-name="Trazado 55203" d="M134.368,348.14a1.765,1.765,0,0,1,.173.277,2.584,2.584,0,0,1,.154.333,2.144,2.144,0,0,1,.173.493,2.632,2.632,0,0,1,.1.593,1.47,1.47,0,0,1,.009.335c-.015.132-.021.235-.034.371-.045.1-.051.267-.111.32a3,3,0,0,1-.16.378c-.049.117-.162.2-.216.331a1.355,1.355,0,0,1-.288.273l-.312.241c-.075.1-.218.137-.292.2a1.224,1.224,0,0,1-.35.154,1.683,1.683,0,0,0-.324.145c-.226.051-.435.124-.657.162s-.412.019-.591.06-.35.006-.484.03c-.149-.019-.282-.006-.376-.026-.22,0-.341.006-.341.006a2.544,2.544,0,0,0,.316-.1,2.235,2.235,0,0,1,.371-.064c.139-.049.307-.06.474-.111s.354-.1.548-.154a3.312,3.312,0,0,0,.587-.245c.079-.036.2-.073.292-.122s.175-.09.284-.149c.09-.055.184-.13.267-.19l.254-.192a1.236,1.236,0,0,0,.226-.237c.06-.085.162-.173.181-.258a2.191,2.191,0,0,0,.149-.279,2.3,2.3,0,0,0,.1-.305.637.637,0,0,0,.049-.28,1.64,1.64,0,0,0,.043-.275,2.492,2.492,0,0,0,0-.563,2.146,2.146,0,0,0-.066-.5c-.026-.111-.045-.239-.073-.35A2.908,2.908,0,0,0,134.368,348.14Z" transform="translate(-73.877 -304.618)" fill="#7f7f7f"/>
      <path id="Trazado_55204" data-name="Trazado 55204" d="M123.321,355.807s.122.13.3.339c.2.213.478.525.847.851a4.956,4.956,0,0,0,.608.446,7.867,7.867,0,0,0,.721.5c.3.137.546.273.839.373a3.922,3.922,0,0,1,.455.158l.48.087.228.062.218-.011a3.365,3.365,0,0,0,.45.04c.329-.017.644-.03.928-.058.294-.07.585-.126.86-.169.267-.075.5-.184.745-.258a4.988,4.988,0,0,0,.61-.256c.181-.079.327-.141.48-.209.262-.145.4-.2.4-.2a2.076,2.076,0,0,1-.356.28c-.13.083-.258.2-.437.307a1.748,1.748,0,0,1-.593.35,4.2,4.2,0,0,1-.738.333c-.275.092-.568.192-.875.275-.322.043-.67.1-.992.111a2.661,2.661,0,0,0-.525-.011l-.243-.023-.28-.068-.5-.1c-.145-.055-.309-.122-.465-.179a1.225,1.225,0,0,1-.467-.228,2.775,2.775,0,0,1-.427-.22,4.08,4.08,0,0,1-.74-.559c-.248-.216-.427-.382-.58-.544a11.851,11.851,0,0,1-.73-1.005C123.4,355.946,123.321,355.807,123.321,355.807Z" transform="translate(-81.945 -295.924)" fill="#7f7f7f"/>
      <path id="Trazado_55205" data-name="Trazado 55205" d="M138.57,352.443a2.5,2.5,0,0,1-.2.956,1.644,1.644,0,0,1-.2.427c-.085.141-.184.294-.3.472a2.773,2.773,0,0,1-.431.386,2.325,2.325,0,0,1-.523.331c-.16.1-.369.139-.544.226-.218.019-.418.058-.6.081-.181-.011-.352-.036-.531-.053s-.324-.062-.476-.081a2.945,2.945,0,0,1-.672-.245c-.139-.055-.228-.1-.228-.1a2.08,2.08,0,0,1,.267.006c.169.013.4.056.676.064a2.729,2.729,0,0,1,.457,0c.143-.019.309-.041.478-.07.16-.013.329-.068.484-.085a3.054,3.054,0,0,0,.487-.188,1.86,1.86,0,0,0,.425-.282,1.4,1.4,0,0,0,.4-.32,1.764,1.764,0,0,0,.331-.369,3.168,3.168,0,0,0,.262-.339A4.45,4.45,0,0,0,138.57,352.443Z" transform="translate(-69.996 -299.739)" fill="#7f7f7f"/>
      <path id="Trazado_55206" data-name="Trazado 55206" d="M138.492,348.336a.739.739,0,0,1,.254-.243.664.664,0,0,1,.337-.149.257.257,0,0,1,.224.021,1.456,1.456,0,0,1,.224.049.963.963,0,0,1,.346.309,1.252,1.252,0,0,1,.111.371.553.553,0,0,1-.017.224c.009.088-.032.115-.032.115a.567.567,0,0,1-.075-.07,2.079,2.079,0,0,0-.143-.162c-.038-.036-.073-.068-.1-.09s-.077-.049-.1-.088c-.075-.047-.126-.126-.2-.13a2.829,2.829,0,0,0-.508-.137A1.87,1.87,0,0,1,138.492,348.336Z" transform="translate(-64.741 -304.859)" fill="#7f7f7f"/>
      <path id="Trazado_55207" data-name="Trazado 55207" d="M134.356,345.752a.212.212,0,0,0,.087.053,1.276,1.276,0,0,1,.117.228.815.815,0,0,1,.019.367.955.955,0,0,1-.053.179l-.07.2a.786.786,0,0,1-.256.305.836.836,0,0,1-.28.173,1.781,1.781,0,0,1-.337.081,1,1,0,0,1,.122-.288,2.877,2.877,0,0,0,.154-.25.152.152,0,0,1,.077-.132.47.47,0,0,0,.083-.135c.041-.075.077-.175.124-.26a1.647,1.647,0,0,0,.111-.243A1.391,1.391,0,0,0,134.356,345.752Z" transform="translate(-70.308 -307.326)" fill="#7f7f7f"/>
    </g>
  </g>
</svg>
