<svg xmlns="http://www.w3.org/2000/svg" width="109" height="109" viewBox="0 0 109 109">
  <g id="Grupo_29096" data-name="Grupo 29096" transform="translate(-2951 -2198)">
    <rect id="Rectángulo_5355" data-name="Rectángulo 5355" width="109" height="109" transform="translate(2951 2198)" fill="none"/>
    <g id="Grupo_29090" data-name="Grupo 29090" transform="translate(2662.411 2639.035)">
      <g id="Grupo_29059" data-name="Grupo 29059">
        <path id="Trazado_58483" data-name="Trazado 58483" d="M387.209-386.522a41.755,41.755,0,0,0-41.755-41.755A41.755,41.755,0,0,0,303.7-386.522a41.758,41.758,0,0,0,1.713,11.839,7.4,7.4,0,0,1,2.894-.6h41.57a7.3,7.3,0,0,1,.853.058l-.012-.019a7.2,7.2,0,0,1,1.111.227l.017.005a7.987,7.987,0,0,1,.9.312l.074.034a8.182,8.182,0,0,1,.8.4l.108.064c.248.146.49.3.727.475.043.031.085.064.127.1q.34.255.662.544l.139.128q.308.288.6.606c.048.052.1.1.143.159.186.212.365.432.539.662.048.064.1.127.143.192.167.229.326.467.48.713.046.073.092.145.137.22.147.245.287.5.421.759.043.083.087.165.129.249.127.26.245.527.359.8.039.093.08.184.117.278.108.273.206.554.3.838.033.1.069.2.1.3.088.287.165.581.238.878.026.105.057.207.081.314.069.3.124.615.177.928.017.1.04.206.056.311.05.335.085.678.116,1.022.007.087.021.171.027.258.032.432.05.869.05,1.311v14.938A41.771,41.771,0,0,0,387.209-386.522Z" fill="#f2f2f2"/>
        <path id="Trazado_58484" data-name="Trazado 58484" d="M358.635-341.527a1.577,1.577,0,0,0,.956-1.585h0A1.577,1.577,0,0,1,358.635-341.527Z" fill="#ef5350"/>
        <path id="Trazado_58485" data-name="Trazado 58485" d="M298.589-343.113h0a1.576,1.576,0,0,0,.957,1.585A1.577,1.577,0,0,1,298.589-343.113Z" fill="#ef5350"/>
        <path id="Trazado_58486" data-name="Trazado 58486" d="M358.746-367.483c.033.1.069.2.1.3C358.815-367.286,358.779-367.384,358.746-367.483Z" fill="#ef5350"/>
        <path id="Trazado_58487" data-name="Trazado 58487" d="M359.342-365.065c.017.1.04.206.056.311C359.382-364.859,359.359-364.961,359.342-365.065Z" fill="#ef5350"/>
        <path id="Trazado_58488" data-name="Trazado 58488" d="M355.24-373.086l.139.128Z" fill="#ef5350"/>
        <path id="Trazado_58489" data-name="Trazado 58489" d="M359.084-366.307c.026.105.057.207.081.314C359.141-366.1,359.11-366.2,359.084-366.307Z" fill="#ef5350"/>
        <path id="Trazado_58490" data-name="Trazado 58490" d="M359.514-363.732c.007.087.021.171.027.258C359.535-363.561,359.521-363.645,359.514-363.732Z" fill="#ef5350"/>
        <path id="Trazado_58491" data-name="Trazado 58491" d="M356.66-371.531c.048.064.1.127.143.192C356.756-371.4,356.708-371.467,356.66-371.531Z" fill="#ef5350"/>
        <path id="Trazado_58492" data-name="Trazado 58492" d="M357.283-370.626c.046.073.092.145.137.22C357.375-370.481,357.329-370.553,357.283-370.626Z" fill="#ef5350"/>
        <path id="Trazado_58493" data-name="Trazado 58493" d="M357.841-369.647c.043.083.087.165.129.249C357.928-369.482,357.884-369.564,357.841-369.647Z" fill="#ef5350"/>
        <path id="Trazado_58494" data-name="Trazado 58494" d="M355.978-372.352c.048.052.1.1.143.159C356.073-372.247,356.026-372.3,355.978-372.352Z" fill="#ef5350"/>
        <path id="Trazado_58495" data-name="Trazado 58495" d="M358.329-368.6c.039.093.08.184.117.278C358.409-368.415,358.368-368.506,358.329-368.6Z" fill="#ef5350"/>
        <path id="Trazado_58496" data-name="Trazado 58496" d="M351.827-375.012l.017.005Z" fill="#ef5350"/>
        <path id="Trazado_58497" data-name="Trazado 58497" d="M352.74-374.7l.074.034Z" fill="#ef5350"/>
        <path id="Trazado_58498" data-name="Trazado 58498" d="M353.616-374.264l.108.064Z" fill="#ef5350"/>
        <path id="Trazado_58499" data-name="Trazado 58499" d="M354.451-373.725c.043.031.085.064.127.1C354.536-373.661,354.494-373.694,354.451-373.725Z" fill="#ef5350"/>
        <path id="Trazado_58500" data-name="Trazado 58500" d="M354.578-373.63q.339.255.662.544Q354.917-373.375,354.578-373.63Z" fill="#d32f2f"/>
        <path id="Trazado_58501" data-name="Trazado 58501" d="M356.121-372.193c.186.211.365.433.539.662C356.486-371.761,356.307-371.981,356.121-372.193Z" fill="#d32f2f"/>
        <path id="Trazado_58502" data-name="Trazado 58502" d="M350.716-375.239l.012.019a7.4,7.4,0,0,1,1.1.208A7.2,7.2,0,0,0,350.716-375.239Z" fill="#d32f2f"/>
        <path id="Trazado_58503" data-name="Trazado 58503" d="M351.844-375.007a7.79,7.79,0,0,1,.9.312A7.987,7.987,0,0,0,351.844-375.007Z" fill="#d32f2f"/>
        <path id="Trazado_58504" data-name="Trazado 58504" d="M353.724-374.2c.248.146.491.3.727.475C354.214-373.9,353.972-374.054,353.724-374.2Z" fill="#d32f2f"/>
        <path id="Trazado_58505" data-name="Trazado 58505" d="M352.814-374.661a8.182,8.182,0,0,1,.8.4A8.182,8.182,0,0,0,352.814-374.661Z" fill="#d32f2f"/>
        <path id="Trazado_58506" data-name="Trazado 58506" d="M355.379-372.958q.308.288.6.606Q355.687-372.67,355.379-372.958Z" fill="#d32f2f"/>
        <path id="Trazado_58507" data-name="Trazado 58507" d="M358.846-367.185c.088.287.165.582.238.878C359.011-366.6,358.934-366.9,358.846-367.185Z" fill="#d32f2f"/>
        <path id="Trazado_58508" data-name="Trazado 58508" d="M359.591-362.163c0-.442-.018-.879-.05-1.311q.05.651.05,1.32Z" fill="#d32f2f"/>
        <path id="Trazado_58509" data-name="Trazado 58509" d="M359.4-364.754c.05.335.085.678.116,1.022C359.483-364.076,359.448-364.419,359.4-364.754Z" fill="#d32f2f"/>
        <path id="Trazado_58510" data-name="Trazado 58510" d="M359.165-365.993c.069.3.124.615.177.928C359.289-365.378,359.234-365.689,359.165-365.993Z" fill="#d32f2f"/>
        <path id="Trazado_58511" data-name="Trazado 58511" d="M356.8-371.339c.167.229.326.468.48.713C357.129-370.872,356.97-371.11,356.8-371.339Z" fill="#d32f2f"/>
        <path id="Trazado_58512" data-name="Trazado 58512" d="M357.42-370.406c.147.245.287.5.421.759C357.707-369.907,357.567-370.161,357.42-370.406Z" fill="#d32f2f"/>
        <path id="Trazado_58513" data-name="Trazado 58513" d="M357.97-369.4c.127.26.245.528.359.8C358.215-368.871,358.1-369.138,357.97-369.4Z" fill="#d32f2f"/>
        <path id="Trazado_58514" data-name="Trazado 58514" d="M358.446-368.321c.108.273.206.554.3.838C358.652-367.767,358.554-368.048,358.446-368.321Z" fill="#d32f2f"/>
      </g>
      <path id="Trazado_58515" data-name="Trazado 58515" d="M351.38-432.035a28.917,28.917,0,0,0-14.415,3.847A29.235,29.235,0,0,0,326.6-418.071a1.2,1.2,0,0,0,.011,1.262,1.2,1.2,0,0,0,1.134.552,13.149,13.149,0,0,1,1.342-.069,12.865,12.865,0,0,1,9.522,4.151,12.865,12.865,0,0,1,3.44,9.8l-.184,2.495a1.205,1.205,0,0,0,.317.9,1.2,1.2,0,0,0,.878.382h2.385a1.842,1.842,0,0,1,1.84,1.84v.332a4.454,4.454,0,0,1-4.45,4.449H342.4a1.2,1.2,0,0,0-1.194,1.11l-.118,1.594c-.214,2.912-2.2,5.856-5.453,8.077l0,0a1.2,1.2,0,0,0-.508,1.152v4.737a2.419,2.419,0,0,0,2.416,2.417h12.338a7.328,7.328,0,0,1,7.32,7.32v9.5a1.2,1.2,0,0,0,.465.948,1.2,1.2,0,0,0,.733.249,1.2,1.2,0,0,0,.3-.038,28.992,28.992,0,0,0,21.66-28.041v-20.111A29.01,29.01,0,0,0,351.38-432.035Z" fill="#ffc800"/>
      <path id="Trazado_58516" data-name="Trazado 58516" d="M361.006-430.389a28.972,28.972,0,0,1,12.962,24.137v20.111A29,29,0,0,1,357.2-359.858v3.792a1.2,1.2,0,0,0,.466.948,1.2,1.2,0,0,0,.732.25,1.205,1.205,0,0,0,.3-.039,28.99,28.99,0,0,0,21.66-28.04v-20.111A29.025,29.025,0,0,0,361.006-430.389Z" fill="#f4ba00"/>
      <path id="Trazado_58517" data-name="Trazado 58517" d="M351.38-426.046h0a22.949,22.949,0,0,0-18.309,9.088,14.2,14.2,0,0,1,10.175,14.672l-.183,2.5h2.385a3.037,3.037,0,0,1,3.037,3.037v.332a5.648,5.648,0,0,1-5.647,5.648h-.44l-.117,1.593c-.277,3.769-2.937,6.906-5.973,8.979l.011-.007v4.91a1.219,1.219,0,0,0,1.219,1.219h12.337a8.518,8.518,0,0,1,8.518,8.517v4.513a23,23,0,0,0,15.974-21.9v-20.111A22.988,22.988,0,0,0,351.38-426.046Z" fill="#bbdefb"/>
      <path id="Trazado_58518" data-name="Trazado 58518" d="M358.332-424.975a22.959,22.959,0,0,1,9.647,18.723v20.111a22.956,22.956,0,0,1-9.771,18.808,8.6,8.6,0,0,1,.185,1.77v4.513a23,23,0,0,0,15.974-21.9v-20.111A23,23,0,0,0,358.332-424.975Z" fill="#64b5f6" opacity="0.39"/>
      <path id="Trazado_58519" data-name="Trazado 58519" d="M351.38-417.523a14.155,14.155,0,0,0-11.145,5.4,14.122,14.122,0,0,1,3.011,9.833l-.183,2.5h2.385a3.037,3.037,0,0,1,3.037,3.037v.333a5.647,5.647,0,0,1-5.647,5.647h-.44l-.117,1.594a10.179,10.179,0,0,1-2.047,5.254c2.9,3.964,8.149,6.443,11.145,6.443,4.165,0,12.683-4.788,13.192-11.7l.965-13.106A14.194,14.194,0,0,0,351.38-417.523Z" fill="#ffb380"/>
      <path id="Trazado_58520" data-name="Trazado 58520" d="M354.325-417.218a14.16,14.16,0,0,1,4.823,11.738l-.965,13.105c-.509,6.91-9.027,11.7-13.191,11.7a8.007,8.007,0,0,1-1.8-.233c2.761,2.164,6.046,3.427,8.185,3.427,4.164,0,12.682-4.788,13.191-11.7l.965-13.105A14.2,14.2,0,0,0,354.325-417.218Z" fill="#e7985b"/>
      <path id="Trazado_58521" data-name="Trazado 58521" d="M365.128-390.774h-.44l.664-9.017h2.386a3.037,3.037,0,0,1,3.037,3.037v.332A5.648,5.648,0,0,1,365.128-390.774Z" fill="#e7985b"/>
      <path id="Trazado_58522" data-name="Trazado 58522" d="M357.784-416a13.115,13.115,0,0,1,.377,3.122,13.037,13.037,0,0,1-1.316,5.723,13.148,13.148,0,0,0,3.212,4.175,1.268,1.268,0,0,1,.437,1.1,7.233,7.233,0,0,0-.011,1.487,7.152,7.152,0,0,0,4.477,5.936l.576-7.827A14.2,14.2,0,0,0,357.784-416Z" fill="#2d1530"/>
      <path id="Trazado_58523" data-name="Trazado 58523" d="M342.838-390.774H342.4l.664-9.017h2.385a3.037,3.037,0,0,1,3.037,3.037v.332A5.648,5.648,0,0,1,342.838-390.774Z" fill="#e7985b"/>
      <path id="Trazado_58524" data-name="Trazado 58524" d="M315.342-390.774h.439l-.664-9.017h-2.385a3.037,3.037,0,0,0-3.037,3.037v.332A5.648,5.648,0,0,0,315.342-390.774Z" fill="#e7985b"/>
      <path id="Trazado_58525" data-name="Trazado 58525" d="M315.9-389.181c.277,3.768,2.937,6.9,5.973,8.979l-.011-.007v4.91a1.219,1.219,0,0,1-1.219,1.219h16.9a1.219,1.219,0,0,1-1.219-1.219v-4.91l-.011.007c3.036-2.073,5.7-5.21,5.973-8.979l.965-13.105a14.194,14.194,0,0,0-14.156-15.237,14.2,14.2,0,0,0-14.157,15.237Z" fill="#ffb380"/>
      <path id="Trazado_58526" data-name="Trazado 58526" d="M332.035-417.218a14.16,14.16,0,0,1,4.823,11.738l-.965,13.105c-.277,3.769-2.937,6.906-5.973,8.979l.011-.007v3.036a3.092,3.092,0,0,1-3.092,3.092h-4.978v1.975a1.219,1.219,0,0,1-1.219,1.219h16.9a1.219,1.219,0,0,1-1.219-1.219v-4.909l-.011.007c3.036-2.074,5.7-5.211,5.973-8.979l.966-13.105A14.2,14.2,0,0,0,332.035-417.218Z" fill="#e7985b"/>
      <path id="Trazado_58527" data-name="Trazado 58527" d="M342.923-397.89l.31-4.207a14.312,14.312,0,0,0-14.253-15.426,14.2,14.2,0,0,0-14.047,15.237l.324,4.4a19.276,19.276,0,0,0,7.612,13.97h0a10.325,10.325,0,0,0,12.441,0h0A19.273,19.273,0,0,0,342.923-397.89Z" fill="#401f43"/>
      <path id="Trazado_58528" data-name="Trazado 58528" d="M331.949-417.23a14.441,14.441,0,0,1,4.9,11.939l-.31,4.207a19.276,19.276,0,0,1-7.612,13.97h0a10.321,10.321,0,0,1-7.476,2.007q.68.624,1.422,1.187h0a10.325,10.325,0,0,0,12.441,0h0a19.273,19.273,0,0,0,7.613-13.97l.309-4.207A14.372,14.372,0,0,0,331.949-417.23Z" fill="#2d1530"/>
      <path id="Trazado_58529" data-name="Trazado 58529" d="M343.246-402.286l-.175,2.379a1.225,1.225,0,0,1,.29,0,13.057,13.057,0,0,0,1.712.113,13.088,13.088,0,0,0,13.088-13.088,13.1,13.1,0,0,0-.376-3.121,14.122,14.122,0,0,0-6.4-1.523,14.155,14.155,0,0,0-11.145,5.4A14.122,14.122,0,0,1,343.246-402.286Z" fill="#401f43"/>
      <path id="Trazado_58530" data-name="Trazado 58530" d="M372.165-374.08l-12.338.01a8.41,8.41,0,0,1-2,5.455,8.473,8.473,0,0,1,.566,3.052v4.511a23.053,23.053,0,0,0,14.2-13.018C372.449-374.077,372.308-374.08,372.165-374.08Z" fill="#e33e4e"/>
      <path id="Trazado_58531" data-name="Trazado 58531" d="M372.165-374.08l-4.411,0a23.088,23.088,0,0,1-9.361,8.534v4.491a23.053,23.053,0,0,0,14.2-13.018C372.449-374.077,372.308-374.08,372.165-374.08Z" fill="#bf2e43"/>
      <path id="Trazado_58532" data-name="Trazado 58532" d="M359.828-374.07v-.01a1.219,1.219,0,0,1-1.219-1.219v-4.91a14.324,14.324,0,0,1-7.229,2.726,14.321,14.321,0,0,1-7.229-2.726v4.91a1.219,1.219,0,0,1-1.219,1.219h6.944a8.519,8.519,0,0,1,7.952,5.465A8.415,8.415,0,0,0,359.828-374.07Z" fill="#ffccbc"/>
      <path id="Trazado_58533" data-name="Trazado 58533" d="M358.609-375.3v-4.91a16.154,16.154,0,0,1-6,2.608,1.214,1.214,0,0,0,.828.327v.009a8.4,8.4,0,0,1-.822,3.637,8.539,8.539,0,0,1,5.21,5.013,8.41,8.41,0,0,0,2-5.456v-.01A1.217,1.217,0,0,1,358.609-375.3Z" fill="#e7985b"/>
      <g id="Grupo_29061" data-name="Grupo 29061">
        <path id="Trazado_58534" data-name="Trazado 58534" d="M348.148-351.863a1.194,1.194,0,0,0-1.2,1.189v4.864h1.212a3.808,3.808,0,0,0,1.184-.2v-4.667A1.194,1.194,0,0,0,348.148-351.863Z" fill="#bf2e43"/>
        <g id="Grupo_29060" data-name="Grupo 29060">
          <path id="Trazado_58535" data-name="Trazado 58535" d="M336.19-345.81h10.76v-4.864a1.194,1.194,0,0,1,1.2-1.189,1.194,1.194,0,0,1,1.2,1.189v4.667c2.211-.72,3.857-3.4,3.857-6.615v-13.857a15.927,15.927,0,0,0-2.475-8.741,7.3,7.3,0,0,0-.853-.058H308.3a7.4,7.4,0,0,0-2.894.6A41.811,41.811,0,0,0,336.19-345.81Z" fill="#e33e4e"/>
          <path id="Trazado_58536" data-name="Trazado 58536" d="M336.19-345.81a41.888,41.888,0,0,0,9.264,1.044c.5,0,1-.02,1.5-.038v-1.006Z" fill="#bf2e43"/>
          <path id="Trazado_58537" data-name="Trazado 58537" d="M359.541-363.474c-.006-.087-.02-.171-.027-.258-.031-.344-.066-.687-.116-1.022-.016-.105-.039-.207-.056-.311-.053-.313-.108-.624-.177-.928-.024-.107-.055-.209-.081-.314-.073-.3-.15-.591-.238-.878-.031-.1-.067-.2-.1-.3-.094-.284-.192-.565-.3-.838-.037-.094-.078-.185-.117-.278-.114-.271-.232-.539-.359-.8-.042-.084-.086-.166-.129-.249-.134-.259-.274-.514-.421-.759-.045-.075-.091-.147-.137-.22-.154-.245-.313-.484-.48-.713-.047-.065-.1-.128-.143-.192-.174-.229-.353-.451-.539-.662-.048-.054-.1-.107-.143-.159q-.291-.318-.6-.606l-.139-.128q-.322-.289-.662-.544c-.042-.031-.084-.064-.127-.1-.236-.172-.479-.329-.727-.475l-.108-.064a8.182,8.182,0,0,0-.8-.4l-.074-.034a7.79,7.79,0,0,0-.9-.312l-.017-.005a7.4,7.4,0,0,0-1.1-.208,15.927,15.927,0,0,1,2.475,8.741v13.857c0,3.21-1.646,5.9-3.857,6.615v1.054a41.568,41.568,0,0,0,10.245-2.272v-14.929Q359.591-362.823,359.541-363.474Z" fill="#bf2e43"/>
          <path id="Trazado_58538" data-name="Trazado 58538" d="M346.95-345.81v1.006c.8-.028,1.6-.076,2.4-.149v-1.054a3.808,3.808,0,0,1-1.184.2Z" fill="#bf2e43"/>
        </g>
      </g>
    </g>
  </g>
</svg>
