<svg xmlns="http://www.w3.org/2000/svg" width="107" height="107" viewBox="0 0 107 107">
  <g id="Grupo_26838" data-name="Grupo 26838" transform="translate(-289 -8148)">
    <g id="Grupo_26850" data-name="Grupo 26850">
      <rect id="Rectángulo_5239" data-name="Rectángulo 5239" width="107" height="107" transform="translate(289 8148)" fill="none"/>
      <g id="Grupo_26845" data-name="Grupo 26845" transform="translate(-34.491 7799.74)">
        <path id="Trazado_54473" data-name="Trazado 54473" d="M418.7,401.682q0,.877-.037,1.744-.079,1.973-.342,3.89a41.657,41.657,0,0,1-14.975,26.692,40.944,40.944,0,0,1-3.777,2.748,41.557,41.557,0,0,1-6.573,3.451q-1.447.6-2.947,1.1a41.687,41.687,0,0,1-41.753-9.354q-1.4-1.326-2.673-2.779a41.712,41.712,0,1,1,71.863-37.515q.08.316.154.634A41.944,41.944,0,0,1,418.7,401.682Z" fill="#badfff"/>
        <path id="Trazado_54474" data-name="Trazado 54474" d="M415.891,372.8c.961,6.7-7.312,13.431-18.479,15.033a31.079,31.079,0,0,1-10.863-.278h0c-6.076-1.309-10.471-4.584-11.1-8.95-.961-6.7,7.314-13.432,18.481-15.035S414.929,366.1,415.891,372.8Z" fill="#e33e4e"/>
        <g id="Grupo_26845-2" data-name="Grupo 26845">
          <path id="Trazado_54475" data-name="Trazado 54475" d="M395.624,375.384c-6.1.875-11.586-.9-13.506-4.089a4.975,4.975,0,0,0-.123,1.987c.621,4.327,6.971,7,14.183,5.961s12.556-5.382,11.935-9.709a5,5,0,0,0-.677-1.873C406.49,371.261,401.727,374.508,395.624,375.384Z" fill="#bf2e43"/>
          <path id="Trazado_54476" data-name="Trazado 54476" d="M387.512,374.924l-.594,3.471s-5.871,5.039-.371,9.162c-6.077-1.309-10.471-4.584-11.1-8.95-.961-6.7,7.313-13.432,18.481-15.035C393.93,363.572,383.27,370.426,387.512,374.924Z" fill="#bf2e43"/>
        </g>
        <path id="Trazado_54477" data-name="Trazado 54477" d="M418.7,401.682q0,.877-.037,1.744-.079,1.973-.342,3.89A41.447,41.447,0,0,1,416.176,416a28.1,28.1,0,0,1-4.688-.591h0c-6.077-1.309-10.471-4.584-11.1-8.951-.921-6.42,6.637-12.87,17.1-14.806.052.212.1.423.153.635A41.944,41.944,0,0,1,418.7,401.682Z" fill="#e33e4e"/>
        <g id="Grupo_26846" data-name="Grupo 26846">
          <path id="Trazado_54478" data-name="Trazado 54478" d="M418.662,403.426q-.079,1.973-.342,3.89a17.242,17.242,0,0,1-6.464-1.067c-2.733-1.066-4.6-2.865-4.922-5.114a4.96,4.96,0,0,1,.123-1.987,9.1,9.1,0,0,0,5.393,3.632A18.644,18.644,0,0,0,418.662,403.426Z" fill="#bf2e43"/>
          <path id="Trazado_54479" data-name="Trazado 54479" d="M412.45,402.778v0l-.594,3.469s-5.87,5.039-.37,9.162c-6.077-1.309-10.471-4.584-11.1-8.951-.921-6.42,6.638-12.87,17.1-14.806.053.211.1.422.154.635C414.966,394.271,409.123,399.249,412.45,402.778Z" fill="#bf2e43"/>
        </g>
        <path id="Trazado_54480" data-name="Trazado 54480" d="M386.718,424.171c-4.32,5.211-14.862,3.6-23.547-3.6a31.078,31.078,0,0,1-7.087-8.237v0c-3.109-5.382-3.633-10.838-.818-14.234,4.32-5.211,14.865-3.6,23.55,3.6S391.038,418.96,386.718,424.171Z" fill="#e33e4e"/>
        <g id="Grupo_26847" data-name="Grupo 26847">
          <path id="Trazado_54481" data-name="Trazado 54481" d="M371.2,410.884c-4.746-3.934-7.111-9.191-6.037-12.755a4.99,4.99,0,0,0-1.556,1.243c-2.79,3.366-.5,9.864,5.105,14.514s12.418,5.692,15.209,2.326a5,5,0,0,0,.933-1.759C381.549,416.169,375.945,414.819,371.2,410.884Z" fill="#bf2e43"/>
          <path id="Trazado_54482" data-name="Trazado 54482" d="M366.093,404.563l-2.971,1.891s-7.676-.968-7.039,5.876c-3.11-5.382-3.633-10.838-.818-14.233,4.32-5.211,14.865-3.6,23.55,3.6C378.815,401.7,366.578,398.4,366.093,404.563Z" fill="#bf2e43"/>
        </g>
        <path id="Trazado_54483" data-name="Trazado 54483" d="M376.4,391.42c-1.521,6.6-11.666,9.887-22.659,7.351a31.1,31.1,0,0,1-10.03-4.179l0,0c-5.194-3.414-8.111-8.054-7.12-12.352,1.522-6.6,11.668-9.888,22.661-7.352S377.917,384.825,376.4,391.42Z" fill="#e33e4e"/>
        <g id="Grupo_26848" data-name="Grupo 26848">
          <path id="Trazado_54484" data-name="Trazado 54484" d="M356.564,386.513c-6.007-1.386-10.48-5.021-11.12-8.688a4.977,4.977,0,0,0-.832,1.809c-.983,4.26,3.976,9.04,11.076,10.678s13.652-.488,14.634-4.748a4.98,4.98,0,0,0,.045-1.991C368.185,386.589,362.571,387.9,356.564,386.513Z" fill="#bf2e43"/>
          <path id="Trazado_54485" data-name="Trazado 54485" d="M349.164,383.156l-1.807,3.023s-7.293,2.581-3.652,8.411c-5.194-3.414-8.111-8.054-7.119-12.352,1.521-6.6,11.667-9.888,22.66-7.352C359.246,374.886,346.831,377.431,349.164,383.156Z" fill="#bf2e43"/>
        </g>
        <path id="Trazado_54486" data-name="Trazado 54486" d="M412.516,423.544a41.889,41.889,0,0,1-9.171,10.464,40.944,40.944,0,0,1-3.777,2.748,41.408,41.408,0,0,1-9.52,4.547c-2.937-2.472-4.564-5.488-4.248-8.577.688-6.734,10.348-11.262,21.57-10.115A33.286,33.286,0,0,1,412.516,423.544Z" fill="#e33e4e"/>
        <g id="Grupo_26849" data-name="Grupo 26849">
          <path id="Trazado_54487" data-name="Trazado 54487" d="M403.345,434.008a40.944,40.944,0,0,1-3.777,2.748c-3.936-1.753-6.434-4.63-6.127-7.613a4.983,4.983,0,0,1,.6-1.9C394.958,430.239,398.569,432.876,403.345,434.008Z" fill="#bf2e43"/>
          <path id="Trazado_54488" data-name="Trazado 54488" d="M398.395,432.071l-1.417,3.226s-3.675,1.844-3.983,4.91q-1.449.6-2.947,1.1c-2.937-2.472-4.564-5.488-4.248-8.577.688-6.734,10.348-11.262,21.57-10.115C407.37,422.611,395.368,426.681,398.395,432.071Z" fill="#bf2e43"/>
        </g>
        <path id="Trazado_54489" data-name="Trazado 54489" d="M355.437,437.394a41.7,41.7,0,0,1-7.142-5.445q-1.4-1.326-2.673-2.779a41.74,41.74,0,0,1-6.4-9.777c9.537-4.021,19.089-2.9,21.9,2.8C363.3,426.613,360.835,432.56,355.437,437.394Z" fill="#e33e4e"/>
        <path id="Trazado_54490" data-name="Trazado 54490" d="M348.3,431.948q-1.4-1.324-2.673-2.778c3.783-2.692,6.04-6.241,5.865-9.237a4.966,4.966,0,0,1,1.224,1.569C354.214,424.55,352.294,428.727,348.3,431.948Z" fill="#bf2e43"/>
        <path id="Trazado_54491" data-name="Trazado 54491" d="M376.064,360.707c.033.01.066.021.1.03C376.13,360.728,376.1,360.717,376.064,360.707Z" fill="none"/>
        <path id="Trazado_54492" data-name="Trazado 54492" d="M375.237,360.06c.019.03.039.058.059.087C375.276,360.118,375.256,360.09,375.237,360.06Z" fill="none"/>
        <path id="Trazado_54493" data-name="Trazado 54493" d="M386.478,362.789c-.029.018-.059.033-.089.049C386.419,362.822,386.449,362.807,386.478,362.789Z" fill="none"/>
        <path id="Trazado_54494" data-name="Trazado 54494" d="M385.452,362.984c-.033-.007-.066-.012-.1-.02C385.386,362.972,385.419,362.977,385.452,362.984Z" fill="none"/>
        <path id="Trazado_54495" data-name="Trazado 54495" d="M390.383,361.35a3.2,3.2,0,0,1-.357.019A3.2,3.2,0,0,0,390.383,361.35Z" fill="#e3e3e3"/>
        <path id="Trazado_54496" data-name="Trazado 54496" d="M385.452,362.984h0c-.033-.007-.066-.012-.1-.02h0C385.386,362.972,385.419,362.977,385.452,362.984Z" fill="#e3e3e3"/>
        <path id="Trazado_54497" data-name="Trazado 54497" d="M380.232,362.67c-.033-.018-.063-.043-.1-.063C380.169,362.627,380.2,362.652,380.232,362.67Z" fill="#e3e3e3"/>
        <path id="Trazado_54498" data-name="Trazado 54498" d="M385.938,363.008h0Z" fill="#e3e3e3"/>
        <path id="Trazado_54499" data-name="Trazado 54499" d="M379.956,362.485c-.034-.027-.067-.06-.1-.089C379.889,362.425,379.922,362.458,379.956,362.485Z" fill="#e3e3e3"/>
        <path id="Trazado_54500" data-name="Trazado 54500" d="M378.958,361.481c.04.039.08.08.119.12C379.037,361.561,379,361.52,378.958,361.481Z" fill="#e3e3e3"/>
        <path id="Trazado_54501" data-name="Trazado 54501" d="M388.247,361.451a5.237,5.237,0,0,0-1.369,1.042h0a5.224,5.224,0,0,1,1.367-1.041,2.767,2.767,0,0,1,1.032-.1A2.767,2.767,0,0,0,388.247,361.451Z" fill="#e3e3e3"/>
        <path id="Trazado_54502" data-name="Trazado 54502" d="M386.478,362.789h0c-.03.019-.061.034-.091.05h0C386.419,362.822,386.449,362.807,386.478,362.789Z" fill="#e3e3e3"/>
        <path id="Trazado_54503" data-name="Trazado 54503" d="M379.693,362.25c-.031-.031-.062-.063-.092-.1C379.631,362.187,379.662,362.219,379.693,362.25Z" fill="#e3e3e3"/>
        <path id="Trazado_54504" data-name="Trazado 54504" d="M390.01,361.369c-.227,0-.462-.013-.694-.022C389.548,361.356,389.783,361.37,390.01,361.369Z" fill="#e3e3e3"/>
        <path id="Trazado_54505" data-name="Trazado 54505" d="M378.823,361.36c-.044-.038-.088-.077-.133-.111C378.735,361.283,378.779,361.322,378.823,361.36Z" fill="#e3e3e3"/>
        <path id="Trazado_54506" data-name="Trazado 54506" d="M389.316,361.347h0Z" fill="#c4c4c4"/>
        <path id="Trazado_54507" data-name="Trazado 54507" d="M380.137,362.607a2.047,2.047,0,0,1-.181-.122A2.047,2.047,0,0,0,380.137,362.607Z" fill="#c4c4c4"/>
        <path id="Trazado_54508" data-name="Trazado 54508" d="M384.265,362.526c.2.093.409.191.614.277h0C384.675,362.717,384.469,362.619,384.265,362.526Z" fill="#c4c4c4"/>
        <path id="Trazado_54509" data-name="Trazado 54509" d="M379.6,362.155c-.176-.181-.348-.372-.524-.554C379.253,361.783,379.425,361.974,379.6,362.155Z" fill="#c4c4c4"/>
        <path id="Trazado_54510" data-name="Trazado 54510" d="M390.026,361.369h0Z" fill="#c4c4c4"/>
        <path id="Trazado_54511" data-name="Trazado 54511" d="M378.69,361.249c-.044-.035-.091-.063-.137-.093C378.6,361.186,378.646,361.214,378.69,361.249Z" fill="#c4c4c4"/>
        <path id="Trazado_54512" data-name="Trazado 54512" d="M380.53,362.786a1.29,1.29,0,0,1-.3-.116A1.29,1.29,0,0,0,380.53,362.786Z" fill="#c4c4c4"/>
        <path id="Trazado_54513" data-name="Trazado 54513" d="M378.823,361.36c.045.04.091.078.135.121C378.914,361.438,378.868,361.4,378.823,361.36Z" fill="#c4c4c4"/>
        <path id="Trazado_54514" data-name="Trazado 54514" d="M379.855,362.4c-.055-.048-.109-.094-.162-.146C379.746,362.3,379.8,362.348,379.855,362.4Z" fill="#c4c4c4"/>
        <path id="Trazado_54515" data-name="Trazado 54515" d="M386.389,362.838h0a1.378,1.378,0,0,1-.45.17h0A1.4,1.4,0,0,0,386.389,362.838Z" fill="#6b6bd6"/>
        <path id="Trazado_54516" data-name="Trazado 54516" d="M385.353,362.964h0c-.076-.019-.153-.042-.23-.069C385.2,362.922,385.277,362.945,385.353,362.964Z" fill="#6b6bd6"/>
        <path id="Trazado_54517" data-name="Trazado 54517" d="M385.936,363.009h0a1.41,1.41,0,0,1-.483-.025h0A1.416,1.416,0,0,0,385.936,363.009Z" fill="#6b6bd6"/>
        <path id="Trazado_54518" data-name="Trazado 54518" d="M386.479,362.788h0a3.407,3.407,0,0,0,.4-.3h0A3.279,3.279,0,0,1,386.479,362.788Z" fill="#6b6bd6"/>
        <path id="Trazado_54519" data-name="Trazado 54519" d="M384.879,362.8h0c.081.035.163.063.244.092C385.042,362.866,384.961,362.838,384.879,362.8Z" fill="#6b6bd6"/>
        <path id="Trazado_54520" data-name="Trazado 54520" d="M386.479,362.788a3.279,3.279,0,0,0,.4-.295A3.279,3.279,0,0,1,386.479,362.788Z" fill="#6b6bd6"/>
        <path id="Trazado_54521" data-name="Trazado 54521" d="M385.935,363.009a1.41,1.41,0,0,1-.483-.025A1.41,1.41,0,0,0,385.935,363.009Z" fill="#6b6bd6"/>
        <path id="Trazado_54522" data-name="Trazado 54522" d="M385.353,362.964a3.235,3.235,0,0,1-.474-.161c.082.035.163.063.244.092S385.277,362.945,385.353,362.964Z" fill="#6b6bd6"/>
        <path id="Trazado_54523" data-name="Trazado 54523" d="M375.623,360.505a1.406,1.406,0,0,0,.441.2A1.406,1.406,0,0,1,375.623,360.505Z" fill="#6b6bd6"/>
        <path id="Trazado_54524" data-name="Trazado 54524" d="M375.015,359.616a3.28,3.28,0,0,0,.222.444A3.28,3.28,0,0,1,375.015,359.616Z" fill="#6b6bd6"/>
        <path id="Trazado_54525" data-name="Trazado 54525" d="M375.623,360.505a1.435,1.435,0,0,1-.327-.358A1.435,1.435,0,0,0,375.623,360.505Z" fill="#6b6bd6"/>
        <path id="Trazado_54526" data-name="Trazado 54526" d="M376.654,360.813a3.213,3.213,0,0,1-.49-.076A3.194,3.194,0,0,0,376.654,360.813Z" fill="#6b6bd6"/>
      </g>
    </g>
  </g>
</svg>
