<svg xmlns="http://www.w3.org/2000/svg" xmlns:xlink="http://www.w3.org/1999/xlink" width="107" height="107" viewBox="0 0 107 107">
  <defs>
    <clipPath id="clip-path">
      <ellipse id="Elipse_1362" data-name="Elipse 1362" cx="41.284" cy="41.284" rx="41.284" ry="41.284" fill="none"/>
    </clipPath>
  </defs>
  <g id="Grupo_27441" data-name="Grupo 27441" transform="translate(-805 -6735)">
    <rect id="Rect치ngulo_5321" data-name="Rect치ngulo 5321" width="107" height="107" transform="translate(805 6735)" fill="none"/>
    <g id="Grupo_27436" data-name="Grupo 27436" transform="translate(817 6747)">
      <g id="Grupo_27433" data-name="Grupo 27433" transform="translate(0 1.322)">
        <g id="Grupo_27432" data-name="Grupo 27432" clip-path="url(#clip-path)">
          <rect id="Rect치ngulo_5318" data-name="Rect치ngulo 5318" width="83.262" height="83.262" fill="#aacce9"/>
        </g>
      </g>
      <g id="Grupo_27435" data-name="Grupo 27435" transform="translate(12.456)">
        <path id="Trazado_56927" data-name="Trazado 56927" d="M651.3,172.946v2.2a6.578,6.578,0,0,1-6.587,6.586H609.579a6.578,6.578,0,0,1-6.588-6.586v-2.2l4.392-4.392h39.524Z" transform="translate(-598.6 -124.639)" fill="#6b6bd6"/>
        <path id="Trazado_56928" data-name="Trazado 56928" d="M645.592,172.946v2.2A6.578,6.578,0,0,1,639,181.728H621.438V168.554H641.2Z" transform="translate(-592.893 -124.639)" fill="#6161bc"/>
        <path id="Trazado_56929" data-name="Trazado 56929" d="M656.727,144.72v15.722a9.523,9.523,0,0,1-2.854,6.851,5.428,5.428,0,0,0-1.536,3.776v12.253H604.03V171.069a5.424,5.424,0,0,0-1.537-3.776,9.523,9.523,0,0,1-2.854-6.851V144.72a9.708,9.708,0,0,1,9.705-9.705h37.679A9.708,9.708,0,0,1,656.727,144.72Z" transform="translate(-599.638 -135.015)" fill="#e33e4e"/>
        <path id="Trazado_56930" data-name="Trazado 56930" d="M649.982,144.72v15.722a9.524,9.524,0,0,1-2.854,6.851,5.428,5.428,0,0,0-1.536,3.776v12.253H621.438V135.015h18.839A9.708,9.708,0,0,1,649.982,144.72Z" transform="translate(-592.893 -135.015)" fill="#bf2e43"/>
        <path id="Trazado_56931" data-name="Trazado 56931" d="M639.282,141.723H612.933a6.578,6.578,0,0,0-6.587,6.587v4.39a6.578,6.578,0,0,0,6.587,6.588h26.349a6.578,6.578,0,0,0,6.587-6.588v-4.39A6.578,6.578,0,0,0,639.282,141.723Z" transform="translate(-597.563 -132.94)" fill="#efe6de"/>
        <path id="Trazado_56932" data-name="Trazado 56932" d="M634.613,159.288H621.438V141.723h13.175a6.578,6.578,0,0,1,6.587,6.587v4.39A6.578,6.578,0,0,1,634.613,159.288Z" transform="translate(-592.893 -132.94)" fill="#dfccbf"/>
        <path id="Trazado_56933" data-name="Trazado 56933" d="M638.245,165.2H611.9a2.174,2.174,0,0,0-2.2,2.2v26.642a6.579,6.579,0,0,0,6.586,6.587h17.567a6.579,6.579,0,0,0,6.588-6.587V167.4A2.175,2.175,0,0,0,638.245,165.2Z" transform="translate(-596.525 -125.676)" fill="#efe6de"/>
        <path id="Trazado_56934" data-name="Trazado 56934" d="M628.7,179.572l-3.821-6.587a2.27,2.27,0,0,0-3.776,0l-3.821,6.587a6.721,6.721,0,0,0-.879,3.293,6.588,6.588,0,0,0,13.175,0A6.72,6.72,0,0,0,628.7,179.572Z" transform="translate(-594.45 -123.58)" fill="#e33e4e"/>
        <g id="Grupo_27434" data-name="Grupo 27434" transform="translate(17.566 30.74)">
          <ellipse id="Elipse_2152" data-name="Elipse 2152" cx="2.196" cy="2.196" rx="2.196" ry="2.196" transform="translate(0 0)" fill="#ffca28"/>
          <path id="Trazado_56935" data-name="Trazado 56935" d="M624.153,160.688a2.2,2.2,0,1,1-2.2-2.2A2.175,2.175,0,0,1,624.153,160.688Z" transform="translate(-610.978 -158.492)" fill="#ffca28"/>
        </g>
        <ellipse id="Elipse_2153" data-name="Elipse 2153" cx="2.196" cy="2.196" rx="2.196" ry="2.196" transform="translate(35.132 30.741)" fill="#ff8f00"/>
        <path id="Trazado_56936" data-name="Trazado 56936" d="M636.809,167.4v26.642a6.579,6.579,0,0,1-6.588,6.587h-8.783V165.2h13.175A2.175,2.175,0,0,1,636.809,167.4Z" transform="translate(-592.893 -125.676)" fill="#dfccbf"/>
        <path id="Trazado_56937" data-name="Trazado 56937" d="M621.438,162.884v-4.392a2.2,2.2,0,0,1,0,4.392Z" transform="translate(-592.893 -127.752)" fill="#ff8f00"/>
        <path id="Trazado_56938" data-name="Trazado 56938" d="M628.026,182.865a6.578,6.578,0,0,1-6.588,6.587V171.975a2.186,2.186,0,0,1,1.888,1.01l3.821,6.587A6.721,6.721,0,0,1,628.026,182.865Z" transform="translate(-592.893 -123.58)" fill="#bf2e43"/>
      </g>
    </g>
  </g>
</svg>
