<svg xmlns="http://www.w3.org/2000/svg" xmlns:xlink="http://www.w3.org/1999/xlink" width="180" height="180" viewBox="0 0 180 180">
  <defs>
    <clipPath id="clip-path">
      <rect id="Rectángulo_5241" data-name="Rectángulo 5241" width="180" height="180" fill="none"/>
    </clipPath>
  </defs>
  <g id="Grupo_27175" data-name="Grupo 27175" transform="translate(-291 -978.406)">
    <g id="Grupo_26914" data-name="Grupo 26914" transform="translate(-583.662 541.734)">
      <circle id="Elipse_1518" data-name="Elipse 1518" cx="75.415" cy="75.415" r="75.415" transform="translate(889.175 454.44)" fill="#c5dbee"/>
      <g id="Grupo_26859" data-name="Grupo 26859" transform="translate(877.964 503.847)">
        <g id="Grupo_26858" data-name="Grupo 26858" transform="translate(0)">
          <g id="Grupo_26852" data-name="Grupo 26852" transform="translate(6.584 21.969)">
            <circle id="Elipse_1519" data-name="Elipse 1519" cx="3.361" cy="3.361" r="3.361" transform="translate(0 6.637) rotate(-80.81)" fill="#fff"/>
          </g>
          <g id="Grupo_26853" data-name="Grupo 26853" transform="translate(163.361 24.952)">
            <circle id="Elipse_1520" data-name="Elipse 1520" cx="3.361" cy="3.361" r="3.361" transform="translate(0 3.71) rotate(-33.496)" fill="#fff"/>
          </g>
          <g id="Grupo_26854" data-name="Grupo 26854" transform="translate(24.374 2.965)">
            <circle id="Elipse_1521" data-name="Elipse 1521" cx="5.186" cy="5.186" r="5.186" transform="translate(0 7.334) rotate(-45)" fill="#fff"/>
          </g>
          <g id="Grupo_26855" data-name="Grupo 26855" transform="translate(157.648 56.561)">
            <circle id="Elipse_1522" data-name="Elipse 1522" cx="5.186" cy="5.186" r="5.186" fill="#fff"/>
          </g>
          <g id="Grupo_26856" data-name="Grupo 26856" transform="translate(143.235)">
            <circle id="Elipse_1523" data-name="Elipse 1523" cx="8.068" cy="8.068" r="8.068" fill="#fff"/>
          </g>
          <g id="Grupo_26857" data-name="Grupo 26857" transform="translate(0 39.215)">
            <circle id="Elipse_1524" data-name="Elipse 1524" cx="8.068" cy="8.068" r="8.068" transform="matrix(0.932, -0.361, 0.361, 0.932, 0, 5.832)" fill="#fff"/>
          </g>
        </g>
      </g>
      <g id="Grupo_26876" data-name="Grupo 26876" transform="translate(874.662 436.672)">
        <g id="Grupo_26875" data-name="Grupo 26875" clip-path="url(#clip-path)">
          <g id="Grupo_26863" data-name="Grupo 26863" transform="translate(126.34 146.726)">
            <path id="Trazado_54542" data-name="Trazado 54542" d="M990.151,570.288c8.772-.963,5.975,22.455,6.273,24.281,3.619-7.534,12.633-30.308,23.421-28.4,9.927,1.757-2.445,20.171-13.157,24.854,3.024-1.328,21.016-10.647,24.326-1.85,3.857,10.252-26.667,10.444-26.667,10.444s12.429,1.1,9.378,5.038c-7.176,9.268-20.4-.364-20.4-.364S979.386,571.471,990.151,570.288Z" transform="translate(-986.071 -566.057)" fill="#97b9e8"/>
            <g id="Grupo_26860" data-name="Grupo 26860" transform="translate(8.895 6.561)">
              <path id="Trazado_54543" data-name="Trazado 54543" d="M994.481,604.435a.567.567,0,0,1-.51-.813c.089-.184,8.978-18.516,19.626-31.571a.567.567,0,0,1,.879.718c-10.562,12.948-19.4,31.164-19.484,31.346A.565.565,0,0,1,994.481,604.435Z" transform="translate(-993.914 -571.843)" fill="#e9f2f9"/>
            </g>
            <g id="Grupo_26861" data-name="Grupo 26861" transform="translate(4.959 10.261)">
              <path id="Trazado_54544" data-name="Trazado 54544" d="M996.34,601.228a.568.568,0,0,1-.5-.3c-4.461-8.413-5.358-24.541-5.395-25.223a.569.569,0,0,1,.536-.6.551.551,0,0,1,.6.536c.009.166.921,16.561,5.264,24.751a.568.568,0,0,1-.5.833Z" transform="translate(-990.443 -575.106)" fill="#e9f2f9"/>
            </g>
            <g id="Grupo_26862" data-name="Grupo 26862" transform="translate(12.794 25.375)">
              <path id="Trazado_54545" data-name="Trazado 54545" d="M997.92,594.732a.566.566,0,0,1-.188-1.1c9.874-3.48,26.587-5.178,26.754-5.194a.559.559,0,0,1,.62.507.567.567,0,0,1-.507.62c-.167.016-16.747,1.7-26.491,5.136A.581.581,0,0,1,997.92,594.732Z" transform="translate(-997.352 -588.433)" fill="#e9f2f9"/>
            </g>
          </g>
          <g id="Grupo_26866" data-name="Grupo 26866" transform="translate(19.447 74.311)">
            <g id="Grupo_26864" data-name="Grupo 26864">
              <path id="Trazado_54546" data-name="Trazado 54546" d="M930.432,576.266a164.047,164.047,0,0,1-23.862-53.045" transform="translate(-889.833 -499.383)" fill="#62cca2"/>
              <path id="Trazado_54547" data-name="Trazado 54547" d="M908.866,534.751s-.516-25.077,4.018-25.452C918.81,508.809,908.866,534.751,908.866,534.751Z" transform="translate(-889.528 -501.25)" fill="#62cca2"/>
              <path id="Trazado_54548" data-name="Trazado 54548" d="M910.82,533.235s-19.942-15.213-17.412-18.994C896.715,509.3,910.82,533.235,910.82,533.235Z" transform="translate(-891.627 -500.677)" fill="#62cca2"/>
              <path id="Trazado_54549" data-name="Trazado 54549" d="M913.528,539.236s-23.14-9.678-21.647-13.975C893.832,519.644,913.528,539.236,913.528,539.236Z" transform="translate(-891.811 -499.245)" fill="#62cca2"/>
              <path id="Trazado_54550" data-name="Trazado 54550" d="M916.375,545.683s-24.07-7.057-23.061-11.492C894.63,528.391,916.375,545.683,916.375,545.683Z" transform="translate(-891.614 -498.072)" fill="#62cca2"/>
              <path id="Trazado_54551" data-name="Trazado 54551" d="M919.985,553.745s-24.069-7.057-23.062-11.493C898.241,536.452,919.985,553.745,919.985,553.745Z" transform="translate(-891.13 -496.992)" fill="#62cca2"/>
              <path id="Trazado_54552" data-name="Trazado 54552" d="M907.578,527.606s-9.288-23.3-5.175-25.241C907.781,499.824,907.578,527.606,907.578,527.606Z" transform="translate(-890.532 -502.2)" fill="#62cca2"/>
              <path id="Trazado_54553" data-name="Trazado 54553" d="M911.138,541.169s1.508-25.036,6.058-25.044C923.143,516.115,911.138,541.169,911.138,541.169Z" transform="translate(-889.221 -500.334)" fill="#62cca2"/>
              <path id="Trazado_54554" data-name="Trazado 54554" d="M913.82,547.428s3.282-24.867,7.82-24.552C927.572,523.288,913.82,547.428,913.82,547.428Z" transform="translate(-888.861 -499.43)" fill="#62cca2"/>
              <path id="Trazado_54555" data-name="Trazado 54555" d="M917.35,555.611s3.282-24.867,7.82-24.552C931.1,531.472,917.35,555.611,917.35,555.611Z" transform="translate(-888.388 -498.333)" fill="#62cca2"/>
            </g>
            <g id="Grupo_26865" data-name="Grupo 26865" transform="translate(102.186 6.887)">
              <path id="Trazado_54556" data-name="Trazado 54556" d="M982.3,583.984a164.006,164.006,0,0,0,20.347-54.491" transform="translate(-981.87 -505.429)" fill="#62cca2"/>
              <path id="Trazado_54557" data-name="Trazado 54557" d="M999.376,541.117s-1.124-25.057-5.673-25.135C987.758,515.88,999.376,541.117,999.376,541.117Z" transform="translate(-980.568 -507.24)" fill="#62cca2"/>
              <path id="Trazado_54558" data-name="Trazado 54558" d="M998.578,539.753s18.906-16.483,16.135-20.089C1011.09,514.947,998.578,539.753,998.578,539.753Z" transform="translate(-979.687 -506.826)" fill="#62cca2"/>
              <path id="Trazado_54559" data-name="Trazado 54559" d="M996.786,545.918s22.458-11.169,20.688-15.359C1015.161,525.08,996.786,545.918,996.786,545.918Z" transform="translate(-979.927 -505.409)" fill="#62cca2"/>
              <path id="Trazado_54560" data-name="Trazado 54560" d="M994.546,552.535s23.556-8.614,22.261-12.974C1015.114,533.86,994.546,552.535,994.546,552.535Z" transform="translate(-980.228 -504.225)" fill="#62cca2"/>
              <path id="Trazado_54561" data-name="Trazado 54561" d="M991.47,560.815s23.556-8.614,22.261-12.974C1012.038,542.14,991.47,560.815,991.47,560.815Z" transform="translate(-980.64 -503.115)" fill="#62cca2"/>
              <path id="Trazado_54562" data-name="Trazado 54562" d="M1000.1,533.921s7.746-23.855,3.514-25.526C998.081,506.213,1000.1,533.921,1000.1,533.921Z" transform="translate(-979.532 -508.273)" fill="#62cca2"/>
              <path id="Trazado_54563" data-name="Trazado 54563" d="M997.743,547.655s-3.141-24.884-7.681-24.595C984.128,523.438,997.743,547.655,997.743,547.655Z" transform="translate(-981.029 -506.291)" fill="#62cca2"/>
              <path id="Trazado_54564" data-name="Trazado 54564" d="M995.666,554.062s-4.9-24.6-9.407-23.988C980.366,530.873,995.666,554.062,995.666,554.062Z" transform="translate(-981.519 -505.353)" fill="#62cca2"/>
              <path id="Trazado_54565" data-name="Trazado 54565" d="M992.677,562.458s-4.9-24.6-9.407-23.987C977.377,539.27,992.677,562.458,992.677,562.458Z" transform="translate(-981.92 -504.227)" fill="#62cca2"/>
            </g>
          </g>
          <g id="Grupo_26868" data-name="Grupo 26868" transform="translate(118.828 116.88)">
            <path id="Trazado_54566" data-name="Trazado 54566" d="M979.446,602.817a114.407,114.407,0,0,1,3.427-18.3c2.73-10.194,7.852-22.518,14.235-30.333,9.153-11.9,21.63-15.869,26.114-14.006,4.84,1.964,1.685,9.756-12.182,23.7-13.326,14.443-18.776,25.442-21.811,32.4-2.887,7.025-3.36,10.006-3.366,10.049Q982.716,604.507,979.446,602.817Z" transform="translate(-979.446 -539.739)" fill="#97b9e8"/>
            <g id="Grupo_26867" data-name="Grupo 26867" transform="translate(3.264 6.222)">
              <path id="Trazado_54567" data-name="Trazado 54567" d="M982.892,603.827a.64.64,0,0,1-.066,0,.568.568,0,0,1-.5-.628c5.193-44.5,32.71-57.788,32.986-57.917a.567.567,0,0,1,.479,1.029c-.271.127-27.223,13.189-32.338,57.019A.567.567,0,0,1,982.892,603.827Z" transform="translate(-982.324 -545.225)" fill="#e9f2f9"/>
            </g>
          </g>
          <g id="Grupo_26872" data-name="Grupo 26872" transform="translate(8.459 146.726)">
            <path id="Trazado_54568" data-name="Trazado 54568" d="M923.322,570.288c-8.772-.963-5.976,22.455-6.273,24.281-3.619-7.534-12.634-30.308-23.422-28.4-9.926,1.757,2.446,20.171,13.157,24.854-3.023-1.328-21.015-10.647-24.325-1.85-3.858,10.252,26.667,10.444,26.667,10.444s-12.43,1.1-9.38,5.038c7.177,9.268,20.4-.364,20.4-.364S934.088,571.471,923.322,570.288Z" transform="translate(-882.122 -566.057)" fill="#97b9e8"/>
            <g id="Grupo_26869" data-name="Grupo 26869" transform="translate(15.698 6.561)">
              <path id="Trazado_54569" data-name="Trazado 54569" d="M916.085,604.435a.555.555,0,0,0,.246-.057.567.567,0,0,0,.265-.756c-.09-.184-8.978-18.516-19.625-31.571a.568.568,0,0,0-.88.718c10.562,12.948,19.4,31.164,19.484,31.346A.566.566,0,0,0,916.085,604.435Z" transform="translate(-895.964 -571.843)" fill="#e9f2f9"/>
            </g>
            <g id="Grupo_26870" data-name="Grupo 26870" transform="translate(33.859 10.261)">
              <path id="Trazado_54570" data-name="Trazado 54570" d="M912.546,601.228a.566.566,0,0,0,.5-.3c4.462-8.413,5.359-24.541,5.395-25.223a.567.567,0,0,0-.536-.6.551.551,0,0,0-.6.536c-.009.166-.921,16.561-5.264,24.751a.568.568,0,0,0,.5.833Z" transform="translate(-911.979 -575.106)" fill="#e9f2f9"/>
            </g>
            <g id="Grupo_26871" data-name="Grupo 26871" transform="translate(4.73 25.375)">
              <path id="Trazado_54571" data-name="Trazado 54571" d="M913.482,594.732a.566.566,0,0,0,.188-1.1c-9.874-3.48-26.587-5.178-26.755-5.194a.56.56,0,0,0-.62.507.567.567,0,0,0,.507.62c.167.016,16.747,1.7,26.492,5.136A.576.576,0,0,0,913.482,594.732Z" transform="translate(-886.293 -588.433)" fill="#e9f2f9"/>
            </g>
          </g>
          <g id="Grupo_26874" data-name="Grupo 26874" transform="translate(15.349 116.88)">
            <path id="Trazado_54572" data-name="Trazado 54572" d="M934.1,602.817a114.644,114.644,0,0,0-3.428-18.3c-2.729-10.194-7.851-22.518-14.235-30.333-9.153-11.9-21.63-15.869-26.113-14.006-4.84,1.964-1.686,9.756,12.181,23.7,13.326,14.443,18.776,25.442,21.811,32.4,2.888,7.025,3.36,10.006,3.367,10.049Q930.831,604.507,934.1,602.817Z" transform="translate(-888.197 -539.739)" fill="#97b9e8"/>
            <g id="Grupo_26873" data-name="Grupo 26873" transform="translate(8.844 6.222)">
              <path id="Trazado_54573" data-name="Trazado 54573" d="M929.223,603.827a.662.662,0,0,0,.067,0,.568.568,0,0,0,.5-.628c-5.193-44.5-32.71-57.788-32.986-57.917a.567.567,0,0,0-.479,1.029c.272.127,27.223,13.189,32.338,57.019A.567.567,0,0,0,929.223,603.827Z" transform="translate(-895.995 -545.225)" fill="#e9f2f9"/>
            </g>
          </g>
        </g>
      </g>
      <g id="Grupo_26903" data-name="Grupo 26903" transform="translate(922.931 495.971)">
        <g id="Grupo_26883" data-name="Grupo 26883">
          <path id="Trazado_54574" data-name="Trazado 54574" d="M996.448,582.931c-.23-7.262-2.42-14.447-5.077-25.5-4.6-19.121-7.173-1.091-21.845-2.835a10.379,10.379,0,0,0-1.328,0H950.76v0c-.647,0-1.338,0-2.078,0-8.918,0-17.246-16.286-21.844,2.835-2.658,11.051-6.544,17.958-5.367,24.626l-1.939,19.667h78.234Z" transform="translate(-916.918 -481.033)" fill="#6b6bd6"/>
          <g id="Grupo_26879" data-name="Grupo 26879" transform="translate(63.762)">
            <g id="Grupo_26877" data-name="Grupo 26877" transform="translate(2.566)">
              <path id="Trazado_54575" data-name="Trazado 54575" d="M978.75,494.468c4.438,39.954-3.033,79.051-3.033,79.051l11.211,17.349c9.941-36.706,3.8-82.668-2.634-101.9C982.455,490.866,980.606,492.584,978.75,494.468Z" transform="translate(-975.716 -488.963)" fill="#f7ac99"/>
              <path id="Trazado_54576" data-name="Trazado 54576" d="M979.565,502.476c2.526,36.56-3.849,69.773-3.849,69.773L986.927,589.6c6.24-29.341,6.441-68.875.28-91.164C984.6,499.93,982.267,501.2,979.565,502.476Z" transform="translate(-975.716 -487.694)" fill="#d68b78"/>
            </g>
            <g id="Grupo_26878" data-name="Grupo 26878" transform="translate(0 11.237)">
              <path id="Trazado_54577" data-name="Trazado 54577" d="M989.16,608.328c.776.252.239-5.542,2.461-26.8,3.214-36.942,1.69-63.2-3.621-82.659l-.294.273c-2.457,2.278-7.675,5.845-9.889,9.474a256.57,256.57,0,0,1-4.365,63.418S983.736,606.567,989.16,608.328Z" transform="translate(-973.453 -498.872)" fill="#6b6bd6"/>
              <path id="Trazado_54578" data-name="Trazado 54578" d="M976.474,545.011c-.349,6.455-1.779,11.981-2.134,15.615" transform="translate(-973.334 -492.688)" fill="#6b6bd6"/>
            </g>
          </g>
          <g id="Grupo_26882" data-name="Grupo 26882">
            <g id="Grupo_26880" data-name="Grupo 26880" transform="translate(0.831)">
              <path id="Trazado_54579" data-name="Trazado 54579" d="M931.384,494.246c-4.437,39.955,3.021,79.272,3.021,79.272l-11.211,17.349c-9.941-36.706-3.806-82.668,2.634-101.9C927.666,490.866,929.527,492.364,931.384,494.246Z" transform="translate(-917.96 -488.963)" fill="#f7ac99"/>
              <path id="Trazado_54580" data-name="Trazado 54580" d="M930.5,502.476c-2.525,36.56,3.849,69.773,3.849,69.773L923.141,589.6c-6.24-29.341-6.441-68.875-.28-91.164C925.472,499.93,927.8,501.2,930.5,502.476Z" transform="translate(-917.908 -487.694)" fill="#d68b78"/>
            </g>
            <g id="Grupo_26881" data-name="Grupo 26881" transform="translate(0 11.237)">
              <path id="Trazado_54581" data-name="Trazado 54581" d="M921.361,608.328c-.775.252-.239-5.542-2.46-26.8-3.214-36.942-1.69-63.2,3.62-82.659l.295.273c2.457,2.278,7.674,5.845,9.889,9.474a256.607,256.607,0,0,0,4.364,63.418S926.786,606.567,921.361,608.328Z" transform="translate(-917.227 -498.872)" fill="#6b6bd6"/>
              <path id="Trazado_54582" data-name="Trazado 54582" d="M931.954,545.011c.35,6.455,1.78,11.981,2.135,15.615" transform="translate(-915.253 -492.688)" fill="#6b6bd6"/>
            </g>
          </g>
          <path id="Trazado_54583" data-name="Trazado 54583" d="M996.984,550.11c-2.579,16.456-.48,37.208-13.082,46.581-6.776,5.04-23.244,4.034-39.293,4.77h48.417a.129.129,0,0,0,.085,0h1.294l-.543-7.75c.263-4.166.71-10.3,1.625-19.047C996.25,565.892,996.742,557.73,996.984,550.11Z" transform="translate(-913.557 -480.768)" fill="#6161bc"/>
        </g>
        <g id="Grupo_26884" data-name="Grupo 26884" transform="translate(36.361 59.38)">
          <ellipse id="Elipse_1525" data-name="Elipse 1525" cx="5.37" cy="4.129" rx="5.37" ry="4.129" transform="translate(0 10.959)" fill="#ed9884"/>
          <path id="Trazado_54584" data-name="Trazado 54584" d="M955.7,555.894a17.868,17.868,0,0,0,3.742-.27v-14.3h-9.681v13.339C951.456,555.74,953.757,555.825,955.7,555.894Z" transform="translate(-949.228 -541.325)" fill="#ed9884"/>
          <path id="Trazado_54585" data-name="Trazado 54585" d="M955.7,551.749a24.8,24.8,0,0,0,3.742-.193V541.325h-9.681v9.544A16.21,16.21,0,0,0,955.7,551.749Z" transform="translate(-949.228 -541.325)" fill="#db5e58"/>
        </g>
        <g id="Grupo_26902" data-name="Grupo 26902" transform="translate(14.165 14.217)">
          <ellipse id="Elipse_1526" data-name="Elipse 1526" cx="20.483" cy="12.937" rx="20.483" ry="12.937" transform="translate(6.459 23.856)" fill="#401f43"/>
          <path id="Trazado_54586" data-name="Trazado 54586" d="M942.644,522.756s.93,6.166-2.832,7.753a4.319,4.319,0,0,0-2.595,5.292s-7.947-23.428,8.942-26.153c0,0,15.209-15.41,26.406-3.849,9,9.29,3.938,23.136,3.938,23.136C975.687,536.346,954.127,525.2,942.644,522.756Z" transform="translate(-928.963 -501.5)" fill="#401f43"/>
          <path id="Trazado_54587" data-name="Trazado 54587" d="M940.226,509.075s4.135-1.579,5.34.831l1.9-1.745S943.359,505.073,940.226,509.075Z" transform="translate(-928.309 -500.759)" fill="#401f43"/>
          <path id="Trazado_54588" data-name="Trazado 54588" d="M964.633,513.631c-4.569-.3-6.514,6.025-15.518,3.47,0,0,4.86,5.634-6.716,4.03,0,0,.118,5.434-3.644,7.022a5.915,5.915,0,0,0-1.27.746c-.109.759-.19,1.521-.228,2.286-.325,6.673.184,12.152,4.054,16.194,7.6,7.938,20.941,7.955,28.735.3.1-.1.2-.2.294-.3,3.87-4.042,4.38-9.521,4.054-16.194C974.058,524.3,970.506,517.215,964.633,513.631Z" transform="translate(-928.718 -499.875)" fill="#eb9f86"/>
          <path id="Trazado_54589" data-name="Trazado 54589" d="M942.53,521.868c2.242,1.027,7.059,2.063,9.077,1.272,1.827-.716,1.359-2.869-1.723-4.814,6.035,1.75,10.058-.284,12.229-4.457-3.38,1.154-5.943,5.362-13.569,3.2,0,0,4.86,5.634-6.716,4.03a11.077,11.077,0,0,1-.4,2.861A6.374,6.374,0,0,0,942.53,521.868Z" transform="translate(-928.147 -499.842)" fill="#ec9385"/>
          <path id="Trazado_54590" data-name="Trazado 54590" d="M973.986,530.116a23.727,23.727,0,0,0-2.065-8.515c1.583,9.75-.945,19.52-6.685,24.167-6.24,5.05-16.025,4.885-25.01-.22q.32.39.677.762c7.6,7.938,20.941,7.955,28.735.3.1-.1.2-.2.294-.3C973.8,542.269,974.311,536.789,973.986,530.116Z" transform="translate(-928.309 -498.806)" fill="#fd7e6a"/>
          <g id="Grupo_26888" data-name="Grupo 26888" transform="translate(0 25.557)">
            <circle id="Elipse_1527" data-name="Elipse 1527" cx="5.238" cy="5.238" r="5.238" transform="translate(0 9.505) rotate(-65.13)" fill="#f7ac99"/>
            <g id="Grupo_26887" data-name="Grupo 26887" transform="translate(3.86 3.733)">
              <g id="Grupo_26885" data-name="Grupo 26885">
                <path id="Trazado_54591" data-name="Trazado 54591" d="M939.3,531.118a.536.536,0,0,1-.483-.31c-.66-1.421-1.528-2.248-2.51-2.391a2.58,2.58,0,0,0-2.252.925.533.533,0,0,1-.8-.7,3.611,3.611,0,0,1,3.2-1.277c.946.137,2.29.769,3.325,3a.535.535,0,0,1-.259.709A.552.552,0,0,1,939.3,531.118Z" transform="translate(-933.121 -527.328)" fill="#fd5f44"/>
              </g>
              <g id="Grupo_26886" data-name="Grupo 26886" transform="translate(2.065 0.466)">
                <path id="Trazado_54592" data-name="Trazado 54592" d="M935.476,531.206a.534.534,0,0,1-.534-.534,2.775,2.775,0,0,1,2.244-2.927.54.54,0,0,1,.612.44.533.533,0,0,1-.44.612,1.741,1.741,0,0,0-1.348,1.875A.534.534,0,0,1,935.476,531.206Z" transform="translate(-934.942 -527.739)" fill="#fd5f44"/>
              </g>
            </g>
          </g>
          <g id="Grupo_26892" data-name="Grupo 26892" transform="translate(44.297 27.274)">
            <path id="Trazado_54593" data-name="Trazado 54593" d="M973.206,525.55A5.229,5.229,0,0,0,968.779,528c.149,1.93.239,3.922.217,5.9a5.236,5.236,0,1,0,4.211-8.345Z" transform="translate(-968.779 -525.55)" fill="#ec9385"/>
            <g id="Grupo_26891" data-name="Grupo 26891" transform="translate(0.811 2.018)">
              <g id="Grupo_26889" data-name="Grupo 26889">
                <path id="Trazado_54594" data-name="Trazado 54594" d="M970.028,531.118a.543.543,0,0,1-.225-.05.534.534,0,0,1-.26-.709c1.035-2.228,2.379-2.86,3.325-3a3.622,3.622,0,0,1,3.2,1.277.533.533,0,1,1-.8.7,2.578,2.578,0,0,0-2.252-.925c-.982.143-1.848.97-2.508,2.391A.536.536,0,0,1,970.028,531.118Z" transform="translate(-969.494 -527.329)" fill="#fd5f44"/>
              </g>
              <g id="Grupo_26890" data-name="Grupo 26890" transform="translate(1.783 0.464)">
                <path id="Trazado_54595" data-name="Trazado 54595" d="M973.4,531.206a.534.534,0,0,1-.534-.534,1.741,1.741,0,0,0-1.347-1.875.533.533,0,0,1-.44-.612.541.541,0,0,1,.612-.44,2.773,2.773,0,0,1,2.243,2.927A.534.534,0,0,1,973.4,531.206Z" transform="translate(-971.067 -527.739)" fill="#fd5f44"/>
              </g>
            </g>
          </g>
          <g id="Grupo_26894" data-name="Grupo 26894" transform="translate(21.955 36.81)">
            <path id="Trazado_54596" data-name="Trazado 54596" d="M950.085,539.3s3.43,2.1,5.85-.668C955.936,538.628,953.5,543.927,950.085,539.3Z" transform="translate(-948.943 -533.333)" fill="#fd7e6a"/>
            <g id="Grupo_26893" data-name="Grupo 26893">
              <path id="Trazado_54597" data-name="Trazado 54597" d="M957.379,533.959a5.8,5.8,0,0,1-.319,1.7c-.886,2.555-3.318,4.031-5.433,3.3a4.328,4.328,0,0,1-2.473-4.985Z" transform="translate(-949.078 -533.959)" fill="#130604"/>
              <path id="Trazado_54598" data-name="Trazado 54598" d="M951.517,538.792a3.5,3.5,0,0,1-1.617-1.177,4.314,4.314,0,0,1,5.107-2.18,3.844,3.844,0,0,1,1.527.989A4.322,4.322,0,0,1,951.517,538.792Z" transform="translate(-948.967 -533.79)" fill="#eb0a55"/>
            </g>
          </g>
          <g id="Grupo_26901" data-name="Grupo 26901" transform="translate(13.525 17.874)">
            <path id="Trazado_54599" data-name="Trazado 54599" d="M950.972,529.693c0,1.472.9,2.643,2,2.614s2-1.245,2-2.717-.9-5.374-2-5.346S950.972,528.221,950.972,529.693Z" transform="translate(-940.394 -516.325)" fill="#fd5f44"/>
            <g id="Grupo_26896" data-name="Grupo 26896" transform="translate(16.942)">
              <g id="Grupo_26895" data-name="Grupo 26895" transform="translate(2.387 6.664)">
                <path id="Trazado_54600" data-name="Trazado 54600" d="M960.84,525.593c.108,1.421-.282,2.628-.871,2.695s-1.154-1.032-1.262-2.454.281-2.628.87-2.693S960.731,524.172,960.84,525.593Z" transform="translate(-958.689 -523.137)" fill="#291018"/>
              </g>
              <path id="Trazado_54601" data-name="Trazado 54601" d="M965.65,523.473s-5.9-3.121-9.065-3.413c0,0,.577-4.086,4.793-2.384A6.678,6.678,0,0,1,965.65,523.473Z" transform="translate(-956.584 -517.261)" fill="#200f21"/>
            </g>
            <g id="Grupo_26898" data-name="Grupo 26898">
              <g id="Grupo_26897" data-name="Grupo 26897" transform="translate(4.51 6.664)">
                <path id="Trazado_54602" data-name="Trazado 54602" d="M945.639,525.593c-.109,1.421.281,2.628.87,2.695s1.154-1.032,1.263-2.454-.281-2.628-.871-2.693S945.747,524.172,945.639,525.593Z" transform="translate(-945.621 -523.137)" fill="#291018"/>
              </g>
              <path id="Trazado_54603" data-name="Trazado 54603" d="M941.644,523.473s5.9-3.121,9.065-3.413c0,0-.577-4.086-4.793-2.384A6.678,6.678,0,0,0,941.644,523.473Z" transform="translate(-941.644 -517.261)" fill="#200f21"/>
            </g>
            <g id="Grupo_26899" data-name="Grupo 26899" transform="translate(20.737 14.365)">
              <path id="Trazado_54604" data-name="Trazado 54604" d="M961.9,534.042a.493.493,0,0,0,.427-.7l-1.5-3.063a.465.465,0,0,0-.635-.2.493.493,0,0,0-.221.646l1.5,3.063A.455.455,0,0,0,961.9,534.042Z" transform="translate(-959.931 -529.916)" fill="#fd5f44"/>
              <path id="Trazado_54605" data-name="Trazado 54605" d="M964.546,533.946a.482.482,0,0,0,.205-.055.492.492,0,0,0,.222-.645l-1.5-3.064a.462.462,0,0,0-.634-.2.491.491,0,0,0-.221.645l1.5,3.063A.454.454,0,0,0,964.546,533.946Z" transform="translate(-959.577 -529.928)" fill="#fd5f44"/>
            </g>
            <g id="Grupo_26900" data-name="Grupo 26900" transform="translate(0.563 14.764)">
              <path id="Trazado_54606" data-name="Trazado 54606" d="M944.894,533.916a.422.422,0,0,1-.181-.049.433.433,0,0,1-.2-.57l1.322-2.707a.411.411,0,0,1,.561-.176.434.434,0,0,1,.2.57l-1.323,2.706A.4.4,0,0,1,944.894,533.916Z" transform="translate(-941.828 -530.269)" fill="#fd5f44"/>
              <path id="Trazado_54607" data-name="Trazado 54607" d="M942.56,533.831a.43.43,0,0,1-.182-.049.436.436,0,0,1-.2-.57l1.324-2.706a.409.409,0,0,1,.56-.177.435.435,0,0,1,.2.57l-1.323,2.707A.4.4,0,0,1,942.56,533.831Z" transform="translate(-942.141 -530.28)" fill="#fd5f44"/>
            </g>
          </g>
        </g>
      </g>
      <path id="Trazado_54608" data-name="Trazado 54608" d="M977.537,493.029a38.348,38.348,0,0,1-1.1-8.687,10.52,10.52,0,0,1,2.537-6.37l3.867,5.089Z" transform="translate(13.639 5.535)" fill="#db5e58"/>
      <g id="Grupo_26904" data-name="Grupo 26904" transform="translate(927.556 449.122)">
        <path id="Trazado_54609" data-name="Trazado 54609" d="M975.73,447.651a21.453,21.453,0,0,0-17.319,9.183,21.457,21.457,0,0,0-17.32-9.183c-11.551,0-21.161,8.379-19.625,22.636,2.5,23.211,35.154,44.96,36.945,46.136,1.791-1.176,34.446-22.924,36.945-46.136C996.891,456.03,987.282,447.651,975.73,447.651Z" transform="translate(-921.304 -447.651)" fill="#e33e4e"/>
        <path id="Trazado_54610" data-name="Trazado 54610" d="M939.327,502.593A133.6,133.6,0,0,0,956,515.925c1.791-1.176,34.446-22.924,36.945-46.135.893-8.3-1.988-14.6-6.83-18.422C991.995,465.33,974.071,515.925,939.327,502.593Z" transform="translate(-918.889 -447.153)" fill="#bf2e43"/>
        <path id="Trazado_54611" data-name="Trazado 54611" d="M955.284,463.744l8.5,13.265a10.234,10.234,0,1,1-17.234,0l8.5-13.265a.139.139,0,0,1,.193-.042A.146.146,0,0,1,955.284,463.744Z" transform="translate(-918.137 -445.503)" fill="#fff"/>
      </g>
      <g id="Grupo_26905" data-name="Grupo 26905" transform="translate(991.088 471.246)">
        <path id="Trazado_54612" data-name="Trazado 54612" d="M988.511,467.415a33.245,33.245,0,0,1-5.372,20.953l-.359-5.909s3.366-8.647,3.767-12.56S988.511,467.415,988.511,467.415Z" transform="translate(-976.597 -467.16)" fill="#eb9f86"/>
        <path id="Trazado_54613" data-name="Trazado 54613" d="M978.534,496.558a7.564,7.564,0,0,1,0-8.231c2.713-4.611,4.411-9.207,3.184-12.583s2.3-3.317,2.608,1.18A64.832,64.832,0,0,1,984,486.9l.077,4.157Z" transform="translate(-977.328 -466.328)" fill="#eb9f86"/>
        <path id="Trazado_54614" data-name="Trazado 54614" d="M985.268,468.564a33.251,33.251,0,0,1-1.859,21.551l-1.325-5.77s1.9-9.082,1.653-13.009S985.268,468.564,985.268,468.564Z" transform="translate(-976.69 -466.993)" fill="#eb9f86"/>
        <ellipse id="Elipse_1528" data-name="Elipse 1528" cx="8.249" cy="2.172" rx="8.249" ry="2.172" transform="translate(2.415 26.698) rotate(-71.579)" fill="#eb9f86"/>
      </g>
      <path id="Trazado_54615" data-name="Trazado 54615" d="M931.28,493.029a38.389,38.389,0,0,0,1.1-8.687,10.525,10.525,0,0,0-2.538-6.37l-3.866,5.089Z" transform="translate(6.877 5.535)" fill="#e75d52"/>
      <g id="Grupo_26906" data-name="Grupo 26906" transform="translate(926.211 471.246)">
        <path id="Trazado_54616" data-name="Trazado 54616" d="M920.239,467.415a33.25,33.25,0,0,0,5.373,20.953l.359-5.909s-3.366-8.647-3.768-12.56S920.239,467.415,920.239,467.415Z" transform="translate(-920.119 -467.16)" fill="#f7ac99"/>
        <path id="Trazado_54617" data-name="Trazado 54617" d="M930.363,496.558a7.562,7.562,0,0,0,0-8.231c-2.713-4.611-4.411-9.207-3.183-12.583s-2.3-3.317-2.609,1.18a64.919,64.919,0,0,0,.328,9.971l-.077,4.157Z" transform="translate(-919.533 -466.328)" fill="#f7ac99"/>
        <path id="Trazado_54618" data-name="Trazado 54618" d="M923.286,468.564a33.251,33.251,0,0,0,1.859,21.551l1.325-5.77s-1.9-9.082-1.653-13.009S923.286,468.564,923.286,468.564Z" transform="translate(-919.828 -466.993)" fill="#f7ac99"/>
        <path id="Trazado_54619" data-name="Trazado 54619" d="M922.819,486.021c1.439,4.323,3.529,7.52,4.666,7.14s.894-4.19-.547-8.512-3.529-7.52-4.667-7.14S921.379,481.7,922.819,486.021Z" transform="translate(-919.926 -465.777)" fill="#f7ac99"/>
      </g>
      <g id="Grupo_26913" data-name="Grupo 26913" transform="translate(881.681 453.336)">
        <g id="Grupo_26907" data-name="Grupo 26907" transform="translate(1.693)">
          <rect id="Rectángulo_5242" data-name="Rectángulo 5242" width="2.212" height="11.035" transform="translate(4.412)" fill="#cce0fb"/>
          <rect id="Rectángulo_5243" data-name="Rectángulo 5243" width="2.212" height="11.035" transform="translate(11.035 4.411) rotate(90)" fill="#cce0fb"/>
        </g>
        <g id="Grupo_26908" data-name="Grupo 26908" transform="translate(0 35.5)">
          <rect id="Rectángulo_5244" data-name="Rectángulo 5244" width="2.212" height="11.035" transform="translate(4.412)" fill="#cce0fb"/>
          <rect id="Rectángulo_5245" data-name="Rectángulo 5245" width="2.212" height="11.035" transform="translate(11.035 4.411) rotate(90)" fill="#cce0fb"/>
        </g>
        <g id="Grupo_26909" data-name="Grupo 26909" transform="translate(149.853)">
          <rect id="Rectángulo_5246" data-name="Rectángulo 5246" width="2.212" height="11.035" transform="translate(4.412)" fill="#cce0fb"/>
          <rect id="Rectángulo_5247" data-name="Rectángulo 5247" width="2.212" height="11.035" transform="translate(11.035 4.412) rotate(90)" fill="#cce0fb"/>
        </g>
        <g id="Grupo_26910" data-name="Grupo 26910" transform="translate(155.14 33.449)">
          <rect id="Rectángulo_5248" data-name="Rectángulo 5248" width="2.212" height="11.035" transform="translate(4.412)" fill="#cce0fb"/>
          <rect id="Rectángulo_5249" data-name="Rectángulo 5249" width="2.212" height="11.035" transform="translate(11.035 4.412) rotate(90)" fill="#cce0fb"/>
        </g>
        <g id="Grupo_26911" data-name="Grupo 26911" transform="translate(27.121 14.092)">
          <rect id="Rectángulo_5250" data-name="Rectángulo 5250" width="1.174" height="5.857" transform="translate(2.341)" fill="#cce0fb"/>
          <rect id="Rectángulo_5251" data-name="Rectángulo 5251" width="1.174" height="5.857" transform="translate(5.857 2.341) rotate(90)" fill="#cce0fb"/>
        </g>
        <g id="Grupo_26912" data-name="Grupo 26912" transform="translate(129.044 12.338)">
          <rect id="Rectángulo_5252" data-name="Rectángulo 5252" width="1.174" height="5.857" transform="translate(2.341)" fill="#cce0fb"/>
          <rect id="Rectángulo_5253" data-name="Rectángulo 5253" width="1.174" height="5.857" transform="translate(5.857 2.341) rotate(90)" fill="#cce0fb"/>
        </g>
      </g>
    </g>
  </g>
</svg>
