<svg xmlns="http://www.w3.org/2000/svg" width="107" height="107" viewBox="0 0 107 107">
  <g id="Grupo_27339" data-name="Grupo 27339" transform="translate(-289 -8147.781)">
    <g id="Grupo_26850" data-name="Grupo 26850">
      <g id="Grupo_27344" data-name="Grupo 27344">
        <rect id="Rectángulo_5239" data-name="Rectángulo 5239" width="107" height="107" transform="translate(289 8147.781)" fill="none"/>
        <g id="Grupo_27340" data-name="Grupo 27340" transform="translate(-163.244 7792.75)">
          <g id="Grupo_27340-2" data-name="Grupo 27340" transform="translate(460.244 371.566)">
            <path id="Trazado_56746" data-name="Trazado 56746" d="M501.651,370.778a41.415,41.415,0,0,0-37.413,59.159,17.385,17.385,0,0,1,5.49-4.38l-1.229-2.967-1.451.6-1.019-2.461,5.364-2.221,1.019,2.46-1.452.6,1.225,2.958a17.192,17.192,0,0,1,5.366-.863h0a17.222,17.222,0,0,1,5.365.863l1.225-2.958-1.452-.6,1.019-2.46,5.363,2.221-1.019,2.461-1.451-.6-1.228,2.967a17.384,17.384,0,0,1,7.581,7.581l2.967-1.228-.6-1.451,2.46-1.019L500,434.8l-2.46,1.019-.6-1.452-2.958,1.225a17.114,17.114,0,0,1,0,10.73l2.958,1.225.6-1.452,2.46,1.019-2.221,5.363-2.46-1.019.6-1.451-2.967-1.228a17.3,17.3,0,0,1-2.219,3.344,41.407,41.407,0,1,0,10.917-81.349Z" transform="translate(-460.244 -370.778)" fill="#badfff"/>
            <path id="Trazado_56747" data-name="Trazado 56747" d="M470.426,417.162l1.452-.6-1.019-2.46-5.364,2.221,1.019,2.461,1.451-.6,1.229,2.967a17.275,17.275,0,0,1,2.457-1.028Z" transform="translate(-459.71 -366.368)" fill="#62cca2"/>
            <path id="Trazado_56748" data-name="Trazado 56748" d="M492.9,443.053l-.6,1.451,2.46,1.019,2.221-5.363-2.46-1.019-.6,1.452-2.958-1.225a17.044,17.044,0,0,1-1.028,2.457Z" transform="translate(-457.222 -363.819)" fill="#62cca2"/>
            <path id="Trazado_56749" data-name="Trazado 56749" d="M493.918,428.952l.6,1.452,2.46-1.019-2.221-5.364-2.46,1.019.6,1.451-2.967,1.228a17.149,17.149,0,0,1,1.028,2.457Z" transform="translate(-457.222 -365.358)" fill="#62cca2"/>
            <path id="Trazado_56750" data-name="Trazado 56750" d="M484.527,418.181l1.451.6L487,416.321l-5.363-2.221-1.019,2.46,1.452.6-1.225,2.958a17.222,17.222,0,0,1,2.457,1.028Z" transform="translate(-458.17 -366.368)" fill="#62cca2"/>
            <path id="Trazado_56751" data-name="Trazado 56751" d="M471.189,435.411a4,4,0,0,1,4,4c0,.01,0,.02,0,.031.65.528,1.319,1.032,2,1.522V418.781a17.192,17.192,0,0,0-5.366.863l.486,1.175-2.46,1.018-.483-1.165a17.385,17.385,0,0,0-5.49,4.38,41.475,41.475,0,0,0,7.048,10.388C471.009,435.432,471.1,435.411,471.189,435.411Zm-1.331-6.661h2.663v2.663h-2.663Z" transform="translate(-459.875 -365.892)" fill="#e33e4e"/>
            <path id="Trazado_56752" data-name="Trazado 56752" d="M471.795,420.739l-.486-1.175a17.275,17.275,0,0,0-2.457,1.028l.483,1.165Z" transform="translate(-459.368 -365.812)" fill="#e33e4e"/>
            <path id="Trazado_56753" data-name="Trazado 56753" d="M490.19,443.415l1.019-2.46,1.173.486a17.114,17.114,0,0,0,0-10.73l-1.173.486-1.019-2.46,1.165-.483a17.384,17.384,0,0,0-7.581-7.581l-.483,1.165-2.46-1.018.486-1.175a17.222,17.222,0,0,0-5.365-.863l2.3,16.847-.823,6.345a41.188,41.188,0,0,0,11.705,5.268,17.3,17.3,0,0,0,2.219-3.344Zm-6.915-.014h-2.664v-2.663h2.664Zm-1.332-6.661a3.995,3.995,0,1,1,4-3.994A3.995,3.995,0,0,1,481.944,436.739Z" transform="translate(-458.645 -365.892)" fill="#bf2e43"/>
            <path id="Trazado_56754" data-name="Trazado 56754" d="M488.875,441.366l1.165.483a17.044,17.044,0,0,0,1.028-2.457l-1.173-.486Z" transform="translate(-457.33 -363.843)" fill="#bf2e43"/>
            <path id="Trazado_56755" data-name="Trazado 56755" d="M489.894,430.321l1.173-.486a17.149,17.149,0,0,0-1.028-2.457l-1.165.483Z" transform="translate(-457.33 -365.017)" fill="#bf2e43"/>
            <path id="Trazado_56756" data-name="Trazado 56756" d="M482.84,421.757l.483-1.165a17.222,17.222,0,0,0-2.457-1.028l-.486,1.175Z" transform="translate(-458.194 -365.812)" fill="#bf2e43"/>
            <path id="Trazado_56757" data-name="Trazado 56757" d="M477.431,441.974l.823-6.345-2.3-16.847v22.178Q476.679,441.481,477.431,441.974Z" transform="translate(-458.645 -365.892)" fill="#bf2e43"/>
            <path id="Trazado_56758" data-name="Trazado 56758" d="M470.538,433.875c-.094,0-.181.021-.272.028a41.686,41.686,0,0,0,4.264,4c0-.011,0-.021,0-.031A4,4,0,0,0,470.538,433.875Z" transform="translate(-459.224 -364.355)" fill="#bf2e43"/>
            <path id="Trazado_56759" data-name="Trazado 56759" d="M481.759,427.829a3.995,3.995,0,1,0,4,4A4,4,0,0,0,481.759,427.829Z" transform="translate(-458.461 -364.971)" fill="#e33e4e"/>
            <rect id="Rectángulo_5308" data-name="Rectángulo 5308" width="2.663" height="2.663" transform="translate(9.983 62.858)" fill="#bf2e43"/>
            <rect id="Rectángulo_5309" data-name="Rectángulo 5309" width="2.663" height="2.663" transform="translate(21.967 74.846)" fill="#e33e4e"/>
          </g>
          <g id="Grupo_27343" data-name="Grupo 27343" transform="translate(486.777 363.032)">
            <g id="Grupo_27341" data-name="Grupo 27341" transform="translate(0 0.871)">
              <path id="Trazado_56760" data-name="Trazado 56760" d="M506.529,367.235l-1.617-3.412-7.438,3.526,1.617,3.413,2.012-.954,2.716,5.73,3.413-1.616-2.716-5.732Z" transform="translate(-482.988 -363.823)" fill="#62cca2"/>
              <path id="Trazado_56761" data-name="Trazado 56761" d="M490.649,380.047l-3.557-1.269-2.767,7.753,3.557,1.269.749-2.1,5.974,2.131,1.268-3.557-5.973-2.131Z" transform="translate(-484.326 -362.301)" fill="#62cca2"/>
              <path id="Trazado_56762" data-name="Trazado 56762" d="M495.215,399.539l-5.732,2.716-.954-2.013-3.412,1.617,3.526,7.438,3.412-1.617-.954-2.012,5.732-2.716Z" transform="translate(-484.246 -360.188)" fill="#62cca2"/>
              <path id="Trazado_56763" data-name="Trazado 56763" d="M505.569,411.062l-2.131,5.973-2.1-.748-1.268,3.557,7.753,2.767,1.269-3.557L507,418.3l2.131-5.974Z" transform="translate(-482.723 -359.015)" fill="#62cca2"/>
            </g>
            <g id="Grupo_27342" data-name="Grupo 27342" transform="translate(38.063)">
              <path id="Trazado_56764" data-name="Trazado 56764" d="M526.961,415.851l-2.715-5.732-3.413,1.617,2.716,5.732-2.014.954,1.617,3.412,7.439-3.526-1.617-3.412Z" transform="translate(-518.674 -358.239)" fill="#62cca2"/>
              <path id="Trazado_56765" data-name="Trazado 56765" d="M539.6,399.711l-5.974-2.132-1.269,3.558,5.974,2.131-.748,2.1,3.557,1.269,2.767-7.754-3.557-1.268Z" transform="translate(-517.501 -359.516)" fill="#62cca2"/>
              <path id="Trazado_56766" data-name="Trazado 56766" d="M533.029,385.938l5.731-2.716.955,2.014,3.412-1.617-3.526-7.439-3.413,1.617.954,2.013-5.73,2.715Z" transform="translate(-517.597 -361.694)" fill="#62cca2"/>
              <path id="Trazado_56767" data-name="Trazado 56767" d="M518.9,366.589l2.1.749-2.131,5.974,3.557,1.269,2.131-5.974,2.1.749,1.269-3.558-7.753-2.767Z" transform="translate(-518.873 -363.032)" fill="#62cca2"/>
            </g>
            <path id="Trazado_56768" data-name="Trazado 56768" d="M491.354,395.775a24.551,24.551,0,0,0,25.717,23.269l2.005-25.289-4.452-23.7a24.553,24.553,0,0,0-23.27,25.718Z" transform="translate(-483.614 -362.317)" fill="#e33e4e"/>
            <path id="Trazado_56769" data-name="Trazado 56769" d="M512.471,370.06l2.447,48.987a24.524,24.524,0,0,0-2.447-48.987Z" transform="translate(-481.461 -362.32)" fill="#bf2e43"/>
            <circle id="Elipse_2142" data-name="Elipse 2142" cx="5.665" cy="5.665" r="5.665" transform="translate(18.318 31.71)" fill="#bf2e43"/>
            <circle id="Elipse_2143" data-name="Elipse 2143" cx="5.665" cy="5.665" r="5.665" transform="translate(34.819 21.428)" fill="#e33e4e"/>
            <path id="Trazado_56770" data-name="Trazado 56770" d="M503.7,383.359l3.771-.188.188,3.771-3.771.188Z" transform="translate(-482.354 -360.982)" fill="#bf2e43"/>
            <path id="Trazado_56771" data-name="Trazado 56771" d="M519.872,398l3.771-.188.188,3.773-3.771.188Z" transform="translate(-480.708 -359.492)" fill="#e33e4e"/>
          </g>
        </g>
      </g>
    </g>
  </g>
</svg>
