<svg xmlns="http://www.w3.org/2000/svg" xmlns:xlink="http://www.w3.org/1999/xlink" width="83.511" height="83.607" viewBox="0 0 83.511 83.607">
  <defs>
    <clipPath id="clip-path">
      <circle id="Elipse_1362" data-name="Elipse 1362" cx="41.756" cy="41.756" r="41.756" transform="translate(-158.577 80.741)" fill="none"/>
    </clipPath>
  </defs>
  <g id="Grupo_25803" data-name="Grupo 25803" transform="translate(158.577 -80.645)">
    <g id="Grupo_25802" data-name="Grupo 25802">
      <g id="Grupo_25801" data-name="Grupo 25801">
        <g id="Grupo_25800" data-name="Grupo 25800" clip-path="url(#clip-path)">
          <rect id="Rectángulo_5184" data-name="Rectángulo 5184" width="85.367" height="88.614" transform="translate(-160.387 77.796)" fill="#f2f2f2"/>
          <g id="Grupo_25799" data-name="Grupo 25799">
            <path id="Trazado_53923" data-name="Trazado 53923" d="M-120.707,135.882a22.99,22.99,0,0,1,6.7-16.207,22.467,22.467,0,0,1,16.044-6.7h.1a22.459,22.459,0,0,1,4.6.492V82.236a1.6,1.6,0,0,0-1.59-1.591H-152.5a1.6,1.6,0,0,0-1.59,1.591v69.6a1.6,1.6,0,0,0,1.59,1.59h39.735a23.075,23.075,0,0,1-7.94-17.544Z" fill="#bfdfe7"/>
            <path id="Trazado_53924" data-name="Trazado 53924" d="M-149.161,151.836v-69.6a1.6,1.6,0,0,1,1.59-1.591H-152.5a1.6,1.6,0,0,0-1.59,1.591v69.6a1.6,1.6,0,0,0,1.59,1.59h4.931A1.6,1.6,0,0,1-149.161,151.836Z" fill="#93cbd8"/>
            <path id="Trazado_53925" data-name="Trazado 53925" d="M-103.691,92.125h-39.985a.8.8,0,0,0-.795.795v6.346a.8.8,0,0,0,.795.795h39.985a.8.8,0,0,0,.8-.795V92.92A.8.8,0,0,0-103.691,92.125Z" fill="#fff"/>
            <path id="Trazado_53926" data-name="Trazado 53926" d="M-139.458,99.266V92.92a.8.8,0,0,1,.795-.795h-5.013a.8.8,0,0,0-.795.795v6.346a.8.8,0,0,0,.795.795h5.013A.8.8,0,0,1-139.458,99.266Z" fill="#dff6fd"/>
            <path id="Trazado_53927" data-name="Trazado 53927" d="M-102.9,113.513v-4.721a.8.8,0,0,0-.795-.795h-39.985a.8.8,0,0,0-.795.795v6.346a.8.8,0,0,0,.795.795h34.532a22.338,22.338,0,0,1,6.248-2.42Z" fill="#62cca2"/>
            <path id="Trazado_53928" data-name="Trazado 53928" d="M-139.458,115.138v-6.346a.8.8,0,0,1,.795-.795h-5.013a.8.8,0,0,0-.795.795v6.346a.8.8,0,0,0,.795.795h5.013A.8.8,0,0,1-139.458,115.138Z" fill="#57b28b"/>
            <path id="Trazado_53929" data-name="Trazado 53929" d="M-117.31,123.87h-26.366a.8.8,0,0,0-.795.795v6.346a.8.8,0,0,0,.795.795h23.341a22.91,22.91,0,0,1,3.025-7.936Z" fill="#fff"/>
            <path id="Trazado_53930" data-name="Trazado 53930" d="M-139.458,131.011v-6.346a.8.8,0,0,1,.795-.795h-5.013a.8.8,0,0,0-.795.795v6.346a.8.8,0,0,0,.795.795h5.013A.8.8,0,0,1-139.458,131.011Z" fill="#dff6fd"/>
            <path id="Trazado_53931" data-name="Trazado 53931" d="M-130.857,140.9h-13.614a1.158,1.158,0,0,1-1.158-1.158,1.159,1.159,0,0,1,1.158-1.158h13.614a1.159,1.159,0,0,1,1.158,1.158A1.158,1.158,0,0,1-130.857,140.9Z" fill="#62cca2"/>
            <path id="Trazado_53932" data-name="Trazado 53932" d="M-75.066,136.072a23.027,23.027,0,0,1-22.992,23.063,23.031,23.031,0,0,1-22.8-23.253,23.027,23.027,0,0,1,22.992-23.063,23.031,23.031,0,0,1,22.8,23.253Z" fill="#e33e4e"/>
            <ellipse id="Elipse_1390" data-name="Elipse 1390" cx="17.241" cy="17.437" rx="17.241" ry="17.437" transform="translate(-115.204 118.54)" fill="#fff"/>
            <path id="Trazado_53933" data-name="Trazado 53933" d="M-110.262,135.977a17.377,17.377,0,0,1,14.77-17.258,17.213,17.213,0,0,0-2.471-.179A17.34,17.34,0,0,0-115.2,135.977a17.34,17.34,0,0,0,17.241,17.437,17.213,17.213,0,0,0,2.471-.179,17.377,17.377,0,0,1-14.77-17.258Z" fill="#dff6fd"/>
            <path id="Trazado_53934" data-name="Trazado 53934" d="M-90.55,137.135h-7.413a1.158,1.158,0,0,1-1.158-1.158V125.034a1.157,1.157,0,0,1,1.158-1.157,1.157,1.157,0,0,1,1.157,1.157v9.785h6.256a1.158,1.158,0,0,1,1.158,1.158A1.159,1.159,0,0,1-90.55,137.135Z" fill="#6b6bd6"/>
          </g>
        </g>
      </g>
    </g>
    <path id="Trazado_53935" data-name="Trazado 53935" d="M-127.526,103.363c.025-6.128,18.576,0,24.631,0l4.379,3.218c1.575.007,3.758-6.836,5.242-6.52V82.236a1.6,1.6,0,0,0-1.59-1.591H-152.5a1.6,1.6,0,0,0-1.59,1.591v24.345C-154.092,107.456-127.526,103.363-127.526,103.363Z" fill="#bfdfe7"/>
    <path id="Trazado_53936" data-name="Trazado 53936" d="M-149.161,134.015V82.236a1.6,1.6,0,0,1,1.59-1.591H-152.5a1.6,1.6,0,0,0-1.59,1.591v51.779a1.594,1.594,0,0,0,1.59,1.59l1.849,2.082C-151.528,137.687-149.161,134.89-149.161,134.015Z" fill="#93cbd8"/>
    <path id="Trazado_53937" data-name="Trazado 53937" d="M-103.691,92.125h-39.985a.8.8,0,0,0-.795.795v6.346a.8.8,0,0,0,.795.795h39.985a.8.8,0,0,0,.8-.795V92.92A.8.8,0,0,0-103.691,92.125Z" fill="#fff"/>
    <path id="Trazado_53938" data-name="Trazado 53938" d="M-139.458,99.266V92.92a.8.8,0,0,1,.795-.795h-5.013a.8.8,0,0,0-.795.795v6.346a.8.8,0,0,0,.795.795h5.013A.8.8,0,0,1-139.458,99.266Z" fill="#dff6fd"/>
  </g>
</svg>
