<svg xmlns="http://www.w3.org/2000/svg" xmlns:xlink="http://www.w3.org/1999/xlink" width="83.511" height="93.349" viewBox="0 0 83.511 93.349">
  <defs>
    <clipPath id="clip-path">
      <circle id="Elipse_1362" data-name="Elipse 1362" cx="41.756" cy="41.756" r="41.756" transform="translate(-259.858 191.912)" fill="none"/>
    </clipPath>
  </defs>
  <g id="Grupo_25817" data-name="Grupo 25817" transform="translate(259.858 -182.074)">
    <g id="Grupo_25812" data-name="Grupo 25812">
      <g id="Grupo_25811" data-name="Grupo 25811" clip-path="url(#clip-path)">
        <rect id="Rectángulo_5185" data-name="Rectángulo 5185" width="85.367" height="88.614" transform="translate(-261.668 188.968)" fill="#f2f2f2"/>
        <g id="Grupo_25810" data-name="Grupo 25810">
          <path id="Trazado_53984" data-name="Trazado 53984" d="M-208.232,248.435h-19.74a15.47,15.47,0,0,0-15.453,15.453v12.251a1.4,1.4,0,0,0,1.4,1.4h47.848a1.4,1.4,0,0,0,1.4-1.4V263.888A15.47,15.47,0,0,0-208.232,248.435Z" fill="#f0eeee"/>
          <path id="Trazado_53985" data-name="Trazado 53985" d="M-208.232,248.435h-4.973a15.47,15.47,0,0,1,15.453,15.453v12.251a1.4,1.4,0,0,1-1.4,1.4h4.973a1.4,1.4,0,0,0,1.4-1.4V263.888A15.47,15.47,0,0,0-208.232,248.435Z" fill="#d9d4d4"/>
          <path id="Trazado_53986" data-name="Trazado 53986" d="M-237.526,246.513h38.848a8.757,8.757,0,0,0,8.75-9.09L-191.3,201.44a12.941,12.941,0,0,0-12.932-12.448h-27.734A12.942,12.942,0,0,0-244.9,201.44l-1.374,35.983A8.755,8.755,0,0,0-237.526,246.513Z" fill="#401f43"/>
          <path id="Trazado_53987" data-name="Trazado 53987" d="M-218.671,270.7a1.338,1.338,0,0,0,.569.128,1.338,1.338,0,0,0,.569-.128A20.424,20.424,0,0,0-207.1,259.527a24.407,24.407,0,0,0,1.607-10.845,15.5,15.5,0,0,0-2.734-.247h-19.74a15.5,15.5,0,0,0-2.734.247,24.394,24.394,0,0,0,1.608,10.845A20.423,20.423,0,0,0-218.671,270.7Z" fill="#62cca2"/>
          <path id="Trazado_53988" data-name="Trazado 53988" d="M-205.5,248.682h0q-.324-.059-.653-.1l-.057-.007c-.2-.027-.4-.05-.605-.069-.074-.007-.149-.011-.223-.017-.155-.012-.31-.025-.467-.032-.241-.012-.484-.019-.729-.019h-4.973a15.358,15.358,0,0,1,7.788,2.114C-205.419,249.92-205.445,249.3-205.5,248.682Z" fill="#5aa8a2"/>
          <g id="Grupo_25806" data-name="Grupo 25806">
            <path id="Trazado_53989" data-name="Trazado 53989" d="M-225.952,231.984v16.909a7.85,7.85,0,0,0,7.85,7.85h0a7.85,7.85,0,0,0,7.85-7.85V231.984Z" fill="#e7985b"/>
            <path id="Trazado_53990" data-name="Trazado 53990" d="M-242.375,223.827h9.207v10.557h-9.207a5.279,5.279,0,0,1-5.279-5.278A5.279,5.279,0,0,1-242.375,223.827Z" fill="#e7985b"/>
            <path id="Trazado_53991" data-name="Trazado 53991" d="M-193.829,223.827h-9.206v10.557h9.206a5.278,5.278,0,0,0,5.279-5.278A5.279,5.279,0,0,0-193.829,223.827Z" fill="#e7985b"/>
          </g>
          <path id="Trazado_53992" data-name="Trazado 53992" d="M-197.722,217.61a.883.883,0,0,1,.527.8v6.661a20.845,20.845,0,0,1-6.122,14.783,20.843,20.843,0,0,1-14.785,6.124c-.181,0-.36,0-.539-.008h-.024c-.172,0-.343-.011-.513-.02a.23.23,0,0,1-.037,0h-.008a20.907,20.907,0,0,1-19.786-20.877v-7a1.4,1.4,0,0,1,1.349-1.4c16.484-.649,25.7-5.7,31.274-10.588a.638.638,0,0,1,1.044.355,19.278,19.278,0,0,0,3.8,8.1A10.863,10.863,0,0,0-197.722,217.61Z" fill="#f4a56d"/>
          <path id="Trazado_53993" data-name="Trazado 53993" d="M-218.1,235.855a7.677,7.677,0,0,1-6.309-3.308,1.4,1.4,0,0,1,.353-1.947,1.4,1.4,0,0,1,1.947.354,4.878,4.878,0,0,0,4.009,2.1,4.879,4.879,0,0,0,4.01-2.1,1.4,1.4,0,0,1,1.946-.354,1.4,1.4,0,0,1,.354,1.947A7.681,7.681,0,0,1-218.1,235.855Z" fill="#19303f"/>
          <path id="Trazado_53994" data-name="Trazado 53994" d="M-197.722,217.61a.883.883,0,0,1,.527.8v6.661a20.845,20.845,0,0,1-6.122,14.783,20.843,20.843,0,0,1-14.785,6.124c-.181,0-.36,0-.539-.008h-.024c-.172,0-.343-.011-.513-.02a.23.23,0,0,1-.037,0,18.732,18.732,0,0,0,17.669-18.7V214.535A10.871,10.871,0,0,0-197.722,217.61Z" fill="#e7985b"/>
          <g id="Grupo_25807" data-name="Grupo 25807">
            <path id="Trazado_53995" data-name="Trazado 53995" d="M-207.971,224.382a1.4,1.4,0,0,1-1.4-1.4v-.373a1.4,1.4,0,0,1,1.4-1.4,1.4,1.4,0,0,1,1.4,1.4v.373A1.4,1.4,0,0,1-207.971,224.382Z" fill="#19303f"/>
            <path id="Trazado_53996" data-name="Trazado 53996" d="M-228.233,224.382a1.4,1.4,0,0,1-1.4-1.4v-.373a1.4,1.4,0,0,1,1.4-1.4,1.4,1.4,0,0,1,1.4,1.4v.373A1.4,1.4,0,0,1-228.233,224.382Z" fill="#19303f"/>
          </g>
          <g id="Grupo_25808" data-name="Grupo 25808">
            <path id="Trazado_53997" data-name="Trazado 53997" d="M-194.464,187.36a1.4,1.4,0,0,0-.766-.778,60.282,60.282,0,0,0-45.744,0,1.4,1.4,0,0,0-.766.778,1.4,1.4,0,0,0,.027,1.092l7.27,16.052a1.4,1.4,0,0,0,1.809.716,38.3,38.3,0,0,1,29.064,0,1.382,1.382,0,0,0,.534.106,1.4,1.4,0,0,0,1.275-.822l7.27-16.052A1.4,1.4,0,0,0-194.464,187.36Z" fill="#f0eeee"/>
          </g>
          <g id="Grupo_25809" data-name="Grupo 25809">
            <path id="Trazado_53998" data-name="Trazado 53998" d="M-235.867,201.361l1.424,3.143a1.4,1.4,0,0,0,1.809.716,38.3,38.3,0,0,1,29.064,0,1.382,1.382,0,0,0,.534.106,1.4,1.4,0,0,0,1.275-.822l1.424-3.143A47.235,47.235,0,0,0-235.867,201.361Z" fill="#62cca2"/>
            <path id="Trazado_53999" data-name="Trazado 53999" d="M-240.564,190.988a60.286,60.286,0,0,1,44.925,0l1.149-2.537a1.4,1.4,0,0,0,.026-1.091,1.4,1.4,0,0,0-.766-.778,60.282,60.282,0,0,0-45.744,0,1.4,1.4,0,0,0-.766.778,1.4,1.4,0,0,0,.027,1.091Z" fill="#62cca2"/>
          </g>
          <path id="Trazado_54000" data-name="Trazado 54000" d="M-215.361,190.391H-216.7v-1.342a1.4,1.4,0,0,0-1.4-1.4,1.4,1.4,0,0,0-1.4,1.4v1.342h-1.341a1.4,1.4,0,0,0-1.4,1.4,1.4,1.4,0,0,0,1.4,1.4h1.341v1.342a1.4,1.4,0,0,0,1.4,1.4,1.4,1.4,0,0,0,1.4-1.4v-1.342h1.342a1.4,1.4,0,0,0,1.4-1.4A1.4,1.4,0,0,0-215.361,190.391Z" fill="#6b6bd6"/>
        </g>
      </g>
    </g>
    <path id="Trazado_54001" data-name="Trazado 54001" d="M-237.526,246.513h38.848a8.757,8.757,0,0,0,8.75-9.09L-191.3,201.44a12.941,12.941,0,0,0-12.932-12.448h-27.734A12.942,12.942,0,0,0-244.9,201.44l-1.374,35.983A8.755,8.755,0,0,0-237.526,246.513Z" fill="#401f43"/>
    <g id="Grupo_25813" data-name="Grupo 25813">
      <path id="Trazado_54002" data-name="Trazado 54002" d="M-225.952,231.984v16.909a7.85,7.85,0,0,0,7.85,7.85h0a7.85,7.85,0,0,0,7.85-7.85V231.984Z" fill="#e7985b"/>
      <path id="Trazado_54003" data-name="Trazado 54003" d="M-242.375,223.827h9.207v10.557h-9.207a5.279,5.279,0,0,1-5.279-5.278A5.279,5.279,0,0,1-242.375,223.827Z" fill="#e7985b"/>
      <path id="Trazado_54004" data-name="Trazado 54004" d="M-193.829,223.827h-9.206v10.557h9.206a5.278,5.278,0,0,0,5.279-5.278A5.279,5.279,0,0,0-193.829,223.827Z" fill="#e7985b"/>
    </g>
    <path id="Trazado_54005" data-name="Trazado 54005" d="M-197.722,217.61a.883.883,0,0,1,.527.8v6.661a20.845,20.845,0,0,1-6.122,14.783,20.843,20.843,0,0,1-14.785,6.124c-.181,0-.36,0-.539-.008h-.024c-.172,0-.343-.011-.513-.02a.23.23,0,0,1-.037,0h-.008a20.907,20.907,0,0,1-19.786-20.877v-7a1.4,1.4,0,0,1,1.349-1.4c16.484-.649,25.7-5.7,31.274-10.588a.638.638,0,0,1,1.044.355,19.278,19.278,0,0,0,3.8,8.1A10.863,10.863,0,0,0-197.722,217.61Z" fill="#f4a56d"/>
    <path id="Trazado_54006" data-name="Trazado 54006" d="M-218.1,235.855a7.677,7.677,0,0,1-6.309-3.308,1.4,1.4,0,0,1,.353-1.947,1.4,1.4,0,0,1,1.947.354,4.878,4.878,0,0,0,4.009,2.1,4.879,4.879,0,0,0,4.01-2.1,1.4,1.4,0,0,1,1.946-.354,1.4,1.4,0,0,1,.354,1.947A7.681,7.681,0,0,1-218.1,235.855Z" fill="#19303f"/>
    <path id="Trazado_54007" data-name="Trazado 54007" d="M-197.722,217.61a.883.883,0,0,1,.527.8v6.661a20.845,20.845,0,0,1-6.122,14.783,20.843,20.843,0,0,1-14.785,6.124c-.181,0-.36,0-.539-.008h-.024c-.172,0-.343-.011-.513-.02a.23.23,0,0,1-.037,0,18.732,18.732,0,0,0,17.669-18.7V214.535A10.871,10.871,0,0,0-197.722,217.61Z" fill="#e7985b"/>
    <g id="Grupo_25814" data-name="Grupo 25814">
      <path id="Trazado_54008" data-name="Trazado 54008" d="M-207.971,224.382a1.4,1.4,0,0,1-1.4-1.4v-.373a1.4,1.4,0,0,1,1.4-1.4,1.4,1.4,0,0,1,1.4,1.4v.373A1.4,1.4,0,0,1-207.971,224.382Z" fill="#19303f"/>
      <path id="Trazado_54009" data-name="Trazado 54009" d="M-228.233,224.382a1.4,1.4,0,0,1-1.4-1.4v-.373a1.4,1.4,0,0,1,1.4-1.4,1.4,1.4,0,0,1,1.4,1.4v.373A1.4,1.4,0,0,1-228.233,224.382Z" fill="#19303f"/>
    </g>
    <g id="Grupo_25815" data-name="Grupo 25815">
      <path id="Trazado_54010" data-name="Trazado 54010" d="M-194.464,187.36a1.4,1.4,0,0,0-.766-.778,60.282,60.282,0,0,0-45.744,0,1.4,1.4,0,0,0-.766.778,1.4,1.4,0,0,0,.027,1.092l7.27,16.052a1.4,1.4,0,0,0,1.809.716,38.3,38.3,0,0,1,29.064,0,1.382,1.382,0,0,0,.534.106,1.4,1.4,0,0,0,1.275-.822l7.27-16.052A1.4,1.4,0,0,0-194.464,187.36Z" fill="#f0eeee"/>
    </g>
    <g id="Grupo_25816" data-name="Grupo 25816">
      <path id="Trazado_54011" data-name="Trazado 54011" d="M-235.867,201.361l1.424,3.143a1.4,1.4,0,0,0,1.809.716,38.3,38.3,0,0,1,29.064,0,1.382,1.382,0,0,0,.534.106,1.4,1.4,0,0,0,1.275-.822l1.424-3.143A47.235,47.235,0,0,0-235.867,201.361Z" fill="#62cca2"/>
      <path id="Trazado_54012" data-name="Trazado 54012" d="M-240.564,190.988a60.286,60.286,0,0,1,44.925,0l1.149-2.537a1.4,1.4,0,0,0,.026-1.091,1.4,1.4,0,0,0-.766-.778,60.282,60.282,0,0,0-45.744,0,1.4,1.4,0,0,0-.766.778,1.4,1.4,0,0,0,.027,1.091Z" fill="#62cca2"/>
    </g>
    <path id="Trazado_54013" data-name="Trazado 54013" d="M-215.361,190.391H-216.7v-1.342a1.4,1.4,0,0,0-1.4-1.4,1.4,1.4,0,0,0-1.4,1.4v1.342h-1.341a1.4,1.4,0,0,0-1.4,1.4,1.4,1.4,0,0,0,1.4,1.4h1.341v1.342a1.4,1.4,0,0,0,1.4,1.4,1.4,1.4,0,0,0,1.4-1.4v-1.342h1.342a1.4,1.4,0,0,0,1.4-1.4A1.4,1.4,0,0,0-215.361,190.391Z" fill="#6b6bd6"/>
  </g>
</svg>
