<svg xmlns="http://www.w3.org/2000/svg" width="30.276" height="30.266" viewBox="0 0 30.276 30.266">
  <g id="Grupo_24094" data-name="Grupo 24094" transform="translate(-638.11 -1978.524)">
    <g id="Grupo_24091" data-name="Grupo 24091">
      <g id="Grupo_24090" data-name="Grupo 24090">
        <path id="Trazado_43007" data-name="Trazado 43007" d="M650.732,1980.543a10.593,10.593,0,1,0,10.592,10.593A10.593,10.593,0,0,0,650.732,1980.543Zm0,1.009a9.575,9.575,0,0,1,7.826,4.071l-1.261,1.261a1.994,1.994,0,0,0-1.017-.288,2.019,2.019,0,0,0-2.018,2.018,1.994,1.994,0,0,0,.286,1.018l-3.3,3.3a1.958,1.958,0,0,0-2.037,0l-2.294-2.294a2.011,2.011,0,1,0-3.678-1.523h-1.871A9.6,9.6,0,0,1,650.732,1981.552Zm6.557,7.062a1.009,1.009,0,1,1-1.009-1.009A1.009,1.009,0,0,1,657.289,1988.614Zm-6.053,6.053a1.009,1.009,0,1,1-1.009-1.009A1.009,1.009,0,0,1,651.236,1994.667Zm-5.044-5.044a1.009,1.009,0,1,1-1.009-1.009A1.009,1.009,0,0,1,646.192,1989.623Zm9.2,9.893a9.588,9.588,0,0,1-14.24-8.367,9.7,9.7,0,0,1,.054-1.022h2.035a2.017,2.017,0,0,0,1.946,1.513,1.981,1.981,0,0,0,1.019-.286l2.294,2.294a1.982,1.982,0,0,0-.286,1.019,2.018,2.018,0,1,0,3.749-1.019l3.3-3.3a1.994,1.994,0,0,0,1.018.286,2.019,2.019,0,0,0,2.018-2.018,2,2,0,0,0-.286-1.018l1.1-1.1A9.576,9.576,0,0,1,655.388,1999.516Z" fill="#111e61"/>
      </g>
    </g>
    <g id="Grupo_24093" data-name="Grupo 24093">
      <g id="Grupo_24092" data-name="Grupo 24092">
        <path id="Trazado_43008" data-name="Trazado 43008" d="M663.342,1983.57a2.019,2.019,0,0,0,1.946-1.513h3.1v-1.009h-3.1a2.012,2.012,0,1,0-3.678,1.523l-.886.886a12.61,12.61,0,1,0-3.149,18.262l1.523,1.523.713.713,4.06,4.06a2.644,2.644,0,0,0,3.74-3.739l-4.06-4.061-.714-.713-1.522-1.522a12.57,12.57,0,0,0,0-13.688l1.009-1.009A1.985,1.985,0,0,0,663.342,1983.57Zm0-3.027a1.009,1.009,0,1,1-1.009,1.009A1.009,1.009,0,0,1,663.342,1980.543Zm3.556,24.446a1.636,1.636,0,0,1-2.287,2.34l-.026-.027-4.061-4.06,2.313-2.313Zm-4.774-4.774-2.313,2.314-1.4-1.4c.071-.054.137-.114.208-.17s.151-.123.226-.186c.11-.093.219-.187.326-.283l.162-.152q.311-.289.6-.6l.151-.162c.1-.107.19-.216.283-.326.063-.075.125-.15.186-.227s.115-.136.17-.207Zm-1.956-2.343c-.159.222-.323.44-.5.649-.05.061-.1.12-.156.18q-.232.27-.478.523c-.072.074-.145.146-.219.218q-.252.248-.522.478c-.06.051-.119.106-.18.157-.21.173-.427.337-.649.495a11.62,11.62,0,1,1,2.7-2.7Z" fill="#111e61"/>
      </g>
    </g>
  </g>
</svg>
