<svg xmlns="http://www.w3.org/2000/svg" width="107" height="107" viewBox="0 0 107 107">
  <g id="Grupo_26844" data-name="Grupo 26844" transform="translate(-274 -3854)">
    <g id="Grupo_26842" data-name="Grupo 26842" transform="translate(75.468 3383.409)">
      <circle id="Elipse_1514" data-name="Elipse 1514" cx="35.792" cy="35.792" r="35.792" transform="translate(211.532 494)" fill="#e33e4e"/>
      <path id="Trazado_54460" data-name="Trazado 54460" d="M282.466,528.377a35.792,35.792,0,0,1-62.7,23.6,35.79,35.79,0,0,0,50.507-50.507A35.7,35.7,0,0,1,282.466,528.377Z" transform="translate(0.652 1.415)" fill="#fc4755"/>
      <circle id="Elipse_1515" data-name="Elipse 1515" cx="27.01" cy="27.01" r="27.01" transform="translate(220.315 502.782)" fill="#f5f5f5"/>
      <path id="Trazado_54461" data-name="Trazado 54461" d="M273.227,527.92a27.012,27.012,0,0,1-47.7,17.371,27.012,27.012,0,0,0,38.057-38.057A26.963,26.963,0,0,1,273.227,527.92Z" transform="translate(1.108 1.872)" fill="#e6e6e6"/>
      <circle id="Elipse_1516" data-name="Elipse 1516" cx="18.228" cy="18.228" r="18.228" transform="translate(229.097 511.565)" fill="#e33e4e"/>
      <path id="Trazado_54462" data-name="Trazado 54462" d="M263.985,527.462a18.227,18.227,0,0,1-32.666,11.125,18.228,18.228,0,0,0,25.564-25.564A18.2,18.2,0,0,1,263.985,527.462Z" transform="translate(1.566 2.33)" fill="#fc4755"/>
      <circle id="Elipse_1517" data-name="Elipse 1517" cx="9.28" cy="9.28" r="9.28" transform="translate(238.045 520.513)" fill="#f5f5f5"/>
      <path id="Trazado_54463" data-name="Trazado 54463" d="M276.86,537.439a35.564,35.564,0,0,1-2.643,5.9l-7.99-3.726a26.8,26.8,0,0,0,2.612-5.911Z" transform="translate(4.33 3.967)" fill="#fc4755"/>
      <path id="Trazado_54464" data-name="Trazado 54464" d="M269.427,533.977a26.8,26.8,0,0,1-2.612,5.911l-8.023-3.74a18.035,18.035,0,0,0,2.552-5.939Z" transform="translate(3.741 3.69)" fill="#e6e6e6"/>
      <path id="Trazado_54465" data-name="Trazado 54465" d="M261.953,530.5a18.035,18.035,0,0,1-2.552,5.939l-8.288-3.864a9.253,9.253,0,0,0,2.356-6.031Z" transform="translate(3.133 3.4)" fill="#fc4755"/>
      <path id="Trazado_54466" data-name="Trazado 54466" d="M254.175,526.816a9.253,9.253,0,0,1-2.356,6.031l-7.764-3.621a3.227,3.227,0,0,1-1.686-3.99c.037-.1.077-.2.123-.3a3.232,3.232,0,0,1,4.293-1.563Z" transform="translate(2.427 3.125)" fill="#e6e6e6"/>
      <g id="Grupo_26841" data-name="Grupo 26841" transform="translate(244.617 483.591)">
        <g id="Grupo_26839" data-name="Grupo 26839" transform="translate(27.074 13.471)">
          <path id="Trazado_54467" data-name="Trazado 54467" d="M288.842,497.5a.316.316,0,0,1,.18.541l-3.506,3.4-2.151,2.086-5.877,5.7a1.7,1.7,0,0,1-1.444.449l-8.766-1.393,6.566-6.287,2.176-2.083,4-3.833Z" transform="translate(-267.278 -496.074)" fill="#6b6bd6"/>
          <path id="Trazado_54468" data-name="Trazado 54468" d="M285.034,501.155l-2.151,2.086-9.521-1.532,2.176-2.083Z" transform="translate(-266.796 -495.793)" fill="#6543f7"/>
        </g>
        <g id="Grupo_26840" data-name="Grupo 26840" transform="translate(21.449)">
          <path id="Trazado_54469" data-name="Trazado 54469" d="M276.239,493.236l-3.982,3.9-2.166,2.12-6.542,6.4-1.461-8.878a1.655,1.655,0,0,1,.463-1.44l5.9-5.908,2.159-2.162,3.572-3.575a.332.332,0,0,1,.562.181Z" transform="translate(-262.066 -483.591)" fill="#6b6bd6"/>
          <path id="Trazado_54470" data-name="Trazado 54470" d="M271.788,496.862l-2.166,2.12-1.639-9.825,2.159-2.162Z" transform="translate(-261.597 -483.322)" fill="#6543f7"/>
        </g>
        <path id="Trazado_54471" data-name="Trazado 54471" d="M285.386,492.269a3.215,3.215,0,0,1-.945,2.284L247.7,531.289a3.229,3.229,0,0,1-4.326.219c-.083-.068-.164-.141-.242-.219a3.231,3.231,0,0,1,0-4.569l36.735-36.735a3.23,3.23,0,0,1,5.515,2.285Z" transform="translate(-242.19 -483.16)" fill="#172e60"/>
        <path id="Trazado_54472" data-name="Trazado 54472" d="M285.3,492.182a3.215,3.215,0,0,1-.945,2.284L247.617,531.2a3.229,3.229,0,0,1-4.326.219l41.28-41.281a3.218,3.218,0,0,1,.727,2.043Z" transform="translate(-242.103 -483.073)" fill="#12214a"/>
      </g>
    </g>
    <rect id="Rectángulo_5238" data-name="Rectángulo 5238" width="107" height="107" transform="translate(274 3854)" fill="none"/>
  </g>
</svg>
