<svg xmlns="http://www.w3.org/2000/svg" width="32" height="35.56" viewBox="0 0 32 35.56">
  <g id="Grupo_29018" data-name="Grupo 29018" transform="translate(-335 -502.334)">
    <g id="Grupo_27136" data-name="Grupo 27136" transform="translate(-64.332 329.885)">
      <path id="Trazado_55271" data-name="Trazado 55271" d="M400.517,180.45a3.264,3.264,0,0,1,3.26-3.26h11.26a3.273,3.273,0,0,1,3.25,3.009l1.182-.09a4.463,4.463,0,0,0-4.432-4.1h-.888a3.56,3.56,0,0,0-3.557-3.556h-2.37A3.56,3.56,0,0,0,404.665,176h-.888a4.45,4.45,0,0,0-4.445,4.445v4.445h1.185Zm7.7-6.815h2.37a2.372,2.372,0,0,1,2.37,2.37h-7.111A2.372,2.372,0,0,1,408.222,173.634Z" transform="translate(0 0)" fill="#111e61"/>
      <path id="Trazado_55272" data-name="Trazado 55272" d="M409.578,174.5h2.37v1.185h-2.37Z" transform="translate(-1.356 -0.271)" fill="#111e61"/>
      <path id="Trazado_55273" data-name="Trazado 55273" d="M411.908,189.847a.593.593,0,0,0-.593-.593H410.13v-1.185a.593.593,0,0,0-.593-.593h-2.37a.592.592,0,0,0-.593.593v1.185h-1.186a.593.593,0,0,0-.593.593v2.37a.593.593,0,0,0,.593.593h1.186V194a.592.592,0,0,0,.593.593h2.37a.593.593,0,0,0,.593-.593V192.81h1.185a.593.593,0,0,0,.593-.593Zm-1.185,1.778h-1.185a.593.593,0,0,0-.593.593V193.4H407.76v-1.185a.593.593,0,0,0-.593-.593h-1.185V190.44h1.185a.593.593,0,0,0,.593-.593v-1.186h1.185v1.186a.593.593,0,0,0,.593.593h1.185Z" transform="translate(-0.723 -1.989)" fill="#111e61"/>
      <path id="Trazado_55274" data-name="Trazado 55274" d="M412.993,194.99h3.557v1.185h-3.557Z" transform="translate(-1.808 -2.983)" fill="#111e61"/>
      <path id="Trazado_55275" data-name="Trazado 55275" d="M429.988,183.081a4.5,4.5,0,0,0-6.579,0l-1.556,1.636-1.556-1.636a4.51,4.51,0,0,0-3.185-1.43v-.3a2.077,2.077,0,0,0-2.075-2.075h-11.26a2.077,2.077,0,0,0-2.075,2.075v16.475a2.812,2.812,0,0,0,1.925,2.671l3.249,1.083a8.048,8.048,0,0,0,5.06,0l3.249-1.083a2.812,2.812,0,0,0,1.925-2.671v-4.341l4.149,4.365v9.726a.149.149,0,0,1-.148.148h-6.224a.148.148,0,0,1-.147-.148v-1.037h.593a.593.593,0,0,0,.593-.593v-3.2l.01,0a5.179,5.179,0,0,0,3.545-4.92v-.769H418.3v.769a4,4,0,0,1-2.735,3.8l-.416.138a.593.593,0,0,0-.405.562v3.033h-1.185v-2.243a.593.593,0,0,0-.593-.593.6.6,0,0,0-.187.03l-.463.154a9.187,9.187,0,0,1-1.792.4.592.592,0,0,0-.521.588v4.029h-1.185V203.7a.592.592,0,0,0-.521-.588,9.188,9.188,0,0,1-1.792-.4l-.463-.154a.593.593,0,0,0-.75.375.577.577,0,0,0-.03.187v2.243h-1.186v-3.033a.593.593,0,0,0-.405-.562l-.415-.138a4,4,0,0,1-2.736-3.8V186.984h-1.185v10.845a5.179,5.179,0,0,0,3.546,4.92l.01,0v3.2a.593.593,0,0,0,.593.593h2.371a.593.593,0,0,0,.593-.593h0v-2.019a10.443,10.443,0,0,0,1.185.279v4.11a.593.593,0,0,0,.593.593h2.37a.593.593,0,0,0,.593-.593v-4.11a10.4,10.4,0,0,0,1.185-.279v2.019a.593.593,0,0,0,.593.593h.593v1.037a1.334,1.334,0,0,0,1.333,1.334h6.224a1.335,1.335,0,0,0,1.334-1.334v-9.727l5.17-5.44-.859-.817-4.9,5.162-7.276-7.656a3.82,3.82,0,0,1,0-5.2,3.313,3.313,0,0,1,4.681-.18c.062.058.122.118.18.18l1.985,2.088a.593.593,0,0,0,.838.022l.022-.022,1.985-2.088a3.313,3.313,0,0,1,4.681-.18c.062.058.122.118.18.18a3.82,3.82,0,0,1,0,5.2l-1.544,1.624.859.816,1.544-1.624a5.02,5.02,0,0,0,0-6.835Zm-14.061,14.748a1.628,1.628,0,0,1-1.115,1.546l-3.249,1.083a6.857,6.857,0,0,1-4.311,0L404,199.375a1.628,1.628,0,0,1-1.115-1.546v-1.361h13.039Zm-2.209-7.912,2.209,2.324v3.04H402.888V184.613h9.848a5.028,5.028,0,0,0,.982,5.3Zm2.209-8.135a4.557,4.557,0,0,0-2.209,1.3q-.16.168-.3.347h-10.53v-2.075a.89.89,0,0,1,.889-.888h11.26a.89.89,0,0,1,.889.888Z" transform="translate(0 -0.904)" fill="#111e61"/>
      <path id="Trazado_55276" data-name="Trazado 55276" d="M426.386,190.31l-.751,1.878-2.344-3.751a.593.593,0,0,0-.817-.188.607.607,0,0,0-.216.238l-1.021,2.043h-1.412v1.185H421.6a.592.592,0,0,0,.53-.328l.713-1.426,2.4,3.845a.593.593,0,0,0,.5.279l.053,0a.591.591,0,0,0,.5-.37l1.036-2.591H429.9v-1.185h-2.963a.592.592,0,0,0-.55.372Z" transform="translate(-2.712 -2.079)" fill="#111e61"/>
    </g>
  </g>
</svg>
