<svg xmlns="http://www.w3.org/2000/svg" width="95.181" height="98.593" viewBox="0 0 95.181 98.593">
  <g id="Grupo_25838" data-name="Grupo 25838" transform="translate(-650 -6862.168)">
    <circle id="Elipse_1362" data-name="Elipse 1362" cx="47.59" cy="47.59" r="47.59" transform="translate(650 6865.58)" fill="#aacce9"/>
    <g id="Grupo_25835" data-name="Grupo 25835" transform="translate(663.496 6862.168)">
      <path id="Trazado_54036" data-name="Trazado 54036" d="M312.252,359.223a34.134,34.134,0,0,0,34.094,34.1l1.723-43.778-1.723-43.778C335.3,317.127,312.252,343.3,312.252,359.223Z" transform="translate(-312.252 -305.764)" fill="#e33e4e"/>
      <path id="Trazado_54037" data-name="Trazado 54037" d="M369.484,359.223c0-15.9-22.98-42.025-34.1-53.459v87.555a34.135,34.135,0,0,0,34.1-34.1Z" transform="translate(-301.294 -305.764)" fill="#bf2e43"/>
      <path id="Trazado_54038" data-name="Trazado 54038" d="M338.293,331.878a9.05,9.05,0,0,0-9.039,9.039v16.788h5.165v-7.748h7.748v7.748h5.167V340.917a9.05,9.05,0,0,0-9.041-9.039Zm-3.874,12.914v-3.874a3.874,3.874,0,0,1,7.748,0v3.874Z" transform="translate(-304.199 -293.395)" fill="#fff5f5"/>
    </g>
  </g>
</svg>
