<svg xmlns="http://www.w3.org/2000/svg" xmlns:xlink="http://www.w3.org/1999/xlink" width="107" height="107" viewBox="0 0 107 107">
  <defs>
    <clipPath id="clip-path">
      <ellipse id="Elipse_1362" data-name="Elipse 1362" cx="41.284" cy="41.284" rx="41.284" ry="41.284" fill="none"/>
    </clipPath>
  </defs>
  <g id="Grupo_27443" data-name="Grupo 27443" transform="translate(-498 -6723)">
    <rect id="Rect치ngulo_5239" data-name="Rect치ngulo 5239" width="107" height="107" transform="translate(498 6723)" fill="none"/>
    <g id="Grupo_27440" data-name="Grupo 27440" transform="translate(510 6733)">
      <g id="Grupo_27438" data-name="Grupo 27438" transform="translate(0 4.193)">
        <g id="Grupo_27437" data-name="Grupo 27437" clip-path="url(#clip-path)">
          <rect id="Rect치ngulo_5319" data-name="Rect치ngulo 5319" width="83.262" height="83.262" fill="#aacce9"/>
        </g>
      </g>
      <g id="Grupo_27439" data-name="Grupo 27439" transform="translate(13.285)">
        <path id="Trazado_56939" data-name="Trazado 56939" d="M464.108,207.462a28.135,28.135,0,0,1-28-28.2c0-19,25.268-44.69,26.345-45.773a2.4,2.4,0,0,1,3.31,0c1.076,1.083,26.345,26.772,26.345,45.773A28.135,28.135,0,0,1,464.108,207.462Z" transform="translate(-436.108 -132.823)" fill="#dfccbf"/>
        <path id="Trazado_56940" data-name="Trazado 56940" d="M461.945,187.673H460.39a5.45,5.45,0,0,1-5.444-5.444V178.34h-3.889a5.45,5.45,0,0,1-5.444-5.444V171.34a5.45,5.45,0,0,1,5.444-5.444h3.889v-3.889a5.45,5.45,0,0,1,5.444-5.444h1.556a5.45,5.45,0,0,1,5.444,5.444V165.9h3.889a5.45,5.45,0,0,1,5.444,5.444V172.9a5.45,5.45,0,0,1-5.444,5.444H467.39v3.889A5.45,5.45,0,0,1,461.945,187.673Z" transform="translate(-433.168 -125.478)" fill="#bf2e43"/>
        <path id="Trazado_56941" data-name="Trazado 56941" d="M464.108,132.823a2.322,2.322,0,0,0-1.655.663c-1.076,1.083-26.345,26.772-26.345,45.773a28.135,28.135,0,0,0,28,28.2V195.017h-.778a5.45,5.45,0,0,1-5.444-5.444v-3.889H454a5.45,5.45,0,0,1-5.444-5.444v-1.556A5.45,5.45,0,0,1,454,173.24h3.889v-3.889a5.45,5.45,0,0,1,5.444-5.444h.778Z" transform="translate(-436.108 -132.823)" fill="#efe6de"/>
        <path id="Trazado_56942" data-name="Trazado 56942" d="M461.167,156.562h-.778a5.45,5.45,0,0,0-5.444,5.444V165.9h-3.889a5.45,5.45,0,0,0-5.444,5.444V172.9a5.45,5.45,0,0,0,5.444,5.444h3.889v3.889a5.45,5.45,0,0,0,5.444,5.444h.778Z" transform="translate(-433.168 -125.478)" fill="#e33e4e"/>
      </g>
    </g>
  </g>
</svg>
