<svg xmlns="http://www.w3.org/2000/svg" width="119.854" height="126.257" viewBox="0 0 119.854 126.257">
  <g id="Grupo_27125" data-name="Grupo 27125" transform="translate(-254.34 -310.965)">
    <circle id="Elipse_1537" data-name="Elipse 1537" cx="59.927" cy="59.927" r="59.927" transform="translate(254.34 317.368)" fill="#badfff"/>
    <g id="Grupo_27124" data-name="Grupo 27124" transform="translate(281.568 310.965)">
      <path id="Trazado_55244" data-name="Trazado 55244" d="M272.6,364.041c-5.609,10.973-8.514,27.065-2.059,38.34a29.44,29.44,0,0,0,6.655,8.062,37.685,37.685,0,0,0,14.66,7.261,36.964,36.964,0,0,0,7.29,1h.828a36.919,36.919,0,0,0,7.288-1,37.628,37.628,0,0,0,14.653-7.261,29.683,29.683,0,0,0,6.668-8.062c6.453-11.275,3.546-27.368-2.072-38.34l-26.948-53.076Z" transform="translate(-266.864 -310.965)" fill="#f0ca4e"/>
      <path id="Trazado_55245" data-name="Trazado 55245" d="M274.521,353.272c-4.461,8.438-6.761,20.813-1.635,29.479a23.1,23.1,0,0,0,5.29,6.2A29.881,29.881,0,0,0,295.6,395.3h.65a29.869,29.869,0,0,0,17.423-6.348,23.147,23.147,0,0,0,5.292-6.2c5.116-8.666,2.815-21.041-1.648-29.479l-21.389-40.81Z" transform="translate(-263.226 -309.207)" fill="#f5de83" opacity="0.6" style="mix-blend-mode: screen;isolation: isolate"/>
      <path id="Trazado_55246" data-name="Trazado 55246" d="M270.256,366.853s6.331,16.8,28.685,17.443c22.367.659,33.9-21.252,30.185-39.675,0,0,0,27.4-32.144,26.333-32.122-1.059-26.311-32.894-26.311-32.894S263.949,350.534,270.256,366.853Z" transform="translate(-266.05 -279.154)" fill="#f0ca4e" style="mix-blend-mode: multiply;isolation: isolate"/>
      <path id="Trazado_55247" data-name="Trazado 55247" d="M276.416,360.126s16.862,11.325,36.388-1.987c0,0,2.3-3.2-3.379-2.846s-22.563,2.337-31.846-1.239S272.333,357.249,276.416,360.126Z" transform="translate(-260.914 -261.569)" fill="#f0ca4e" style="mix-blend-mode: multiply;isolation: isolate"/>
      <path id="Trazado_55248" data-name="Trazado 55248" d="M320,362.533s-23.722-45.23-26.444-50.587c1.924,9.331,3.3,19.406,4.74,28.824q1.546,10.044,2.733,20.128c.754,6.429,1.607,12.821,1.359,19.313-.224,5.492-.983,11.364-3.55,16.295a24.367,24.367,0,0,1-9.109,9.653,25.438,25.438,0,0,1-17.8,2.987,35.566,35.566,0,0,0,20.652,7.512h.787a35.6,35.6,0,0,0,21.306-8.014,28.76,28.76,0,0,0,6.466-7.827C327.4,389.877,325.452,373.182,320,362.533Z" transform="translate(-260.923 -309.813)" fill="#f0ca4e" style="mix-blend-mode: multiply;isolation: isolate"/>
    </g>
  </g>
</svg>
