<?xml version="1.0" encoding="utf-8"?>
<!-- Generator: Adobe Illustrator 25.2.3, SVG Export Plug-In . SVG Version: 6.00 Build 0)  -->
<svg version="1.1" id="Layer_1" xmlns="http://www.w3.org/2000/svg" xmlns:xlink="http://www.w3.org/1999/xlink" x="0px" y="0px"
	 viewBox="0 0 32 47.4" style="enable-background:new 0 0 32 47.4;" xml:space="preserve">
<style type="text/css">
	.st0{fill:#00223D;}
</style>
<g id="Grupo_29032" transform="translate(-572.5 -812.064)">
	<path id="Trazado_55260" class="st0" d="M596.5,850H580c-0.7,0-1.3-0.6-1.3-1.3c0-0.7,0.6-1.3,1.3-1.3c0,0,0,0,0,0h16.5
		c0.7,0,1.3,0.6,1.3,1.3C597.8,849.4,597.2,850,596.5,850z"/>
	<rect id="Line" x="572.5" y="812.1" class="st0" width="16.2" height="1.8"/>
	<path id="Trazado_55257" class="st0" d="M588.5,827.4c-8.8,0-16,7.2-16,16s7.2,16,16,16s16-7.2,16-16
		C604.5,834.6,597.3,827.4,588.5,827.4z M588.5,857.1c-7.5,0-13.7-6.1-13.7-13.7c0-7.5,6.1-13.7,13.7-13.7s13.7,6.1,13.7,13.7
		C602.1,851,596,857.1,588.5,857.1z"/>
	<path id="Trazado_55258" class="st0" d="M581.9,841.9c0.7,0,1.3-0.6,1.3-1.3l0,0c0-0.4,0.3-0.8,0.8-0.8s0.8,0.3,0.8,0.8
		c0,0.7,0.6,1.3,1.3,1.3c0.7,0,1.3-0.6,1.3-1.3c0-1.9-1.5-3.4-3.4-3.4c-1.9,0-3.4,1.5-3.4,3.4C580.6,841.3,581.2,841.9,581.9,841.9
		C581.9,841.9,581.9,841.9,581.9,841.9z"/>
	<path id="Trazado_55259" class="st0" d="M593,837.2c-1.9,0-3.4,1.5-3.4,3.4c0,0.7,0.6,1.3,1.3,1.3c0.7,0,1.3-0.6,1.3-1.3
		c0-0.4,0.3-0.8,0.8-0.8c0.4,0,0.8,0.3,0.8,0.8c0,0.7,0.6,1.3,1.3,1.3c0.7,0,1.3-0.6,1.3-1.3C596.4,838.7,594.9,837.2,593,837.2
		L593,837.2z"/>
</g>
</svg>
