<svg xmlns="http://www.w3.org/2000/svg" width="172.333" height="173.333" viewBox="0 0 172.333 173.333">
  <g id="Grupo_27387" data-name="Grupo 27387" transform="translate(-840 -4313)">
    <g id="Grupo_25699" data-name="Grupo 25699" transform="translate(-6 -638)">
      <g id="Elipse_1382" data-name="Elipse 1382" transform="translate(846 4952)" fill="#ffbbc2" stroke="#f598a1" stroke-width="8">
        <circle cx="86.167" cy="86.167" r="86.167" stroke="none"/>
        <circle cx="86.167" cy="86.167" r="82.167" fill="none"/>
      </g>
    </g>
    <g id="Grupo_27386" data-name="Grupo 27386" transform="translate(-84.456 4258.568)">
      <g id="Grupo_27371" data-name="Grupo 27371" transform="translate(931.456 63.268)">
        <path id="Trazado_56808" data-name="Trazado 56808" d="M976.851,143.353v-22.42a14.027,14.027,0,0,0-10.276-13.491v56.384c2,.153,4.015.255,6.056.255a79.023,79.023,0,0,0,17.846-2.053A19.648,19.648,0,0,1,976.851,143.353Z" transform="translate(-893.819 -6.457)" fill="#ffdce1"/>
        <path id="Trazado_56809" data-name="Trazado 56809" d="M1089.08,137.509a78.812,78.812,0,1,0-125.038,63.815v-61.78h40.17v14.38a19.644,19.644,0,0,1,15.882,19.25v22.42a14.012,14.012,0,1,0,28.024,0V125.53h5.606v70.063a19.5,19.5,0,0,1-2.256,9.105A78.757,78.757,0,0,0,1089.08,137.509Z" transform="translate(-931.456 -58.697)" fill="#ffdce1"/>
        <path id="Trazado_56810" data-name="Trazado 56810" d="M964,131.351a19.464,19.464,0,0,1,2.8-10.052V108.931a5.606,5.606,0,0,1,5.606-5.606h14.947v-5.6h-40.17V159.5a78.62,78.62,0,0,0,16.816,9.3Z" transform="translate(-914.599 -16.875)" fill="#fab991"/>
        <path id="Trazado_56811" data-name="Trazado 56811" d="M956.654,106.032V118.4a19.5,19.5,0,0,1,20.553-9.2v-8.776H962.26A5.606,5.606,0,0,0,956.654,106.032Z" transform="translate(-904.451 -13.976)" fill="#fab991"/>
        <path id="Trazado_56812" data-name="Trazado 56812" d="M972.02,107.19A14.029,14.029,0,0,0,958.007,121.2v39.48a78.537,78.537,0,0,0,17.75,3.412V107.712A13.9,13.9,0,0,0,972.02,107.19Z" transform="translate(-903.001 -6.727)" fill="#fab991"/>
        <path id="Trazado_56813" data-name="Trazado 56813" d="M1016.087,90.957h-5.606V161.02a14.012,14.012,0,1,1-28.024,0V138.6a19.644,19.644,0,0,0-15.882-19.25v5.759A14.027,14.027,0,0,1,976.851,138.6v22.42a19.648,19.648,0,0,0,13.626,18.674,78.339,78.339,0,0,0,23.354-9.569,19.494,19.494,0,0,0,2.256-9.105Z" transform="translate(-893.819 -24.124)" fill="#e33e4e"/>
        <path id="Trazado_56814" data-name="Trazado 56814" d="M955.3,119.154v37.454c.926.373,1.858.74,2.8,1.077V109.1A19.463,19.463,0,0,0,955.3,119.154Z" transform="translate(-905.9 -4.678)" fill="#e33e4e"/>
        <path id="Trazado_56815" data-name="Trazado 56815" d="M956.654,114.051v48.584c.928.331,1.86.651,2.8.949V124.1a13.967,13.967,0,0,1,17.75-13.491v-5.759a19.5,19.5,0,0,0-20.553,9.2Z" transform="translate(-904.451 -9.627)" fill="#e33e4e"/>
      </g>
      <g id="Grupo_27372" data-name="Grupo 27372" transform="translate(1000.475 71.246)">
        <path id="Trazado_56816" data-name="Trazado 56816" d="M969.443,62.548a4.673,4.673,0,0,0-4.672,4.672v34.564h9.341V67.22A4.671,4.671,0,0,0,969.443,62.548Z" transform="translate(-964.771 -62.548)" fill="#fab991"/>
      </g>
      <g id="Grupo_27373" data-name="Grupo 27373" transform="translate(964.042 99.272)">
        <path id="Trazado_56817" data-name="Trazado 56817" d="M983.852,76.076H947.185v44.842h40.17a19.142,19.142,0,0,0,5.6-13.532v-22.2A9.109,9.109,0,0,0,983.852,76.076Z" transform="translate(-947.185 -76.076)" fill="#fab991"/>
      </g>
      <g id="Grupo_27374" data-name="Grupo 27374" transform="translate(952.832 99.272)">
        <path id="Trazado_56818" data-name="Trazado 56818" d="M952.984,104.1V84.485a8.408,8.408,0,0,0-8.407-8.409,2.8,2.8,0,0,0-2.8,2.8v30.829a11.211,11.211,0,0,0,11.21,11.21H972.6A16.816,16.816,0,0,0,955.787,104.1Z" transform="translate(-941.774 -76.076)" fill="#fab991"/>
      </g>
      <g id="Grupo_27375" data-name="Grupo 27375" transform="translate(964.042 65.642)">
        <path id="Trazado_56819" data-name="Trazado 56819" d="M951.857,59.843a4.671,4.671,0,0,0-4.672,4.67v28.96h9.341V64.513A4.669,4.669,0,0,0,951.857,59.843Z" transform="translate(-947.185 -59.843)" fill="#fab991"/>
      </g>
      <g id="Grupo_27376" data-name="Grupo 27376" transform="translate(976.186 54.432)">
        <path id="Trazado_56820" data-name="Trazado 56820" d="M957.719,54.432a4.671,4.671,0,0,0-4.672,4.67v40.17h9.341V59.1a4.669,4.669,0,0,0-4.67-4.67Z" transform="translate(-953.047 -54.432)" fill="#fab991"/>
      </g>
      <g id="Grupo_27377" data-name="Grupo 27377" transform="translate(988.331 60.036)">
        <path id="Trazado_56821" data-name="Trazado 56821" d="M963.581,57.137a4.673,4.673,0,0,0-4.672,4.672V96.373h9.341V61.809a4.671,4.671,0,0,0-4.67-4.672Z" transform="translate(-958.909 -57.137)" fill="#fab991"/>
      </g>
      <g id="Grupo_27378" data-name="Grupo 27378" transform="translate(1017.291 54.432)">
        <path id="Trazado_56822" data-name="Trazado 56822" d="M1023.334,138.508H989.7a16.816,16.816,0,0,1-16.816-16.816V71.246A16.815,16.815,0,0,1,989.7,54.432h33.63a16.815,16.815,0,0,1,16.816,16.814v50.446A16.816,16.816,0,0,1,1023.334,138.508Z" transform="translate(-972.888 -54.432)" fill="#d7e6f0"/>
      </g>
      <g id="Grupo_27379" data-name="Grupo 27379" transform="translate(1050.921 54.432)">
        <path id="Trazado_56823" data-name="Trazado 56823" d="M1005.937,54.432H989.121v84.076h16.816a16.816,16.816,0,0,0,16.816-16.816V71.246A16.815,16.815,0,0,0,1005.937,54.432Z" transform="translate(-989.121 -54.432)" fill="#a5c3dc"/>
      </g>
      <g id="Grupo_27380" data-name="Grupo 27380" transform="translate(1025.698 62.839)">
        <path id="Trazado_56824" data-name="Trazado 56824" d="M1018.985,125.752h-33.63a8.408,8.408,0,0,1-8.409-8.409V66.9a8.408,8.408,0,0,1,8.409-8.407h33.63a8.407,8.407,0,0,1,8.407,8.407v50.446A8.408,8.408,0,0,1,1018.985,125.752Z" transform="translate(-976.946 -58.49)" fill="#e33e4e"/>
      </g>
      <g id="Grupo_27381" data-name="Grupo 27381" transform="translate(1034.107 138.508)">
        <path id="Trazado_56825" data-name="Trazado 56825" d="M983.806,106.225a2.8,2.8,0,0,1-2.8-2.8V95.015h5.6v8.407A2.8,2.8,0,0,1,983.806,106.225Z" transform="translate(-981.005 -95.015)" fill="#a5c3dc"/>
      </g>
      <g id="Grupo_27382" data-name="Grupo 27382" transform="translate(1062.131 138.508)">
        <path id="Trazado_56826" data-name="Trazado 56826" d="M997.335,106.225a2.8,2.8,0,0,1-2.8-2.8V95.015h5.606v8.407A2.8,2.8,0,0,1,997.335,106.225Z" transform="translate(-994.532 -95.015)" fill="#a5c3dc"/>
      </g>
      <g id="Grupo_27383" data-name="Grupo 27383" transform="translate(1048.118 62.839)">
        <path id="Trazado_56827" data-name="Trazado 56827" d="M987.768,125.752a5.606,5.606,0,0,0,5.606-5.606V64.1a5.6,5.6,0,0,0-5.606-5.606h19.619a8.407,8.407,0,0,1,8.407,8.407v50.446a8.408,8.408,0,0,1-8.407,8.409Z" transform="translate(-987.768 -58.49)" fill="#bf2e43"/>
      </g>
      <g id="Grupo_27384" data-name="Grupo 27384" transform="translate(1031.304 82.458)">
        <path id="Trazado_56828" data-name="Trazado 56828" d="M1013.282,95.984H985.256a5.6,5.6,0,0,1-5.6-5.6V73.564a5.6,5.6,0,0,1,5.6-5.6h28.026a5.606,5.606,0,0,1,5.606,5.6V90.38A5.605,5.605,0,0,1,1013.282,95.984Z" transform="translate(-979.652 -67.96)" fill="#d7e6f0"/>
      </g>
      <g id="Grupo_27385" data-name="Grupo 27385" transform="translate(1053.724 82.458)">
        <path id="Trazado_56829" data-name="Trazado 56829" d="M1001.684,95.984h-11.21V67.96h11.21a5.606,5.606,0,0,1,5.606,5.6V90.38A5.605,5.605,0,0,1,1001.684,95.984Z" transform="translate(-990.474 -67.96)" fill="#a5c3dc"/>
      </g>
    </g>
  </g>
</svg>
