<svg xmlns="http://www.w3.org/2000/svg" width="82.658" height="86.37" viewBox="0 0 82.658 86.37">
  <g id="Grupo_25805" data-name="Grupo 25805" transform="translate(160.297 -187.977)">
    <path id="Trazado_53939" data-name="Trazado 53939" d="M-82.939,253.275a41.129,41.129,0,0,0,5.3-20.258,41.329,41.329,0,0,0-41.329-41.329A41.329,41.329,0,0,0-160.3,233.017a41.126,41.126,0,0,0,5.3,20.258Z" fill="#f2f2f2"/>
    <path id="Trazado_53940" data-name="Trazado 53940" d="M-118.968,191.688a41.315,41.315,0,0,0-36.123,21.24v40.179a41.323,41.323,0,0,0,33.42,21.149V225.468a1.894,1.894,0,0,1,1.892-1.891h28.55v-21.2A41.177,41.177,0,0,0-118.968,191.688Z" fill="#f29b00"/>
    <path id="Trazado_53941" data-name="Trazado 53941" d="M-155.091,224.253v28.854a41.488,41.488,0,0,0,9.059,11.141V226.413A37.156,37.156,0,0,0-155.091,224.253Z" fill="#e58303"/>
    <path id="Trazado_53942" data-name="Trazado 53942" d="M-155.091,189.849v34.74a41.547,41.547,0,0,1,12.331,3.451c12.328,5.282,16.33,2.7,21.089-.595v-1.977a1.892,1.892,0,0,1,.689-1.459c.047-.038.1-.074.146-.108a1.873,1.873,0,0,1,1.057-.324h28.55V189.849a1.87,1.87,0,0,0-.226-.893,1.873,1.873,0,0,0-1.647-.979h-60.117c-.065,0-.129,0-.191.009A1.874,1.874,0,0,0-155.091,189.849Z" fill="#f4b500"/>
    <path id="Trazado_53943" data-name="Trazado 53943" d="M-146.538,187.977h-6.681c-.065,0-.129,0-.191.009a1.874,1.874,0,0,0-1.681,1.863v34.74a36.528,36.528,0,0,1,8.553,1.982Z" fill="#f29b00"/>
    <path id="Trazado_53944" data-name="Trazado 53944" d="M-127.1,240.645a1.351,1.351,0,0,1-1.351-1.351c0-1.626,2-3.266,6.468-3.266a1.351,1.351,0,0,1,1.351,1.351,1.351,1.351,0,0,1-1.351,1.351,7.175,7.175,0,0,0-3.786.8A1.353,1.353,0,0,1-127.1,240.645Zm1.351-1.351Z" fill="#b7dbf6"/>
    <path id="Trazado_53945" data-name="Trazado 53945" d="M-127.1,232.741a1.351,1.351,0,0,1-1.351-1.351c0-1.625,2-3.265,6.468-3.265a1.35,1.35,0,0,1,1.351,1.35,1.351,1.351,0,0,1-1.351,1.351,7.175,7.175,0,0,0-3.786.8A1.352,1.352,0,0,1-127.1,232.741Zm1.351-1.351h0Z" fill="#b7dbf6"/>
    <path id="Trazado_53946" data-name="Trazado 53946" d="M-127.1,248.547a1.35,1.35,0,0,1-1.351-1.35c0-1.625,2-3.266,6.468-3.266a1.351,1.351,0,0,1,1.351,1.351,1.351,1.351,0,0,1-1.351,1.351,7.189,7.189,0,0,0-3.786.8A1.352,1.352,0,0,1-127.1,248.547Zm1.351-1.35h0Z" fill="#b7dbf6"/>
    <path id="Trazado_53947" data-name="Trazado 53947" d="M-127.1,256.451a1.351,1.351,0,0,1-1.351-1.351c0-1.626,2-3.266,6.468-3.266a1.351,1.351,0,0,1,1.351,1.351,1.351,1.351,0,0,1-1.351,1.351,7.185,7.185,0,0,0-3.786.8A1.352,1.352,0,0,1-127.1,256.451Zm1.351-1.351h0Z" fill="#b7dbf6"/>
    <path id="Trazado_53948" data-name="Trazado 53948" d="M-127.1,264.354A1.351,1.351,0,0,1-128.452,263c0-1.625,2-3.265,6.468-3.265a1.351,1.351,0,0,1,1.351,1.351,1.35,1.35,0,0,1-1.351,1.35,7.185,7.185,0,0,0-3.786.8A1.352,1.352,0,0,1-127.1,264.354ZM-125.75,263h0Z" fill="#b7dbf6"/>
    <path id="Trazado_53949" data-name="Trazado 53949" d="M-127.1,272.257a1.351,1.351,0,0,1-1.351-1.351c0-1.625,2-3.265,6.468-3.265a1.35,1.35,0,0,1,1.351,1.35,1.351,1.351,0,0,1-1.351,1.351,7.185,7.185,0,0,0-3.786.8A1.352,1.352,0,0,1-127.1,272.257Zm1.351-1.351h0Z" fill="#b7dbf6"/>
    <path id="Trazado_53950" data-name="Trazado 53950" d="M-136.369,224.814a.652.652,0,0,0-1.223,0l-3.55,9.621v2.877h8.323v-2.877Z" fill="#fcecac"/>
    <path id="Trazado_53951" data-name="Trazado 53951" d="M-137.592,224.814l-3.55,9.621v2.877h4.162v-1.923c-2.615-1.639.611-10.575.611-10.575A.652.652,0,0,0-137.592,224.814Z" fill="#fce275"/>
    <path id="Trazado_53952" data-name="Trazado 53952" d="M-134.9,236.516a2.074,2.074,0,0,1-1.738-.94.411.411,0,0,0-.342-.187v29.358h4.161V234.436A2.081,2.081,0,0,1-134.9,236.516Z" fill="#6b6bd6"/>
    <path id="Trazado_53953" data-name="Trazado 53953" d="M-136.98,235.389a.408.408,0,0,0-.342.187,2.077,2.077,0,0,1-1.739.94,2.081,2.081,0,0,1-2.081-2.08v30.311h4.162Z" fill="#6161bc"/>
    <path id="Trazado_53954" data-name="Trazado 53954" d="M-134.9,257.253a2.08,2.08,0,0,1-2.08-2.08v9.574h4.161v-9.574A2.081,2.081,0,0,1-134.9,257.253Z" fill="#6161bc"/>
    <path id="Trazado_53955" data-name="Trazado 53955" d="M-139.061,257.253a2.081,2.081,0,0,1-2.081-2.08v9.574h4.162v-9.574A2.081,2.081,0,0,1-139.061,257.253Z" fill="#4c4c9b"/>
    <path id="Trazado_53956" data-name="Trazado 53956" d="M-132.854,264.747h-8.253a2.079,2.079,0,0,0-2.056,1.778,41.366,41.366,0,0,0,3.689,2.383h6.62a2.08,2.08,0,0,0,2.08-2.081A2.08,2.08,0,0,0-132.854,264.747Z" fill="#e8f3fc"/>
    <path id="Trazado_53957" data-name="Trazado 53957" d="M-138.847,266.827a2.08,2.08,0,0,1,2.08-2.08h-4.34a2.079,2.079,0,0,0-2.056,1.778,41.366,41.366,0,0,0,3.689,2.383h2.707A2.08,2.08,0,0,1-138.847,266.827Z" fill="#b7dbf6"/>
    <path id="Trazado_53958" data-name="Trazado 53958" d="M-132.854,268.908h-6.62a41.078,41.078,0,0,0,8.1,3.543,2.071,2.071,0,0,0,.6-1.462A2.08,2.08,0,0,0-132.854,268.908Z" fill="#b7dbf6"/>
    <path id="Trazado_53959" data-name="Trazado 53959" d="M-137.031,268.908h-2.443q1.114.638,2.273,1.205A.715.715,0,0,1-137.031,268.908Z" fill="#97cbef"/>
    <path id="Trazado_53960" data-name="Trazado 53960" d="M-136.98,229.5a6.369,6.369,0,0,0,2.194-.391l-1.584-4.291a.651.651,0,0,0-1.222,0l-1.583,4.291A6.366,6.366,0,0,0-136.98,229.5Z" fill="#1d3ba8"/>
    <path id="Trazado_53961" data-name="Trazado 53961" d="M-137.592,224.814l-1.583,4.291a6.417,6.417,0,0,0,1.526.355,36.031,36.031,0,0,1,1.28-4.646A.652.652,0,0,0-137.592,224.814Z" fill="#122894"/>
    <path id="Trazado_53962" data-name="Trazado 53962" d="M-82.844,225.468a2.168,2.168,0,0,0-2.162-2.161h-34.773a2.168,2.168,0,0,0-2.162,2.161v48.771c.982.07,1.973.108,2.973.108a41.317,41.317,0,0,0,36.124-21.24Z" fill="#bfdfe7"/>
    <path id="Trazado_53963" data-name="Trazado 53963" d="M-85.006,223.307h-28.022v15A41.539,41.539,0,0,1-100.7,241.76c9.524,4.08,14.079,3.464,17.853,1.455V225.468A2.168,2.168,0,0,0-85.006,223.307Z" fill="#d7eef4"/>
    <path id="Trazado_53964" data-name="Trazado 53964" d="M-121.941,225.468v48.771c.982.07,1.973.108,2.973.108a41.724,41.724,0,0,0,6.305-.478V223.307h-7.117A2.167,2.167,0,0,0-121.941,225.468Z" fill="#93cbd8"/>
    <g id="Grupo_25804" data-name="Grupo 25804">
      <path id="Trazado_53965" data-name="Trazado 53965" d="M-128.452,239.294a1.351,1.351,0,0,1,1.351-1.351,1.352,1.352,0,0,1,1.331,1.117,7.185,7.185,0,0,0,3.786.8,7.188,7.188,0,0,0,3.786-.8,1.351,1.351,0,0,1,1.331-1.117,1.351,1.351,0,0,1,1.351,1.351C-115.516,243.654-128.452,243.68-128.452,239.294Zm10.234,0v0Zm-7.532,0v0Z" fill="#e8f3fc"/>
      <path id="Trazado_53966" data-name="Trazado 53966" d="M-128.452,231.39a1.351,1.351,0,0,1,1.351-1.351,1.353,1.353,0,0,1,1.331,1.117,7.185,7.185,0,0,0,3.786.8,7.188,7.188,0,0,0,3.786-.8,1.352,1.352,0,0,1,1.331-1.117,1.351,1.351,0,0,1,1.351,1.351C-115.516,235.751-128.452,235.777-128.452,231.39Zm10.234,0Zm-7.532,0Z" fill="#e8f3fc"/>
      <path id="Trazado_53967" data-name="Trazado 53967" d="M-128.452,247.2a1.351,1.351,0,0,1,1.351-1.351,1.352,1.352,0,0,1,1.331,1.117,7.185,7.185,0,0,0,3.786.8,7.188,7.188,0,0,0,3.786-.8,1.351,1.351,0,0,1,1.331-1.117,1.351,1.351,0,0,1,1.351,1.351C-115.516,251.557-128.452,251.583-128.452,247.2Zm10.234,0h0Zm-7.532,0h0Z" fill="#e8f3fc"/>
      <path id="Trazado_53968" data-name="Trazado 53968" d="M-128.452,255.1a1.351,1.351,0,0,1,1.351-1.351,1.353,1.353,0,0,1,1.331,1.117,7.175,7.175,0,0,0,3.786.8,7.175,7.175,0,0,0,3.786-.8,1.352,1.352,0,0,1,1.331-1.117,1.351,1.351,0,0,1,1.351,1.351C-115.516,259.46-128.452,259.487-128.452,255.1Zm10.234,0h0Zm-7.532,0h0Z" fill="#e8f3fc"/>
      <path id="Trazado_53969" data-name="Trazado 53969" d="M-128.452,263a1.351,1.351,0,0,1,1.351-1.351,1.352,1.352,0,0,1,1.331,1.117,7.175,7.175,0,0,0,3.786.8,7.178,7.178,0,0,0,3.786-.8,1.351,1.351,0,0,1,1.331-1.117A1.351,1.351,0,0,1-115.516,263C-115.516,267.363-128.452,267.389-128.452,263Zm10.234,0h0Zm-7.532,0h0Z" fill="#e8f3fc"/>
      <path id="Trazado_53970" data-name="Trazado 53970" d="M-128.452,270.906a1.351,1.351,0,0,1,1.351-1.351,1.353,1.353,0,0,1,1.331,1.117,7.175,7.175,0,0,0,3.786.8,7.175,7.175,0,0,0,3.786-.8,1.352,1.352,0,0,1,1.331-1.117,1.351,1.351,0,0,1,1.351,1.351C-115.516,275.267-128.452,275.293-128.452,270.906Zm10.234,0Zm-7.532,0Z" fill="#e8f3fc"/>
      <path id="Trazado_53971" data-name="Trazado 53971" d="M-106.9,262.706h14.128a.741.741,0,0,1,.221.036V256.4a2.168,2.168,0,0,0-2.161-2.162h-10.248a2.168,2.168,0,0,0-2.161,2.162v6.346A.736.736,0,0,1-106.9,262.706Z" fill="#e8f3fc"/>
    </g>
    <path id="Trazado_53972" data-name="Trazado 53972" d="M-101.778,256.4a2.168,2.168,0,0,1,2.161-2.162h-5.342a2.168,2.168,0,0,0-2.161,2.162v6.346a.736.736,0,0,1,.221-.037h5.121Z" fill="#b7dbf6"/>
    <path id="Trazado_53973" data-name="Trazado 53973" d="M-92.771,262.706a.741.741,0,0,1,.221.036v-.036Z" fill="#b7dbf6"/>
    <path id="Trazado_53974" data-name="Trazado 53974" d="M-92.771,261.985H-106.9a.76.76,0,0,0-.761.762v10.034a41.242,41.242,0,0,0,15.65-8.437v-1.6A.76.76,0,0,0-92.771,261.985Z" fill="#e33e4e"/>
    <path id="Trazado_53975" data-name="Trazado 53975" d="M-121.812,203.225a4.48,4.48,0,0,1,2.632,2.23,4.021,4.021,0,0,0,.07-.741v-4.653c0-.07,0-.141-.006-.211h-2.715a1.226,1.226,0,0,1,.019.211Z" fill="#f29b00"/>
    <path id="Trazado_53976" data-name="Trazado 53976" d="M-124.509,203.225v-3.164a1.335,1.335,0,0,1,.018-.211h-2.714c0,.07-.006.141-.006.211v4.653a4.109,4.109,0,0,0,.069.741A4.487,4.487,0,0,1-124.509,203.225Z" fill="#f29b00"/>
    <path id="Trazado_53977" data-name="Trazado 53977" d="M-118.69,207.128a4.47,4.47,0,0,1-4.47,4.471,4.471,4.471,0,0,1-4.471-4.471,4.471,4.471,0,0,1,4.471-4.471A4.47,4.47,0,0,1-118.69,207.128Z" fill="#fce275"/>
    <path id="Trazado_53978" data-name="Trazado 53978" d="M-123.77,207.128a1.276,1.276,0,0,1-1.276,1.276,1.276,1.276,0,0,1-1.277-1.276,1.276,1.276,0,0,1,1.277-1.276A1.276,1.276,0,0,1-123.77,207.128Z" fill="#f4b500"/>
    <path id="Trazado_53979" data-name="Trazado 53979" d="M-120,207.128a1.275,1.275,0,0,1-1.275,1.276,1.277,1.277,0,0,1-1.277-1.276,1.276,1.276,0,0,1,1.277-1.276A1.275,1.275,0,0,1-120,207.128Z" fill="#f4b500"/>
    <path id="Trazado_53980" data-name="Trazado 53980" d="M-93.1,187.977h-60.117a1.872,1.872,0,0,0-1.872,1.872v2.6a7.766,7.766,0,0,0,7.766,7.766H-99a7.766,7.766,0,0,0,7.766-7.766v-2.6A1.873,1.873,0,0,0-93.1,187.977Z" fill="#f9ce00"/>
    <path id="Trazado_53981" data-name="Trazado 53981" d="M-146.707,195.433V189.5a2.017,2.017,0,0,1,.7-1.526h-7.21a1.872,1.872,0,0,0-1.872,1.872v2.6a7.766,7.766,0,0,0,7.766,7.766h3.655A5.275,5.275,0,0,1-146.707,195.433Z" fill="#f4b500"/>
    <path id="Trazado_53982" data-name="Trazado 53982" d="M-92.771,261.985H-106.9a.76.76,0,0,0-.761.762v4.286c2.936,1.094,4.146,1.823,7.392,2.85a41.363,41.363,0,0,0,8.258-5.539v-1.6A.76.76,0,0,0-92.771,261.985Z" fill="#e33e4e"/>
    <path id="Trazado_53983" data-name="Trazado 53983" d="M-102.393,262.747a.762.762,0,0,1,.762-.762H-106.9a.76.76,0,0,0-.761.762v10.034a41.215,41.215,0,0,0,5.267-1.893Z" fill="#c6394e"/>
  </g>
</svg>
