<svg xmlns="http://www.w3.org/2000/svg" xmlns:xlink="http://www.w3.org/1999/xlink" width="142.291" height="142.291" viewBox="0 0 142.291 142.291">
  <defs>
    <clipPath id="clip-path">
      <circle id="Elipse_1362" data-name="Elipse 1362" cx="71.145" cy="71.145" r="71.145" fill="none"/>
    </clipPath>
  </defs>
  <g id="Grupo_27370" data-name="Grupo 27370" transform="translate(-826.789 -57.988)">
    <g id="Grupo_27369" data-name="Grupo 27369" transform="translate(826.789 57.988)" clip-path="url(#clip-path)">
      <rect id="Rectángulo_5311" data-name="Rectángulo 5311" width="157.678" height="147.971" transform="translate(-9.406 -1.59)" fill="#ffdce1"/>
      <g id="flat" transform="translate(3.237 -7.331)">
        <path id="Trazado_56798" data-name="Trazado 56798" d="M937.1,111.288l-.232-.232a22.339,22.339,0,0,0-31.593,0l-.232.232h-22.9a6.876,6.876,0,0,0-6.66,8.56l-23.056-7.686a7,7,0,0,0-9.213,6.641v.151a7.017,7.017,0,0,0,3.241,5.942L886.2,150.19a20.04,20.04,0,0,0,15.857,2.472l35.036-9.222h11.449V111.29Z" transform="translate(-815.734 -10.172)" fill="#fab991"/>
        <path id="Trazado_56799" data-name="Trazado 56799" d="M879.241,121.638a6.878,6.878,0,0,1-6.662-5.179l-23.052-7.688a6.944,6.944,0,0,0-2.981-.32l30.4,17.077h25.189v-3.89Z" transform="translate(-812.834 -6.781)" fill="#e7985b"/>
        <path id="Trazado_56800" data-name="Trazado 56800" d="M863.235,91.152l-5.352.911a5.741,5.741,0,0,1-6.62-4.7,5.605,5.605,0,0,1-.08-1.045,5.737,5.737,0,0,1,4.776-5.575l7.449-1.268Z" transform="translate(-808.801 -31.959)" fill="#e7985b"/>
        <path id="Trazado_56801" data-name="Trazado 56801" d="M870.747,92.059l-8.863,1.507a5.07,5.07,0,0,1-2.572-9.766l14.325-5.171Z" transform="translate(-804.638 -32.696)" fill="#e7985b"/>
        <path id="Trazado_56802" data-name="Trazado 56802" d="M884.882,104.879l1.928-8.954,22.386,4.819,2.289-10.632a10.3,10.3,0,0,0-2.295-8.926l-8.478-9.76a10.305,10.305,0,0,0-7.976-3.546l-35.167.67L828.52,54.068V88.416l18.307,8.27,3.78,4.636a24.742,24.742,0,0,0,13.968,8.554,20.953,20.953,0,0,0,13.763-1.734Z" transform="translate(-828.52 -54.068)" fill="#fab991"/>
        <g id="Grupo_27367" data-name="Grupo 27367" transform="translate(58.892 26.135)">
          <path id="Trazado_56803" data-name="Trazado 56803" d="M876.407,83.738l-1.2,5.6a5.724,5.724,0,0,1-6.8,4.393h0a5.726,5.726,0,0,1-4.391-6.8h0l1.2-5.6Z" transform="translate(-856.642 -56.481)" fill="#f4a56d"/>
          <path id="Trazado_56804" data-name="Trazado 56804" d="M867.513,79.587a2.3,2.3,0,0,1-2.291-2.3,2.268,2.268,0,0,1,.051-.477l.963-4.477a2.29,2.29,0,0,1,4.477.965l-.963,4.475A2.291,2.291,0,0,1,867.513,79.587Z" transform="translate(-855.474 -65.879)" fill="#f4a56d"/>
          <path id="Trazado_56805" data-name="Trazado 56805" d="M866.408,83.029a2.29,2.29,0,0,1-2.13-1.449l-4.107-10.406a2.289,2.289,0,1,1,4.258-1.681h0l4.107,10.4a2.289,2.289,0,0,1-1.288,2.972A2.265,2.265,0,0,1,866.408,83.029Z" transform="translate(-860.01 -68.042)" fill="#f4a56d"/>
        </g>
        <path id="Trazado_56806" data-name="Trazado 56806" d="M902.139,123.583a1.946,1.946,0,0,1-1.947,1.945H886.373a36.011,36.011,0,0,1-17.638-4.616l-22.19-12.461a6.944,6.944,0,0,1,2.981.32l23.052,7.688a6.878,6.878,0,0,0,6.662,5.179h20.952a1.946,1.946,0,0,1,1.947,1.945Z" transform="translate(-812.834 -6.781)" fill="#f4a56d"/>
        <g id="Grupo_27368" data-name="Grupo 27368" transform="translate(59.154 46.116)">
          <path id="Trazado_53299" data-name="Trazado 53299" d="M888.612,90.769c-3.935-6.033-7.808-10.825-7.971-11.027a2.749,2.749,0,0,0-4.277.009c-.163.2-4.034,5.04-7.967,11.086-5.551,8.541-8.247,14.84-8.247,19.246a18.356,18.356,0,1,0,36.712,0C896.863,105.665,894.088,99.165,888.612,90.769Z" transform="translate(-860.15 -78.727)" fill="#e33e4e"/>
          <path id="Trazado_53300" data-name="Trazado 53300" d="M888.29,110.087A18.378,18.378,0,0,1,870,128.443V78.728a2.73,2.73,0,0,1,2.065,1.014c.163.2,4.036,4.992,7.973,11.027,5.472,8.393,8.249,14.9,8.249,19.323Z" transform="translate(-851.576 -78.726)" fill="#bf2e43"/>
          <path id="Trazado_53305" data-name="Trazado 53305" d="M877.843,96.176h-1.728V94.428a2.75,2.75,0,0,0-5.5-.019v1.767h-1.73a2.75,2.75,0,0,0,0,5.5h1.73v1.749a2.75,2.75,0,1,0,5.5.021v-1.769h1.728a2.749,2.749,0,1,0,.006-5.5Z" transform="translate(-854.941 -67.465)" fill="#e4edef"/>
          <path id="Trazado_53306" data-name="Trazado 53306" d="M877.23,98.916a2.75,2.75,0,0,1-2.751,2.749h-1.73v1.749A2.75,2.75,0,0,1,870,106.163V91.678a2.749,2.749,0,0,1,2.749,2.749v1.75h1.73A2.752,2.752,0,0,1,877.23,98.916Z" transform="translate(-851.579 -67.457)" fill="#bfdfe7"/>
        </g>
        <path id="Trazado_56807" data-name="Trazado 56807" d="M848.051,95.42a19.582,19.582,0,0,0,12.863-1.62l6.972-3.479,18.6,2.269a7.181,7.181,0,0,0,2.383-14.148h0l-17.6-3.791L853.351,70.8Z" transform="translate(-811.525 -39.511)" fill="#fab991"/>
      </g>
    </g>
  </g>
</svg>
