<svg xmlns="http://www.w3.org/2000/svg" width="31.594" height="36.269" viewBox="0 0 31.594 36.269">
  <g id="Grupo_27366" data-name="Grupo 27366" transform="translate(-1080.165 -223.037)">
    <path id="Trazado_56794" data-name="Trazado 56794" d="M1110.7,257.181h-1.2v-4.676a1.062,1.062,0,0,0-1.063-1.062h-2.337V228.7a1.063,1.063,0,0,0-1.063-1.063h-1.941a7.818,7.818,0,0,0-14.253,0h-1.941a1.063,1.063,0,0,0-1.062,1.063v22.739h-2.338a1.061,1.061,0,0,0-1.062,1.062v4.676h-1.2a1.063,1.063,0,0,0,0,2.125H1110.7a1.063,1.063,0,1,0,0-2.125Zm-22.739-27.415h1.592a1.063,1.063,0,0,0,1-.708,5.706,5.706,0,0,1,10.822,0,1.062,1.062,0,0,0,1,.708h1.591v21.677h-16.009Zm-3.4,27.415v-3.613h22.81v3.613Z" fill="#111e61"/>
    <path id="Trazado_56795" data-name="Trazado 56795" d="M1093.695,233.167h1.2v2.9a1.063,1.063,0,0,0,2.125,0v-2.9h1.2a1.063,1.063,0,0,0,0-2.126h-1.2v-1.2a1.063,1.063,0,0,0-2.125,0v1.2h-1.2a1.063,1.063,0,0,0,0,2.126Z" fill="#111e61"/>
    <path id="Trazado_56796" data-name="Trazado 56796" d="M1100.495,240.109h-9.067a1.063,1.063,0,1,0,0,2.125h9.067a1.063,1.063,0,1,0,0-2.125Z" fill="#111e61"/>
    <path id="Trazado_56797" data-name="Trazado 56797" d="M1100.495,245.776h-9.067a1.063,1.063,0,1,0,0,2.125h9.067a1.063,1.063,0,1,0,0-2.125Z" fill="#111e61"/>
  </g>
</svg>
