<svg xmlns="http://www.w3.org/2000/svg" width="36.691" height="36.591" viewBox="0 0 36.691 36.591">
  <g id="Grupo_27351" data-name="Grupo 27351" transform="translate(-997.016 -222.715)">
    <path id="Trazado_56781" data-name="Trazado 56781" d="M1031.3,252.205c0-.276.029-1.863.029-1.863a3.644,3.644,0,0,0-3.64-3.64h-2.59v-6.8a9.364,9.364,0,0,0-2.112-6.036,6.9,6.9,0,0,0-5.314-2.6h-4.587a6.907,6.907,0,0,0-5.314,2.6,9.364,9.364,0,0,0-2.112,6.036v6.8h-2.618a3.644,3.644,0,0,0-3.64,3.64s.006,1.638.006,1.872a3.718,3.718,0,0,0-2.388,3.552v2.465a1.075,1.075,0,0,0,1.075,1.075h34.541a1.075,1.075,0,0,0,1.075-1.075v-2.465A3.75,3.75,0,0,0,1031.3,252.205Zm-23.49-12.3c0-3.575,2.367-6.484,5.276-6.484h4.587c2.909,0,5.276,2.909,5.276,6.484v6.8h-3.918v-4.61c0-2.72-1.844-4.143-3.666-4.143s-3.665,1.423-3.665,4.143v4.61h-3.89v-6.8Zm6.039,6.8v-4.61c0-1.377.762-1.993,1.516-1.993s1.516.616,1.516,1.993v4.61Zm-12.3,3.64a1.491,1.491,0,0,1,1.49-1.49h24.647a1.491,1.491,0,0,1,1.49,1.49v1.148a.44.44,0,0,1-.439.439h-26.749a.44.44,0,0,1-.439-.439Zm2.53,3.737h2.15v3.077h-2.15Zm4.3,0h13.191v3.077h-13.191Zm15.34,0h2.15v3.077h-2.15Zm-24.553,1.687a1.69,1.69,0,0,1,1.688-1.687h1.075v3.077h-2.763Zm32.392,1.39h-3.539v-3.077h1.852a1.689,1.689,0,0,1,1.687,1.687Z" fill="#111e61"/>
    <path id="Trazado_56782" data-name="Trazado 56782" d="M1015.361,227.644a1.075,1.075,0,0,0,1.075-1.075V223.79a1.075,1.075,0,1,0-2.15,0v2.779A1.076,1.076,0,0,0,1015.361,227.644Z" fill="#111e61"/>
    <path id="Trazado_56783" data-name="Trazado 56783" d="M1006.267,229.789a1.076,1.076,0,0,0,1.521-1.521l-1.965-1.964a1.075,1.075,0,0,0-1.52,1.52Z" fill="#111e61"/>
    <path id="Trazado_56784" data-name="Trazado 56784" d="M1024.412,230.1a1.071,1.071,0,0,0,.76-.315l1.965-1.964a1.075,1.075,0,0,0-1.521-1.52l-1.964,1.964a1.082,1.082,0,0,0,.76,1.835Z" fill="#111e61"/>
    <path id="Trazado_56785" data-name="Trazado 56785" d="M1000.24,235.3h2.779a1.075,1.075,0,1,0,0-2.15h-2.779a1.075,1.075,0,1,0,0,2.15Z" fill="#111e61"/>
    <path id="Trazado_56786" data-name="Trazado 56786" d="M1026.629,234.223a1.075,1.075,0,0,0,1.075,1.075h2.778a1.075,1.075,0,0,0,0-2.15H1027.7A1.075,1.075,0,0,0,1026.629,234.223Z" fill="#111e61"/>
  </g>
</svg>
