<svg xmlns="http://www.w3.org/2000/svg" width="95.181" height="98.593" viewBox="0 0 95.181 98.593">
  <g id="Grupo_25841" data-name="Grupo 25841" transform="translate(-650 -6976.128)">
    <circle id="Elipse_1362" data-name="Elipse 1362" cx="47.59" cy="47.59" r="47.59" transform="translate(650 6979.54)" fill="#aacce9"/>
    <g id="Grupo_25836" data-name="Grupo 25836" transform="translate(663.496 6976.128)">
      <path id="Trazado_54039" data-name="Trazado 54039" d="M312.252,436.555a34.135,34.135,0,0,0,34.094,34.1l1.723-43.778L346.346,383.1C335.3,394.458,312.252,420.633,312.252,436.555Z" transform="translate(-312.252 -383.096)" fill="#e33e4e"/>
      <path id="Trazado_54040" data-name="Trazado 54040" d="M369.484,436.555c0-15.9-22.98-42.025-34.1-53.459v87.555a34.135,34.135,0,0,0,34.1-34.1Z" transform="translate(-301.294 -383.096)" fill="#bf2e43"/>
      <path id="Trazado_54041" data-name="Trazado 54041" d="M339.586,409.21H329.254v25.827h10.332a7.757,7.757,0,0,0,5.768-12.914,7.747,7.747,0,0,0-5.768-12.914ZM337,429.872h-2.583v-5.165h5.167a2.584,2.584,0,0,1,1.824,4.408C340.249,430.277,338.924,429.731,337,429.872Zm-2.583-10.332v-5.165h5.167a2.585,2.585,0,0,1,1.824,4.409C340.158,420.035,338.7,419.35,334.419,419.54Z" transform="translate(-304.199 -370.727)" fill="#fff5f5"/>
    </g>
  </g>
</svg>
