<svg xmlns="http://www.w3.org/2000/svg" width="95.181" height="98.593" viewBox="0 0 95.181 98.593">
  <g id="Grupo_25840" data-name="Grupo 25840" transform="translate(-767.309 -6976.128)">
    <circle id="Elipse_1362" data-name="Elipse 1362" cx="47.59" cy="47.59" r="47.59" transform="translate(767.309 6979.54)" fill="#aacce9"/>
    <g id="Grupo_25834" data-name="Grupo 25834" transform="translate(780.804 6976.128)">
      <path id="Trazado_54034" data-name="Trazado 54034" d="M391.856,436.555a34.135,34.135,0,0,0,34.1,34.1l1.721-43.778L425.952,383.1C414.905,394.458,391.856,420.633,391.856,436.555Z" transform="translate(-391.856 -383.096)" fill="#e33e4e"/>
      <path id="Trazado_54035" data-name="Trazado 54035" d="M449.087,436.555c0-15.9-22.98-42.025-34.094-53.459v87.555a34.134,34.134,0,0,0,34.094-34.1Z" transform="translate(-380.897 -383.096)" fill="#bf2e43"/>
    </g>
    <g id="Grupo_25837" data-name="Grupo 25837" transform="translate(804.522 7014.458)">
      <path id="Trazado_54042" data-name="Trazado 54042" d="M428.7,422.325a19.885,19.885,0,0,1-.818,6.055,11.728,11.728,0,0,1-2.25,4.182,8.891,8.891,0,0,1-3.353,2.427,10.73,10.73,0,0,1-4.113.788q-5.091,0-7.656-3.382t-2.564-9.835a19.854,19.854,0,0,1,.819-6.057,11.731,11.731,0,0,1,2.249-4.182,8.9,8.9,0,0,1,3.354-2.426,10.727,10.727,0,0,1,4.113-.79q5.089,0,7.654,3.375T428.7,422.325Zm-5.128.236q0-4.576-1.223-6.826a4.229,4.229,0,0,0-4.025-2.249,4.622,4.622,0,0,0-2.387.582,4.525,4.525,0,0,0-1.628,1.706,8.661,8.661,0,0,0-.936,2.772,21.521,21.521,0,0,0-.3,3.778q0,4.576,1.232,6.824a4.232,4.232,0,0,0,4.016,2.25,4.677,4.677,0,0,0,2.4-.582,4.448,4.448,0,0,0,1.628-1.706,8.884,8.884,0,0,0,.927-2.772A21.521,21.521,0,0,0,423.576,422.56Z" transform="translate(-407.951 -409.106)" fill="#fff5f5"/>
    </g>
  </g>
</svg>
